<?xml version="1.0" encoding="UTF-8"?>
<!DOCTYPE svg PUBLIC "-//W3C//DTD SVG 1.1//EN" "http://www.w3.org/Graphics/SVG/1.1/DTD/svg11.dtd">
<!-- Creator: CorelDRAW X8 -->
<svg xmlns="http://www.w3.org/2000/svg" xml:space="preserve" width="521px" height="479px" version="1.1" style="shape-rendering:geometricPrecision; text-rendering:geometricPrecision; image-rendering:optimizeQuality; fill-rule:evenodd; clip-rule:evenodd"
viewBox="0 0 521 479"
 xmlns:xlink="http://www.w3.org/1999/xlink">
 <defs>
  <style type="text/css">
   <![CDATA[
    .fil8 {fill:#336699}
    .fil2 {fill:white}
    .fil4 {fill:black;fill-rule:nonzero}
    .fil3 {fill:black;fill-rule:nonzero}
    .fil10 {fill:#000066;fill-rule:nonzero}
    .fil0 {fill:#00CCFF;fill-rule:nonzero}
    .fil7 {fill:#00CCFF;fill-rule:nonzero}
    .fil6 {fill:#1C2937;fill-rule:nonzero}
    .fil1 {fill:#336699;fill-rule:nonzero}
    .fil5 {fill:white;fill-rule:nonzero}
    .fil9 {fill:white;fill-rule:nonzero}
   ]]>
  </style>
 </defs>
 <g id="Camada_x0020_1">
  <metadata id="CorelCorpID_0Corel-Layer"/>
  <g id="_2272559702176">
   <path class="fil0" d="M78 363c-6,-10 -13,-23 -19,-38 0,-1 -1,-3 -2,-5 0,-1 0,-2 -1,-2l-9 0c1,3 3,7 5,11 7,15 15,27 22,36 7,10 14,16 18,21 5,4 7,6 7,6 0,0 -2,-2 -6,-7 -4,-5 -9,-12 -15,-22z"/>
   <path class="fil0" d="M55 178c3,-11 8,-22 13,-32 5,-11 12,-21 19,-31 8,-10 16,-20 25,-28 18,-18 39,-32 63,-42 11,-5 24,-9 36,-12l5 -1c1,0 3,-1 4,-1 3,0 6,-1 10,-1 3,-1 6,-1 9,-2 3,0 6,0 9,0 3,0 7,-1 10,-1 2,0 3,0 5,0l4 0c3,0 6,1 9,1 2,0 3,0 5,0l5 1c12,1 24,4 35,7 12,3 23,8 33,13 11,5 20,10 30,17 18,12 33,27 46,42 6,7 11,15 16,23 5,7 9,15 12,22 5,9 8,17 11,25l6 0c-2,-9 -5,-18 -9,-29 -6,-15 -14,-32 -26,-49 -6,-8 -13,-17 -21,-25 -8,-8 -16,-15 -26,-23 -19,-14 -41,-26 -66,-35 -12,-4 -26,-7 -39,-8l-5 -1c-2,0 -3,0 -5,-1 -3,0 -7,0 -10,0l-5 -1c-2,0 -4,0 -6,0 -3,0 -6,0 -9,0 -4,1 -8,1 -11,1 -4,0 -7,1 -10,1 -4,1 -7,1 -11,2 -1,0 -3,0 -5,1l-5 1c-14,3 -27,7 -40,13 -26,11 -49,27 -69,47 -10,9 -19,20 -26,31 -8,11 -15,22 -20,34 -6,12 -10,24 -14,36 0,2 -1,4 -1,5l19 0z"/>
   <path class="fil0" d="M442 318c0,0 0,0 0,0 -3,8 -6,15 -10,22 -1,3 -3,6 -5,9 -2,3 -4,6 -5,9 -2,2 -4,5 -6,7 -1,3 -3,5 -5,7 -1,2 -3,4 -4,6 -2,2 -3,4 -4,5 -3,3 -5,5 -6,7 -2,1 -2,2 -2,2 0,0 1,0 2,-2 2,-1 5,-3 8,-5 1,-1 3,-3 4,-4 2,-2 4,-4 6,-5 2,-2 4,-4 6,-7 2,-2 4,-4 7,-7 2,-3 4,-5 6,-8 2,-3 4,-6 7,-10 4,-6 8,-13 11,-21 1,-2 2,-4 3,-5l-13 0z"/>
   <path class="fil0" d="M455 174c-2,-7 -5,-12 -8,-17 -1,-2 -2,-4 -4,-6 -1,-2 -2,-4 -3,-6 -1,-1 -1,-1 -2,-2 0,-1 -1,-2 -1,-2 -1,-1 -2,-2 -2,-3 -2,-2 -2,-3 -2,-3 0,0 0,1 1,3 1,2 2,5 4,8 0,2 1,4 2,6 1,2 2,5 3,7 2,5 4,11 5,17 1,1 1,2 1,2l8 0c0,-1 -1,-3 -2,-4z"/>
   <polygon class="fil1" points="80,182 69,182 0,182 23,248 0,314 69,314 213,314 333,314 433,314 521,314 521,313 499,248 521,182 521,182 433,182 388,182 "/>
   <g>
    <path class="fil2" d="M373 278l10 0c1,0 2,0 3,1 0,1 0,2 0,3 -23,53 -75,88 -134,88 -58,0 -110,-35 -133,-88 -1,-1 0,-2 0,-3 1,-1 2,-1 3,-1l10 0c1,0 2,1 2,2 22,45 68,75 118,75 51,0 97,-30 118,-75 1,-1 2,-2 3,-2z"/>
   </g>
   <path class="fil3" d="M373 281c-21,45 -67,77 -121,77 -53,0 -99,-32 -120,-77l-10 0c21,51 72,86 130,86 59,0 109,-35 131,-86l-10 0z"/>
   <path class="fil3" d="M252 92c27,0 52,8 73,22l15 0c-24,-20 -54,-31 -88,-31 -33,0 -64,11 -88,31l16 0c21,-14 46,-22 72,-22z"/>
   <g>
    <path class="fil2" d="M252 95c72,0 131,58 131,130 0,72 -59,131 -131,131 -72,0 -130,-59 -130,-131 0,-72 58,-130 130,-130z"/>
   </g>
   <path class="fil4" d="M252 98c-70,0 -127,57 -127,127 0,70 57,128 127,128 71,0 128,-58 128,-128 0,-70 -57,-127 -128,-127z"/>
   <path class="fil5" d="M252 110c24,0 47,8 66,19 -19,-14 -41,-22 -66,-22 -24,0 -47,8 -65,22 19,-11 41,-19 65,-19z"/>
   <g>
    <path class="fil2" d="M329 294c-9,-1 -14,-12 -16,-20 -4,-12 -5,-25 -6,-37 0,-2 1,-5 2,-7 1,0 2,-1 3,-1 -3,-1 -6,-1 -9,-1 -16,0 -33,0 -50,0 -20,0 -40,0 -60,0 1,1 2,1 2,2 2,2 3,5 3,7 -1,12 -3,25 -6,37 -3,8 -7,19 -17,20 -2,2 -4,3 -7,3l-18 0c-10,0 -16,-10 -19,-18l-8 0c-11,0 -17,-13 -20,-23l-3 0c-10,0 -14,-11 -15,-19 -1,-3 -2,-6 -2,-9l-1 0c-11,0 -11,-13 -11,-21 0,-8 0,-22 11,-22l1 0c0,-3 1,-6 2,-9 1,-8 5,-19 15,-19l3 0c3,-9 9,-22 20,-22l8 0c3,-9 9,-19 19,-19l32 0c3,0 5,1 7,3 2,1 4,1 5,3 3,3 1,8 0,12 -1,3 -2,7 -1,10 3,13 5,27 5,41l108 0c1,-14 3,-28 6,-41 0,-3 -1,-7 -1,-10 -1,-4 -2,-9 0,-12 2,-2 3,-2 5,-3 2,-2 5,-3 8,-3l31 0c10,0 16,10 19,19l8 0c11,0 17,13 19,22l3 0c11,0 14,11 16,19 1,3 1,6 2,9l0 0c11,0 12,14 12,22 0,8 -1,21 -12,21l0 0c-1,3 -1,6 -2,9 -2,8 -5,19 -16,19l-3 0c-2,10 -8,23 -19,23l-8 0c-3,8 -9,18 -19,18l-19 0c-2,0 -5,-1 -7,-3z"/>
   </g>
   <path class="fil4" d="M336 294c-2,0 -4,-1 -5,-3 0,0 0,0 0,0 -9,0 -13,-10 -15,-18 -3,-9 -5,-21 -6,-36 0,-2 0,-3 2,-5 1,-1 3,-2 5,-2l7 0c1,0 1,0 2,0 0,-1 0,-3 0,-5 0,0 -147,0 -147,0 0,0 0,0 -1,0 0,2 1,4 1,5 0,0 1,0 2,0l7 0c2,0 4,1 5,2 1,2 2,3 2,5 -1,15 -3,27 -6,36 -2,8 -6,18 -15,18 0,0 0,0 0,0 -1,2 -4,3 -6,3l-18 0c-7,0 -13,-6 -17,-19 -1,0 -1,1 -1,1l-9 0c-8,0 -14,-8 -17,-23l-6 0c-8,0 -11,-9 -13,-17 0,-3 -1,-7 -1,-11l-4 0c-7,0 -8,-9 -8,-18 0,-10 1,-19 8,-19l4 0c0,-4 1,-8 1,-11 2,-7 5,-17 13,-17l6 0c3,-15 9,-22 17,-22l9 0c0,0 0,0 1,0 4,-12 10,-19 17,-19l32 0c2,0 4,1 6,3 0,0 0,0 0,0 2,0 3,1 4,2 1,2 0,5 -1,9 -1,4 -2,8 -1,11 3,12 5,27 6,44l113 0c1,-17 3,-32 6,-44 0,-3 0,-7 -1,-11 -1,-4 -2,-7 0,-9 0,-1 2,-2 4,-2 0,0 0,0 0,0 1,-2 3,-3 6,-3l31 0c7,0 12,7 17,19 0,0 1,0 1,0l9 0c7,0 13,7 17,22l5 0c9,0 12,10 13,17 1,3 2,7 2,11l3 0c8,0 9,9 9,19 0,9 -1,18 -9,18l-3 0c0,4 -1,8 -2,11 -1,8 -4,17 -13,17l-5 0c-4,15 -10,23 -17,23l-9 0c0,0 -1,-1 -1,-1 -5,13 -10,19 -17,19l-19 0z"/>
   <path class="fil5" d="M252 339c-35,0 -67,-14 -89,-37 21,25 53,41 89,41 36,0 68,-16 90,-41 -23,23 -54,37 -90,37z"/>
   <path class="fil5" d="M152 207c0,-46 7,-83 16,-83l-18 0c-11,0 -19,37 -19,83 0,45 8,82 19,82l18 0c-9,0 -16,-37 -16,-82zm26 -1c0,8 1,13 1,13l147 0c0,0 2,-5 2,-13 0,-7 -2,-12 -2,-12l-147 0c0,0 -1,5 -1,12zm-1 48c-3,0 -6,-27 -6,-47 0,-21 3,-37 6,-37 2,0 4,7 5,19l7 0c-2,-36 -8,-62 -15,-62 -8,0 -15,36 -15,80 0,44 7,79 15,79 6,0 12,-20 14,-49l-7 0c-1,9 -3,17 -4,17zm-77 -88c-5,0 -9,18 -9,41 0,22 4,41 9,41l6 0c-2,-11 -4,-26 -4,-41 0,-16 2,-30 4,-41l-6 0zm24 41c0,-4 0,-8 0,-12 1,-21 4,-39 8,-52l-9 0c-9,0 -16,29 -16,64 0,35 7,63 16,63l9 0c-4,-12 -7,-31 -8,-52 0,-4 0,-7 0,-11zm-42 -13c-1,0 -2,6 -2,13 0,7 1,12 2,12l5 0c0,-4 0,-8 0,-12 0,-5 0,-9 0,-13l-5 0zm322 -28l-5 0c2,11 3,25 3,41 0,15 -1,30 -3,41l5 0c5,0 9,-19 9,-41 0,-23 -4,-41 -9,-41zm18 28l-5 0c0,4 1,8 1,13 0,4 -1,8 -1,12l5 0c1,0 2,-5 2,-12 0,-7 -1,-13 -2,-13zm-67 -70l-19 0c10,0 17,37 17,83 0,45 -7,82 -17,82l19 0c10,0 19,-37 19,-82 0,-46 -9,-83 -19,-83zm27 19l-9 0c4,13 7,31 7,52 1,4 1,8 1,12 0,4 0,7 -1,11 0,21 -3,40 -7,52l9 0c8,0 15,-28 15,-63 0,-35 -7,-64 -15,-64zm-51 -16c-8,0 -14,26 -15,62l7 0c1,-12 3,-19 5,-19 2,0 6,16 6,37 0,20 -4,47 -6,47 -2,0 -3,-8 -4,-17l-7 0c2,29 7,49 14,49 8,0 15,-35 15,-79 0,-44 -7,-80 -15,-80z"/>
   <polygon class="fil4" points="176,214 330,214 330,208 176,208 "/>
   <polygon class="fil4" points="348,263 371,263 371,258 348,258 "/>
   <polygon class="fil4" points="374,251 395,251 395,246 374,246 "/>
   <polygon class="fil4" points="397,239 413,239 413,234 397,234 "/>
   <path class="fil4" d="M363 263c4,0 5,3 4,7l3 -8 -7 1z"/>
   <path class="fil4" d="M388 251c3,0 4,2 3,6l3 -7 -6 1z"/>
   <path class="fil4" d="M406 239c2,0 3,2 2,5l3 -6 -5 1z"/>
   <polygon class="fil4" points="134,263 157,263 157,258 134,258 "/>
   <polygon class="fil4" points="110,251 131,251 131,246 110,246 "/>
   <polygon class="fil4" points="91,239 107,239 107,234 91,234 "/>
   <path class="fil4" d="M142 263c-4,0 -6,3 -4,7l-4 -8 8 1z"/>
   <path class="fil4" d="M117 251c-3,0 -5,2 -4,6l-3 -7 7 1z"/>
   <path class="fil4" d="M99 239c-2,0 -3,2 -3,5l-2 -6 5 1z"/>
   <path class="fil4" d="M263 202c-3,0 -5,-1 -7,-1 -3,-1 -5,-3 -6,-5 -1,2 -3,4 -5,4 -2,1 -4,1 -6,1l0 0c-2,0 -4,0 -6,-1 -2,0 -4,-2 -5,-4 -1,2 -3,3 -4,3 -2,1 -5,1 -7,1 -1,0 -2,0 -3,0 -3,-1 -7,-3 -8,-10 -1,-7 -3,-18 -3,-18l0 0c0,-6 4,-11 10,-13 1,0 3,0 5,0 2,0 3,0 5,1 1,0 2,1 2,1 2,-3 5,-6 10,-7 1,0 2,0 4,0 3,0 5,0 7,1 1,1 2,1 2,2 2,-4 7,-7 10,-8 2,0 3,0 4,0 4,0 6,1 8,2 2,1 4,3 5,5 2,-1 5,-3 8,-3 1,0 2,0 3,0 2,0 5,0 8,2 4,2 6,7 6,11 0,1 0,15 -2,24 0,5 -4,10 -8,11 -1,0 -2,0 -4,0 -2,0 -5,0 -7,-1 -3,-1 -4,-2 -5,-4 -2,3 -4,4 -6,5 -2,0 -3,1 -5,1l0 0z"/>
   <path class="fil5" d="M267 155c-2,-1 -6,-1 -8,0 -2,0 -6,3 -6,8 0,0 0,15 1,25 0,4 1,6 3,7 3,1 7,1 9,0 3,0 4,-3 4,-7 1,-9 2,-25 2,-25 0,-3 -3,-7 -5,-8zm-24 5c-1,-1 -6,0 -7,0 -3,0 -6,2 -6,7 0,0 0,13 1,22 1,3 1,5 4,6 2,0 6,0 8,0 2,-1 4,-4 4,-6 0,-9 0,-23 0,-23 0,-2 -1,-5 -4,-6zm47 -2c-2,-1 -6,-2 -8,-2 -2,1 -5,5 -5,9 0,0 0,14 0,23 0,3 1,6 3,6 2,1 6,2 8,1 3,-1 4,-3 5,-6 1,-9 2,-23 2,-23 0,-3 -3,-6 -5,-8zm-69 6c-2,0 -5,1 -7,1 -2,1 -5,2 -5,6 0,0 1,11 2,18 1,3 1,5 4,5 1,0 5,0 7,0 2,-1 3,-3 3,-6 0,-7 0,-18 0,-18 -1,-2 -2,-5 -4,-6z"/>
   <path class="fil4" d="M270 263c-6,0 -12,-1 -18,-1 -2,0 -3,0 -5,-1 -2,0 -4,1 -6,1 -4,0 -7,0 -9,0 -9,0 -18,-1 -24,-8l0 0 0 -1c-8,-14 -6,-27 -6,-28l0 -5 49 0 0 3c3,-2 7,-3 12,-3l13 0c0,-1 1,-2 1,-3 2,-2 3,-4 4,-6 -4,-1 -6,-2 -8,-4 -6,-7 -6,-17 -6,-18l0 -5 6 0c0,0 19,-1 29,-1 6,0 7,0 9,1 0,0 6,5 6,11 0,0 0,2 0,4 1,13 1,22 1,24 -1,2 -1,4 -22,32 -6,7 -17,8 -26,8 0,0 0,0 0,0z"/>
   <path class="fil5" d="M312 195c0,-2 -3,-5 -4,-6 -2,-1 -35,0 -35,0 0,0 0,9 4,14 5,5 27,2 27,2 0,0 -3,5 -14,6 0,0 -3,1 -8,12 -1,2 6,11 6,13 0,0 -9,-8 -13,-9 -3,0 -11,0 -11,0 -17,1 -19,17 -19,17 0,0 -2,-8 -5,-12 -6,-7 -38,-2 -38,-2 0,0 0,15 6,24 2,3 8,6 12,6 6,1 16,-1 28,-3 17,1 36,6 43,-2 0,0 21,-30 21,-33 0,-2 0,-26 0,-27z"/>
   <path class="fil5" d="M276 278c0,-2 -1,-8 -1,-8 0,0 -8,0 -16,-2 -1,8 -5,45 -5,45 0,0 -1,-38 -4,-49 0,0 -3,0 -3,1 -2,5 -3,19 -3,19 0,0 -4,-14 -5,-17 -12,2 -16,2 -16,2 0,0 -2,9 -2,11 -1,2 0,15 0,15l-6 42c12,4 25,6 37,6 11,0 21,-2 31,-4l-7 -48c0,0 1,-10 0,-13z"/>
   <path class="fil6" d="M209 243c0,0 1,10 12,12 5,1 13,0 23,-2 0,0 -27,2 -35,-10z"/>
   <path class="fil7" d="M202 328c0,0 15,7 32,9 0,0 -18,-2 -16,-16l-16 7z"/>
   <path class="fil7" d="M302 328c0,0 -14,7 -31,9 0,0 12,-1 9,-15l22 6z"/>
   <path class="fil6" d="M270 255c0,0 15,3 20,-6 0,0 -13,7 -20,6z"/>
   <polygon class="fil4" points="250,264 251,323 253,276 "/>
   <path class="fil6" d="M214 245c0,0 8,6 16,6 0,0 -13,4 -16,-6z"/>
   <path class="fil6" d="M277 196c0,0 3,6 5,7 0,0 7,1 15,0 0,0 -16,0 -20,-7z"/>
   <g>
    <path class="fil8" d="M207 381c0,-1 1,-1 1,-2 2,-3 4,-5 7,-6 2,-1 4,-2 7,-2 3,0 6,1 8,3 3,2 5,4 6,8 0,0 0,0 0,0 2,4 3,8 5,12 2,3 3,6 5,8 1,1 1,2 2,4 1,-1 1,-1 1,-1 1,-2 3,-3 4,-5 1,-3 2,-5 3,-8 2,-4 3,-8 5,-12 0,0 0,0 0,0 1,-3 3,-5 6,-7 2,-1 5,-2 8,-2 2,0 5,1 7,2 0,0 0,0 0,0 3,1 5,3 7,6 1,2 2,5 2,8 0,2 0,3 -1,5 -1,6 -4,11 -7,16 -2,5 -5,10 -9,14 -2,3 -5,6 -8,9 0,0 -1,1 -2,1l0 30c0,5 -1,9 -4,12 -3,3 -7,5 -11,5 0,0 0,0 0,0 -5,0 -9,-2 -12,-5 -3,-3 -5,-7 -5,-12l0 -30c0,0 -1,0 -1,-1 -3,-3 -6,-6 -9,-9 -3,-4 -6,-9 -9,-14 -3,-4 -5,-9 -6,-14 -1,2 -2,3 -3,4 0,0 -1,1 -1,1 1,1 3,2 4,3 2,2 3,3 3,5 0,2 0,3 0,5l0 54c0,2 0,4 -1,6 -1,2 -3,4 -5,5 -2,2 -5,2 -8,2 -1,0 -1,0 -1,0 0,0 -1,0 -2,0 0,0 -1,0 -2,0l-10 0c-9,0 -18,-1 -27,-4 -8,-3 -15,-7 -21,-13 -7,-6 -12,-12 -15,-20 -4,-8 -5,-16 -5,-25 0,0 0,0 0,0 0,-6 1,-11 3,-17 1,-5 4,-10 8,-14 4,-5 9,-8 15,-10 7,-3 14,-4 21,-4l31 0c7,0 13,3 16,9zm-26 67l0 -19 -14 0c-4,0 -7,-2 -10,-5 -3,-3 -5,-6 -5,-10 0,-4 2,-8 5,-11 -3,1 -6,2 -7,3 -3,3 -4,9 -4,13 0,5 1,9 4,14 2,3 6,6 10,9 3,2 8,4 12,5 3,1 6,1 9,1zm176 -20c-2,2 -4,4 -6,6 -3,4 -8,7 -13,7 -6,0 -12,-4 -16,-9 -1,-2 -2,-3 -2,-4 -1,1 -1,2 -1,3 0,8 0,16 0,24 0,3 0,6 0,9 0,0 0,0 0,0 0,5 -2,9 -6,12 -3,2 -7,3 -11,3 -4,0 -8,-2 -11,-5 -3,-4 -4,-8 -4,-12 0,0 0,0 0,0 1,-16 1,-32 3,-48 1,-10 2,-21 5,-30 2,-7 8,-11 15,-12 1,0 2,0 3,0 4,0 7,1 10,2 3,2 5,5 7,8 1,4 3,9 6,13 1,2 1,3 2,5 1,-1 2,-2 2,-4 2,-4 4,-8 6,-12 0,0 0,0 0,0 1,-4 4,-7 7,-9 4,-2 7,-3 11,-3 2,0 4,0 5,1 3,0 5,1 7,2 2,1 3,3 5,6 2,5 3,11 4,16 1,7 2,15 2,22 1,8 1,16 2,24 0,7 0,14 0,21 0,4 -1,9 -5,12 -3,2 -7,3 -11,3 0,0 0,0 0,0 -4,0 -7,-1 -10,-3 -4,-3 -6,-7 -6,-11 0,0 0,0 0,0 0,-5 0,-9 0,-14 0,-7 0,-14 0,-21 0,-1 0,-2 0,-2z"/>
   </g>
   <path class="fil9" d="M181 472c-9,0 -17,-1 -24,-4 -8,-3 -14,-6 -20,-11 -5,-5 -10,-11 -13,-18 -3,-7 -4,-14 -4,-22 0,-5 1,-10 2,-14 2,-5 4,-9 7,-12 3,-4 7,-7 13,-9 5,-2 11,-3 18,-3l31 0c7,0 10,3 11,8 0,2 -1,4 -3,6 -2,2 -3,3 -5,3l-30 0c-9,0 -15,2 -19,5 -4,4 -6,10 -6,18 0,7 2,13 5,17 3,5 7,9 12,12 5,3 10,5 14,6 5,1 8,1 11,1l7 0 0 -33 -21 0c-2,0 -4,-1 -5,-3 -2,-1 -3,-3 -3,-5 0,-3 1,-4 3,-6 1,-2 4,-2 6,-2l25 0c1,-1 2,-1 2,-1 1,0 1,0 2,0 3,0 4,1 5,2 1,1 1,1 1,2 0,1 0,1 0,3l0 54c0,1 0,2 0,3 0,1 -1,1 -2,2 -2,1 -3,1 -5,1 -1,0 -2,0 -2,0 -1,0 -2,0 -3,0l-10 0z"/>
   <path id="1" class="fil9" d="M257 429l0 33c0,3 0,5 -2,7 -2,2 -4,3 -6,3 -3,0 -5,-1 -7,-3 -2,-2 -3,-4 -3,-7l0 -33c0,0 -1,-1 -3,-3 -3,-2 -5,-5 -8,-9 -3,-3 -6,-7 -9,-12 -3,-5 -5,-10 -6,-16 0,-2 0,-4 1,-6 1,-2 2,-3 4,-4 1,0 2,-1 4,-1 1,0 3,1 5,2 1,1 2,2 3,4 2,5 3,10 5,13 2,4 3,7 5,9 1,2 3,4 5,6 2,2 3,3 3,4 3,-2 5,-5 6,-7 2,-2 4,-4 5,-6 1,-2 2,-5 3,-8 2,-3 3,-7 5,-12 1,-2 2,-3 3,-4 2,0 3,-1 5,-1 1,0 3,1 4,1 2,1 3,2 4,3 0,2 1,3 1,5 0,1 0,2 0,3 -2,5 -4,10 -7,15 -2,5 -5,9 -8,12 -3,4 -5,6 -8,9 -2,2 -3,3 -4,3z"/>
   <path id="2" class="fil9" d="M302 472c-2,0 -4,-1 -6,-3 -1,-2 -2,-4 -2,-7 1,-37 4,-62 8,-76 1,-4 4,-6 9,-7 1,0 1,0 2,0 3,0 5,1 6,1 2,1 3,3 4,5 2,5 5,10 6,13 2,4 4,7 6,10 2,4 3,5 3,6 0,-1 1,-2 3,-5 2,-2 4,-5 6,-9 2,-4 4,-9 5,-14 1,-2 3,-4 5,-5 2,-1 4,-2 7,-2 2,0 3,0 4,0 2,1 3,1 4,2 1,0 2,1 2,3 1,3 3,8 4,14 1,7 2,14 2,22 1,7 1,15 2,23 0,8 0,15 0,21 0,3 -1,5 -2,6 -2,1 -4,2 -7,2 -2,0 -4,-1 -6,-2 -2,-1 -3,-3 -3,-5 0,-6 0,-11 0,-14 0,-8 0,-15 0,-22 -1,-6 -1,-12 -2,-17 0,-5 -1,-8 -1,-8 0,0 0,2 -2,5 -2,4 -4,7 -6,11 -2,4 -4,7 -7,10 -3,2 -5,4 -8,4 -3,0 -7,-2 -10,-7 -3,-4 -6,-9 -9,-14 -3,-5 -4,-8 -4,-9 0,0 0,3 -1,8 -1,5 -1,12 -2,19 0,7 0,15 0,24 0,4 0,7 0,9 0,3 -1,5 -3,6 -2,1 -4,2 -7,2z"/>
   <g>
    <path class="fil2" d="M264 49c0,0 0,0 0,0l-17 0c-1,0 -2,0 -3,-1 -1,2 -2,4 -3,6 -3,3 -6,6 -10,9 -4,1 -7,3 -11,4 -4,0 -9,1 -13,0 -4,0 -9,-1 -13,-4 -4,-2 -7,-5 -10,-9 -2,-4 -4,-8 -5,-12 0,-1 0,-2 0,-3 0,-1 0,-1 0,-2 -1,0 -1,0 -1,0l-7 3 12 28c2,4 0,8 -4,9l-14 6c-3,2 -7,0 -9,-3l-12 -28 -6 3c-4,1 -8,0 -10,-4l-4 -11c-2,-4 0,-8 3,-9l40 -17c4,-2 8,0 9,3l4 8c0,-1 1,-3 1,-4 2,-4 5,-8 9,-11 2,-1 4,-3 6,-4 2,-1 4,-2 6,-2 1,0 1,0 2,-1 0,0 1,0 1,0 5,-1 10,-1 15,0 5,0 10,2 14,6 3,2 6,5 8,9 1,2 2,4 3,7 1,0 1,0 2,0l16 -1c2,0 3,1 4,2l4 -20c1,-4 4,-7 8,-6l21 3c5,1 11,3 16,6 5,3 9,8 11,14 0,2 1,4 1,5 2,-2 5,-4 8,-6 4,-2 8,-4 13,-4 3,0 6,0 8,1 3,0 5,0 6,1 1,0 1,1 2,1 0,0 1,0 1,0 5,2 9,5 12,9 4,3 7,8 8,13 1,4 2,8 2,12 -1,3 -2,7 -3,10 -2,4 -4,7 -7,10 -3,4 -7,7 -12,8 -5,2 -9,2 -14,1 -4,0 -7,-1 -11,-2 -4,-2 -7,-4 -11,-7 -3,-3 -6,-7 -8,-11 -1,-2 -1,-4 -2,-6 0,0 0,0 0,1 -4,4 -9,6 -15,7 -6,1 -11,1 -17,0l-20 -4c-3,0 -6,-4 -5,-8l1 -5zm-53 -8c1,0 2,1 2,1 1,0 1,0 1,0l1 0c1,-1 1,-1 2,-1 0,-1 0,-1 0,-2 1,-1 0,-2 0,-3 0,-1 -1,-3 -1,-4 -1,-1 -2,-2 -3,-3 0,-1 0,-1 -1,-1 0,0 -1,0 -1,0 -1,0 -1,0 -2,0 0,0 0,0 0,1 -1,0 -1,1 -1,1 0,0 0,0 0,0 0,1 0,3 0,4 0,1 1,3 2,4 0,1 1,2 1,3zm84 1c0,0 1,0 1,-1 0,0 0,0 0,0 1,0 1,-1 2,-2 0,-1 1,-3 1,-4 0,-1 0,-2 0,-3 0,-1 0,-2 0,-3 0,0 -1,0 -1,0 0,0 -1,-1 -1,-1l-2 14zm54 14c0,0 1,1 1,1 0,1 1,1 1,1l1 0c0,1 1,1 2,1 0,0 0,-1 1,-1 1,-1 1,-2 2,-3 0,-1 1,-3 1,-4 0,-1 0,-3 0,-4 0,0 0,-1 -1,-1 0,-1 0,-1 -1,-1 0,0 -1,-1 -1,-1 0,0 -1,0 -1,0 -1,0 -1,1 -2,1 0,0 0,0 0,0 0,1 -1,2 -1,3 -1,1 -1,3 -2,4 0,1 0,3 0,4z"/>
   </g>
   <path class="fil10" d="M130 37l40 -17 5 11 -13 6 15 34 -15 6 -14 -34 -13 5 -5 -11zm74 -26c0,-1 1,-1 1,-1 1,0 1,0 1,0 4,-1 8,-1 13,0 4,0 8,2 11,4 2,2 5,5 6,7 1,3 2,5 3,8 1,3 1,7 0,10 0,4 -1,7 -4,10 -2,3 -4,6 -8,7 -3,2 -6,3 -9,4 -3,0 -7,1 -10,0 -4,0 -7,-1 -10,-3 -3,-2 -6,-4 -8,-7 -2,-3 -3,-6 -4,-10 0,-1 0,-1 0,-2 0,0 -1,-2 -1,-5 0,-2 1,-5 2,-9 2,-3 4,-6 7,-8 2,-2 4,-3 6,-4 1,-1 2,-1 4,-1zm-3 18c0,1 0,4 0,6 1,2 1,4 2,6 1,2 2,4 4,5 1,1 3,2 4,2 2,1 3,1 5,1l1 -1c2,0 3,-1 5,-2 1,-2 2,-3 2,-5 1,-2 1,-4 0,-6 0,-2 -1,-4 -2,-6 -1,-3 -2,-4 -4,-5 -1,-2 -3,-2 -4,-3 -2,0 -3,0 -5,0 0,0 -1,0 -1,0 -2,1 -3,2 -5,3 -1,1 -2,3 -2,5zm77 -22l21 3c5,1 9,3 13,5 4,2 7,6 8,10 2,5 2,10 1,15 0,2 -1,4 -2,7 -1,2 -2,4 -5,7 -2,3 -6,5 -10,5 -4,1 -9,1 -15,0l-19 -4 8 -48zm9 40l2 1 2 0c3,1 5,1 6,0 2,0 4,-1 5,-2 1,-1 2,-3 2,-4 1,-2 1,-4 2,-6 0,-1 0,-3 0,-4 0,-2 0,-4 -1,-5 0,-2 -2,-4 -4,-5 -2,0 -4,-1 -8,-2l-2 0 -4 27zm74 -20c0,0 1,0 1,0 0,0 1,1 1,1 4,1 7,4 10,7 4,3 6,6 7,9 1,4 1,7 1,10 -1,3 -1,6 -3,8 -1,3 -3,6 -5,9 -3,3 -6,5 -9,6 -4,1 -7,1 -11,1 -3,-1 -7,-2 -9,-3 -3,-1 -6,-3 -9,-6 -3,-2 -5,-5 -6,-8 -2,-3 -3,-7 -2,-10 0,-4 1,-7 2,-11 0,0 1,-1 1,-2 0,0 1,-1 2,-4 2,-2 4,-4 8,-6 3,-2 6,-3 9,-3 3,0 6,0 7,0 2,1 3,1 5,2zm-13 13c-2,1 -3,3 -4,5 -1,2 -1,4 -2,6 0,2 0,4 0,6 1,2 2,4 3,5 1,1 2,2 3,3l1 0c2,1 4,1 6,1 2,-1 3,-2 5,-3 1,-1 2,-3 3,-5 1,-2 1,-4 2,-6 0,-3 0,-5 0,-6 -1,-2 -1,-4 -2,-5 -1,-1 -2,-2 -4,-3 0,0 -1,0 -1,0 -2,-1 -4,-1 -5,-1 -2,1 -4,1 -5,3z"/>
   <polygon id="1" class="fil1" points="247,32 263,31 263,42 247,42 "/>
  </g>
 </g>
</svg>
