<?xml version="1.0" encoding="UTF-8"?>
<!DOCTYPE svg PUBLIC "-//W3C//DTD SVG 1.1//EN" "http://www.w3.org/Graphics/SVG/1.1/DTD/svg11.dtd">
<!-- Creator: CorelDRAW -->
<svg xmlns="http://www.w3.org/2000/svg" xml:space="preserve" width="45.717mm" height="45.717mm" version="1.1" style="shape-rendering:geometricPrecision; text-rendering:geometricPrecision; image-rendering:optimizeQuality; fill-rule:evenodd; clip-rule:evenodd"
viewBox="0 0 4571.7 4571.7"
 xmlns:xlink="http://www.w3.org/1999/xlink"
 xmlns:xodm="http://www.corel.com/coreldraw/odm/2003">
 <defs>
  <style type="text/css">
   <![CDATA[
    .fil0 {fill:none}
    .fil5 {fill:#051633;fill-rule:nonzero}
    .fil2 {fill:#0C415B;fill-rule:nonzero}
    .fil6 {fill:#1C627C;fill-rule:nonzero}
    .fil4 {fill:#601613;fill-rule:nonzero}
    .fil3 {fill:#851F1A;fill-rule:nonzero}
    .fil1 {fill:#D6E9F0;fill-rule:nonzero}
    .fil7 {fill:white;fill-rule:nonzero}
   ]]>
  </style>
 </defs>
 <g id="Camada_x0020_1">
  <metadata id="CorelCorpID_0Corel-Layer"/>
  <rect class="fil0" x="-0.15" y="0.15" width="4571.7" height="4571.7"/>
  <g id="_2095458469504">
   <path class="fil1" d="M4571.69 2286.01c0,552.08 -195.44,1058.32 -521.41,1453.08 -155.93,189.79 -342.19,353.48 -551.39,484.36 -31.05,19.76 -62.44,38.81 -94.55,56.45 -330.55,186.26 -712.25,292.1 -1118.64,292.1 -406.4,0 -788.11,-105.84 -1118.66,-292.1 -32.11,-17.64 -63.5,-36.69 -94.55,-56.45 -209.19,-130.88 -395.46,-294.57 -551.39,-484.36 -325.97,-394.76 -521.4,-901 -521.4,-1453.08 0,-1262.6 1023.4,-2286 2286,-2286 1262.58,0 2285.99,1023.4 2285.99,2286z"/>
   <g>
    <g>
     <path class="fil2" d="M4050.28 3739.09c-155.93,189.79 -342.19,353.48 -551.39,484.36 -31.05,19.76 -62.44,38.81 -94.55,56.45 -330.55,186.26 -712.25,292.1 -1118.64,292.1 -406.4,0 -788.11,-105.84 -1118.66,-292.1 -32.11,-17.64 -63.5,-36.69 -94.55,-56.45 -209.19,-130.88 -395.46,-294.57 -551.39,-484.36 70.2,-182.39 223.31,-323.85 416.28,-377.12l547.86 -151.34 125.24 -34.58 137.23 -38.1 33.51 -9.17 72.32 -20.11 4.94 -27.16 31.75 -178.15 31.05 -174.98 18.69 -105.48 26.81 -149.23 318.92 124.89 318.9 -124.89 26.81 149.23 41.63 234.24 8.11 46.22 2.12 11.64 29.63 166.51 4.94 27.16 72.32 20.11 40.57 11.29 130.17 35.98 125.24 34.58 547.86 151.34c192.97,53.27 346.08,194.73 416.28,377.12z"/>
    </g>
    <g>
     <g>
      <polygon class="fil3" points="2830.73,3140.07 2285.7,3785.3 1747.71,3137.95 1853.54,3108.67 1921.28,2728.38 1966.78,2473.67 2285.7,2598.56 2604.6,2473.67 2683.27,2915 2717.84,3108.67 "/>
     </g>
     <path class="fil4" d="M2683.27 2915c-138.29,60.68 -255.06,60.68 -255.06,60.68 0,0 -298.79,0 -506.93,-247.3l45.5 -254.71 318.92 124.89 318.9 -124.89 78.67 441.33z"/>
     <path class="fil5" d="M3326.98 1444.98c-11.18,-23.33 -31.25,-42.77 -55.8,-50.92 36.42,-39.21 36.58,-115.8 19.95,-166.67 -16.64,-50.86 -62.28,-91.09 -114.82,-101.21 11.33,-50.13 -7.88,-105.78 -39.39,-146.38 -31.5,-40.59 -81.68,-66.06 -133.05,-67.52 3.74,-53.21 -8.81,-123.26 -48.8,-158.56 -21.14,-18.67 -49.22,-27.99 -77.24,-31.12 -28.03,-3.13 -56.34,-0.52 -84.42,2.1 -24.71,-55.01 -79.48,-98.98 -138.33,-112.13 -58.85,-13.15 -123.51,3 -169.27,42.26 -1.97,-0.85 -16.2,2.62 -18.16,1.76 -39.42,-56.95 -119.74,-70.92 -188.99,-70.92 -69.26,0 -149.59,13.97 -189,70.92 -1.97,0.86 -16.19,-2.61 -18.16,-1.76 -45.77,-39.26 -110.42,-55.41 -169.28,-42.26 -58.85,13.15 -113.62,57.12 -138.32,112.13 -28.08,-2.62 -56.39,-5.23 -84.42,-2.1 -28.03,3.13 -56.1,12.45 -77.24,31.12 -40,35.3 -52.54,105.35 -48.8,158.56 -51.37,1.46 -101.55,26.93 -133.05,67.52 -31.51,40.6 -50.72,96.25 -39.39,146.38 -52.55,10.12 -98.19,50.35 -114.82,101.21 -16.63,50.87 -16.47,127.46 19.94,166.67 -24.55,8.15 -44.61,27.59 -55.79,50.92 -11.19,23.33 -13.89,50.22 -10.07,75.81 5.65,37.82 21.48,74.45 50.81,98.99 -25.85,23.99 -38.9,61.04 -33.8,95.94 5.1,34.89 26.62,73.8 58.26,89.38 -21.98,49.58 -16.63,110.28 13.66,155.25 30.3,44.97 84.37,71.17 138.57,69.43 2.66,52.74 32.34,103.4 77.06,131.5 44.71,28.1 104.99,35.25 153.67,14.76 18.04,9.45 36.09,18.9 54.13,28.34 6,3.14 12.04,6.29 18.55,8.13 11.53,3.25 23.76,2.17 35.73,2.16 42.48,-0.06 83.64,13.56 123.93,27.02 1.75,19.88 3.49,39.76 5.24,59.64l349.81 0c3.19,0 9.59,0 12.78,0 3.19,0 9.58,0 12.78,0l349.8 0c1.74,-19.88 3.49,-39.76 5.24,-59.64 40.28,-13.46 81.44,-27.08 123.93,-27.02 11.97,0.01 24.2,1.09 35.72,-2.16 6.51,-1.84 12.56,-4.99 18.55,-8.13 18.05,-9.44 36.09,-18.89 54.14,-28.34 48.67,20.49 108.96,13.34 153.67,-14.76 44.71,-28.1 74.4,-78.76 77.06,-131.5 54.19,1.74 108.27,-24.46 138.56,-69.43 30.3,-44.97 35.64,-105.67 13.67,-155.25 31.64,-15.58 53.15,-54.49 58.25,-89.38 5.11,-34.9 -7.95,-71.95 -33.8,-95.94 29.33,-24.54 45.17,-61.17 50.81,-98.99 3.82,-25.59 1.12,-52.48 -10.06,-75.81z"/>
     <g>
      <path class="fil3" d="M3147.44 1784.17c-4.29,-28.15 -14.71,-56.73 -36.19,-75.4 -19.39,-16.85 -46.04,-23.81 -71.69,-22.71 -25.66,1.11 -50.48,9.67 -73.59,20.86 0,0 -2.27,-650.36 -232.81,-657.92 -151.18,-7.56 -218.43,37.8 -447.46,37.8 -229.04,0 -296.3,-45.36 -447.48,-37.8 -230.54,7.56 -232.8,657.92 -232.8,657.92 -23.12,-11.19 -47.95,-19.75 -73.6,-20.86 -25.65,-1.1 -52.3,5.86 -71.68,22.71 -21.5,18.67 -31.91,47.25 -36.2,75.4 -8.6,56.5 4.92,116.07 37.07,163.31 32.16,47.25 79.62,82.78 135.33,95.51 98.27,687.84 689.36,687.84 689.36,687.84 0,0 591.08,0 689.34,-687.84 55.71,-12.73 103.18,-48.26 135.33,-95.51 32.15,-47.24 45.67,-106.81 37.07,-163.31z"/>
     </g>
    </g>
    <g>
     <g>
      <polygon class="fil5" points="2873.17,3256.14 2764.06,3375.14 2285.7,3785.3 2735.48,3044.47 "/>
      <path class="fil6" d="M2681.25 2903.51c0,0 315.34,161.88 383.83,545.43l-301.02 -73.8 -82.81 -471.63z"/>
     </g>
     <g>
      <polygon class="fil5" points="1698.22,3256.14 1807.33,3375.14 2285.7,3785.3 1835.9,3044.47 "/>
      <path class="fil6" d="M1890.13 2903.51c0,0 -315.34,161.88 -383.83,545.43l301.03 -73.8 82.8 -471.63z"/>
     </g>
    </g>
    <path class="fil5" d="M3079.65 1191.82c-7.09,-80.38 -21.76,-166.94 -80.1,-222.68 -42.15,-40.27 -100.81,-57.9 -158.06,-68.9 -182.76,-35.13 -376.73,55.96 -562.83,55.96 -186.11,0 -380.08,-91.09 -562.85,-55.96 -57.24,11 -115.91,28.63 -158.05,68.9 -58.35,55.74 -73.01,142.3 -80.1,222.68 -8.78,99.48 -10.84,199.55 -6.17,299.31 3.21,68.46 18.73,154.54 77.82,189.26 42.62,25.04 102.68,14.63 134.38,-23.3 31.71,-37.93 31.29,-98.89 -0.93,-136.39 41.12,-14.42 79.46,-51.38 89.09,-93.87 9.64,-42.49 -3.99,-89.53 -34.86,-120.28 42.66,14.48 98.3,1.61 132.64,-27.54 34.35,-29.16 51.85,-76.9 44.5,-121.35 29.68,24.54 70.45,29.67 108.94,28.72 38.51,-0.94 76.49,-16.21 104.94,-42.17 38.46,34.69 99.97,48.2 150.65,37.47 50.66,10.73 112.17,-2.78 150.64,-37.47 28.44,25.96 66.43,41.23 104.93,42.17 38.5,0.95 79.26,-4.18 108.95,-28.72 -7.36,44.45 10.15,92.19 44.49,121.35 34.35,29.15 89.98,42.02 132.64,27.54 -30.86,30.75 -44.5,77.79 -34.86,120.28 9.64,42.49 47.98,79.45 89.09,93.87 -32.21,37.5 -32.63,98.46 -0.93,136.39 31.7,37.93 91.76,48.34 134.38,23.3 59.09,-34.72 74.62,-120.8 77.82,-189.26 4.68,-99.76 2.61,-199.83 -6.16,-299.31z"/>
    <g>
     <path class="fil5" d="M1167.04 4279.9c-32.11,-17.64 -63.5,-36.69 -94.55,-56.45l62.8 -311.15 31.75 367.6z"/>
     <path class="fil5" d="M3498.89 4223.45c-31.05,19.76 -62.44,38.81 -94.55,56.45l31.75 -367.6 62.8 311.15z"/>
    </g>
    <g>
     <path class="fil4" d="M2252.56 1718.32l0 403.6 68.39 0c117.26,0 -46.62,-357.23 -68.39,-403.6z"/>
     <g>
      <g>
       <path class="fil5" d="M2749.87 1561.07c-94.53,-46.71 -199.61,-53.64 -298.16,-14.46 -41.75,16.6 -23.56,84.86 18.76,68.04 80.74,-32.11 165.31,-31.43 243.8,7.34 40.64,20.08 76.4,-40.77 35.6,-60.92z"/>
       <path class="fil5" d="M2664.76 1718.32c0,36.74 -29.79,66.53 -66.53,66.53 -36.75,0 -66.54,-29.79 -66.54,-66.53 0,-36.75 29.79,-66.54 66.54,-66.54 36.74,0 66.53,29.79 66.53,66.54z"/>
      </g>
      <g>
       <g>
        <path class="fil5" d="M1821.51 1561.07c94.53,-46.71 199.62,-53.64 298.16,-14.46 41.75,16.6 23.56,84.86 -18.76,68.04 -80.74,-32.11 -165.3,-31.43 -243.79,7.34 -40.64,20.08 -76.4,-40.77 -35.61,-60.92z"/>
        <path class="fil5" d="M1906.62 1718.32c0,36.74 29.79,66.53 66.54,66.53 36.75,0 66.53,-29.79 66.53,-66.53 0,-36.75 -29.78,-66.54 -66.53,-66.54 -36.75,0 -66.54,29.79 -66.54,66.54z"/>
       </g>
      </g>
     </g>
     <path class="fil7" d="M2068.9 2314.83c23.45,87.57 111.49,152.75 216.8,152.75 105.29,0 193.34,-65.18 216.79,-152.75l-433.59 0z"/>
    </g>
   </g>
  </g>
 </g>
</svg>
