<?xml version="1.0" encoding="UTF-8"?>
<!DOCTYPE svg PUBLIC "-//W3C//DTD SVG 1.1//EN" "http://www.w3.org/Graphics/SVG/1.1/DTD/svg11.dtd">
<!-- Creator: CorelDRAW -->
<svg xmlns="http://www.w3.org/2000/svg" xml:space="preserve" width="45.717mm" height="45.717mm" version="1.1" style="shape-rendering:geometricPrecision; text-rendering:geometricPrecision; image-rendering:optimizeQuality; fill-rule:evenodd; clip-rule:evenodd"
viewBox="0 0 4571.7 4571.7"
 xmlns:xlink="http://www.w3.org/1999/xlink"
 xmlns:xodm="http://www.corel.com/coreldraw/odm/2003">
 <defs>
  <style type="text/css">
   <![CDATA[
    .fil1 {fill:#051633;fill-rule:nonzero}
    .fil5 {fill:#BF2D28;fill-rule:nonzero}
    .fil0 {fill:#D6E9F0;fill-rule:nonzero}
    .fil2 {fill:#EF3831;fill-rule:nonzero}
    .fil4 {fill:#F27967;fill-rule:nonzero}
    .fil3 {fill:#F69779;fill-rule:nonzero}
    .fil6 {fill:white;fill-rule:nonzero}
   ]]>
  </style>
 </defs>
 <g id="Camada_x0020_1">
  <metadata id="CorelCorpID_0Corel-Layer"/>
  <g id="_2059729438112">
   <path class="fil0" d="M4571.69 2285.82c0,574.68 -212.02,1100.32 -562.68,1502.13 -41.98,48.33 -86.08,94.9 -132.3,139.35 -45.86,44.45 -93.48,86.78 -142.87,127.35 -110.07,90.66 -228.95,170.75 -355.25,239.54 -39.16,21.52 -78.67,41.63 -119.24,60.32 -295.27,139.35 -625.47,217.31 -973.65,217.31 -348.2,0 -678.4,-77.96 -973.67,-217.31 -40.57,-18.69 -80.08,-38.8 -119.24,-60.32 -126.29,-68.79 -245.18,-148.88 -355.25,-239.54 -49.39,-40.57 -97.01,-82.9 -142.87,-127.35 -46.22,-44.45 -90.31,-91.02 -132.29,-139.35 -350.66,-401.81 -562.68,-927.45 -562.68,-1502.13 0,-1262.24 1023.4,-2285.64 2286,-2285.64 1262.58,0 2285.99,1023.4 2285.99,2285.64z"/>
   <g>
    <g>
     <path class="fil1" d="M4009.01 3787.95c-41.98,48.33 -86.08,94.9 -132.3,139.35 -45.86,44.45 -93.48,86.78 -142.87,127.35l-2896.3 0c-49.39,-40.57 -97.01,-82.9 -142.87,-127.35 -46.22,-44.45 -90.31,-91.02 -132.29,-139.35 42.33,-165.1 134.4,-371.12 336.19,-508.35 60.33,-40.92 112.54,-95.96 157.7,-161.22 207.78,-297.39 271.28,-808.21 296.68,-1181.1 4.59,-66.68 8.12,-128.76 10.94,-184.5 12.34,-243.42 47.98,-573.27 217.31,-822.33 133.35,-196.5 350.31,-342.55 704.5,-355.25 802.2,28.93 899.92,741.54 921.79,1177.58 21.88,436.38 80.09,1265.06 465.32,1526.82 201.79,137.23 293.86,343.25 336.2,508.35z"/>
     <path class="fil2" d="M3876.71 3927.3c-45.86,44.45 -93.48,86.78 -142.87,127.35 -110.07,90.66 -228.95,170.75 -355.25,239.54 -39.16,21.52 -78.67,41.63 -119.24,60.32 -295.27,139.35 -625.47,217.31 -973.65,217.31 -348.2,0 -678.4,-77.96 -973.67,-217.31 -40.57,-18.69 -80.08,-38.8 -119.24,-60.32 -126.29,-68.79 -245.18,-148.88 -355.25,-239.54 -49.39,-40.57 -97.01,-82.9 -142.87,-127.35 102.3,-154.87 245.53,-279.4 414.86,-359.13l0.36 0c22.58,-10.94 45.86,-20.81 69.5,-29.99l210.6 -81.13c43.75,-16.94 86.08,-37.05 125.94,-59.98 37.75,-21.87 73.74,-46.21 107.95,-73.02 6.71,-5.29 13.41,-10.59 20.11,-16.23 6,-4.94 11.65,-9.52 17.29,-14.82 7.76,-6.7 15.52,-13.75 22.93,-20.81 5.29,-4.59 10.23,-9.17 15.17,-14.11 4.94,-4.94 9.88,-9.88 14.46,-14.82 11.64,-11.99 22.93,-24.34 33.87,-36.69 5.64,-6.35 11.29,-12.7 16.23,-19.05 5.29,-6.7 10.23,-13.05 15.52,-19.75 5.64,-6.35 10.58,-13.06 15.17,-19.76 5.29,-6.7 9.88,-13.4 14.46,-20.46l0 -0.35c3.88,-5.65 8.12,-10.94 11.64,-16.58 6,-8.82 11.65,-17.64 16.94,-26.81 6.35,-10.23 12.35,-20.46 18.34,-31.05 1.06,-1.41 1.77,-3.17 2.47,-4.58 7.06,-12.35 13.41,-24.7 19.4,-37.4 33.52,-67.73 58.57,-140.05 74.44,-215.9l9.17 -43.74 35.99 -173.57 37.39 -181.33 501.64 0 37.4 180.98 45.15 217.66c2.82,14.11 6,28.22 9.88,41.98 2.47,10.23 5.29,20.46 8.47,30.69 1.05,3.88 2.47,7.41 3.52,10.94 0.36,2.82 1.41,5.29 2.47,8.11 3.18,10.94 7.06,21.52 10.94,32.11 4.59,13.4 9.52,26.46 15.52,39.51 4.23,11.64 9.53,22.93 14.82,34.22 10.23,22.57 21.52,44.8 34.22,66.32 5.64,10.58 11.99,21.17 19.05,31.75 5.29,9.17 10.93,17.99 17.28,26.81 2.12,3.53 4.59,6.7 6.71,9.88 5.29,8.47 11.29,16.58 17.64,24.69 14.81,19.76 30.33,38.81 46.56,57.51 7.76,9.17 16.23,18.34 25.05,27.16 8.11,9.17 16.93,17.99 26.1,26.46 8.82,8.82 18,17.28 27.17,25.05 6.7,5.99 13.4,11.99 20.46,17.63 6.7,5.65 13.41,11.29 20.46,16.58 1.06,1.06 2.12,1.77 3.18,2.47 7.76,6 15.17,12 22.93,17.29 26.81,20.11 54.68,38.1 83.96,55.03 39.86,22.93 82.19,43.04 125.94,59.98l210.61 81.13c199.67,76.91 368.65,213.44 484.71,389.12z"/>
     <g>
      <path class="fil3" d="M3055.45 3397.07c-126.3,206.38 -358.42,439.56 -769.75,471.31 -411.34,-31.75 -643.47,-264.93 -769.77,-471.31 222.96,-128.05 383.12,-346.07 436.39,-602.19l9.17 -43.74 73.38 -354.9 501.64 0 82.55 398.64c11.64,56.45 28.58,111.13 50.8,163.34 76.2,184.5 212.02,339.02 385.59,438.85z"/>
     </g>
     <g>
      <g>
       <path class="fil4" d="M2669.86 2958.22c-113.95,39.86 -202.14,39.86 -202.14,39.86 0,0 -298.44,0 -506.23,-246.94l73.38 -354.9 501.64 0 82.55 398.64c11.64,56.45 28.58,111.13 50.8,163.34z"/>
      </g>
     </g>
     <g>
      <g>
       <path class="fil3" d="M2960.25 1972.33c-8.34,118.53 -39.42,235.37 -99.8,337.7 -202.64,343.39 -574.75,343.39 -574.75,343.39 0,0 -591.26,0 -689.33,-687.92 -55.74,-12.7 -103.37,-48.33 -135.47,-95.6 -32.1,-47.27 -45.51,-106.54 -37.04,-163.34 4.23,-27.87 14.82,-56.44 36.34,-75.14 19.4,-16.93 45.86,-23.99 71.61,-22.93 25.75,1.06 50.45,9.88 73.73,21.17 0,0 2.12,-650.53 232.83,-657.93 150.99,-7.76 218.37,37.74 447.33,37.74 228.94,0 296.32,-45.5 447.31,-37.74 230.72,7.4 232.83,657.93 232.83,657.93 0,0 7.73,153.58 -5.59,342.67z"/>
      </g>
     </g>
    </g>
    <path class="fil1" d="M1909.28 3457.05c-176.74,138.64 -593.72,250.82 -831.85,92.07l-21.16 -430.74c207.78,-297.39 271.28,-808.21 296.68,-1181.1 4.59,-66.68 8.12,-128.76 10.94,-184.5 12.34,-243.42 47.98,-573.27 217.31,-822.33 68.08,19.76 132.64,40.22 132.64,40.22 0,0 -65.26,367.95 0,600.43 65.62,232.48 36.34,566.91 0,894.29 -36.33,327.02 195.44,991.66 195.44,991.66z"/>
    <g>
     <path class="fil5" d="M3378.59 4294.19c-39.16,21.52 -78.67,41.63 -119.24,60.32l0 -482.24 51.51 182.38 67.73 239.54z"/>
     <path class="fil5" d="M1312.03 3872.27l0 482.24c-40.57,-18.69 -80.08,-38.8 -119.24,-60.32l67.73 -239.54 51.51 -182.38z"/>
    </g>
    <g>
     <g>
      <path class="fil4" d="M2252.56 1673.64l0 403.6 68.39 0c117.26,0 -46.62,-357.22 -68.39,-403.6z"/>
     </g>
     <g>
      <g>
       <path class="fil1" d="M2749.87 1516.39c-94.53,-46.7 -199.61,-53.64 -298.16,-14.46 -41.75,16.61 -23.56,84.87 18.76,68.04 80.74,-32.1 165.31,-31.43 243.8,7.34 40.64,20.08 76.4,-40.77 35.6,-60.92z"/>
       <path class="fil1" d="M2664.76 1642.1c-21.47,-37.26 -66.53,-35 -66.53,-35 -36.75,0 -66.54,29.79 -66.54,66.54 0,36.75 29.79,66.54 66.54,66.54 8.1,0 15.77,-1.66 22.96,-4.32l0.03 0.18c0.44,-0.14 0.74,-0.4 1.16,-0.55 2.16,-0.84 4.16,-1.9 6.2,-2.96 58.18,-25.23 64.37,-89.82 64.37,-89.82 -11.6,9.77 -28.19,-0.61 -28.19,-0.61z"/>
      </g>
      <g>
       <path class="fil1" d="M1821.51 1516.39c94.53,-46.7 199.62,-53.64 298.16,-14.46 41.75,16.61 23.56,84.87 -18.76,68.04 -80.74,-32.1 -165.3,-31.43 -243.79,7.34 -40.64,20.08 -76.41,-40.77 -35.61,-60.92z"/>
       <path class="fil1" d="M1906.62 1642.1c21.47,-37.26 66.54,-35 66.54,-35 36.75,0 66.53,29.79 66.53,66.54 0,36.75 -29.78,66.54 -66.53,66.54 -8.11,0 -15.78,-1.66 -22.97,-4.32l-0.03 0.18c-0.44,-0.14 -0.74,-0.4 -1.16,-0.55 -2.15,-0.84 -4.16,-1.9 -6.19,-2.96 -58.19,-25.23 -64.38,-89.82 -64.38,-89.82 11.6,9.77 28.19,-0.61 28.19,-0.61z"/>
      </g>
     </g>
     <path class="fil6" d="M2068.9 2224.88c23.45,87.57 111.49,152.75 216.8,152.75 105.29,0 193.34,-65.18 216.79,-152.75l-433.59 0z"/>
    </g>
   </g>
  </g>
 </g>
</svg>
