<?xml version="1.0" encoding="UTF-8"?>
<!DOCTYPE svg PUBLIC "-//W3C//DTD SVG 1.1//EN" "http://www.w3.org/Graphics/SVG/1.1/DTD/svg11.dtd">
<!-- Creator: CorelDRAW -->
<svg xmlns="http://www.w3.org/2000/svg" xml:space="preserve" width="45.717mm" height="45.717mm" version="1.1" style="shape-rendering:geometricPrecision; text-rendering:geometricPrecision; image-rendering:optimizeQuality; fill-rule:evenodd; clip-rule:evenodd"
viewBox="0 0 4571.7 4571.7"
 xmlns:xlink="http://www.w3.org/1999/xlink"
 xmlns:xodm="http://www.corel.com/coreldraw/odm/2003">
 <defs>
  <style type="text/css">
   <![CDATA[
    .fil0 {fill:none}
    .fil7 {fill:#FFF212;fill-rule:nonzero}
    .fil6 {fill:#FFC82A;fill-rule:nonzero}
    .fil9 {fill:#051633;fill-rule:nonzero}
    .fil8 {fill:#051633;fill-rule:nonzero}
    .fil3 {fill:#3D3836;fill-rule:nonzero}
    .fil11 {fill:#9C7572;fill-rule:nonzero}
    .fil2 {fill:#BC938E;fill-rule:nonzero}
    .fil1 {fill:#D6E9F0;fill-rule:nonzero}
    .fil5 {fill:#F27967;fill-rule:nonzero}
    .fil4 {fill:#F69779;fill-rule:nonzero}
    .fil10 {fill:white;fill-rule:nonzero}
   ]]>
  </style>
 </defs>
 <g id="Camada_x0020_1">
  <metadata id="CorelCorpID_0Corel-Layer"/>
  <rect class="fil0" x="-0.15" y="0.15" width="4571.7" height="4571.7"/>
  <g id="_2095452679344">
   <path class="fil1" d="M4571.69 2285.82c0,541.16 -188.03,1038.58 -503.06,1430.16 -149.94,187.68 -329.5,350.67 -530.94,482.6 -49.38,32.81 -100.54,63.5 -152.75,92.08 -325.96,179.21 -700.61,281.16 -1099.24,281.16 -398.64,0 -773.29,-101.95 -1099.26,-281.16 -52.21,-28.58 -103.36,-59.27 -152.75,-92.08 -201.44,-131.93 -381,-294.92 -530.93,-482.6 -315.03,-391.58 -503.06,-889 -503.06,-1430.16 0,-1262.24 1023.4,-2285.64 2286,-2285.64 1262.58,0 2285.99,1023.4 2285.99,2285.64z"/>
   <g>
    <g>
     <path class="fil2" d="M4068.63 3715.98c-149.94,187.68 -329.5,350.67 -530.94,482.6 -49.38,32.81 -100.54,63.5 -152.75,92.08 -325.96,179.21 -700.61,281.16 -1099.24,281.16 -398.64,0 -773.29,-101.95 -1099.26,-281.16 -52.21,-28.58 -103.36,-59.27 -152.75,-92.08 -201.44,-131.93 -381,-294.92 -530.93,-482.6 58.91,-208.13 222.6,-372.88 434.62,-431.44l547.86 -151.34 194.74 -53.98 173.56 -47.98 1.41 -8.46 71.62 -401.82 13.4 -75.49 26.81 -149.23 318.92 124.89 318.9 -124.89 26.81 149.23 68.08 383.11 18.35 102.66 180.62 50.1 187.68 51.86 547.86 151.34c212.02,58.56 375.71,223.31 434.63,431.44z"/>
     <g>
      <path class="fil3" d="M2899.17 3119.79c0,257.18 -267.76,458.61 -609.95,458.61 -342.19,0 -609.95,-201.43 -609.95,-458.61 0,-8.11 0.35,-16.23 1.06,-24.69 -0.35,-5.3 -0.35,-10.23 -0.35,-15.88l173.56 -47.98 1.41 -8.46 111.83 -626.54 318.92 124.89 318.9 -124.89 113.24 635 180.62 50.1c0,4.58 0,9.17 -0.35,13.76 0.7,8.46 1.06,16.58 1.06,24.69z"/>
     </g>
     <path class="fil4" d="M2722.78 3119.79c0,155.93 -194.03,282.22 -433.56,282.22 -239.53,0 -433.56,-126.29 -433.56,-282.22 0,-7.06 0.71,-13.76 1.41,-20.81 -1.41,-21.17 -0.7,-43.4 3.53,-67.74l-5.65 -8.46 71.62 -401.82 40.21 -224.72 318.92 124.89 318.9 -124.89 94.89 532.34 18.35 102.66c4.23,24.34 4.94,46.57 3.53,67.74 0.7,7.05 1.41,13.75 1.41,20.81z"/>
     <path class="fil5" d="M2699.49 2928.58c-111.47,37.75 -196.85,37.75 -196.85,37.75 0,0 -373.22,0 -576.07,-345.37l40.21 -224.72 318.92 124.89 318.9 -124.89 94.89 532.34z"/>
     <path class="fil6" d="M2982.38 1011.71c-81.58,-152.96 -237.58,-237.6 -381.32,-284.4 -204.45,-66.56 -426.28,-66.56 -630.74,0 -143.74,46.8 -299.74,131.44 -381.32,284.4 -147.46,282.37 -122.36,721.62 -122.36,721.62l153.74 163.15 665.32 -84.42 665.3 84.42 153.74 -163.15c0,0 25.1,-439.25 -122.36,-721.62z"/>
     <path class="fil7" d="M2845.17 749.69c-98.97,-136.01 -214.86,-141.07 -214.86,-141.07 0,0 0,-78.69 -37.28,-99.4 -37.27,-20.71 -95.26,70.41 -95.26,70.41 0,0 0,-70.41 -33.14,-86.98 -33.13,-16.57 -86.98,33.14 -86.98,33.14 -20.71,-70.42 -91.95,-66.27 -91.95,-66.27 0,0 -71.26,-4.15 -91.97,66.27 0,0 -53.84,-49.71 -86.98,-33.14 -33.14,16.57 -33.14,86.98 -33.14,86.98 0,0 -57.98,-91.12 -95.26,-70.41 -37.28,20.71 -37.28,99.4 -37.28,99.4 0,0 -115.89,5.06 -214.85,141.07 -30.8,42.32 -30.35,99.99 1.62,141.43l127.11 164.83 430.75 0 430.73 0 127.11 -164.83c31.97,-41.44 32.42,-99.11 1.63,-141.43z"/>
     <path class="fil4" d="M3147.44 1706.73c-4.29,-28.15 -14.71,-56.73 -36.19,-75.4 -19.39,-16.85 -46.04,-23.81 -71.69,-22.71 -25.66,1.1 -50.48,9.67 -73.59,20.86 0,0 -2.27,-650.36 -232.81,-657.92 -151.18,-7.56 -218.43,37.8 -447.46,37.8 -229.04,0 -296.3,-45.36 -447.48,-37.8 -230.54,7.56 -232.8,657.92 -232.8,657.92 -23.12,-11.19 -47.95,-19.76 -73.6,-20.86 -25.65,-1.1 -52.3,5.86 -71.68,22.71 -21.5,18.67 -31.91,47.25 -36.2,75.4 -8.6,56.5 4.92,116.07 37.07,163.31 32.16,47.25 79.62,82.78 135.33,95.51 98.27,687.85 689.36,687.85 689.36,687.85 0,0 591.08,0 689.34,-687.85 55.71,-12.73 103.18,-48.26 135.33,-95.51 32.15,-47.24 45.67,-106.81 37.07,-163.31z"/>
    </g>
    <g>
     <g>
      <path class="fil5" d="M2252.56 1620.59l0 403.6 68.39 0c117.26,0 -46.62,-357.23 -68.39,-403.6z"/>
     </g>
     <g>
      <g>
       <path class="fil8" d="M2749.87 1463.33c-94.53,-46.7 -199.61,-53.63 -298.16,-14.45 -41.75,16.6 -23.56,84.86 18.76,68.04 80.74,-32.11 165.31,-31.44 243.8,7.34 40.64,20.07 76.4,-40.77 35.6,-60.93z"/>
       <path class="fil9" d="M2664.76 1620.59c0,36.74 -29.79,66.53 -66.53,66.53 -36.75,0 -66.54,-29.79 -66.54,-66.53 0,-36.75 29.79,-66.54 66.54,-66.54 36.74,0 66.53,29.79 66.53,66.54z"/>
      </g>
      <g>
       <path class="fil8" d="M1821.51 1463.33c94.53,-46.7 199.62,-53.63 298.16,-14.45 41.75,16.6 23.56,84.86 -18.76,68.04 -80.74,-32.11 -165.3,-31.44 -243.79,7.34 -40.64,20.07 -76.4,-40.77 -35.61,-60.93z"/>
       <path class="fil9" d="M1906.62 1620.59c0,36.74 29.79,66.53 66.54,66.53 36.75,0 66.53,-29.79 66.53,-66.53 0,-36.75 -29.78,-66.54 -66.53,-66.54 -36.75,0 -66.54,29.79 -66.54,66.54z"/>
      </g>
     </g>
     <path class="fil10" d="M2068.9 2189.07c23.45,87.57 111.49,152.76 216.8,152.76 105.29,0 193.34,-65.19 216.79,-152.76l-433.59 0z"/>
    </g>
    <g>
     <path class="fil11" d="M1186.44 4290.66c-52.21,-28.58 -103.36,-59.27 -152.75,-92.08l101.6 -501.65 51.15 593.73z"/>
     <path class="fil11" d="M3537.69 4198.58c-49.38,32.81 -100.54,63.5 -152.75,92.08l51.15 -593.73 101.6 501.65z"/>
    </g>
   </g>
  </g>
 </g>
</svg>
