<?xml version="1.0" encoding="UTF-8"?>
<!DOCTYPE svg PUBLIC "-//W3C//DTD SVG 1.1//EN" "http://www.w3.org/Graphics/SVG/1.1/DTD/svg11.dtd">
<!-- Creator: CorelDRAW -->
<svg xmlns="http://www.w3.org/2000/svg" xml:space="preserve" width="45.717mm" height="45.717mm" version="1.1" style="shape-rendering:geometricPrecision; text-rendering:geometricPrecision; image-rendering:optimizeQuality; fill-rule:evenodd; clip-rule:evenodd"
viewBox="0 0 4571.7 4571.7"
 xmlns:xlink="http://www.w3.org/1999/xlink"
 xmlns:xodm="http://www.corel.com/coreldraw/odm/2003">
 <defs>
  <style type="text/css">
   <![CDATA[
    .fil0 {fill:none}
    .fil6 {fill:#051633;fill-rule:nonzero}
    .fil4 {fill:#708E26;fill-rule:nonzero}
    .fil2 {fill:#A1CC36;fill-rule:nonzero}
    .fil1 {fill:#D6E9F0;fill-rule:nonzero}
    .fil5 {fill:#F27967;fill-rule:nonzero}
    .fil3 {fill:#F69779;fill-rule:nonzero}
    .fil7 {fill:white;fill-rule:nonzero}
   ]]>
  </style>
 </defs>
 <g id="Camada_x0020_1">
  <metadata id="CorelCorpID_0Corel-Layer"/>
  <rect class="fil0" x="-0.15" y="0.15" width="4571.7" height="4571.7"/>
  <g id="_2059966241312">
   <path class="fil1" d="M4571.52 2286.01c0,563.72 -203.9,1079.49 -541.87,1477.77 -141.81,167.57 -307.62,314.33 -492.12,434.98 -48.68,32.1 -98.78,62.44 -150.28,90.66 -326.68,180.27 -702.38,282.58 -1101.73,282.58 -423.69,0 -820.91,-115.36 -1160.99,-316.45 -47.98,-28.22 -94.9,-58.2 -140.41,-90.31 -182.03,-125.94 -344.66,-277.99 -482.95,-450.49 -313.62,-391.23 -501.3,-887.95 -501.3,-1428.74 0,-1262.6 1023.41,-2286 2285.65,-2286 1262.59,0 2286,1023.4 2286,2286z"/>
   <g>
    <g>
     <path class="fil2" d="M4029.65 3763.78c-141.81,167.57 -307.62,314.33 -492.12,434.98 -48.68,32.1 -98.78,62.44 -150.28,90.66 -326.68,180.27 -702.38,282.58 -1101.73,282.58 -423.69,0 -820.91,-115.36 -1160.99,-316.45 -47.98,-28.22 -94.9,-58.2 -140.41,-90.31 -182.03,-125.94 -344.66,-277.99 -482.95,-450.49 74.08,-170.4 221.9,-301.98 406.4,-352.78l547.87 -151.34 170.03 -46.92 149.93 -41.63 48.33 -13.41 71.62 -402.16 14.82 -83.61 26.45 -147.46 0.36 -1.77 1.41 0.71 317.5 124.18 317.5 -124.18 1.41 -0.71 0.35 1.77 26.46 147.46 53.27 298.8 33.16 186.97 48.33 13.41 149.93 41.63 170.04 46.92 547.86 151.34c201.79,55.74 359.84,207.78 425.45,401.81z"/>
    </g>
    <g>
     <path class="fil3" d="M2736.37 3122.08c-41.27,227.89 -240.59,400.4 -480.48,400.4 -239.89,0 -439.21,-172.51 -480.49,-400.4l48.33 -13.41 71.62 -402.16 41.27 -231.07 0.36 -1.77 1.41 0.71 317.5 124.18 317.5 -124.18 1.41 -0.71 0.35 1.77 79.73 446.26 33.16 186.97 48.33 13.41z"/>
    </g>
    <path class="fil4" d="M2886.3 3163.71c-59.97,292.8 -319.61,513.64 -630.41,513.64 -310.8,0 -570.44,-220.84 -630.42,-513.64l149.93 -41.63c41.28,227.89 240.6,400.4 480.49,400.4 239.89,0 439.21,-172.51 480.48,-400.4l149.93 41.63z"/>
    <g>
     <path class="fil5" d="M2654.88 2921.7c-129.82,52.57 -236.01,52.57 -236.01,52.57 0,0 -315.03,0 -523.52,-267.76l41.27 -231.07 0.36 -1.77 1.41 0.71 317.5 124.18 317.5 -124.18 1.41 -0.71 0.35 1.77 79.73 446.26z"/>
    </g>
    <g>
     <g>
      <path class="fil6" d="M3065.27 1810.78c0,0 -22.84,557.53 -338.58,604.57l0 -604.57 338.58 0z"/>
      <path class="fil6" d="M1446.51 1810.78c0,0 22.84,557.53 338.57,604.57l0 -604.57 -338.57 0z"/>
     </g>
     <path class="fil6" d="M3029.01 1048.15c-24.65,-24.08 -88.05,20.62 -88.05,20.62 0,0 28.18,-109.24 0,-130.37 -28.18,-21.14 -78.11,32.29 -78.11,32.29 0,0 21.75,-95.69 -16.99,-113.3 -38.75,-17.61 -85.88,33.25 -85.88,33.25 9.23,-40.73 1.34,-79.04 -23.61,-93.13 -56.65,-17.61 -99.56,31.21 -99.56,31.21 0,0 1.23,-69.96 -48.08,-80.52 -49.31,-10.57 -89.17,36.15 -89.17,36.15 0,0 -16.49,-78.42 -62.28,-88.99 -45.79,-10.56 -73.97,59.47 -73.97,59.47 -14.09,-77.89 -107.42,-119.34 -107.42,-119.34 0,0 -93.33,41.45 -107.42,119.34 0,0 -28.18,-70.03 -73.97,-59.47 -45.79,10.57 -62.28,88.99 -62.28,88.99 0,0 -39.87,-46.72 -89.18,-36.15 -49.31,10.56 -48.07,80.52 -48.07,80.52 0,0 -42.91,-48.82 -99.57,-31.21 -24.95,14.09 -32.83,52.4 -23.61,93.13 0,0 -47.12,-50.86 -85.87,-33.25 -38.75,17.61 -16.99,113.3 -16.99,113.3 0,0 -49.93,-53.43 -78.11,-32.29 -28.18,21.13 0,130.37 0,130.37 0,0 -63.4,-44.7 -88.06,-20.62 -24.65,24.09 -84.81,426.87 -45.93,762.63l153.74 163.14 665.32 -84.42 665.32 84.42 153.74 -163.14c38.88,-335.76 -21.28,-738.54 -45.94,-762.63z"/>
     <g>
      <path class="fil3" d="M3117.64 1784.17c-4.28,-28.15 -14.7,-56.73 -36.19,-75.4 -19.38,-16.85 -46.03,-23.81 -71.69,-22.71 -25.65,1.11 -50.48,9.67 -73.59,20.86 0,0 -2.26,-650.36 -232.81,-657.92 -151.17,-7.56 -218.43,37.8 -447.47,37.8 -229.04,0 -296.3,-45.36 -447.48,-37.8 -230.54,7.56 -232.8,657.92 -232.8,657.92 -23.12,-11.19 -47.94,-19.75 -73.59,-20.86 -25.66,-1.1 -52.31,5.86 -71.69,22.71 -21.49,18.67 -31.91,47.25 -36.2,75.4 -8.59,56.5 4.93,116.07 37.08,163.31 32.15,47.25 79.61,82.78 135.32,95.51 98.27,687.84 689.36,687.84 689.36,687.84 0,0 591.09,0 689.35,-687.84 55.71,-12.73 103.18,-48.26 135.33,-95.51 32.15,-47.24 45.67,-106.81 37.07,-163.31z"/>
     </g>
     <path class="fil6" d="M2255.89 2029.94c-393.31,0 -448.01,172.48 -419.84,199.55 28.16,27.07 140.8,-37.63 140.8,-37.63 0,0 14.08,42.24 45.76,37.21 31.69,-5.02 52.81,-44.25 52.81,-44.25 0,0 14.08,38.72 42.24,43.82 28.16,5.11 49.28,-36.78 49.28,-36.78 0,0 31.68,45.76 59.16,35.2 27.48,-10.56 29.79,-56.32 29.79,-56.32 0,0 2.31,45.76 29.79,56.32 27.47,10.56 59.16,-35.2 59.16,-35.2 0,0 21.12,41.89 49.28,36.78 28.16,-5.1 42.24,-43.82 42.24,-43.82 0,0 21.12,39.23 52.8,44.25 31.68,5.03 45.76,-37.21 45.76,-37.21 0,0 112.65,64.7 140.81,37.63 28.16,-27.07 -26.53,-199.55 -419.84,-199.55z"/>
    </g>
    <g>
     <g>
      <path class="fil5" d="M2222.75 1613.45l0 403.61 68.4 0c117.26,0 -46.63,-357.23 -68.4,-403.61z"/>
     </g>
     <g>
      <g>
       <path class="fil6" d="M2720.08 1456.2c-94.54,-46.7 -199.62,-53.64 -298.17,-14.45 -41.75,16.6 -23.56,84.86 18.76,68.03 80.74,-32.1 165.31,-31.43 243.8,7.35 40.64,20.07 76.4,-40.77 35.61,-60.93z"/>
       <path class="fil6" d="M2634.97 1613.45c0,36.75 -29.79,66.54 -66.54,66.54 -36.75,0 -66.54,-29.79 -66.54,-66.54 0,-36.75 29.79,-66.53 66.54,-66.53 36.75,0 66.54,29.78 66.54,66.53z"/>
      </g>
      <g>
       <path class="fil6" d="M1791.7 1456.2c94.53,-46.7 199.62,-53.64 298.16,-14.45 41.75,16.6 23.57,84.86 -18.75,68.03 -80.74,-32.1 -165.31,-31.43 -243.8,7.35 -40.64,20.07 -76.4,-40.77 -35.61,-60.93z"/>
       <path class="fil6" d="M1876.81 1613.45c0,36.75 29.79,66.54 66.54,66.54 36.75,0 66.54,-29.79 66.54,-66.54 0,-36.75 -29.79,-66.53 -66.54,-66.53 -36.75,0 -66.54,29.78 -66.54,66.53z"/>
      </g>
     </g>
     <path class="fil7" d="M2039.09 2280.53c23.45,87.56 111.49,152.74 216.8,152.74 105.31,0 193.35,-65.18 216.8,-152.74l-433.6 0z"/>
    </g>
    <g>
     <path class="fil4" d="M3537.53 4198.76c-48.68,32.1 -98.78,62.44 -150.28,90.66l0 -612.07 150.28 521.41z"/>
     <path class="fil4" d="M1124.53 3677.35l0 578.2c-47.98,-28.22 -94.9,-58.2 -140.41,-90.31l140.41 -487.89z"/>
    </g>
   </g>
  </g>
 </g>
</svg>
