<?xml version="1.0" encoding="UTF-8"?>
<!DOCTYPE svg PUBLIC "-//W3C//DTD SVG 1.1//EN" "http://www.w3.org/Graphics/SVG/1.1/DTD/svg11.dtd">
<!-- Creator: CorelDRAW -->
<svg xmlns="http://www.w3.org/2000/svg" xml:space="preserve" width="45.717mm" height="45.717mm" version="1.1" style="shape-rendering:geometricPrecision; text-rendering:geometricPrecision; image-rendering:optimizeQuality; fill-rule:evenodd; clip-rule:evenodd"
viewBox="0 0 4571.7 4571.7"
 xmlns:xlink="http://www.w3.org/1999/xlink"
 xmlns:xodm="http://www.corel.com/coreldraw/odm/2003">
 <defs>
  <style type="text/css">
   <![CDATA[
    .fil0 {fill:none}
    .fil8 {fill:#051633;fill-rule:nonzero}
    .fil6 {fill:#461F62;fill-rule:nonzero}
    .fil2 {fill:#662D8E;fill-rule:nonzero}
    .fil7 {fill:#9341CC;fill-rule:nonzero}
    .fil1 {fill:#D6E9F0;fill-rule:nonzero}
    .fil5 {fill:#E44423;fill-rule:nonzero}
    .fil4 {fill:#F27967;fill-rule:nonzero}
    .fil3 {fill:#F69779;fill-rule:nonzero}
    .fil9 {fill:white;fill-rule:nonzero}
   ]]>
  </style>
 </defs>
 <g id="Camada_x0020_1">
  <metadata id="CorelCorpID_0Corel-Layer"/>
  <rect class="fil0" x="-0.15" y="0.15" width="4571.7" height="4571.7"/>
  <g id="_2060184625184">
   <path class="fil1" d="M4571.69 2286.01c0,660.03 -279.76,1254.82 -727.43,1672.51 -127.71,118.88 -269.17,223.66 -421.92,311.5 -22.58,13.05 -45.51,25.4 -68.44,37.39 -318.91,168.98 -682.27,264.59 -1068.2,264.59 -385.94,0 -749.3,-95.61 -1068.22,-264.59 -22.93,-11.99 -45.86,-24.34 -68.43,-37.39 -152.76,-87.84 -294.22,-192.62 -421.93,-311.5 -447.67,-417.69 -727.42,-1012.48 -727.42,-1672.51 0,-1262.6 1023.4,-2286 2286,-2286 1262.58,0 2285.99,1023.4 2285.99,2286z"/>
   <g>
    <g>
     <g>
      <g>
       <path class="fil2" d="M3844.26 3958.52c-127.71,118.88 -269.17,223.66 -421.92,311.5 -22.58,13.05 -45.51,25.4 -68.44,37.39 -318.91,168.98 -682.27,264.59 -1068.2,264.59 -385.94,0 -749.3,-95.61 -1068.22,-264.59 -22.93,-11.99 -45.86,-24.34 -68.43,-37.39 -152.76,-87.84 -294.22,-192.62 -421.93,-311.5 114.3,-153.46 270.58,-273.05 452.27,-342.9l198.61 -76.56 11.99 -4.58c107.6,-41.28 204.26,-101.96 286.81,-177.8 75.85,-69.5 139.7,-151.7 188.38,-243.07 39.87,-74.79 69.15,-155.92 87.14,-241.3l18.35 -89.25 0 -0.35 26.45 -127.71c0.36,0 0.36,0 0.36,0l37.39 -181.33 501.64 0 37.4 181.33 45.15 217.31c3.18,14.82 6.7,29.64 10.58,44.45 3.18,12.35 6.71,24.7 10.59,36.69 1.76,7.06 4.23,14.47 7.05,21.52 2.47,9.17 5.65,18.35 9.53,27.52 0.7,2.47 1.41,4.94 2.82,7.41 4.59,13.05 9.53,25.75 15.17,38.1 0.35,0.7 0.71,1.76 1.06,2.47 0,0.35 0.35,0.35 0.35,0.7 7.06,16.23 14.47,32.46 22.58,47.98 2.12,4.94 4.94,9.88 7.41,14.46 5.29,9.88 10.58,19.41 16.23,28.93 1.05,1.76 2.11,3.88 3.52,6 8.47,14.46 17.29,28.93 26.46,42.68l0.35 0.36c9.18,13.4 18.35,26.81 28.23,39.51 1.76,2.47 3.52,4.94 5.29,7.05 8.82,11.65 17.99,22.93 27.16,33.87 20.11,23.99 41.63,46.92 64.21,68.44 8.11,8.11 16.58,15.87 25.04,23.28 9.53,8.82 19.05,16.94 28.93,25.05 74.09,61.03 158.05,110.42 249.77,145.7l11.99 4.58 198.62 76.56c181.68,69.85 337.96,189.44 452.26,342.9z"/>
      </g>
      <g>
       <path class="fil3" d="M2931.62 3388.78c-472.37,351.72 -645.92,1048.45 -645.92,1048.45 -74.79,-370.41 -403.93,-825.14 -608.9,-1080.55 138.29,-126.65 236.01,-295.28 275.52,-484.37l18.35 -89.6 64.2 -309.04 501.64 0 82.55 398.64c13.05,62.09 32.1,121.71 56.8,178.16 57.5,131.93 145.34,247.65 255.76,338.31z"/>
      </g>
      <g>
       <g>
        <path class="fil4" d="M2675.86 3050.47c-93.84,26.81 -161.93,26.81 -161.93,26.81 0,0 -335.83,0 -543.26,-294.57l64.2 -309.04 501.64 0 82.55 398.64c13.05,62.09 32.1,121.71 56.8,178.16z"/>
       </g>
      </g>
      <g>
       <g>
        <g>
         <path class="fil5" d="M2665.62 683.6c0,0 350.75,-23.9 501.42,254.7l-43.61 0c0,0 90.45,85 117.54,302.21l-40.64 -47.22c0,0 203.17,968.02 -322.82,1114.39l-363.45 -1520.48 151.56 -103.6z"/>
        </g>
        <g>
         <path class="fil5" d="M1905.76 683.6c0,0 -350.74,-23.9 -501.42,254.7l43.61 0c0,0 -90.44,85 -117.53,302.21l40.63 -47.22c0,0 -203.17,968.02 322.82,1114.39l363.45 -1520.48 -151.56 -103.6z"/>
        </g>
       </g>
      </g>
      <g>
       <g>
        <path class="fil3" d="M3147.44 1784.17c-4.29,-28.15 -14.71,-56.73 -36.19,-75.4 -19.39,-16.85 -46.04,-23.81 -71.69,-22.71 -25.66,1.11 -50.48,9.67 -73.59,20.86 0,0 -2.27,-650.36 -232.81,-657.92 -151.18,-7.56 -218.43,37.8 -447.46,37.8 -229.04,0 -296.3,-45.36 -447.48,-37.8 -230.54,7.56 -232.8,657.92 -232.8,657.92 -23.12,-11.19 -47.95,-19.75 -73.6,-20.86 -25.65,-1.1 -52.3,5.86 -71.68,22.71 -21.5,18.67 -31.91,47.25 -36.2,75.4 -8.6,56.5 4.92,116.07 37.07,163.31 32.16,47.25 79.62,82.78 135.33,95.51 98.27,687.84 689.36,687.84 689.36,687.84 0,0 591.08,0 689.34,-687.84 55.71,-12.73 103.18,-48.26 135.33,-95.51 32.15,-47.24 45.67,-106.81 37.07,-163.31z"/>
       </g>
      </g>
     </g>
     <g>
      <g>
       <path class="fil6" d="M3011.42 3626.55l-79.59 0c0,0 -433.3,205.43 -646.13,810.73 0,0 181.53,-945.43 475.75,-1204.84l249.97 394.11z"/>
       <path class="fil7" d="M2704.25 3103.01c0,0 88.5,469.55 276.31,556.02 187.8,86.47 338.04,80.71 338.04,80.71 0,0 -98.39,-116.1 -149.96,-261.55 -39.73,-112.03 -113.19,-212.2 -219.57,-277.71 -63.3,-38.98 -143.97,-75 -244.82,-97.47z"/>
      </g>
      <g>
       <path class="fil6" d="M1559.96 3626.55l79.6 0c0,0 433.29,205.43 646.14,810.73 0,0 -181.55,-945.43 -475.77,-1204.84l-249.97 394.11z"/>
       <path class="fil7" d="M1867.13 3103.01c0,0 -88.5,469.55 -276.3,556.02 -187.81,86.47 -338.05,80.71 -338.05,80.71 0,0 98.39,-116.1 149.97,-261.55 39.72,-112.03 113.18,-212.2 219.56,-277.71 63.3,-38.98 143.97,-75 244.82,-97.47z"/>
      </g>
     </g>
     <g>
      <path class="fil5" d="M2763.38 975.79c0,0 -4.81,-428.92 -446.79,-437.95 -326.67,0 -708.43,356.68 -981.15,370.22 0,0 14.7,99.25 126.02,99.33l-126.02 81.27c0,0 84.42,68.12 226.91,27.09l-180.51 99.33c0,0 175.7,49.66 329.44,-22.58l-177.76 126.42c0,0 136.38,24.19 335.46,5.12 289.08,-27.69 457.22,-303.1 894.4,-269.62l0 -78.63z"/>
     </g>
     <g>
      <path class="fil6" d="M3422.34 4270.02c-22.58,13.05 -45.51,25.4 -68.44,37.39l0 -233.89 68.44 196.5z"/>
      <path class="fil6" d="M1217.48 4073.52l0 233.89c-22.93,-11.99 -45.86,-24.34 -68.43,-37.39l68.43 -196.5z"/>
     </g>
    </g>
    <g>
     <g>
      <path class="fil4" d="M2252.56 1673.1l0 403.6 68.39 0c117.26,0 -46.62,-357.22 -68.39,-403.6z"/>
     </g>
     <g>
      <g>
       <g>
        <path class="fil5" d="M2749.87 1515.85c-94.53,-46.7 -199.61,-53.64 -298.16,-14.46 -41.75,16.61 -23.56,84.87 18.76,68.04 80.74,-32.1 165.31,-31.43 243.8,7.34 40.64,20.08 76.4,-40.77 35.6,-60.92z"/>
       </g>
       <path class="fil8" d="M2664.76 1641.56c-21.47,-37.26 -66.53,-35 -66.53,-35 -36.75,0 -66.54,29.79 -66.54,66.54 0,36.75 29.79,66.54 66.54,66.54 8.1,0 15.77,-1.66 22.96,-4.32l0.04 0.18c0.43,-0.14 0.73,-0.4 1.16,-0.55 2.15,-0.84 4.15,-1.91 6.19,-2.96 58.18,-25.22 64.37,-89.82 64.37,-89.82 -11.6,9.77 -28.19,-0.61 -28.19,-0.61z"/>
      </g>
      <g>
       <g>
        <path class="fil5" d="M1821.51 1515.85c94.53,-46.7 199.62,-53.64 298.16,-14.46 41.75,16.61 23.56,84.87 -18.76,68.04 -80.74,-32.1 -165.3,-31.43 -243.79,7.34 -40.64,20.08 -76.4,-40.77 -35.61,-60.92z"/>
       </g>
       <path class="fil8" d="M1906.62 1641.56c21.47,-37.26 66.54,-35 66.54,-35 36.75,0 66.53,29.79 66.53,66.54 0,36.75 -29.78,66.54 -66.53,66.54 -8.11,0 -15.78,-1.66 -22.96,-4.32l-0.04 0.18c-0.44,-0.14 -0.74,-0.4 -1.16,-0.55 -2.15,-0.84 -4.16,-1.91 -6.19,-2.96 -58.19,-25.22 -64.38,-89.82 -64.38,-89.82 11.6,9.77 28.19,-0.61 28.19,-0.61z"/>
      </g>
     </g>
     <path class="fil9" d="M2068.9 2291.44c23.45,87.56 111.49,152.74 216.8,152.74 105.29,0 193.34,-65.18 216.79,-152.74l-433.59 0z"/>
    </g>
   </g>
  </g>
 </g>
</svg>
