<?xml version="1.0" encoding="UTF-8"?>
<!DOCTYPE svg PUBLIC "-//W3C//DTD SVG 1.1//EN" "http://www.w3.org/Graphics/SVG/1.1/DTD/svg11.dtd">
<!-- Creator: CorelDRAW -->
<svg xmlns="http://www.w3.org/2000/svg" xml:space="preserve" width="45.717mm" height="45.717mm" version="1.1" style="shape-rendering:geometricPrecision; text-rendering:geometricPrecision; image-rendering:optimizeQuality; fill-rule:evenodd; clip-rule:evenodd"
viewBox="0 0 4571.7 4571.7"
 xmlns:xlink="http://www.w3.org/1999/xlink"
 xmlns:xodm="http://www.corel.com/coreldraw/odm/2003">
 <defs>
  <style type="text/css">
   <![CDATA[
    .fil0 {fill:none}
    .fil6 {fill:#051633;fill-rule:nonzero}
    .fil2 {fill:#0C415B;fill-rule:nonzero}
    .fil3 {fill:#1C627C;fill-rule:nonzero}
    .fil5 {fill:#601613;fill-rule:nonzero}
    .fil4 {fill:#851F1A;fill-rule:nonzero}
    .fil1 {fill:#D6E9F0;fill-rule:nonzero}
    .fil7 {fill:white;fill-rule:nonzero}
   ]]>
  </style>
 </defs>
 <g id="Camada_x0020_1">
  <metadata id="CorelCorpID_0Corel-Layer"/>
  <rect class="fil0" x="-0.15" y="0.15" width="4571.7" height="4571.7"/>
  <g id="_2059961740544">
   <path class="fil1" d="M4571.52 2286.01c0,551.73 -195.44,1057.97 -521.05,1452.73 -154.52,187.67 -338.67,350.3 -545.05,480.83 -36.68,23.28 -73.73,45.51 -111.83,66.32 -328.08,182.39 -705.9,286.11 -1107.72,286.11 -401.81,0 -779.64,-103.72 -1107.72,-286.11 -38.1,-20.81 -75.5,-43.04 -111.83,-66.32 -206.73,-130.17 -390.53,-292.8 -545.04,-480.48 -325.97,-394.76 -521.41,-901 -521.41,-1453.08 0,-1262.6 1023.41,-2286 2286,-2286 1262.24,0 2285.65,1023.4 2285.65,2286z"/>
   <g>
    <g>
     <g>
      <path class="fil2" d="M4050.47 3738.74c-154.52,187.67 -338.67,350.3 -545.05,480.83 -36.68,23.28 -73.73,45.51 -111.83,66.32 -328.08,182.39 -705.9,286.11 -1107.72,286.11 -401.81,0 -779.64,-103.72 -1107.72,-286.11 -38.1,-20.81 -75.5,-43.04 -111.83,-66.32 -206.73,-130.17 -390.53,-292.8 -545.04,-480.48 70.2,-182.39 223.31,-323.85 416.27,-377.12l547.87 -151.34 82.55 -22.93 184.5 -50.8 101.25 -28.23 79.37 -444.85 7.06 -40.57 26.81 -149.58 40.92 16.23 277.99 108.66 277.99 -108.66 40.92 -16.23 26.81 149.58 70.91 398.64 15.52 86.78 103.37 28.58 181.68 50.45 83.25 22.93 547.87 151.34c192.97,53.27 345.72,194.73 416.28,376.77z"/>
     </g>
     <path class="fil3" d="M3003.77 3207.1c0,231.77 -321.38,419.45 -717.9,419.45 -396.52,0 -717.9,-187.68 -717.9,-419.45l0 -19.4 184.5 -50.8 101.25 -28.23 113.24 -635 318.91 124.89 318.91 -124.89 113.24 635 103.37 28.58 181.68 50.45c0.35,6.35 0.7,13.05 0.7,19.4z"/>
     <g>
      <path class="fil4" d="M2821.39 3137.25l-8.82 69.85c0,71.26 -205.32,207.79 -526.7,207.79 -321.38,0 -526.7,-136.53 -526.7,-207.79l-6.7 -70.2 101.25 -28.23 79.37 -444.85 33.87 -190.15 318.91 124.89 318.91 -124.89 97.72 548.22 15.52 86.78 103.37 28.58z"/>
     </g>
     <path class="fil5" d="M2702.5 3021.89c-98.42,29.28 -170.74,29.28 -170.74,29.28 0,0 -403.23,0 -598.67,-387.35l33.87 -190.15 318.91 124.89 318.91 -124.89 97.72 548.22z"/>
     <path class="fil6" d="M3041.02 1048.15c-129.22,-249.5 -754.09,-236.98 -754.09,-236.98l0 0.02 0 -0.02c0,0 -624.87,-12.52 -754.09,236.98 -106.42,219.1 -92.83,1294.69 219.63,1325.1l551.21 0 125.43 0 392.28 0c312.47,-30.41 326.05,-1106 219.63,-1325.1z"/>
     <g>
      <path class="fil4" d="M3110.67 1947.34c-32.11,47.27 -79.73,82.9 -135.47,95.6 -5.29,38.1 -12.35,74.44 -20.81,108.3 -141.12,579.61 -668.52,579.61 -668.52,579.61 0,0 -527.4,0 -668.51,-579.61 -8.47,-33.86 -15.52,-70.2 -20.82,-108.3 -55.74,-12.7 -103.36,-48.33 -135.46,-95.6 -32.11,-47.27 -45.51,-106.54 -37.04,-163.34 4.23,-27.87 14.81,-56.44 36.33,-75.14 19.4,-16.93 45.86,-23.99 71.62,-22.93 24.34,1.06 47.62,8.82 69.85,19.4 1.41,0.71 2.46,1.06 3.88,1.77 0,0 0,-50.8 5.64,-124.53 13.41,-189.09 61.03,-528.11 227.19,-533.4 150.99,-7.76 218.37,37.74 447.32,37.74 228.95,0 296.33,-45.5 447.32,-37.74 166.16,5.29 213.79,344.31 227.19,533.4 5.65,73.73 5.65,124.53 5.65,124.53 1.41,-0.71 2.47,-1.06 3.88,-1.77 22.22,-10.58 45.51,-18.34 69.85,-19.4 25.75,-1.06 52.21,6 71.61,22.93 21.52,18.7 32.1,47.27 36.34,75.14 8.46,56.8 -4.94,116.07 -37.04,163.34z"/>
     </g>
    </g>
    <path class="fil6" d="M2969.91 1705.33l-4.94 337.61 -10.58 108.3c-141.12,579.61 -668.52,579.61 -668.52,579.61 0,0 -527.4,0 -668.51,-579.61l-10.59 -108.3 -4.93 -337.61c1.41,0.71 2.46,1.06 3.88,1.77 0,0 0,-50.8 5.64,-124.53 29.99,43.74 107.95,189.09 107.95,517.17 0,0 123.83,30.34 176.04,144.29 52.56,113.93 65.97,354.53 390.52,354.53 324.56,0 337.96,-240.6 390.53,-354.53 52.21,-113.95 176.03,-144.29 176.03,-144.29 0,-328.08 77.97,-473.43 107.95,-517.17 5.65,73.73 5.65,124.53 5.65,124.53 1.41,-0.71 2.47,-1.06 3.88,-1.77z"/>
    <path class="fil6" d="M2385.21 2042.6c-58.03,-0.61 -85.98,22.56 -99.34,42.81 -13.36,-20.25 -41.31,-43.42 -99.34,-42.81 -76.86,0.8 -258.44,72.21 -258.44,72.21l345.86 0 23.84 0 345.86 0c0,0 -181.58,-71.41 -258.44,-72.21z"/>
    <g>
     <path class="fil5" d="M2252.73 1613.52l0 403.6 68.4 0c117.26,0 -46.62,-357.22 -68.4,-403.6z"/>
     <g>
      <g>
       <path class="fil6" d="M2750.06 1456.27c-94.53,-46.7 -199.62,-53.64 -298.16,-14.45 -41.75,16.6 -23.57,84.86 18.75,68.03 80.74,-32.1 165.31,-31.43 243.8,7.34 40.64,20.08 76.4,-40.77 35.61,-60.92z"/>
       <path class="fil6" d="M2664.95 1613.52c0,36.75 -29.79,66.54 -66.54,66.54 -36.75,0 -66.54,-29.79 -66.54,-66.54 0,-36.75 29.79,-66.54 66.54,-66.54 36.75,0 66.54,29.79 66.54,66.54z"/>
      </g>
      <g>
       <g>
        <path class="fil6" d="M1821.68 1456.27c94.54,-46.7 199.62,-53.64 298.17,-14.45 41.74,16.6 23.56,84.86 -18.76,68.03 -80.74,-32.1 -165.31,-31.43 -243.8,7.34 -40.64,20.08 -76.4,-40.77 -35.61,-60.92z"/>
        <path class="fil6" d="M1906.79 1613.52c0,36.75 29.79,66.54 66.54,66.54 36.75,0 66.54,-29.79 66.54,-66.54 0,-36.75 -29.79,-66.54 -66.54,-66.54 -36.75,0 -66.54,29.79 -66.54,66.54z"/>
       </g>
      </g>
     </g>
     <path class="fil7" d="M2069.07 2210.04c23.45,87.57 111.49,152.75 216.8,152.75 105.31,0 193.35,-65.18 216.8,-152.75l-433.6 0z"/>
    </g>
    <g>
     <path class="fil6" d="M3505.42 4219.57c-36.68,23.28 -73.73,45.51 -111.83,66.32l45.16 -451.2 66.67 384.88z"/>
     <path class="fil6" d="M1178.15 4285.89c-38.1,-20.81 -75.5,-43.04 -111.83,-66.32l66.67 -384.88 45.16 451.2z"/>
    </g>
   </g>
  </g>
 </g>
</svg>
