<?xml version="1.0" encoding="UTF-8"?>
<!DOCTYPE svg PUBLIC "-//W3C//DTD SVG 1.1//EN" "http://www.w3.org/Graphics/SVG/1.1/DTD/svg11.dtd">
<!-- Creator: CorelDRAW -->
<svg xmlns="http://www.w3.org/2000/svg" xml:space="preserve" width="45.717mm" height="45.717mm" version="1.1" style="shape-rendering:geometricPrecision; text-rendering:geometricPrecision; image-rendering:optimizeQuality; fill-rule:evenodd; clip-rule:evenodd"
viewBox="0 0 4571.7 4571.7"
 xmlns:xlink="http://www.w3.org/1999/xlink"
 xmlns:xodm="http://www.corel.com/coreldraw/odm/2003">
 <defs>
  <style type="text/css">
   <![CDATA[
    .fil0 {fill:none}
    .fil7 {fill:#051633;fill-rule:nonzero}
    .fil3 {fill:#3436A1;fill-rule:nonzero}
    .fil2 {fill:#4649D6;fill-rule:nonzero}
    .fil6 {fill:#7275F4;fill-rule:nonzero}
    .fil1 {fill:#D6E9F0;fill-rule:nonzero}
    .fil5 {fill:#F27967;fill-rule:nonzero}
    .fil4 {fill:#F69779;fill-rule:nonzero}
    .fil8 {fill:white;fill-rule:nonzero}
   ]]>
  </style>
 </defs>
 <g id="Camada_x0020_1">
  <metadata id="CorelCorpID_0Corel-Layer"/>
  <rect class="fil0" x="-0.15" y="0.15" width="4571.7" height="4571.7"/>
  <g id="_2059730866256">
   <path class="fil1" d="M4571.52 2286.18c0,555.62 -198.26,1065.03 -528.11,1460.85 -133.35,160.52 -288.57,302.68 -461.08,421.22 -37.75,26.46 -76.2,51.5 -115.71,75.14 -343.25,207.79 -745.42,327.38 -1175.45,328.44l-5.65 0c-21.87,0 -43.39,-0.36 -64.91,-1.06 -432.86,-12 -835.38,-144.29 -1175.46,-364.77 -35.98,-22.94 -70.9,-47.28 -105.48,-72.32 -171.45,-124.89 -324.55,-273.41 -455.08,-440.27 -303.74,-388.06 -484.72,-876.3 -484.72,-1407.23 0,-1262.59 1023.41,-2286 2285.65,-2286 1262.59,0 2286,1023.41 2286,2286z"/>
   <g>
    <g>
     <g>
      <g>
       <path class="fil2" d="M4043.41 3747.03c-133.35,160.52 -288.57,302.68 -461.08,421.22 -37.75,26.46 -76.2,51.5 -115.71,75.14 -343.25,207.79 -745.42,327.38 -1175.45,328.44l-5.65 0c-21.87,0 -43.39,-0.36 -64.91,-1.06 -432.86,-12 -835.38,-144.29 -1175.46,-364.77 -35.98,-22.94 -70.9,-47.28 -105.48,-72.32 -171.45,-124.89 -324.55,-273.41 -455.08,-440.27 67.03,-190.85 223.66,-340.08 422.98,-395.11l547.87 -151.34 173.21 -47.98 195.08 -53.98 59.98 -336.19 0 -0.36 17.64 -97.72 8.82 -51.5 17.28 -95.25 9.53 -53.98 292.1 114.3 26.81 10.59 26.81 -10.59 292.1 -114.3 9.52 53.98 17.29 95.25 26.46 149.22 0 0.36 23.28 131.23 36.69 204.96 195.09 53.98 173.21 47.98 547.86 151.34c217.67,59.97 384.53,232.48 439.21,448.73z"/>
      </g>
      <g>
       <path class="fil3" d="M2291.17 3517.73l0 1054.1 -5.65 0c-21.87,0 -43.39,-0.36 -64.91,-1.06l0 -1053.04c0,-20.47 15.87,-37.4 35.28,-37.4 19.4,0 35.28,16.93 35.28,37.4z"/>
      </g>
      <g>
       <path class="fil4" d="M2688.04 3045c0,0 -41.63,168.28 -93.84,243.77 -83.25,121.01 -130.17,75.14 -338.31,293.51 -236.01,-107.24 -432.16,-537.28 -432.16,-537.28l77.62 -434.27 35.63 -200.73 318.91 124.89 318.91 -124.89 76.55 430.04 36.69 204.96z"/>
      </g>
      <g>
       <path class="fil5" d="M2651.35 2840.04c-122.76,46.57 -220.48,46.57 -220.48,46.57 0,0 -321.38,0 -529.52,-275.88l35.63 -200.73 318.91 124.89 318.91 -124.89 76.55 430.04z"/>
      </g>
     </g>
     <g>
      <g>
       <polygon class="fil6" points="2622.39,2702.75 2723.5,3362.39 3032.06,3480.32 2802.14,2891.27 "/>
       <polygon class="fil3" points="2657.71,2933.19 2255.89,3582.27 2723.5,3362.39 "/>
      </g>
      <g>
       <polygon class="fil6" points="1889.38,2702.75 1788.28,3362.39 1479.72,3480.32 1709.64,2891.27 "/>
       <polygon class="fil3" points="1854.06,2933.19 2255.89,3582.27 1788.28,3362.39 "/>
      </g>
     </g>
    </g>
    <path class="fil7" d="M3120.27 1511.93c-11.42,-16.33 -100.67,73.19 -100.67,73.19 0,0 104.47,-162.98 81.64,-187.47 -22.82,-24.46 -90.13,56.38 -90.31,56.59l0 -0.01c0.17,-0.3 78.88,-138.24 67.47,-170.86 -11.42,-32.65 -84.19,41.62 -84.19,41.62 0,0 68.69,-116.9 52.27,-176.76 -16.42,-59.85 -86.49,22.23 -86.49,22.23 0,0 46.08,-172.78 19.78,-185.87 -26.3,-13.08 -74.12,40.88 -74.12,40.88 0,0 1.46,-150.23 -21.38,-174.72 -22.84,-24.49 -72.32,0 -72.32,0 0,0 3.81,-118.36 -23.21,-134.68 -27.02,-16.33 -113.82,24.49 -113.82,24.49 0,0 -3.81,-97.96 -45.68,-99.99 -41.86,-2.05 -95.16,50.58 -95.16,50.58 0,0 -22.83,-113.85 -60.14,-117.93 -37.3,-4.08 -95.92,67.35 -95.92,67.35 -38.06,-100 -122.13,-142.65 -122.13,-142.65 0,0 -84.07,42.65 -122.13,142.65 0,0 -58.62,-71.43 -95.92,-67.35 -37.31,4.08 -60.15,117.93 -60.15,117.93 0,0 -53.29,-52.63 -95.15,-50.58 -41.88,2.03 -45.68,99.99 -45.68,99.99 0,0 -86.8,-40.82 -113.82,-24.49 -27.02,16.32 -23.21,134.68 -23.21,134.68 0,0 -49.49,-24.49 -72.32,0 -22.84,24.49 -21.38,174.72 -21.38,174.72 0,0 -47.82,-53.96 -74.12,-40.88 -26.31,13.09 19.78,185.87 19.78,185.87 0,0 -70.07,-82.08 -86.49,-22.23 -16.42,59.86 52.27,176.76 52.27,176.76 0,0 -72.77,-74.27 -84.19,-41.62 -11.4,32.61 67.27,170.52 67.46,170.86 -0.19,-0.23 -67.49,-81.03 -90.3,-56.58 -22.83,24.48 81.63,187.46 81.64,187.47 -0.01,0 -89.25,-89.52 -100.67,-73.19 -10.24,14.64 80.38,157.03 99.17,186.23 0.39,30.84 1.33,48.94 1.33,48.94l143.38 163.14 620.5 -84.42 620.5 84.42 143.37 -163.14c0,0 0.95,-18.1 1.34,-48.93 18.79,-29.2 109.41,-171.59 99.17,-186.24z"/>
    <g>
     <path class="fil4" d="M3080.68 1883.66c-32.1,47.27 -79.73,82.9 -135.46,95.6 -98.08,687.92 -689.33,687.92 -689.33,687.92 0,0 -591.26,0 -689.33,-687.92 -55.74,-12.7 -103.36,-48.33 -135.47,-95.6 -32.1,-47.27 -45.51,-106.54 -37.04,-163.34 4.24,-27.87 14.82,-56.44 36.34,-75.14 19.4,-16.93 45.86,-23.99 71.61,-22.93 25.75,1.06 50.45,9.88 73.73,21.17 0,0 2.12,-650.52 232.84,-657.93 150.98,-7.76 218.36,37.74 447.32,37.74 228.95,0 296.33,-45.5 447.32,-37.74 230.72,7.41 232.83,657.93 232.83,657.93 23.29,-11.29 47.98,-20.11 73.73,-21.17 25.76,-1.06 52.22,6 71.62,22.93 21.52,18.7 32.1,47.27 36.33,75.14 8.47,56.8 -4.94,116.07 -37.04,163.34z"/>
    </g>
    <path class="fil7" d="M2255.89 2522.89c0,0 -9.88,1.06 -26.81,1.41l26.81 10.59 26.81 -10.59c-16.93,-0.35 -26.81,-1.41 -26.81,-1.41zm685.44 -686.5l0 0 -5.29 -192.97c0,0 -62.44,98.78 -100.89,261.05 -14.11,58.56 -25.05,125.59 -28.58,199.32 0,0 -227.89,-93.84 -550.68,-93.84 -161.22,0 -299.16,23.29 -396.52,46.92 -97.02,23.64 -154.17,46.92 -154.17,46.92 -3.53,-73.73 -14.46,-140.76 -28.57,-199.32 -38.46,-162.27 -100.9,-261.05 -100.9,-261.05l-5.29 192.97 -3.88 142.87c45.16,316.8 195.09,487.89 343.61,579.97 0,0 0,0.35 0.35,0.35 173.56,107.6 345.37,107.6 345.37,107.6 0,0 171.8,0 345.37,-107.6 0.35,0 0.35,-0.35 0.35,-0.35 148.52,-92.08 298.45,-263.17 343.61,-579.97l-3.89 -142.87zm-299.86 538.69l0 0c-5.99,38.45 -27.16,67.38 -57.15,88.9 -85.02,61.03 -239.89,62.44 -301.62,60.32 -16.93,-0.35 -26.81,-1.41 -26.81,-1.41 0,0 -9.88,1.06 -26.81,1.41 -61.74,2.12 -216.61,0.71 -301.63,-60.32 -29.98,-21.52 -51.15,-50.45 -57.15,-88.9 -26.46,-178.51 113.24,-285.4 385.59,-275.17 272.34,-10.23 412.04,96.66 385.58,275.17z"/>
    <g>
     <path class="fil3" d="M3582.33 4168.25c-37.75,26.46 -76.2,51.5 -115.71,75.14l0 -459.67 115.71 384.53z"/>
     <path class="fil3" d="M1045.15 3783.72l0 422.28c-35.98,-22.94 -70.9,-47.28 -105.48,-72.32l105.48 -349.96z"/>
    </g>
    <g>
     <g>
      <path class="fil5" d="M2222.75 1572.03l0 403.61 68.4 0c117.26,0 -46.63,-357.23 -68.4,-403.61z"/>
     </g>
     <g>
      <g>
       <path class="fil7" d="M2720.08 1414.78c-94.54,-46.7 -199.62,-53.63 -298.17,-14.45 -41.75,16.6 -23.56,84.86 18.76,68.04 80.74,-32.11 165.31,-31.44 243.8,7.34 40.64,20.07 76.4,-40.77 35.61,-60.93z"/>
       <path class="fil7" d="M2634.97 1572.03c0,36.75 -29.79,66.54 -66.54,66.54 -36.75,0 -66.54,-29.79 -66.54,-66.54 0,-36.74 29.79,-66.53 66.54,-66.53 36.75,0 66.54,29.79 66.54,66.53z"/>
      </g>
      <g>
       <path class="fil7" d="M1791.7 1414.78c94.53,-46.7 199.62,-53.63 298.16,-14.45 41.75,16.6 23.57,84.86 -18.75,68.04 -80.74,-32.11 -165.31,-31.44 -243.8,7.34 -40.64,20.07 -76.4,-40.77 -35.61,-60.93z"/>
       <path class="fil7" d="M1876.81 1572.03c0,36.75 29.79,66.54 66.54,66.54 36.75,0 66.54,-29.79 66.54,-66.54 0,-36.74 -29.79,-66.53 -66.54,-66.53 -36.75,0 -66.54,29.79 -66.54,66.53z"/>
      </g>
     </g>
     <path class="fil8" d="M2039.09 2239.11c23.45,87.57 111.49,152.75 216.8,152.75 105.31,0 193.35,-65.18 216.8,-152.75l-433.6 0z"/>
    </g>
   </g>
  </g>
 </g>
</svg>
