<?xml version="1.0" encoding="UTF-8"?>
<!DOCTYPE svg PUBLIC "-//W3C//DTD SVG 1.1//EN" "http://www.w3.org/Graphics/SVG/1.1/DTD/svg11.dtd">
<!-- Creator: CorelDRAW -->
<svg xmlns="http://www.w3.org/2000/svg" xml:space="preserve" width="45.717mm" height="45.717mm" version="1.1" style="shape-rendering:geometricPrecision; text-rendering:geometricPrecision; image-rendering:optimizeQuality; fill-rule:evenodd; clip-rule:evenodd"
viewBox="0 0 4571.7 4571.7"
 xmlns:xlink="http://www.w3.org/1999/xlink"
 xmlns:xodm="http://www.corel.com/coreldraw/odm/2003">
 <defs>
  <style type="text/css">
   <![CDATA[
    .fil0 {fill:none}
    .fil2 {fill:#FFC82A;fill-rule:nonzero}
    .fil7 {fill:#051633;fill-rule:nonzero}
    .fil6 {fill:#A80060;fill-rule:nonzero}
    .fil1 {fill:#D6E9F0;fill-rule:nonzero}
    .fil5 {fill:#E20080;fill-rule:nonzero}
    .fil4 {fill:#F27967;fill-rule:nonzero}
    .fil3 {fill:#F69779;fill-rule:nonzero}
    .fil8 {fill:white;fill-rule:nonzero}
   ]]>
  </style>
 </defs>
 <g id="Camada_x0020_1">
  <metadata id="CorelCorpID_0Corel-Layer"/>
  <rect class="fil0" x="-0.15" y="0.15" width="4571.7" height="4571.7"/>
  <g id="_2059728725840">
   <path class="fil1" d="M4571.69 2286.18c0,646.64 -268.82,1230.84 -700.62,1646.41 -2.12,2.47 -4.59,4.59 -6.7,6.71 -154.17,147.1 -328.44,273.05 -518.94,372.53 -33.51,17.64 -67.38,34.57 -101.95,50.45 -291.04,134.4 -615.6,209.55 -957.78,209.55 -342.2,0 -666.75,-75.15 -957.8,-209.55 -34.57,-15.88 -68.43,-32.81 -101.95,-50.45 -190.5,-99.48 -364.77,-225.43 -518.93,-372.53 -2.12,-2.12 -4.59,-4.24 -6.71,-6.71 -431.8,-415.57 -700.61,-999.77 -700.61,-1646.41 0,-1262.59 1023.4,-2286 2286,-2286 1262.58,0 2285.99,1023.41 2285.99,2286z"/>
   <g>
    <g>
     <path class="fil2" d="M3208.81 1463.18c0,0 10.52,-393.46 -340.66,-662.85 -60.38,-52.23 -130.76,-90.83 -201.5,-119.47 -1.08,-0.49 -2.06,-1.01 -3.13,-1.49l-0.65 -0.13c-20.69,-8.27 -41.37,-15.93 -61.81,-22.59 -204.45,-66.56 -426.28,-66.56 -630.74,0 -20.44,6.66 -41.12,14.32 -61.81,22.59l-0.65 0.13c-1.07,0.48 -2.05,1 -3.13,1.49 -70.73,28.64 -141.12,67.24 -201.5,119.47 -351.18,269.39 -340.65,662.85 -340.65,662.85l-276.34 2569.94 1199.46 0 1199.44 0 -276.33 -2569.94z"/>
     <g>
      <path class="fil3" d="M3875.66 3939.3l-11.29 0c-154.17,147.1 -328.44,273.05 -518.94,372.53 -33.51,17.64 -67.38,34.57 -101.95,50.45 -291.04,134.4 -615.6,209.55 -957.78,209.55 -342.2,0 -666.75,-75.15 -957.8,-209.55 -34.57,-15.88 -68.43,-32.81 -101.95,-50.45 -190.5,-99.48 -364.77,-225.43 -518.93,-372.53l-11.29 0c1.41,-2.12 3.17,-4.59 4.58,-6.71 107.6,-158.75 258.24,-285.04 435.68,-362.65 14.47,-6.35 28.93,-12.35 43.4,-17.99l112.53 -43.4 98.07 -37.74c0.71,-0.36 1.41,-0.71 2.12,-0.71 286.81,-111.12 497.42,-360.19 560.21,-661.46l17.29 -82.9 27.87 -134.41 37.39 -181.33 501.64 0 37.4 181.33 45.15 217.31c10.58,50.1 25.05,99.13 43.39,146.05 91.73,234.6 277.99,422.98 516.82,515.41 0.71,0 1.41,0.35 2.12,0.71l98.07 37.74 112.54 43.4c14.46,5.64 28.93,11.64 43.39,17.99 177.45,77.61 328.08,203.9 435.68,362.65 1.41,2.12 3.17,4.59 4.59,6.71z"/>
     </g>
     <g>
      <g>
       <path class="fil4" d="M2662.45 2954.69c-100.89,31.05 -176.03,31.05 -176.03,31.05 0,0 -309.03,0 -516.81,-260l65.26 -315.74 501.64 0 82.55 398.64c10.58,50.1 25.05,99.13 43.39,146.05z"/>
      </g>
     </g>
     <g>
      <g>
       <path class="fil3" d="M3110.48 1883.66c-32.1,47.27 -79.73,82.9 -135.47,95.6 -98.07,687.92 -689.31,687.92 -689.31,687.92 0,0 -399,0 -595.49,-381.35 0.7,-126.65 21.52,-253.3 61.73,-373.6 32.11,-95.6 75.85,-187.67 100.9,-285.75 21.52,-84.66 33.51,-172.15 38.1,-260.35 1.76,-29.28 2.47,-58.91 2.47,-88.19 0,-6.7 0,-13.41 0.35,-20.11 1.06,-26.1 4.59,-51.86 9.88,-77.26 10.23,-14.81 190.15,-271.64 553.5,-294.92 0,0 243.77,3.53 434.27,238.48 4.23,9.88 7.4,19.4 10.58,28.57 19.4,58.92 20.81,100.19 20.81,100.19 1.06,4.59 2.12,9.17 2.83,13.76 39.51,178.51 40.21,376.77 40.21,376.77 23.29,-11.29 47.98,-20.11 73.73,-21.17 25.76,-1.06 52.21,6 71.62,22.93 21.52,18.7 32.1,47.27 36.33,75.14 8.47,56.8 -4.94,116.07 -37.04,163.34z"/>
      </g>
     </g>
    </g>
    <g>
     <path class="fil5" d="M2925.63 1266.65c-149.23,94.9 -399.35,139 -648.05,139 -138.99,0 -271.99,-13.76 -386.64,-39.52 1.76,-29.28 2.47,-58.91 2.47,-88.19 0,-6.7 0,-13.41 0.35,-20.11 108.66,26.46 240.24,41.98 383.82,41.98 283.63,0 521.4,-59.62 624.41,-147.11 19.4,58.92 20.81,100.19 20.81,100.19 1.06,4.59 2.12,9.17 2.83,13.76z"/>
    </g>
    <g>
     <g>
      <path class="fil5" d="M3279.46 3508.55l-83.96 430.75 -22.58 115c-4.94,25.4 -27.16,42.69 -51.86,42.69 -3.52,0 -6.7,-0.36 -10.23,-0.71 -28.57,-5.64 -47.27,-33.51 -41.62,-62.09l18.34 -93.13 91.72 -470.96c0.71,0 1.41,0.35 2.12,0.71l98.07 37.74z"/>
     </g>
     <g>
      <path class="fil5" d="M1460.55 4096.28c-3.53,0.35 -6.7,0.71 -10.23,0.71 -24.7,0 -46.92,-17.29 -51.86,-42.69l-22.58 -115 -83.96 -430.75 98.07 -37.74c0.71,-0.36 1.41,-0.71 2.12,-0.71l91.72 470.96 18.35 93.13c5.64,28.58 -13.06,56.45 -41.63,62.09z"/>
     </g>
    </g>
    <path class="fil5" d="M3864.37 3939.3c-154.17,147.1 -328.44,273.05 -518.94,372.53 -33.51,17.64 -67.38,34.57 -101.95,50.45 -291.04,134.4 -615.6,209.55 -957.78,209.55 -342.2,0 -666.75,-75.15 -957.8,-209.55 -34.57,-15.88 -68.43,-32.81 -101.95,-50.45 -190.5,-99.48 -364.77,-225.43 -518.93,-372.53l733.42 0c14.46,0 28.93,0.7 43.39,1.76 68.79,4.59 136.53,21.17 201.44,45.51 51.86,19.75 107.24,34.92 162.63,46.56 219.78,46.92 437.8,38.81 437.8,38.81 0,0 218,8.11 437.78,-38.81 55.39,-11.64 110.78,-26.81 162.63,-46.56 64.92,-24.34 132.65,-40.92 201.44,-45.51 14.46,-1.06 28.93,-1.76 43.39,-1.76l733.43 0z"/>
    <g>
     <path class="fil6" d="M3345.43 4311.83c-33.51,17.64 -67.38,34.57 -101.95,50.45l-16.94 -232.84 118.89 182.39z"/>
     <path class="fil6" d="M1344.84 4129.44l-16.94 232.84c-34.57,-15.88 -68.43,-32.81 -101.95,-50.45l118.89 -182.39z"/>
    </g>
    <g>
     <g>
      <path class="fil4" d="M2252.56 1673.21l0 403.6 68.39 0c117.26,0 -46.62,-357.23 -68.39,-403.6z"/>
     </g>
     <g>
      <g>
       <path class="fil7" d="M2749.87 1515.95c-94.53,-46.7 -199.61,-53.63 -298.16,-14.45 -41.75,16.6 -23.56,84.86 18.76,68.04 80.74,-32.11 165.31,-31.44 243.8,7.34 40.64,20.07 76.4,-40.77 35.6,-60.93z"/>
       <path class="fil7" d="M2664.76 1641.66c-21.47,-37.25 -66.53,-34.99 -66.53,-34.99 -36.75,0 -66.54,29.79 -66.54,66.54 0,36.74 29.79,66.53 66.54,66.53 8.1,0 15.77,-1.66 22.96,-4.31l0.03 0.18c0.44,-0.15 0.74,-0.4 1.16,-0.55 2.16,-0.84 4.16,-1.91 6.2,-2.96 58.18,-25.23 64.37,-89.83 64.37,-89.83 -11.6,9.78 -28.19,-0.61 -28.19,-0.61z"/>
      </g>
      <g>
       <path class="fil7" d="M1821.51 1515.95c94.53,-46.7 199.62,-53.63 298.16,-14.45 41.75,16.6 23.56,84.86 -18.76,68.04 -80.74,-32.11 -165.3,-31.44 -243.79,7.34 -40.64,20.07 -76.41,-40.77 -35.61,-60.93z"/>
       <path class="fil7" d="M1906.62 1641.66c21.47,-37.25 66.54,-34.99 66.54,-34.99 36.75,0 66.53,29.79 66.53,66.54 0,36.74 -29.78,66.53 -66.53,66.53 -8.11,0 -15.78,-1.66 -22.97,-4.31l-0.03 0.18c-0.44,-0.15 -0.74,-0.4 -1.16,-0.55 -2.15,-0.84 -4.16,-1.91 -6.19,-2.96 -58.19,-25.23 -64.38,-89.83 -64.38,-89.83 11.6,9.78 28.19,-0.61 28.19,-0.61z"/>
      </g>
     </g>
     <path class="fil8" d="M2068.9 2291.54c23.45,87.57 111.49,152.76 216.8,152.76 105.29,0 193.34,-65.19 216.79,-152.76l-433.59 0z"/>
    </g>
   </g>
  </g>
 </g>
</svg>
