<?xml version="1.0" encoding="UTF-8"?>
<!DOCTYPE svg PUBLIC "-//W3C//DTD SVG 1.1//EN" "http://www.w3.org/Graphics/SVG/1.1/DTD/svg11.dtd">
<!-- Creator: CorelDRAW -->
<svg xmlns="http://www.w3.org/2000/svg" xml:space="preserve" width="45.717mm" height="45.717mm" version="1.1" style="shape-rendering:geometricPrecision; text-rendering:geometricPrecision; image-rendering:optimizeQuality; fill-rule:evenodd; clip-rule:evenodd"
viewBox="0 0 4571.7 4571.7"
 xmlns:xlink="http://www.w3.org/1999/xlink"
 xmlns:xodm="http://www.corel.com/coreldraw/odm/2003">
 <defs>
  <style type="text/css">
   <![CDATA[
    .fil0 {fill:none}
    .fil3 {fill:#051633;fill-rule:nonzero}
    .fil4 {fill:#1C3862;fill-rule:nonzero}
    .fil9 {fill:#3436A1;fill-rule:nonzero}
    .fil2 {fill:#4649D6;fill-rule:nonzero}
    .fil8 {fill:#7275F4;fill-rule:nonzero}
    .fil1 {fill:#D6E9F0;fill-rule:nonzero}
    .fil7 {fill:#F27967;fill-rule:nonzero}
    .fil5 {fill:#F69779;fill-rule:nonzero}
    .fil6 {fill:#FFA33B;fill-rule:nonzero}
    .fil10 {fill:white;fill-rule:nonzero}
   ]]>
  </style>
 </defs>
 <g id="Camada_x0020_1">
  <metadata id="CorelCorpID_0Corel-Layer"/>
  <rect class="fil0" x="-0.15" y="0.15" width="4571.7" height="4571.7"/>
  <g id="_2095544085008">
   <path class="fil1" d="M4571.52 2286.17c0,542.92 -189.44,1041.75 -505.53,1433.69 -142.88,177.44 -311.86,332.67 -500.95,460.37 -47.62,32.46 -96.66,63.15 -146.75,91.72 -63.85,36.69 -129.82,70.21 -197.56,100.55 -238.12,106.89 -497.77,174.27 -770.82,193.32 -47.62,3.53 -95.25,5.64 -143.58,5.64 -6.7,0.36 -13.76,0.36 -20.46,0.36 -6.7,0 -13.05,0 -19.75,-0.36 -92.43,-0.35 -183.45,-6.7 -273.05,-18.34 -226.13,-28.93 -441.68,-90.67 -642.06,-180.62 -67.73,-30.34 -133.7,-63.86 -197.56,-100.55 -50.09,-28.57 -99.13,-58.91 -146.75,-91.36 -189.09,-127.71 -358.07,-283.29 -500.95,-460.73 -316.44,-391.94 -505.88,-890.77 -505.88,-1433.69 0,-1262.59 1023.41,-2286 2286,-2286 1262.24,0 2285.65,1023.41 2285.65,2286z"/>
   <g>
    <g>
     <g>
      <path class="fil2" d="M4065.99 3719.86c-142.88,177.44 -311.86,332.67 -500.95,460.37 -47.62,32.46 -96.66,63.15 -146.75,91.72 -63.85,36.69 -129.82,70.21 -197.56,100.55 -238.12,106.89 -497.77,174.27 -770.82,193.32 -47.62,3.53 -95.25,5.64 -143.58,5.64 -6.7,0.36 -13.76,0.36 -20.46,0.36 -6.7,0 -13.05,0 -19.75,-0.36 -92.43,-0.35 -183.45,-6.7 -273.05,-18.34 -226.13,-28.93 -441.68,-90.67 -642.06,-180.62 -67.73,-30.34 -133.7,-63.86 -197.56,-100.55 -50.09,-28.57 -99.13,-58.91 -146.75,-91.36 -189.09,-127.71 -358.07,-283.29 -500.95,-460.73 61.39,-203.56 223.31,-364.07 431.8,-421.57l387.71 -107.25 160.16 -44.09 334.43 -92.78 18.35 -4.94 15.52 -4.24 19.75 -111.47 0 -0.36 20.11 -111.12 9.88 -56.8 30.34 -168.98 6.35 -37.04 26.81 -149.23 279.4 109.36 39.51 15.53 39.51 -15.53 279.4 -109.36 26.81 149.23 4.59 27.16 17.64 99.49 0.35 0 23.99 136.17 39.86 222.95 15.53 4.24 18.69 5.29 334.08 92.43 160.17 44.45 387.7 106.89c208.49,57.5 370.41,218.01 431.8,421.57z"/>
     </g>
     <path class="fil3" d="M2982.56 1025.46c-81.57,-152.96 -237.58,-237.6 -381.32,-284.39 -204.45,-66.57 -426.29,-66.57 -630.74,0 -143.74,46.79 -299.75,131.43 -381.32,284.39 -147.46,282.37 -122.36,721.63 -122.36,721.63l153.73 163.14 665.32 -84.42 665.32 84.42 153.74 -163.14c0,0 25.1,-439.26 -122.37,-721.63z"/>
     <path class="fil4" d="M2058.88 1096.83c0,0 -244.2,-258.15 -94.28,-448.5 7.98,-10.13 20.7,-15.52 33.59,-15.52l25.22 0c22.19,0 42.96,-10.95 55.49,-29.27l46.92 -68.56c14.45,-21.13 45.09,-22.58 61.47,-2.92l12.55 15.05c15.27,18.33 42.99,19.59 59.87,2.71l30.84 -30.84c14.6,-14.6 38.12,-15.12 53.35,-1.16l31.11 28.53c16.57,15.19 42.34,14.01 57.46,-2.62l9.2 -10.12c18,-19.81 50.22,-15.71 62.69,7.98l34.78 66.08c7.68,14.6 24.63,21.72 40.43,16.98l12.7 -3.81c20.64,-6.2 42.63,3.45 51.98,22.87 34.07,70.8 90.91,244.24 -62.42,408.93l-522.95 44.19z"/>
     <g>
      <path class="fil5" d="M3147.63 1720.48c-4.29,-28.15 -14.71,-56.73 -36.2,-75.4 -19.38,-16.85 -46.03,-23.81 -71.68,-22.71 -25.66,1.11 -50.49,9.67 -73.6,20.86 0,0 -2.26,-650.36 -232.8,-657.92 -151.18,-7.56 -218.43,37.8 -447.48,37.8 -229.04,0 -296.29,-45.36 -447.47,-37.8 -230.55,7.56 -232.81,657.92 -232.81,657.92 -23.11,-11.19 -47.94,-19.75 -73.59,-20.86 -25.66,-1.1 -52.3,5.86 -71.69,22.71 -21.49,18.67 -31.9,47.25 -36.19,75.4 -8.6,56.5 4.92,116.07 37.07,163.31 32.15,47.25 79.61,82.78 135.33,95.51 98.26,687.85 689.35,687.85 689.35,687.85 0,0 591.09,0 689.36,-687.85 55.71,-12.73 103.17,-48.26 135.32,-95.51 32.15,-47.24 45.68,-106.81 37.08,-163.31z"/>
     </g>
    </g>
    <path class="fil6" d="M2885.59 3317.34l-435.68 1248.48c-47.62,3.53 -95.25,5.64 -143.58,5.64 -6.7,0.36 -13.76,0.36 -20.46,0.36 -6.7,0 -13.05,0 -19.75,-0.36 -92.43,-0.35 -183.45,-6.7 -273.05,-18.34l-306.57 -1235.78 133.35 -263.17 111.13 0 801.86 0.35 19.4 0 133.35 262.82z"/>
    <g>
     <path class="fil5" d="M2733.55 3049.23c-2.47,19.75 -7.76,38.8 -16.23,57.15 -53.62,121.71 -226.84,210.96 -431.45,210.96 -235.65,0 -429.68,-118.18 -447.67,-268.11l15.52 -4.24 19.75 -111.83 60.33 -336.9 33.16 -186.27 279.4 109.36 0 215.9c13.05,-0.7 26.11,-1.05 39.51,-1.05 13.41,0 26.46,0.35 39.51,1.05l0 -215.9 279.4 -109.36 49.39 275.88 63.85 359.12 15.53 4.24z"/>
    </g>
    <g>
     <path class="fil7" d="M2733.55 3049.23c-2.47,19.75 -7.76,38.8 -16.23,57.15 -79.73,28.22 -136.88,17.99 -136.88,17.99 0,0 -58.56,88.19 -217.31,88.19 -159.1,0 -217.66,-88.19 -217.66,-88.19 0,0 -64.56,11.64 -152.4,-23.64 -68.8,-28.57 -102.66,-101.24 -119.6,-167.57l60.33 -336.9c4.23,3.88 8.47,7.76 12.7,11.64 80.08,71.62 184.15,110.77 291.75,110.77l249.41 0c57.5,0 113.95,-11.28 166.51,-32.8l63.85 359.12 15.53 4.24z"/>
    </g>
    <g>
     <path class="fil8" d="M3040.11 3986.2l180.62 386.3c-238.12,106.89 -497.77,174.27 -770.82,193.32 -47.62,3.53 -95.25,5.64 -143.58,5.64l445.91 -1516.94 334.08 92.43 160.17 44.45 261.05 459.67 -467.43 335.13z"/>
     <path class="fil8" d="M2266.12 4571.46c-92.43,-0.35 -183.45,-6.7 -273.05,-18.34 -226.13,-28.93 -441.68,-90.67 -642.06,-180.62l180.98 -386.3 -467.44 -335.13 260.71 -460.03 160.16 -44.09 334.43 -92.78 446.27 1517.29z"/>
    </g>
    <path class="fil3" d="M2966.15 1643.23c-131.03,171.98 -92.43,490.89 -92.43,490.89 -35.78,74.31 -106.34,148.62 -171.29,206.65 -80.25,71.7 -184.27,110.85 -291.89,110.85l-124.67 0 -124.66 0c-107.63,0 -211.65,-39.15 -291.9,-110.85 -64.95,-58.03 -135.51,-132.34 -171.28,-206.65 0,0 38.59,-318.91 -92.44,-490.89 0,0 -48.67,790.75 74.8,890.71 58.79,58.79 99.95,0 99.95,0 0,0 -5.19,241.06 135.58,299.86 87.85,35.27 152.52,23.52 152.52,23.52 0,0 58.56,88.19 217.43,88.19 158.87,0 217.43,-88.19 217.43,-88.19 0,0 64.68,11.75 152.53,-23.52 140.76,-58.8 135.57,-299.86 135.57,-299.86 0,0 41.16,58.79 99.95,0 123.48,-99.96 74.8,-890.71 74.8,-890.71z"/>
    <g>
     <path class="fil9" d="M3565.04 4180.23c-47.62,32.46 -96.66,63.15 -146.75,91.72l94.9 -517.17 51.85 425.45z"/>
     <path class="fil9" d="M1153.45 4271.95c-50.09,-28.57 -99.13,-58.91 -146.75,-91.36l51.86 -425.81 94.89 517.17z"/>
    </g>
    <g>
     <g>
      <path class="fil7" d="M2252.74 1585.04l0 403.6 68.39 0c117.26,0 -46.62,-357.22 -68.39,-403.6z"/>
     </g>
     <g>
      <g>
       <path class="fil3" d="M2750.06 1427.79c-94.53,-46.7 -199.62,-53.64 -298.16,-14.45 -41.75,16.6 -23.57,84.86 18.75,68.03 80.74,-32.1 165.31,-31.43 243.8,7.34 40.64,20.08 76.4,-40.77 35.61,-60.92z"/>
       <path class="fil3" d="M2664.95 1585.04c0,36.75 -29.79,66.54 -66.54,66.54 -36.74,0 -66.54,-29.79 -66.54,-66.54 0,-36.75 29.8,-66.54 66.54,-66.54 36.75,0 66.54,29.79 66.54,66.54z"/>
      </g>
      <g>
       <path class="fil3" d="M1821.68 1427.79c94.54,-46.7 199.62,-53.64 298.17,-14.45 41.75,16.6 23.56,84.86 -18.76,68.03 -80.74,-32.1 -165.31,-31.43 -243.8,7.34 -40.64,20.08 -76.4,-40.77 -35.61,-60.92z"/>
       <path class="fil3" d="M1906.79 1585.04c0,36.75 29.8,66.54 66.54,66.54 36.75,0 66.54,-29.79 66.54,-66.54 0,-36.75 -29.79,-66.54 -66.54,-66.54 -36.74,0 -66.54,29.79 -66.54,66.54z"/>
      </g>
     </g>
     <path class="fil10" d="M2069.07 2252.12c23.45,87.57 111.49,152.75 216.8,152.75 105.31,0 193.35,-65.18 216.8,-152.75l-433.6 0z"/>
    </g>
   </g>
  </g>
 </g>
</svg>
