<?xml version="1.0" encoding="UTF-8"?>
<!DOCTYPE svg PUBLIC "-//W3C//DTD SVG 1.1//EN" "http://www.w3.org/Graphics/SVG/1.1/DTD/svg11.dtd">
<!-- Creator: CorelDRAW -->
<svg xmlns="http://www.w3.org/2000/svg" xml:space="preserve" width="45.717mm" height="45.717mm" version="1.1" style="shape-rendering:geometricPrecision; text-rendering:geometricPrecision; image-rendering:optimizeQuality; fill-rule:evenodd; clip-rule:evenodd"
viewBox="0 0 4571.7 4571.7"
 xmlns:xlink="http://www.w3.org/1999/xlink"
 xmlns:xodm="http://www.corel.com/coreldraw/odm/2003">
 <defs>
  <style type="text/css">
   <![CDATA[
    .fil0 {fill:none}
    .fil2 {fill:#051633;fill-rule:nonzero}
    .fil7 {fill:#708E26;fill-rule:nonzero}
    .fil4 {fill:#A1CC36;fill-rule:nonzero}
    .fil1 {fill:#D6E9F0;fill-rule:nonzero}
    .fil3 {fill:#E44423;fill-rule:nonzero}
    .fil6 {fill:#F27967;fill-rule:nonzero}
    .fil5 {fill:#F69779;fill-rule:nonzero}
    .fil8 {fill:white;fill-rule:nonzero}
   ]]>
  </style>
 </defs>
 <g id="Camada_x0020_1">
  <metadata id="CorelCorpID_0Corel-Layer"/>
  <rect class="fil0" x="-0.15" y="0.15" width="4571.7" height="4571.7"/>
  <g id="_2059966981952">
   <path class="fil1" d="M4571.52 2286.01c0,660.03 -279.75,1254.82 -727.43,1672.15 -149.58,139.7 -317.85,259.29 -500.94,354.9 -53.27,27.87 -107.6,53.62 -162.99,77.26 -76.2,32.45 -154.16,61.03 -234.24,84.66 -53.62,16.23 -107.95,30.69 -162.98,42.69 -18.35,4.23 -37.05,8.11 -55.74,11.64 -142.88,28.22 -290.34,42.69 -441.33,42.69 -150.99,0 -298.45,-14.47 -441.32,-42.69 -58.21,-11.29 -115.36,-24.69 -171.81,-40.57 -15.52,-4.23 -31.39,-8.82 -46.92,-13.76 -80.08,-23.99 -158.39,-52.21 -234.59,-84.66 -55.39,-23.64 -110.07,-49.39 -162.99,-77.26 -183.09,-95.61 -351.36,-215.2 -500.94,-354.54 -447.68,-417.69 -727.43,-1012.48 -727.43,-1672.51 0,-1262.6 1023.41,-2286 2286,-2286 1262.24,0 2285.65,1023.4 2285.65,2286z"/>
   <g>
    <path class="fil2" d="M3105.08 1738.28l-0.15 -0.08c0.1,-1.68 24.81,-439.71 -122.37,-721.55 -81.57,-152.95 -237.58,-237.59 -381.32,-284.39 -204.45,-66.56 -426.29,-66.56 -630.74,0 -143.74,46.8 -299.75,131.44 -381.32,284.39 -147.17,281.83 -122.47,719.84 -122.37,721.55l-0.15 0.08c-21.72,388.29 -299.26,735.39 -97.31,948.27 393.54,336.59 916.52,-207.12 916.52,-207.12 0,0 522.98,543.71 916.52,207.12 201.95,-212.88 -75.59,-559.98 -97.31,-948.27z"/>
    <g>
     <path class="fil3" d="M3844.09 3958.16c-149.58,139.7 -317.85,259.29 -500.94,354.9 -53.27,27.87 -107.6,53.62 -162.99,77.26 -76.2,32.45 -154.16,61.03 -234.24,84.66 -53.62,16.23 -107.95,30.69 -162.98,42.69 -18.35,4.23 -37.05,8.11 -55.74,11.64 -142.88,28.22 -290.34,42.69 -441.33,42.69 -150.99,0 -298.45,-14.47 -441.32,-42.69 -58.21,-11.29 -115.36,-24.69 -171.81,-40.57 -15.52,-4.23 -31.39,-8.82 -46.92,-13.76 -80.08,-23.99 -158.39,-52.21 -234.59,-84.66 -55.39,-23.64 -110.07,-49.39 -162.99,-77.26 -183.09,-95.61 -351.36,-215.2 -500.94,-354.54 114.3,-153.46 270.58,-273.05 452.26,-342.9l210.61 -81.14c12.7,-4.94 25.4,-10.23 37.75,-15.53 9.52,-4.23 19.05,-8.46 28.22,-13.05 9.88,-4.58 19.75,-9.52 29.28,-14.81 10.23,-4.94 20.46,-10.59 30.34,-16.59 27.51,-15.52 53.97,-32.45 79.37,-50.8l0 -0.35c11.64,-8.11 22.93,-16.58 33.87,-25.4 95.25,-75.85 173.92,-170.04 232.13,-276.58 41.98,-77.25 73.02,-160.86 91.37,-249.06l13.05 -62.09 22.22 -107.59 0 -0.36 9.88 -47.27 37.4 -181.33 501.65 0 37.39 181.33 9.88 47.63 35.28 169.68c3.17,15.53 6.7,30.69 10.93,45.86 3.88,15.88 8.47,31.75 13.41,47.28 4.58,14.46 9.88,28.57 15.17,42.68 3.88,10.23 7.76,20.11 11.99,29.99 3.53,8.11 6.7,16.23 10.59,23.99 4.58,10.23 9.17,20.11 14.11,29.98 4.94,9.88 9.87,19.76 15.17,29.28 31.75,58.21 69.85,113.25 113.59,162.99 45.16,51.86 96.31,98.78 152.4,138.99l0 0.35c32.81,23.64 67.38,45.16 103.36,64.21 14.82,8.11 29.64,15.52 45.16,22.58 18.34,8.46 37.39,16.58 56.44,23.99l210.61 81.14c181.68,69.85 337.96,189.44 451.91,342.54z"/>
    </g>
    <g>
     <path class="fil4" d="M3844.09 3958.16c-149.58,139.7 -317.85,259.29 -500.94,354.9 -53.27,27.87 -107.6,53.62 -162.99,77.26 -76.2,32.45 -154.16,61.03 -234.24,84.66 -53.62,16.23 -107.95,30.69 -162.98,42.69 13.05,-410.99 35.63,-821.97 41.27,-1233.31l0 -1.06c45.16,51.86 96.66,99.13 153.11,139.7l0.35 0c32.45,24.34 66.67,45.86 102.3,64.91 14.82,8.11 29.64,15.52 45.16,22.58 18.34,8.46 37.39,16.58 56.44,23.99l210.61 81.14c181.68,69.85 337.96,189.44 451.91,342.54z"/>
    </g>
    <g>
     <path class="fil4" d="M1672.74 4488.74c-15.52,-4.23 -31.39,-8.82 -46.92,-13.76 -80.08,-23.99 -158.39,-52.21 -234.59,-84.66 -55.39,-23.64 -110.07,-49.39 -162.99,-77.26 -183.09,-95.61 -351.36,-215.2 -500.94,-354.54 114.3,-153.46 270.58,-273.05 452.26,-342.9l210.61 -81.14c12.7,-4.94 25.4,-10.23 37.75,-15.53 9.52,-4.23 19.05,-8.46 28.22,-13.05 9.88,-4.58 19.75,-9.52 29.28,-14.81 10.23,-5.3 20.46,-10.94 30.34,-16.59 27.16,-15.87 53.27,-32.8 78.31,-51.5l0.36 0c11.64,-8.47 23.28,-17.29 34.57,-26.11l0 1.06c1.76,252.59 11.99,504.47 34.22,756 9.88,111.48 10.23,222.96 9.52,334.79z"/>
    </g>
    <g>
     <path class="fil5" d="M2710.62 3121.37c-105.48,121.01 -256.83,196.85 -424.75,196.85 -167.92,0 -319.26,-75.84 -424.74,-196.85 41.98,-77.25 73.02,-160.86 91.37,-249.06l13.05 -62.09 69.5 -336.55 501.65 0 82.55 398.64c6.7,31.75 14.81,62.8 24.34,93.14 17.64,54.32 40.21,106.54 67.03,155.92z"/>
    </g>
    <path class="fil6" d="M2643.59 2965.45c-120.3,44.45 -215.2,44.45 -215.2,44.45 0,0 -258.94,0 -462.84,-199.68l69.5 -336.55 501.65 0 82.55 398.64c6.7,31.75 14.81,62.8 24.34,93.14z"/>
    <g>
     <g>
      <path class="fil2" d="M3291.99 2725.37c63.08,-42.91 152.48,-33.54 214.87,10.36 62.4,43.9 100.09,116.38 116.66,190.84 16.58,74.47 14.2,151.72 10.56,227.92 -77.86,48.06 -192.39,57.6 -275.17,18.64 -82.78,-38.97 -143.5,-121.48 -156.07,-212.11 -12.58,-90.62 13.51,-184.18 89.15,-235.65z"/>
      <g>
       <path class="fil3" d="M3326.82 2717.87c0,48.78 -39.54,88.31 -88.32,88.31 -48.77,0 -88.31,-39.53 -88.31,-88.31 0,-48.77 39.54,-88.31 88.31,-88.31 48.78,0 88.32,39.54 88.32,88.31z"/>
      </g>
     </g>
     <g>
      <path class="fil2" d="M1279.75 2725.37c-63.07,-42.91 -152.48,-33.54 -214.87,10.36 -62.4,43.9 -100.08,116.38 -116.66,190.84 -16.57,74.47 -14.19,151.72 -10.56,227.92 77.86,48.06 192.39,57.6 275.17,18.64 82.78,-38.97 143.5,-121.48 156.08,-212.11 12.57,-90.62 -13.51,-184.18 -89.16,-235.65z"/>
      <g>
       <path class="fil3" d="M1244.93 2717.87c0,48.78 39.54,88.31 88.31,88.31 48.78,0 88.31,-39.53 88.31,-88.31 0,-48.77 -39.53,-88.31 -88.31,-88.31 -48.77,0 -88.31,39.54 -88.31,88.31z"/>
      </g>
     </g>
    </g>
    <g>
     <path class="fil5" d="M3147.71 1784c-4.24,-27.87 -14.82,-56.44 -36.34,-75.14 -19.4,-16.93 -45.86,-23.99 -71.61,-22.93 -25.76,1.06 -50.45,9.88 -73.73,21.17 1.76,-92.78 -4.59,-174.27 -17.64,-245.54 -38.81,-215.54 -137.23,-341.13 -246.59,-413.45 -190.15,-126.3 -413.81,-127.65 -415.93,-127.3 -2.12,-0.35 -225.78,1 -415.92,127.3 -109.36,72.32 -207.79,197.91 -246.6,413.45 -13.05,71.27 -19.4,152.76 -17.63,245.54 -23.29,-11.29 -47.98,-20.11 -73.73,-21.17 -25.76,-1.06 -52.22,6 -71.62,22.93 -21.52,18.7 -32.1,47.27 -36.33,75.14 -8.47,56.8 4.93,116.07 37.04,163.34 32.1,47.27 79.72,82.9 135.46,95.6 98.08,687.91 689.33,687.91 689.33,687.91 0,0 591.26,0 689.33,-687.91 55.74,-12.7 103.36,-48.33 135.47,-95.6 32.1,-47.27 45.5,-106.54 37.04,-163.34z"/>
    </g>
    <g>
     <path class="fil7" d="M3077.86 3720.74l-131.94 754.24c-53.62,16.23 -107.95,30.69 -162.98,42.69 -18.35,4.23 -37.05,8.11 -55.74,11.64l-87.14 -1339.14 -14.46 -218.37 -6.35 -99.49c0,0 430.74,165.81 456.49,337.96 23.99,161.93 -85.37,208.14 -98.07,212.73l-0.35 0c-0.36,0.35 -0.71,0.35 -0.71,0.35l0 0.35 69.85 119.95c31.04,53.62 41.98,116.42 31.4,177.09z"/>
     <path class="fil7" d="M1952.5 2872.31l-20.82 317.86 -87.13 1339.14c-58.21,-11.29 -115.36,-24.69 -171.81,-40.57 -15.52,-4.23 -31.39,-8.82 -46.92,-13.76l-131.93 -754.24c-10.59,-60.67 0.35,-123.47 31.39,-177.09l69.85 -119.95 0 -0.35c0,0 -0.35,0 -0.7,-0.35l-0.36 0c-12.7,-4.59 -122.06,-50.8 -98.07,-212.73 25.75,-172.15 456.5,-337.96 456.5,-337.96z"/>
    </g>
    <g>
     <path class="fil7" d="M1391.23 4390.32c-55.39,-23.64 -110.07,-49.39 -162.99,-77.26l74.79 -391.23 88.2 468.49z"/>
     <path class="fil7" d="M3343.15 4313.06c-53.27,27.87 -107.6,53.62 -162.99,77.26l88.2 -468.49 74.79 391.23z"/>
    </g>
    <g>
     <g>
      <path class="fil6" d="M2252.73 1726.71l0 403.6 68.4 0c117.26,0 -46.62,-357.23 -68.4,-403.6z"/>
     </g>
     <g>
      <g>
       <path class="fil2" d="M2750.06 1569.45c-94.53,-46.7 -199.62,-53.63 -298.16,-14.45 -41.75,16.6 -23.57,84.87 18.75,68.04 80.74,-32.1 165.31,-31.43 243.8,7.34 40.64,20.08 76.4,-40.77 35.61,-60.93z"/>
       <path class="fil2" d="M2664.95 1695.16c-21.48,-37.25 -66.54,-34.99 -66.54,-34.99 -36.75,0 -66.54,29.79 -66.54,66.54 0,36.74 29.79,66.54 66.54,66.54 8.11,0 15.78,-1.67 22.96,-4.32l0.04 0.18c0.44,-0.15 0.73,-0.4 1.16,-0.55 2.15,-0.84 4.16,-1.91 6.19,-2.96 58.18,-25.23 64.38,-89.83 64.38,-89.83 -11.6,9.78 -28.19,-0.61 -28.19,-0.61z"/>
      </g>
      <g>
       <path class="fil2" d="M1821.68 1569.45c94.54,-46.7 199.62,-53.63 298.17,-14.45 41.74,16.6 23.56,84.87 -18.76,68.04 -80.74,-32.1 -165.31,-31.43 -243.8,7.34 -40.64,20.08 -76.4,-40.77 -35.61,-60.93z"/>
       <path class="fil2" d="M1906.79 1695.16c21.48,-37.25 66.54,-34.99 66.54,-34.99 36.75,0 66.54,29.79 66.54,66.54 0,36.74 -29.79,66.54 -66.54,66.54 -8.11,0 -15.78,-1.67 -22.96,-4.32l-0.04 0.18c-0.43,-0.15 -0.73,-0.4 -1.16,-0.55 -2.15,-0.84 -4.15,-1.91 -6.19,-2.96 -58.18,-25.23 -64.38,-89.83 -64.38,-89.83 11.61,9.78 28.19,-0.61 28.19,-0.61z"/>
      </g>
     </g>
     <path class="fil8" d="M2069.07 2274.49c23.45,87.56 111.49,152.74 216.8,152.74 105.31,0 193.35,-65.18 216.8,-152.74l-433.6 0z"/>
    </g>
    <path class="fil2" d="M2208.93 826.24c47.7,76.25 95.41,152.5 143.11,228.76 30.41,48.6 61.04,97.5 99.42,140.1 32.38,35.93 69.86,66.91 108.23,96.37 141.32,108.49 302.69,200.28 479.75,220.15 -43.57,-151.47 -68.62,-312.15 -162.87,-438.47 -150.89,-202.21 -420.52,-297.79 -667.64,-246.91z"/>
    <path class="fil2" d="M2339.15 864.65c-33.31,133.48 -128.85,242.76 -233.01,332.64 -153.05,132.08 -332.3,234.74 -525.77,293.42 -4.33,-128.04 42.08,-252.15 109.54,-361.05 36.46,-58.84 76.29,-117.59 132.25,-158.34 49.78,-36.26 109.34,-56.07 167.83,-75.36 110.03,-36.27 237.4,-61.84 349.16,-31.31z"/>
   </g>
  </g>
 </g>
</svg>
