<?xml version="1.0" encoding="UTF-8"?>
<!DOCTYPE svg PUBLIC "-//W3C//DTD SVG 1.1//EN" "http://www.w3.org/Graphics/SVG/1.1/DTD/svg11.dtd">
<!-- Creator: CorelDRAW -->
<svg xmlns="http://www.w3.org/2000/svg" xml:space="preserve" width="45.717mm" height="45.717mm" version="1.1" style="shape-rendering:geometricPrecision; text-rendering:geometricPrecision; image-rendering:optimizeQuality; fill-rule:evenodd; clip-rule:evenodd"
viewBox="0 0 4571.7 4571.7"
 xmlns:xlink="http://www.w3.org/1999/xlink"
 xmlns:xodm="http://www.corel.com/coreldraw/odm/2003">
 <defs>
  <style type="text/css">
   <![CDATA[
    .fil0 {fill:none}
    .fil4 {fill:#051633;fill-rule:nonzero}
    .fil6 {fill:#461F62;fill-rule:nonzero}
    .fil5 {fill:#662D8E;fill-rule:nonzero}
    .fil1 {fill:#D6E9F0;fill-rule:nonzero}
    .fil3 {fill:#F27967;fill-rule:nonzero}
    .fil2 {fill:#F69779;fill-rule:nonzero}
    .fil7 {fill:white;fill-rule:nonzero}
   ]]>
  </style>
 </defs>
 <g id="Camada_x0020_1">
  <metadata id="CorelCorpID_0Corel-Layer"/>
  <rect class="fil0" x="-0.15" y="0.15" width="4571.7" height="4571.7"/>
  <g id="_2060199481904">
   <path class="fil1" d="M4571.52 2286.01c0,668.85 -287.16,1270.69 -745.07,1688.73 -95.6,87.14 -198.61,166.16 -307.97,236.36 -355.6,228.6 -778.93,360.9 -1232.96,360.9 -475.19,0 -916.52,-145 -1281.99,-393.35 -104.43,-70.91 -202.85,-150.28 -293.87,-236.72 -437.09,-416.63 -709.79,-1004.35 -709.79,-1655.92 0,-1262.6 1023.41,-2286 2285.65,-2286 1262.59,0 2286,1023.4 2286,2286z"/>
   <g>
    <g>
     <g>
      <path class="fil2" d="M3826.45 3974.74c-95.6,87.14 -198.61,166.16 -307.97,236.36 -355.6,228.6 -778.93,360.9 -1232.96,360.9 -475.19,0 -916.52,-145 -1281.99,-393.35 -104.43,-70.91 -202.85,-150.28 -293.87,-236.72 113.24,-145.34 264.94,-258.93 439.92,-326.31l210.6 -81.14c287.87,-110.78 499.54,-360.19 562.33,-662.17l16.58 -80.78 28.23 -136.53 0 -0.35 37.74 -180.98 501.65 0 37.4 181.33 45.15 217.31c12.35,59.27 30.34,116.77 53.62,171.45 95.61,223.31 277.64,401.82 508.71,490.72l210.61 81.14c188.03,72.32 348.9,197.9 464.25,359.12z"/>
     </g>
     <g>
      <path class="fil3" d="M2642.88 3043.76c-98.07,29.28 -170.03,29.28 -170.03,29.28 0,0 -325.97,0 -533.76,-281.51l65.97 -317.86 501.65 0 82.55 398.64c12.35,59.27 30.34,116.77 53.62,171.45z"/>
     </g>
     <path class="fil4" d="M2234.36 532.89c-138.51,-83.73 -318.41,-94.67 -466.04,-28.34 -147.64,66.32 -258.93,208.08 -288.32,367.24 -14.12,76.49 -10.33,155.01 -6.48,232.7 7.54,152.07 15.07,304.14 22.61,456.22 5.89,118.93 11.1,242.21 -33.18,352.75 -32.66,81.53 -90.07,150.29 -146.55,217.54 -55.11,65.61 -110.21,131.23 -165.32,196.83 -19.03,22.66 -38.64,46.42 -45.65,75.18 -17.25,70.7 53.04,138.34 125.34,146.74 72.29,8.4 142.39,-24.02 207.95,-55.62 -4.94,36.05 -11.09,57.24 -6.22,93.29 4.88,36.06 20.14,72.04 48.45,94.89 32.31,26.07 78.17,31.57 118.15,20.38 39.98,-11.19 74.47,-37.36 102.06,-68.39 -22.13,56.08 47.25,136.14 106.5,125.04 59.25,-11.11 100.27,-66.44 122.06,-122.64 46.75,-120.55 31.9,-255.16 14.31,-383.25 -24.22,-176.45 -52.37,-353.16 -52.49,-531.26 -0.11,-174.03 26.55,-346.88 55.16,-518.54 19.83,-119.02 40.87,-238.76 84.25,-351.34 43.39,-112.59 105.72,-248.61 203.41,-319.42z"/>
     <g>
      <path class="fil5" d="M2424.07 635.03c0,92.89 -75.3,168.18 -168.18,168.18 -92.89,0 -168.19,-75.29 -168.19,-168.18 0,-92.88 75.3,-168.18 168.19,-168.18 92.88,0 168.18,75.3 168.18,168.18z"/>
     </g>
     <path class="fil4" d="M2952.58 1012.46c-81.57,-166.21 -237.58,-258.2 -381.32,-309.05 -204.45,-72.33 -426.29,-72.33 -630.74,0 -143.74,50.85 -299.75,142.84 -381.33,309.05 -147.46,306.85 -122.36,784.17 -122.36,784.17l153.74 177.29 665.32 -91.74 665.32 91.74 153.74 -177.29c0,0 25.09,-477.32 -122.37,-784.17z"/>
    </g>
    <g>
     <path class="fil2" d="M3117.72 1784c-4.23,-27.87 -14.81,-56.44 -36.33,-75.14 -19.4,-16.93 -45.86,-23.99 -71.62,-22.93 -25.75,1.06 -50.44,9.88 -73.73,21.17 -31.75,-370.77 -301.97,-551.04 -492.12,-632.18 -0.35,0 -0.35,0 -0.35,0 -106.54,-45.86 -187.68,-60.68 -187.68,-60.68 0,0 -81.14,14.82 -187.68,60.68 0,0 0,0 -0.35,0 -190.15,81.14 -460.38,261.41 -492.13,632.18 -23.28,-11.29 -47.98,-20.11 -73.73,-21.17 -25.75,-1.06 -52.21,6 -71.61,22.93 -21.52,18.7 -32.1,47.27 -36.34,75.14 -8.47,56.8 4.94,116.07 37.04,163.34 32.11,47.27 79.73,82.9 135.47,95.6 98.07,687.91 689.33,687.91 689.33,687.91 0,0 591.25,0 689.33,-687.91 55.73,-12.7 103.36,-48.33 135.46,-95.6 32.1,-47.27 45.51,-106.54 37.04,-163.34z"/>
    </g>
    <path class="fil6" d="M3518.48 4211.1c-355.6,228.6 -778.93,360.9 -1232.96,360.9 -475.19,0 -916.52,-145 -1281.99,-393.35l28.22 -89.25 70.2 -221.55c21.52,-67.38 112.54,-120.65 204.26,-120.65 56.09,0 100.89,19.76 124.18,50.45 37.04,-30.69 91.01,-50.45 147.11,-50.45 56.09,0 102.3,19.76 128.05,50.45 34.93,-30.69 87.14,-50.45 143.23,-50.45 56.45,0 104.07,19.76 131.94,50.45 32.46,-30.69 83.26,-50.45 139.35,-50.45 56.44,0 105.48,19.76 135.82,50.45 30.34,-30.69 79.37,-50.45 135.82,-50.45 56.09,0 106.89,19.76 139.34,50.45 27.87,-30.69 75.5,-50.45 131.94,-50.45 56.09,0 108.31,19.76 143.23,50.45 25.75,-30.69 71.97,-50.45 128.06,-50.45 56.09,0 110.07,19.76 147.11,50.45 23.28,-30.69 68.08,-50.45 124.18,-50.45 91.72,0 182.73,53.27 204.25,120.65l70.21 221.55 38.45 121.7z"/>
    <g>
     <path class="fil5" d="M3518.48 4211.1c-355.6,228.6 -778.93,360.9 -1232.96,360.9 -475.19,0 -916.52,-145 -1281.99,-393.35l28.22 -89.25c41.27,-20.82 92.07,-33.52 143.23,-33.52 63.85,0 115,19.76 141.46,50.45 41.98,-30.69 103.36,-50.45 167.22,-50.45 63.85,0 116.41,19.76 146.05,50.45 39.51,-30.69 99.13,-50.45 162.98,-50.45 64.21,0 118.18,19.76 149.93,50.45 37.04,-30.69 94.9,-50.45 158.75,-50.45 64.21,0 119.95,19.76 154.52,50.45 34.57,-30.69 90.31,-50.45 154.51,-50.45 63.86,0 121.71,19.76 158.75,50.45 31.75,-30.69 85.73,-50.45 149.93,-50.45 63.86,0 123.48,19.76 162.99,50.45 29.63,-30.69 82.2,-50.45 146.05,-50.45 63.85,0 125.23,19.76 167.21,50.45 26.46,-30.69 77.62,-50.45 141.47,-50.45 51.15,0 101.95,12.7 143.23,33.52l38.45 121.7z"/>
    </g>
    <g>
     <g>
      <path class="fil3" d="M2222.75 1726.71l0 403.6 68.4 0c117.26,0 -46.63,-357.23 -68.4,-403.6z"/>
     </g>
     <g>
      <g>
       <path class="fil4" d="M2720.08 1569.45c-94.54,-46.7 -199.62,-53.63 -298.17,-14.45 -41.75,16.6 -23.56,84.87 18.76,68.04 80.74,-32.1 165.31,-31.43 243.8,7.34 40.64,20.08 76.4,-40.77 35.61,-60.93z"/>
       <path class="fil4" d="M2634.97 1695.16c-21.48,-37.25 -66.54,-34.99 -66.54,-34.99 -36.75,0 -66.54,29.79 -66.54,66.54 0,36.74 29.79,66.54 66.54,66.54 8.1,0 15.77,-1.67 22.96,-4.32l0.04 0.18c0.43,-0.15 0.73,-0.4 1.16,-0.55 2.15,-0.84 4.15,-1.91 6.19,-2.96 58.18,-25.23 64.38,-89.83 64.38,-89.83 -11.61,9.78 -28.19,-0.61 -28.19,-0.61z"/>
      </g>
      <g>
       <path class="fil4" d="M1791.7 1569.45c94.53,-46.7 199.62,-53.63 298.16,-14.45 41.75,16.6 23.57,84.87 -18.75,68.04 -80.74,-32.1 -165.31,-31.43 -243.8,7.34 -40.64,20.08 -76.4,-40.77 -35.61,-60.93z"/>
       <path class="fil4" d="M1876.81 1695.16c21.47,-37.25 66.54,-34.99 66.54,-34.99 36.75,0 66.54,29.79 66.54,66.54 0,36.74 -29.79,66.54 -66.54,66.54 -8.11,0 -15.78,-1.67 -22.96,-4.32l-0.04 0.18c-0.44,-0.15 -0.73,-0.4 -1.16,-0.55 -2.15,-0.84 -4.16,-1.91 -6.19,-2.96 -58.19,-25.23 -64.38,-89.83 -64.38,-89.83 11.6,9.78 28.19,-0.61 28.19,-0.61z"/>
      </g>
     </g>
     <path class="fil7" d="M2039.09 2274.49c23.45,87.56 111.49,152.74 216.8,152.74 105.31,0 193.35,-65.18 216.8,-152.74l-433.6 0z"/>
    </g>
   </g>
  </g>
 </g>
</svg>
