<?xml version="1.0" encoding="UTF-8"?>
<!DOCTYPE svg PUBLIC "-//W3C//DTD SVG 1.1//EN" "http://www.w3.org/Graphics/SVG/1.1/DTD/svg11.dtd">
<!-- Creator: CorelDRAW -->
<svg xmlns="http://www.w3.org/2000/svg" xml:space="preserve" width="45.717mm" height="45.717mm" version="1.1" style="shape-rendering:geometricPrecision; text-rendering:geometricPrecision; image-rendering:optimizeQuality; fill-rule:evenodd; clip-rule:evenodd"
viewBox="0 0 4571.7 4571.7"
 xmlns:xlink="http://www.w3.org/1999/xlink"
 xmlns:xodm="http://www.corel.com/coreldraw/odm/2003">
 <defs>
  <style type="text/css">
   <![CDATA[
    .fil0 {fill:none}
    .fil2 {fill:#051633;fill-rule:nonzero}
    .fil4 {fill:#601613;fill-rule:nonzero}
    .fil3 {fill:#851F1A;fill-rule:nonzero}
    .fil7 {fill:#BF2D28;fill-rule:nonzero}
    .fil1 {fill:#D6E9F0;fill-rule:nonzero}
    .fil5 {fill:#EF3831;fill-rule:nonzero}
    .fil6 {fill:white;fill-rule:nonzero}
   ]]>
  </style>
 </defs>
 <g id="Camada_x0020_1">
  <metadata id="CorelCorpID_0Corel-Layer"/>
  <rect class="fil0" x="-0.15" y="0.15" width="4571.7" height="4571.7"/>
  <g id="_2095451337792">
   <path class="fil1" d="M4571.52 2285.82c0,653 -273.75,1242.13 -712.96,1659.12 -130.53,123.47 -275.52,231.77 -432.16,322.44 -335.84,193.67 -725.31,304.44 -1140.88,304.44 -113.95,0 -226.13,-8.46 -335.49,-24.69 -309.39,-45.16 -598.66,-152.75 -854.78,-309.39 -152.05,-92.78 -292.45,-203.2 -418.4,-328.43 -418.04,-413.81 -676.98,-988.49 -676.98,-1623.49 0,-1262.24 1023.41,-2285.64 2285.65,-2285.64 1262.59,0 2286,1023.4 2286,2285.64z"/>
   <g>
    <g>
     <path class="fil2" d="M3653.42 2246.64c-6.4,-116.61 -127.62,-200.11 -145.17,-315.6 -8.84,-58.22 10.03,-116.64 16.04,-175.21 11.31,-110.37 -25.56,-224.75 -99.43,-308.43 -61.37,-69.52 -147.7,-120.09 -187.51,-203.49 -34.68,-72.63 -29.58,-162.35 -78.68,-226.38 -60.42,-78.77 -182.96,-92.01 -240.38,-172.94 -38.38,-54.09 -40.64,-129.96 -88.38,-176.26 -67.31,-65.26 -195.76,-43.29 -250.29,-119.27 -12.16,-16.94 -19,-37.13 -30.98,-54.18 -36.46,-51.87 -114.16,-62.14 -173.28,-37.99 -0.49,0.2 -0.98,0.4 -1.46,0.61 -76.23,31.84 -159.79,31.84 -236.02,0 -0.48,-0.21 -0.97,-0.41 -1.46,-0.61 -59.12,-24.15 -136.83,-13.88 -173.28,37.99 -11.99,17.05 -18.83,37.24 -30.98,54.18 -54.53,75.98 -182.98,54.01 -250.29,119.27 -47.74,46.3 -50,122.17 -88.38,176.26 -57.42,80.93 -179.97,94.17 -240.38,172.94 -49.11,64.03 -44.01,153.75 -78.68,226.38 -39.82,83.4 -126.14,133.97 -187.52,203.49 -73.87,83.68 -110.74,198.06 -99.42,308.43 6,58.57 24.88,116.99 16.03,175.21 -17.54,115.49 -138.77,198.99 -145.16,315.6 -6.18,112.56 98.36,212.06 83.66,323.84 -10,76.11 -74.72,143.01 -63.22,218.91 12.31,81.19 106.01,129.37 126.59,208.91 29.79,115.22 -104.56,242.68 -40.69,343.54 28.48,44.98 87.18,62.98 119.73,105.19 40.32,52.28 30.36,125.08 27.83,190.71 -2.53,65.63 14.07,144.91 76.53,167.71l1047.94 0 38.31 0 1047.94 0c62.47,-22.8 79.07,-102.08 76.54,-167.71 -2.53,-65.63 -12.5,-138.43 27.82,-190.71 32.56,-42.21 91.26,-60.21 119.74,-105.19 63.87,-100.86 -70.49,-228.32 -40.69,-343.54 20.58,-79.54 114.28,-127.72 126.58,-208.91 11.51,-75.9 -53.21,-142.8 -63.22,-218.91 -14.7,-111.78 89.84,-211.28 83.67,-323.84z"/>
     <g>
      <path class="fil3" d="M3858.56 3944.94c-130.53,123.47 -275.52,231.77 -432.16,322.44 -335.84,193.67 -725.31,304.44 -1140.88,304.44 -113.95,0 -226.13,-8.46 -335.49,-24.69 -309.39,-45.16 -598.66,-152.75 -854.78,-309.39 -152.05,-92.78 -292.45,-203.2 -418.4,-328.43 109.01,-156.99 260.35,-280.81 437.8,-356.66 11.64,-5.29 23.29,-9.88 34.93,-14.47l51.15 -19.75 159.45 -61.38c53.98,-20.82 105.13,-46.22 153.11,-75.85 208.84,-130.18 358.07,-340.78 409.22,-586.32l17.99 -86.78 27.17 -130.53 37.39 -181.33 501.65 0 37.4 181.33 45.15 217.31c11.64,56.45 28.58,111.48 50.8,163.69 72.32,174.63 197.56,322.44 358.42,422.63 47.98,29.63 99.14,55.03 153.11,75.85l159.46 61.38 51.15 19.75c11.64,4.59 23.28,9.18 34.92,14.47 190.86,81.49 351.37,218.72 461.44,392.29z"/>
     </g>
     <g>
      <path class="fil4" d="M2640.06 2958.57c-96.66,28.58 -167.21,28.58 -167.21,28.58 0,0 -324.21,0 -532.35,-279.05l64.56 -311.86 501.65 0 82.55 398.64c11.64,56.45 28.58,111.48 50.8,163.69z"/>
     </g>
     <g>
      <g>
       <path class="fil3" d="M3117.64 1706.73c-4.28,-28.15 -14.7,-56.73 -36.19,-75.4 -19.38,-16.85 -46.03,-23.81 -71.69,-22.71 -25.65,1.1 -50.48,9.67 -73.59,20.86 0,0 -2.26,-707.52 -232.81,-715.08 -71.41,-3.57 -124.18,-49.53 -184.04,-97l-526.87 0c-59.85,47.47 -112.63,93.43 -184.03,97 -230.55,7.56 -232.81,715.08 -232.81,715.08 -23.11,-11.19 -47.94,-19.76 -73.59,-20.86 -25.66,-1.1 -52.31,5.86 -71.69,22.71 -21.49,18.67 -31.91,47.25 -36.2,75.4 -8.59,56.5 4.93,116.07 37.08,163.31 32.15,47.25 79.61,82.78 135.32,95.51 98.27,687.85 689.36,687.85 689.36,687.85 0,0 591.09,0 689.35,-687.85 55.71,-12.73 103.18,-48.26 135.33,-95.51 32.15,-47.24 45.67,-106.81 37.07,-163.31z"/>
      </g>
     </g>
    </g>
    <path class="fil5" d="M3426.4 4267.38c-335.84,193.67 -725.31,304.44 -1140.88,304.44 -113.95,0 -226.13,-8.46 -335.49,-24.69 -309.39,-45.16 -598.66,-152.75 -854.78,-309.39 45.15,-149.57 71.26,-301.97 86.43,-435.32 12.7,-112.89 17.64,-211.67 19.05,-283.99l159.45 -61.38c53.98,-20.82 105.13,-46.22 153.11,-75.85l0 333.37c0,31.4 3.18,61.74 9.53,91.02 41.98,197.91 217.31,346.43 427.92,346.43l610.3 0c210.61,0 385.94,-148.52 427.92,-346.43 6.35,-29.28 9.52,-59.62 9.52,-91.02l0 -333.37c47.98,29.63 99.14,55.03 153.11,75.85l159.46 61.38c1.41,72.32 6.35,171.1 19.05,283.99 1.76,14.11 3.52,28.22 5.29,42.68 16.93,131.23 44.8,278.7 91.01,422.28z"/>
    <path class="fil2" d="M3279.73 1705.83c-40.8,-280.25 -154.22,-556.3 -356.64,-768.58 -49.14,-51.53 -103.56,-99.31 -165.95,-136.67 -138.07,-82.65 -327.1,-141.97 -491.68,-141.97 -164.57,0 -353.6,59.32 -491.67,141.97 -62.4,37.36 -116.82,85.14 -165.96,136.67 -202.41,212.28 -315.83,488.33 -356.64,768.58 -40.81,280.25 -22.3,574.8 32.56,853l217.2 0c73.82,-12.24 96.25,-102.27 80.97,-170.04 -15.28,-67.76 -51.41,-136.15 -32.04,-203.02 19.38,-66.91 92.29,-121.13 82.21,-189.76 -9.42,-64.19 -90.88,-116.77 -68.46,-178.14 9.23,-25.26 34.27,-42.4 50.2,-64.64 60,-83.78 -22.99,-208.58 36.01,-292.97 16.83,-24.07 43.35,-41.19 61.03,-64.75 32.7,-43.58 30.14,-100.79 32.96,-153.74 2.81,-52.95 17.56,-112.93 67.91,-138.46 35.54,-18.02 83.9,-15.71 110.06,-44.3 21.52,-23.52 19.24,-59.59 39.24,-84.22 30.92,-38.09 94.25,-29.71 143.84,-16.69 28.35,7.44 65.76,16.25 98.89,15.69 41.16,-0.69 82.23,-0.69 123.39,0 33.13,0.56 70.54,-8.25 98.88,-15.69 49.6,-13.02 112.92,-21.4 143.84,16.69 20,24.63 17.72,60.7 39.24,84.22 26.17,28.59 74.52,26.28 110.07,44.3 50.35,25.53 65.09,85.51 67.91,138.46 2.82,52.95 0.25,110.16 32.95,153.74 17.68,23.56 44.2,40.68 61.03,64.75 59.01,84.39 -23.99,209.19 36.02,292.97 15.93,22.24 40.97,39.38 50.2,64.64 22.42,61.37 -59.04,113.95 -68.47,178.14 -10.08,68.63 62.83,122.85 82.22,189.76 19.37,66.87 -16.77,135.26 -32.05,203.02 -15.27,67.77 7.16,157.8 80.97,170.04l217.2 0c54.87,-278.2 73.37,-572.75 32.56,-853z"/>
    <g>
     <path class="fil4" d="M2222.75 1624.83l0 403.61 68.4 0c117.26,0 -46.63,-357.23 -68.4,-403.61z"/>
     <g>
      <g>
       <path class="fil2" d="M2720.08 1467.58c-94.54,-46.7 -199.62,-53.64 -298.16,-14.45 -41.76,16.6 -23.57,84.86 18.75,68.03 80.74,-32.1 165.31,-31.43 243.8,7.34 40.64,20.08 76.4,-40.77 35.61,-60.92z"/>
       <path class="fil2" d="M2634.97 1593.29c-21.48,-37.25 -66.54,-34.99 -66.54,-34.99 -36.75,0 -66.54,29.79 -66.54,66.53 0,36.75 29.79,66.54 66.54,66.54 8.1,0 15.77,-1.66 22.96,-4.31l0.04 0.18c0.43,-0.15 0.73,-0.41 1.16,-0.56 2.15,-0.84 4.16,-1.9 6.19,-2.95 58.18,-25.23 64.38,-89.83 64.38,-89.83 -11.61,9.77 -28.19,-0.61 -28.19,-0.61z"/>
      </g>
      <g>
       <path class="fil2" d="M1791.7 1467.58c94.53,-46.7 199.62,-53.64 298.16,-14.45 41.75,16.6 23.57,84.86 -18.75,68.03 -80.74,-32.1 -165.31,-31.43 -243.8,7.34 -40.64,20.08 -76.4,-40.77 -35.61,-60.92z"/>
       <path class="fil2" d="M1876.81 1593.29c21.48,-37.25 66.54,-34.99 66.54,-34.99 36.75,0 66.54,29.79 66.54,66.53 0,36.75 -29.79,66.54 -66.54,66.54 -8.11,0 -15.77,-1.66 -22.96,-4.31l-0.04 0.18c-0.43,-0.15 -0.73,-0.41 -1.16,-0.56 -2.15,-0.84 -4.16,-1.9 -6.19,-2.95 -58.19,-25.23 -64.38,-89.83 -64.38,-89.83 11.6,9.77 28.19,-0.61 28.19,-0.61z"/>
      </g>
     </g>
     <path class="fil6" d="M2039.09 2243.17c23.45,87.57 111.49,152.76 216.8,152.76 105.31,0 193.35,-65.19 216.8,-152.76l-433.6 0z"/>
    </g>
    <path class="fil7" d="M3426.4 4267.38c-335.84,193.67 -725.31,304.44 -1140.88,304.44 -113.95,0 -226.13,-8.46 -335.49,-24.69 765.17,-155.93 1223.43,-542.93 1385.36,-702.03 16.93,131.23 44.8,278.7 91.01,422.28z"/>
   </g>
  </g>
 </g>
</svg>
