<?xml version="1.0" encoding="UTF-8"?>
<!DOCTYPE svg PUBLIC "-//W3C//DTD SVG 1.1//EN" "http://www.w3.org/Graphics/SVG/1.1/DTD/svg11.dtd">
<!-- Creator: CorelDRAW -->
<svg xmlns="http://www.w3.org/2000/svg" xml:space="preserve" width="45.717mm" height="45.717mm" version="1.1" style="shape-rendering:geometricPrecision; text-rendering:geometricPrecision; image-rendering:optimizeQuality; fill-rule:evenodd; clip-rule:evenodd"
viewBox="0 0 4571.7 4571.7"
 xmlns:xlink="http://www.w3.org/1999/xlink"
 xmlns:xodm="http://www.corel.com/coreldraw/odm/2003">
 <defs>
  <style type="text/css">
   <![CDATA[
    .fil0 {fill:none}
    .fil7 {fill:#051633;fill-rule:nonzero}
    .fil4 {fill:#461F62;fill-rule:nonzero}
    .fil3 {fill:#662D8E;fill-rule:nonzero}
    .fil1 {fill:#D6E9F0;fill-rule:nonzero}
    .fil2 {fill:#E44423;fill-rule:nonzero}
    .fil6 {fill:#F27967;fill-rule:nonzero}
    .fil5 {fill:#F69779;fill-rule:nonzero}
    .fil8 {fill:white;fill-rule:nonzero}
   ]]>
  </style>
 </defs>
 <g id="Camada_x0020_1">
  <metadata id="CorelCorpID_0Corel-Layer"/>
  <rect class="fil0" x="-0.15" y="0.15" width="4571.7" height="4571.7"/>
  <g id="_2095456272160">
   <path class="fil1" d="M4571.52 2286.01c0,668.85 -287.16,1270.69 -745.07,1688.73 -112.18,102.31 -234.59,193.68 -365.83,272.35 -26.81,16.23 -53.97,31.75 -81.49,46.56 -324.91,177.45 -697.44,278.35 -1093.61,278.35 -421.57,0 -816.68,-114.3 -1155.7,-313.62 -24.34,-14.11 -48.68,-28.93 -72.32,-44.1 -124.88,-79.38 -241.3,-170.74 -347.84,-272.35 -437.09,-416.63 -709.79,-1004.35 -709.79,-1655.92 0,-1262.6 1023.41,-2286 2285.65,-2286 1262.59,0 2286,1023.4 2286,2286z"/>
   <g>
    <g>
     <g>
      <path class="fil2" d="M3110.8 1302.64c-38.45,-158.75 -195.01,-661.46 -854.91,-621.77 -659.9,-39.69 -816.46,463.02 -854.91,621.77 -38.45,158.75 -207.61,762.88 -99.96,1115.65 107.65,352.78 954.87,374.82 954.87,374.82 0,0 847.21,-22.04 954.86,-374.82 107.66,-352.77 -61.51,-956.9 -99.95,-1115.65z"/>
     </g>
     <g>
      <path class="fil3" d="M3826.45 3974.74c-112.18,102.31 -234.59,193.68 -365.83,272.35 -26.81,16.23 -53.97,31.75 -81.49,46.56 -324.91,177.45 -697.44,278.35 -1093.61,278.35 -421.57,0 -816.68,-114.3 -1155.7,-313.62 -24.34,-14.11 -48.68,-28.93 -72.32,-44.1 -124.88,-79.38 -241.3,-170.74 -347.84,-272.35 113.24,-145.34 264.94,-258.93 439.92,-326.31l210.6 -81.14c51.16,-19.76 99.84,-43.75 145.7,-71.97 53.62,-32.46 103.37,-70.2 148.52,-112.54 134.41,-125.94 229.31,-291.74 268.11,-477.66l2.47 -11.64 20.46 -98.78 22.23 -106.89 37.39 -181.33 501.65 0 37.4 181.33 22.22 106.89 22.93 110.42c1.77,9.18 3.88,18.35 6.35,27.52 1.77,8.47 3.88,16.58 6.35,24.69 3.18,12.35 6.71,24.7 10.59,36.69 1.41,4.59 2.82,9.17 4.23,13.41 0.7,2.12 1.41,4.23 2.12,6 0.35,1.41 0.7,2.47 1.05,3.52 2.83,8.12 5.65,15.88 8.82,23.64 3.53,10.23 7.76,20.11 11.65,29.63 1.41,3.53 2.82,7.06 4.58,10.59 3.18,7.76 6.7,15.17 9.88,22.22 2.12,4.59 4.23,9.17 6.7,13.76 6,12.35 12,24.69 18.7,36.69 0.7,1.41 1.41,2.82 2.47,4.23 3.17,6.35 6.7,12.35 10.58,18.7 1.77,3.53 3.88,6.7 6,10.23 0.7,1.41 1.76,3.17 2.82,4.59 0.71,1.76 1.77,3.52 2.82,5.29 1.42,1.76 2.83,3.88 4.24,6.35 2.82,4.58 5.64,8.82 8.46,13.05 6.35,10.23 13.06,20.11 20.46,29.99 4.24,6.35 8.82,12.34 13.76,18.69 2.47,3.53 4.94,7.06 7.76,10.59 5.3,6.7 10.59,13.4 15.88,19.75 5.64,7.06 11.29,14.11 17.29,20.82 4.58,5.29 8.81,10.23 13.4,15.17 16.58,17.99 33.51,35.27 51.15,51.85 45.16,42.34 94.9,80.08 148.52,112.54 45.86,28.22 94.55,52.21 145.7,71.97l210.61 81.14c188.03,72.32 348.9,197.9 464.25,359.12z"/>
     </g>
     <path class="fil4" d="M3005.89 3462.51c-189.09,520.35 -695.67,619.12 -718.25,623.36l-31.75 5.64 -31.75 -5.64c-22.58,-4.24 -529.17,-103.01 -718.26,-623.36 53.62,-32.46 103.37,-70.2 148.52,-112.54 134.41,-125.94 229.31,-291.74 268.11,-477.66l82.55 -398.64 501.65 0 82.55 398.64c38.81,185.92 133.71,351.72 268.11,477.66 45.16,42.34 94.9,80.08 148.52,112.54z"/>
     <g>
      <path class="fil5" d="M2857.37 3349.97c-140.75,477.67 -601.48,562.33 -601.48,562.33 0,0 -460.73,-84.66 -601.49,-562.33 134.41,-125.94 229.31,-291.74 268.11,-477.66l2.47 -11.64 80.08 -387 501.65 0 82.55 398.64c18.35,88.2 49.39,171.45 91.02,248.36 46.57,85.37 106.19,162.98 177.09,229.3z"/>
     </g>
     <g>
      <path class="fil6" d="M2680.28 3120.67c-116.42,41.27 -207.43,41.27 -207.43,41.27 0,0 -340.79,0 -547.87,-301.27l80.08 -387 501.65 0 82.55 398.64c18.35,88.2 49.39,171.45 91.02,248.36z"/>
     </g>
     <g>
      <g>
       <path class="fil5" d="M3080.68 1947.34c-32.1,47.27 -79.73,82.9 -135.46,95.6 -98.08,687.91 -689.33,687.91 -689.33,687.91 0,0 -591.26,0 -689.33,-687.91 -55.74,-12.7 -103.36,-48.33 -135.47,-95.6 -32.1,-47.27 -45.51,-106.54 -37.04,-163.34 4.24,-27.87 14.82,-56.44 36.34,-75.14 19.4,-16.93 45.86,-23.99 71.61,-22.93 25.75,1.06 50.45,9.88 73.73,21.17 50.1,-402.87 240.95,-457.56 403.93,-518.94 162.99,-62.09 233.19,-208.49 233.19,-208.49 13.76,-0.35 27.87,-0.71 43.04,-0.71 228.95,0 303.03,4.59 447.32,70.21 224.01,100.89 232.83,657.93 232.83,657.93 23.29,-11.29 47.98,-20.11 73.73,-21.17 25.76,-1.06 52.22,6 71.62,22.93 21.52,18.7 32.1,47.27 36.33,75.14 8.47,56.8 -4.94,116.07 -37.04,163.34z"/>
      </g>
     </g>
    </g>
    <g>
     <path class="fil4" d="M1129.82 4258.38c-24.34,-14.11 -48.68,-28.93 -72.32,-44.1l47.98 -236.36 24.34 280.46z"/>
     <path class="fil4" d="M3460.62 4247.09c-26.81,16.23 -53.97,31.75 -81.49,46.56l27.17 -315.73 54.32 269.17z"/>
    </g>
    <g>
     <g>
      <path class="fil6" d="M2222.75 1684.6l0 403.6 68.4 0c117.26,0 -46.63,-357.22 -68.4,-403.6z"/>
     </g>
     <g>
      <g>
       <path class="fil7" d="M2720.08 1527.35c-94.54,-46.7 -199.62,-53.64 -298.17,-14.45 -41.75,16.6 -23.56,84.86 18.76,68.03 80.74,-32.1 165.31,-31.43 243.8,7.35 40.64,20.07 76.4,-40.78 35.61,-60.93z"/>
       <path class="fil7" d="M2634.97 1653.06c-21.48,-37.25 -66.54,-34.99 -66.54,-34.99 -36.75,0 -66.54,29.79 -66.54,66.53 0,36.75 29.79,66.54 66.54,66.54 8.1,0 15.77,-1.66 22.96,-4.31l0.04 0.18c0.43,-0.15 0.73,-0.4 1.16,-0.56 2.15,-0.84 4.15,-1.9 6.19,-2.95 58.18,-25.23 64.38,-89.83 64.38,-89.83 -11.61,9.78 -28.19,-0.61 -28.19,-0.61z"/>
      </g>
      <g>
       <path class="fil7" d="M1791.7 1527.35c94.53,-46.7 199.62,-53.64 298.16,-14.45 41.75,16.6 23.57,84.86 -18.75,68.03 -80.74,-32.1 -165.31,-31.43 -243.8,7.35 -40.64,20.07 -76.4,-40.78 -35.61,-60.93z"/>
       <path class="fil7" d="M1876.81 1653.06c21.47,-37.25 66.54,-34.99 66.54,-34.99 36.75,0 66.54,29.79 66.54,66.53 0,36.75 -29.79,66.54 -66.54,66.54 -8.11,0 -15.78,-1.66 -22.96,-4.31l-0.04 0.18c-0.44,-0.15 -0.73,-0.4 -1.16,-0.56 -2.15,-0.84 -4.16,-1.9 -6.19,-2.95 -58.19,-25.23 -64.38,-89.83 -64.38,-89.83 11.6,9.78 28.19,-0.61 28.19,-0.61z"/>
      </g>
     </g>
     <path class="fil8" d="M2039.09 2302.94c23.45,87.56 111.49,152.75 216.8,152.75 105.31,0 193.35,-65.19 216.8,-152.75l-433.6 0z"/>
    </g>
   </g>
  </g>
 </g>
</svg>
