<?xml version="1.0" encoding="UTF-8"?>
<!DOCTYPE svg PUBLIC "-//W3C//DTD SVG 1.1//EN" "http://www.w3.org/Graphics/SVG/1.1/DTD/svg11.dtd">
<!-- Creator: CorelDRAW -->
<svg xmlns="http://www.w3.org/2000/svg" xml:space="preserve" width="45.717mm" height="45.717mm" version="1.1" style="shape-rendering:geometricPrecision; text-rendering:geometricPrecision; image-rendering:optimizeQuality; fill-rule:evenodd; clip-rule:evenodd"
viewBox="0 0 4571.7 4571.7"
 xmlns:xlink="http://www.w3.org/1999/xlink"
 xmlns:xodm="http://www.corel.com/coreldraw/odm/2003">
 <defs>
  <style type="text/css">
   <![CDATA[
    .fil0 {fill:none}
    .fil3 {fill:#007289;fill-rule:nonzero}
    .fil4 {fill:#01233A;fill-rule:nonzero}
    .fil9 {fill:#051633;fill-rule:nonzero}
    .fil2 {fill:#1CACAC;fill-rule:nonzero}
    .fil7 {fill:#69C6C1;fill-rule:nonzero}
    .fil1 {fill:#D6E9F0;fill-rule:nonzero}
    .fil8 {fill:#E44423;fill-rule:nonzero}
    .fil6 {fill:#F27967;fill-rule:nonzero}
    .fil5 {fill:#F69779;fill-rule:nonzero}
    .fil10 {fill:white;fill-rule:nonzero}
   ]]>
  </style>
 </defs>
 <g id="Camada_x0020_1">
  <metadata id="CorelCorpID_0Corel-Layer"/>
  <rect class="fil0" x="-0.15" y="0.15" width="4571.7" height="4571.7"/>
  <g id="_2059725599488">
   <path class="fil1" d="M4571.52 2285.82c0,554.22 -197.2,1062.57 -525.64,1458.39 -135.82,163.69 -294.21,308.32 -470.25,428.97 -30.69,21.17 -62.09,41.63 -94.19,61.04 -346.43,213.43 -753.89,336.55 -1190.27,337.6l-5.65 0c-21.87,0 -43.39,-0.35 -64.91,-1.05 -438.86,-12 -847.02,-148.17 -1190.27,-374.65 -29.28,-19.05 -58.21,-38.81 -86.43,-59.62 -174.63,-126.3 -330.2,-277.29 -462.49,-447.33 -301.98,-387.35 -481.55,-874.53 -481.55,-1403.35 0,-1262.24 1023.41,-2285.64 2285.65,-2285.64 1262.59,0 2286,1023.4 2286,2285.64z"/>
   <g>
    <g>
     <g>
      <g>
       <path class="fil2" d="M4045.88 3744.21c-135.82,163.69 -294.21,308.32 -470.25,428.97 -30.69,21.17 -62.09,41.63 -94.19,61.04 -346.43,213.43 -753.89,336.55 -1190.27,337.6l-5.65 0c-21.87,0 -43.39,-0.35 -64.91,-1.05 -438.86,-12 -847.02,-148.17 -1190.27,-374.65 -29.28,-19.05 -58.21,-38.81 -86.43,-59.62 -174.63,-126.3 -330.2,-277.29 -462.49,-447.33 64.91,-195.44 223.66,-348.89 426.15,-404.63l516.47 -142.52 31.4 -8.82 176.74 -49.04 93.13 -25.75 98.42 -27.17 16.94 -94.19 0 -0.35 60.32 -339.37 9.18 -51.86 26.81 -149.23 318.91 124.89 318.91 -124.89 26.81 149.23 54.68 307.97 14.82 83.61 0 0.35 16.93 93.84 98.43 27.17 93.13 25.75 176.74 49.04 31.4 8.82 516.46 142.52c221.2,61.03 390.18,238.12 441.68,459.67z"/>
      </g>
      <g>
       <g>
        <path class="fil3" d="M2291.17 3907.54l0 664.28 -5.65 0c-21.87,0 -43.39,-0.35 -64.91,-1.05l0 -663.23c0,-19.75 15.87,-35.27 35.28,-35.27 19.4,0 35.28,15.52 35.28,35.27z"/>
       </g>
      </g>
      <g>
       <polygon class="fil4" points="2688.04,3031.24 2255.89,2998.23 1823.73,3031.24 1768.24,3125.32 1900.21,3495.33 2255.89,4094.93 2611.56,3495.33 2743.54,3125.32 "/>
      </g>
     </g>
     <g>
      <path class="fil5" d="M2688.04 3031.24c0,0 -44.45,259.29 -432.15,259.29 -387.71,0 -432.16,-259.29 -432.16,-259.29l77.26 -433.91 35.99 -201.09 318.91 124.89 318.91 -124.89 81.49 457.2 31.75 177.8z"/>
     </g>
     <g>
      <path class="fil6" d="M2656.29 2853.44c-117.47,42.34 -209.55,42.34 -209.55,42.34 0,0 -338.67,0 -545.75,-298.45l35.99 -201.09 318.91 124.89 318.91 -124.89 81.49 457.2z"/>
     </g>
     <g>
      <g>
       <g>
        <path class="fil3" d="M2929.31 3193.67l-79.92 163.87 -593.5 737.39c0,0 73.02,-484.15 273.21,-707.6 200.18,-223.45 135.82,-491.59 135.82,-491.59 0,0 212.53,102.71 264.39,297.93z"/>
       </g>
       <g>
        <path class="fil7" d="M2664.92 2895.74c0,0 176.46,119.17 184.47,461.8l344.32 81.93c0,0 -88.69,-580.98 -528.79,-543.73z"/>
       </g>
      </g>
      <g>
       <g>
        <path class="fil3" d="M1582.46 3193.67l79.93 163.87 593.5 737.39c0,0 -73.03,-484.15 -273.21,-707.6 -200.18,-223.45 -135.82,-491.59 -135.82,-491.59 0,0 -212.53,102.71 -264.4,297.93z"/>
       </g>
       <g>
        <path class="fil7" d="M1846.86 2895.74c0,0 -176.47,119.17 -184.47,461.8l-344.32 81.93c0,0 88.69,-580.98 528.79,-543.73z"/>
       </g>
      </g>
     </g>
     <path class="fil8" d="M2952.58 1011.71c-81.57,-152.96 -237.58,-237.6 -381.32,-284.4 -151.65,-49.37 -312.85,-61.93 -469.44,-38.06 -34.81,-55.36 -82.83,-66.92 -121.01,-59.28 -54.91,10.98 -43.37,100.29 -43.37,100.29 0,0 -44.48,-85.65 -95.73,-74.67 -51.24,10.98 -58.01,102.92 -58.01,102.92 0,0 -55.46,-51.67 -106.71,-18.73 -33.81,21.74 -25.14,57.59 -5.2,132.75 -44.34,38.67 -83.37,84.38 -112.6,139.18 -147.46,282.37 -122.36,721.62 -122.36,721.62 94.64,561.45 304.07,662.91 304.07,662.91l514.99 0 514.99 0c0,0 209.43,-101.46 304.07,-662.91 0,0 25.1,-439.25 -122.37,-721.62z"/>
     <g>
      <path class="fil5" d="M3117.64 1706.73c-4.28,-28.15 -14.7,-56.73 -36.19,-75.4 -19.38,-16.85 -46.03,-23.81 -71.69,-22.71 -25.65,1.1 -50.48,9.67 -73.59,20.86 0,0 -2.26,-650.36 -232.81,-657.92 -151.17,-7.56 -218.43,37.8 -447.47,37.8 -229.04,0 -296.3,-45.36 -447.48,-37.8 -230.54,7.56 -232.8,657.92 -232.8,657.92 -23.12,-11.19 -47.94,-19.76 -73.59,-20.86 -25.66,-1.1 -52.31,5.86 -71.69,22.71 -21.49,18.67 -31.91,47.25 -36.2,75.4 -8.59,56.5 4.93,116.07 37.08,163.31 32.15,47.25 79.61,82.78 135.32,95.51 98.27,687.85 689.36,687.85 689.36,687.85 0,0 591.09,0 689.35,-687.85 55.71,-12.73 103.18,-48.26 135.33,-95.51 32.15,-47.24 45.67,-106.81 37.07,-163.31z"/>
     </g>
    </g>
    <g>
     <path class="fil3" d="M3575.63 4173.18c-30.69,21.17 -62.09,41.63 -94.19,61.04l0 -513.3 94.19 452.26z"/>
     <path class="fil3" d="M1030.34 3720.92l0 475.2c-29.28,-19.05 -58.21,-38.81 -86.43,-59.62l86.43 -415.58z"/>
    </g>
    <g>
     <g>
      <path class="fil6" d="M2222.75 1599.32l0 403.61 68.4 0c117.26,0 -46.63,-357.23 -68.4,-403.61z"/>
     </g>
     <g>
      <g>
       <path class="fil8" d="M2720.08 1442.07c-94.54,-46.7 -199.62,-53.63 -298.17,-14.45 -41.75,16.6 -23.56,84.87 18.76,68.04 80.74,-32.11 165.31,-31.43 243.8,7.34 40.64,20.08 76.4,-40.77 35.61,-60.93z"/>
       <path class="fil9" d="M2634.97 1599.32c0,36.75 -29.79,66.54 -66.54,66.54 -36.75,0 -66.54,-29.79 -66.54,-66.54 0,-36.74 29.79,-66.53 66.54,-66.53 36.75,0 66.54,29.79 66.54,66.53z"/>
      </g>
      <g>
       <path class="fil8" d="M1791.7 1442.07c94.53,-46.7 199.62,-53.63 298.16,-14.45 41.75,16.6 23.57,84.87 -18.75,68.04 -80.74,-32.11 -165.31,-31.43 -243.8,7.34 -40.64,20.08 -76.4,-40.77 -35.61,-60.93z"/>
       <path class="fil9" d="M1876.81 1599.32c0,36.75 29.79,66.54 66.54,66.54 36.75,0 66.54,-29.79 66.54,-66.54 0,-36.74 -29.79,-66.53 -66.54,-66.53 -36.75,0 -66.54,29.79 -66.54,66.53z"/>
      </g>
     </g>
     <path class="fil10" d="M2039.09 2167.81c23.45,87.57 111.49,152.75 216.8,152.75 105.31,0 193.35,-65.18 216.8,-152.75l-433.6 0z"/>
    </g>
   </g>
  </g>
 </g>
</svg>
