<?xml version="1.0" encoding="UTF-8"?>
<!DOCTYPE svg PUBLIC "-//W3C//DTD SVG 1.1//EN" "http://www.w3.org/Graphics/SVG/1.1/DTD/svg11.dtd">
<!-- Creator: CorelDRAW -->
<svg xmlns="http://www.w3.org/2000/svg" xml:space="preserve" width="45.717mm" height="45.717mm" version="1.1" style="shape-rendering:geometricPrecision; text-rendering:geometricPrecision; image-rendering:optimizeQuality; fill-rule:evenodd; clip-rule:evenodd"
viewBox="0 0 4571.7 4571.7"
 xmlns:xlink="http://www.w3.org/1999/xlink"
 xmlns:xodm="http://www.corel.com/coreldraw/odm/2003">
 <defs>
  <style type="text/css">
   <![CDATA[
    .fil0 {fill:none}
    .fil2 {fill:#051633;fill-rule:nonzero}
    .fil6 {fill:#708E26;fill-rule:nonzero}
    .fil3 {fill:#A1CC36;fill-rule:nonzero}
    .fil1 {fill:#D6E9F0;fill-rule:nonzero}
    .fil5 {fill:#F27967;fill-rule:nonzero}
    .fil4 {fill:#F69779;fill-rule:nonzero}
    .fil7 {fill:white;fill-rule:nonzero}
   ]]>
  </style>
 </defs>
 <g id="Camada_x0020_1">
  <metadata id="CorelCorpID_0Corel-Layer"/>
  <rect class="fil0" x="-0.15" y="0.15" width="4571.7" height="4571.7"/>
  <g id="_2095456205392">
   <path class="fil1" d="M4571.52 2286.01c0,660.03 -279.75,1254.82 -727.43,1672.15 -109.36,102.31 -228.95,193.68 -356.66,272.7 -25.4,15.88 -50.8,31.04 -76.9,45.51 -331.97,188.38 -715.79,295.63 -1124.66,295.63 -408.87,0 -792.69,-107.25 -1124.65,-295.63 -26.11,-14.47 -51.86,-29.63 -76.91,-45.51 -128.06,-79.02 -247.65,-170.39 -357.01,-272.34 -447.68,-417.69 -727.43,-1012.48 -727.43,-1672.51 0,-1262.6 1023.41,-2286 2286,-2286 1262.24,0 2285.65,1023.4 2285.65,2286z"/>
   <g>
    <g>
     <path class="fil2" d="M3150 1315.38c-60.41,-275.86 -245.24,-512.3 -500.86,-632.33 -476.59,-223.8 -791.09,115.96 -791.09,115.96 -425.78,104.39 -407.36,524.03 -407.36,524.03l-29.11 2656.29 1778.69 0 0 -1931.45c0,-243.85 0,-502.95 -50.27,-732.5z"/>
     <g>
      <path class="fil3" d="M3844.09 3958.16c-109.36,102.31 -228.95,193.68 -356.66,272.7 -25.4,15.88 -50.8,31.04 -76.9,45.51 -331.97,188.38 -715.79,295.63 -1124.66,295.63 -408.87,0 -792.69,-107.25 -1124.65,-295.63 -26.11,-14.47 -51.86,-29.63 -76.91,-45.51 -128.06,-79.02 -247.65,-170.39 -357.01,-272.34 114.3,-153.46 270.58,-273.05 452.26,-342.9l128.06 -49.39 82.55 -31.75c2.12,-0.71 4.23,-1.77 6.35,-2.47 10.23,-3.88 20.11,-8.12 29.98,-12.7 23.99,-10.23 47.63,-21.52 70.56,-34.22 7.41,-3.88 15.17,-8.12 22.23,-12.35 16.22,-9.52 32.45,-19.4 47.97,-29.99 8.12,-5.29 15.88,-10.58 23.29,-15.87 4.23,-3.18 8.82,-6.35 13.05,-9.53 4.59,-3.17 8.82,-6.7 13.4,-10.23 7.41,-5.29 14.47,-11.28 21.88,-17.28 43.39,-35.28 83.25,-74.79 118.88,-117.12 9.88,-11.65 19.41,-23.99 28.93,-36.34 7.41,-9.88 14.82,-19.76 21.87,-29.99 10.59,-15.17 20.82,-30.69 30.34,-46.56 3.53,-5.65 7.06,-11.29 9.88,-16.94 20.81,-35.63 39.16,-72.67 54.68,-111.12 5.29,-12.35 10.23,-25.05 14.82,-37.75 14.11,-39.51 25.4,-80.08 34.22,-121.71l2.82 -14.11 42.33 -203.2 37.4 -181.33 501.65 0 37.39 181.33 45.16 217.31c8.46,40.22 19.4,79.73 33.16,117.83 2.11,6.7 4.58,13.05 7.05,19.4 2.83,8.47 6.35,16.94 9.88,25.05 11.64,28.58 24.7,56.09 39.16,82.9 43.74,81.14 99.13,154.87 164.75,219.08 6.7,6.7 13.75,13.05 20.46,19.4 7.05,6.35 14.11,12.7 21.16,18.7 9.88,8.47 20.11,16.93 30.34,25.05 35.28,27.86 72.32,52.91 111.48,75.14 6.7,4.23 13.76,8.11 20.81,11.64 18,9.88 36.34,19.05 55.04,27.52 6.7,3.17 13.76,5.99 20.81,8.82 7.06,3.17 14.47,6.35 21.87,9.17 2.12,0.7 4.24,1.76 6.35,2.47l18.7 7.05 63.85 24.7 128.06 49.39c181.68,69.85 337.96,189.44 451.91,342.54z"/>
     </g>
     <path class="fil4" d="M3264.12 3566.23c-112.53,182.38 -495.65,737.66 -978.25,737.66 -482.6,0 -865.72,-555.28 -978.25,-737.66l82.55 -31.75c2.12,-0.71 4.23,-1.77 6.35,-2.47 284.69,-111.83 493.53,-359.84 555.98,-659.7l2.82 -14.11 79.73 -384.53 501.65 0 82.55 398.64c17.99,86.79 48.33,169.34 89.25,245.18 100.54,186.98 264.58,335.14 466.72,414.52 2.12,0.7 4.24,1.76 6.35,2.47l82.55 31.75z"/>
     <g>
      <g>
       <path class="fil5" d="M2708.5 3117.49c-115.71,40.93 -205.67,40.93 -205.67,40.93 0,0 -340.08,0 -547.51,-300.22l79.73 -384.53 501.65 0 82.55 398.64c17.99,86.79 48.33,169.34 89.25,245.18z"/>
      </g>
     </g>
     <g>
      <g>
       <path class="fil4" d="M3147.63 1784.17c-4.29,-28.15 -14.71,-56.73 -36.2,-75.4 -19.38,-16.85 -46.03,-23.81 -71.68,-22.71 -25.66,1.11 -50.49,9.67 -73.6,20.86 0,0 -8.71,-539.45 -239.25,-547.01 -151.18,-7.56 -254.86,-13.34 -482.48,-104.82 -212.52,-85.4 -274.43,-95.73 -406.02,-6.09 -190.64,129.87 -232.81,657.92 -232.81,657.92 -23.11,-11.19 -47.94,-19.75 -73.59,-20.86 -25.66,-1.1 -52.3,5.86 -71.69,22.71 -21.49,18.67 -31.9,47.25 -36.19,75.4 -8.6,56.5 4.92,116.07 37.07,163.31 32.15,47.25 79.61,82.78 135.33,95.51 98.26,687.84 689.35,687.84 689.35,687.84 0,0 591.09,0 689.36,-687.84 55.71,-12.73 103.17,-48.26 135.32,-95.51 32.15,-47.24 45.68,-106.81 37.08,-163.31z"/>
      </g>
     </g>
    </g>
    <path class="fil6" d="M3264.12 3566.23c-112.53,182.38 -495.65,737.66 -978.25,737.66 -482.6,0 -865.72,-555.28 -978.25,-737.66l82.55 -31.75c2.12,-0.71 4.23,-1.77 6.35,-2.47 52.56,15.52 91.02,63.85 91.02,121.71 0,12.7 -2.47,24.69 -6,36.33 9.88,-2.47 20.11,-4.23 31.04,-4.23 69.85,0 126.65,56.8 126.65,126.65 0,15.87 -3.18,30.69 -8.11,44.45 10.58,-3.18 21.52,-4.94 33.16,-4.94 70.2,0 127,56.79 127,126.64 0,15.88 -3.18,30.7 -8.47,44.81 20.11,-14.11 44.8,-22.23 71.26,-22.23 70.2,0 127,56.8 127,127 0,0.71 -0.35,1.41 -0.35,2.47 21.17,-15.52 46.92,-25.05 75.14,-25.05 64.91,0 117.83,49.04 125.24,112.19 22.93,-33.52 61.38,-55.39 104.77,-55.39 43.39,0 81.85,21.87 104.78,55.39 7.4,-63.15 60.32,-112.19 125.23,-112.19 28.22,0 53.98,9.53 75.14,25.05 0,-1.06 -0.35,-1.76 -0.35,-2.47 0,-70.2 56.8,-127 127,-127 26.46,0 51.15,8.12 71.26,22.23 -5.29,-14.11 -8.46,-28.93 -8.46,-44.81 0,-69.85 56.79,-126.64 127,-126.64 11.64,0 22.57,1.76 33.16,4.94 -4.94,-13.76 -8.12,-28.58 -8.12,-44.45 0,-69.85 56.8,-126.65 126.65,-126.65 10.94,0 21.17,1.76 31.04,4.23 -3.52,-11.64 -5.99,-23.63 -5.99,-36.33 0,-57.86 38.45,-106.19 91.01,-121.71 2.12,0.7 4.24,1.76 6.35,2.47l82.55 31.75z"/>
    <g>
     <path class="fil6" d="M1161.22 4276.37c-26.11,-14.47 -51.86,-29.63 -76.91,-45.51l51.15 -252.94 25.76 298.45z"/>
     <path class="fil6" d="M3487.43 4230.86c-25.4,15.88 -50.8,31.04 -76.9,45.51l25.75 -298.45 51.15 252.94z"/>
    </g>
    <g>
     <g>
      <path class="fil5" d="M2252.74 1684.6l0 403.6 68.39 0c117.26,0 -46.62,-357.22 -68.39,-403.6z"/>
     </g>
     <g>
      <g>
       <path class="fil2" d="M2750.06 1527.35c-94.53,-46.7 -199.62,-53.64 -298.16,-14.45 -41.75,16.6 -23.57,84.86 18.75,68.03 80.74,-32.1 165.31,-31.43 243.8,7.35 40.64,20.07 76.4,-40.78 35.61,-60.93z"/>
       <path class="fil2" d="M2664.95 1653.06c-21.48,-37.25 -66.54,-34.99 -66.54,-34.99 -36.74,0 -66.54,29.79 -66.54,66.53 0,36.75 29.8,66.54 66.54,66.54 8.11,0 15.78,-1.66 22.96,-4.31l0.04 0.18c0.44,-0.15 0.73,-0.4 1.16,-0.56 2.15,-0.84 4.16,-1.9 6.19,-2.95 58.18,-25.23 64.38,-89.83 64.38,-89.83 -11.6,9.78 -28.19,-0.61 -28.19,-0.61z"/>
      </g>
      <g>
       <path class="fil2" d="M1821.68 1527.35c94.54,-46.7 199.62,-53.64 298.17,-14.45 41.75,16.6 23.56,84.86 -18.76,68.03 -80.74,-32.1 -165.31,-31.43 -243.8,7.35 -40.64,20.07 -76.4,-40.78 -35.61,-60.93z"/>
       <path class="fil2" d="M1906.79 1653.06c21.48,-37.25 66.54,-34.99 66.54,-34.99 36.75,0 66.54,29.79 66.54,66.53 0,36.75 -29.79,66.54 -66.54,66.54 -8.11,0 -15.78,-1.66 -22.96,-4.31l-0.04 0.18c-0.43,-0.15 -0.73,-0.4 -1.16,-0.56 -2.15,-0.84 -4.15,-1.9 -6.19,-2.95 -58.18,-25.23 -64.38,-89.83 -64.38,-89.83 11.61,9.78 28.19,-0.61 28.19,-0.61z"/>
      </g>
     </g>
     <path class="fil7" d="M2069.07 2302.94c23.45,87.56 111.49,152.75 216.8,152.75 105.31,0 193.35,-65.19 216.8,-152.75l-433.6 0z"/>
    </g>
   </g>
  </g>
 </g>
</svg>
