<?xml version="1.0" encoding="UTF-8"?>
<!DOCTYPE svg PUBLIC "-//W3C//DTD SVG 1.1//EN" "http://www.w3.org/Graphics/SVG/1.1/DTD/svg11.dtd">
<!-- Creator: CorelDRAW -->
<svg xmlns="http://www.w3.org/2000/svg" xml:space="preserve" width="45.717mm" height="45.717mm" version="1.1" style="shape-rendering:geometricPrecision; text-rendering:geometricPrecision; image-rendering:optimizeQuality; fill-rule:evenodd; clip-rule:evenodd"
viewBox="0 0 4571.7 4571.7"
 xmlns:xlink="http://www.w3.org/1999/xlink"
 xmlns:xodm="http://www.corel.com/coreldraw/odm/2003">
 <defs>
  <style type="text/css">
   <![CDATA[
    .fil0 {fill:none}
    .fil3 {fill:#051633;fill-rule:nonzero}
    .fil5 {fill:#601613;fill-rule:nonzero}
    .fil4 {fill:#851F1A;fill-rule:nonzero}
    .fil1 {fill:#D6E9F0;fill-rule:nonzero}
    .fil6 {fill:#FF853B;fill-rule:nonzero}
    .fil2 {fill:#FFA33B;fill-rule:nonzero}
    .fil7 {fill:white;fill-rule:nonzero}
   ]]>
  </style>
 </defs>
 <g id="Camada_x0020_1">
  <metadata id="CorelCorpID_0Corel-Layer"/>
  <rect class="fil0" x="-0.15" y="0.15" width="4571.7" height="4571.7"/>
  <g id="_2060184731968">
   <path class="fil1" d="M4571.52 2286.18c0,646.64 -268.47,1230.49 -700.27,1646.41 -110.06,105.84 -230.71,201.09 -360.18,283.28 -37.4,23.99 -75.5,46.57 -114.65,68.09 -328.79,183.44 -707.32,287.87 -1110.55,287.87 -402.87,0 -781.75,-104.43 -1110.54,-287.87l-0.36 0c-39.15,-21.17 -76.9,-44.1 -114.3,-68.09 -129.47,-82.19 -250.12,-177.09 -360.18,-283.28 -431.8,-415.57 -700.62,-999.77 -700.62,-1646.41 0,-1262.59 1023.41,-2286 2286,-2286 1262.24,0 2285.65,1023.41 2285.65,2286z"/>
   <g>
    <g>
     <path class="fil2" d="M3871.25 3932.59c-110.06,105.84 -230.71,201.09 -360.18,283.28 -37.4,23.99 -75.5,46.57 -114.65,68.09 -328.79,183.44 -707.32,287.87 -1110.55,287.87 -402.87,0 -781.75,-104.43 -1110.54,-287.87l-0.36 0c-39.15,-21.17 -76.9,-44.1 -114.3,-68.09 -129.47,-82.19 -250.12,-177.09 -360.18,-283.28 116.06,-171.45 282.57,-305.15 479.07,-380.64l210.61 -81.14c125.94,-48.33 237.07,-123.12 327.73,-217.31 17.99,-18.7 34.92,-37.75 50.8,-57.86 6.7,-8.11 13.05,-16.23 19.05,-24.34 8.11,-10.23 15.87,-20.82 22.93,-31.75 7.76,-11.29 15.52,-22.93 22.93,-34.57 1.41,-2.47 2.82,-4.59 4.23,-7.06 7.06,-11.29 13.76,-22.93 20.11,-34.57 7.41,-13.05 14.47,-26.46 20.82,-39.87 5.29,-10.23 10.23,-20.81 14.81,-31.39 2.47,-5.65 4.94,-11.64 7.41,-17.64 4.23,-9.53 7.76,-19.05 11.29,-28.58 1.76,-4.23 3.53,-8.82 4.94,-13.05 4.23,-11.64 8.47,-23.64 11.99,-35.28 4.59,-13.76 8.47,-27.87 12,-41.98 0.35,-0.7 0.7,-1.76 1.06,-2.82 3.88,-14.46 7.05,-29.28 10.23,-44.1l31.04 -149.22 14.11 -68.09 37.4 -181.33 501.65 0 37.39 181.33 45.16 217.31c2.82,14.11 6.35,28.22 9.87,42.34 0.71,2.82 1.42,5.29 2.12,8.11 3.53,14.11 7.41,27.87 12,41.63 3.17,10.23 6.7,20.46 10.58,30.34 0,0.7 0.35,1.41 0.7,1.76 3.18,9.17 6.71,18.34 10.23,27.52 4.24,10.93 8.82,21.52 13.41,31.75 2.47,5.64 4.94,10.93 7.76,16.58 6,13.76 12.7,27.16 20.11,40.57 7.41,13.76 14.82,27.16 22.93,40.57 17.64,29.63 37.04,58.2 57.86,85.37 2.11,3.17 4.58,6 6.7,8.82 6,7.76 11.99,15.17 18.34,22.58 13.41,16.22 27.52,31.75 41.98,46.92 90.67,94.19 201.79,168.98 327.73,217.31l210.61 81.14c196.5,75.49 363.01,209.19 479.07,380.64z"/>
     <path class="fil3" d="M4374.12 2031.82c-38.15,-32.25 -89.29,-45.35 -128.87,-75.83 -94.54,-72.82 -98.41,-221.56 -188.34,-300 -90.58,-79 -235.55,-59.24 -332.74,-129.95 -121.73,-88.56 -130.64,-290 -266,-355.86 -63.62,-30.95 -141.4,-22.97 -203.66,-56.57 -99.58,-53.74 -124.16,-191.83 -217.22,-256.2 -106.83,-73.9 -258.58,-23.43 -378.07,-74.39 -52.35,-22.32 -94.71,-62.64 -143.47,-92 -48.75,-29.36 -113,-10.04 -169.91,-10.04 -56.91,0 -121.17,-19.32 -169.92,10.04 -48.75,29.36 -91.11,69.68 -143.47,92 -119.48,50.96 -271.24,0.49 -378.07,74.39 -93.06,64.37 -117.63,202.46 -217.21,256.2 -62.27,33.6 -140.04,25.62 -203.66,56.57 -135.36,65.86 -144.28,267.3 -266,355.86 -97.19,70.71 -242.16,50.95 -332.74,129.95 -89.93,78.44 -93.81,227.18 -188.35,300 -39.57,30.48 -90.71,43.58 -128.86,75.83 -73.01,61.69 -77.07,170.81 -75.32,266.37 0.55,30.41 2.19,63.7 22.59,86.26 17.98,19.87 45.98,26.28 70.23,37.71 156.17,73.62 135.71,335.74 289.95,413.36 113.23,56.99 262.84,-19.26 372.07,45.05 68.78,40.49 103.21,128.09 177.11,158.24 119.15,48.61 244.81,-81.55 372.37,-64.62 76.9,10.21 135.32,70.93 196.37,118.81 161.35,126.54 380.71,175.8 580.68,130.4 6.87,-1.56 14.69,-4.03 17.28,-10.58 1.26,-3.19 3.49,-8.82 4.95,-13.16 1.46,4.34 3.68,9.97 4.94,13.16 2.6,6.55 10.42,9.02 17.28,10.58 199.97,45.4 419.33,-3.86 580.69,-130.4 61.04,-47.88 119.46,-108.6 196.36,-118.81 127.57,-16.93 253.22,113.23 372.37,64.62 73.9,-30.15 108.34,-117.75 177.11,-158.24 109.23,-64.31 258.85,11.94 372.08,-45.05 154.23,-77.62 133.77,-339.74 289.95,-413.36 24.24,-11.43 52.25,-17.84 70.23,-37.71 20.4,-22.56 22.04,-55.85 22.59,-86.26 1.74,-95.56 -2.32,-204.68 -75.32,-266.37z"/>
    </g>
    <g>
     <g>
      <path class="fil4" d="M2853.84 3253.5c-3.52,19.4 -135.46,747.18 -567.97,767.29 -432.5,-20.11 -564.44,-747.89 -567.97,-767.29 116.77,-121.36 199.32,-274.82 234.6,-444.86l31.04 -149.22 51.51 -249.42 501.65 0 82.55 398.64c6.35,31.4 14.46,62.09 23.99,92.08 42.68,133.35 115.35,253.64 210.6,352.78z"/>
     </g>
    </g>
    <g>
     <path class="fil5" d="M2643.24 2900.72c-82.55,21.16 -140.41,21.16 -140.41,21.16 0,0 -311.15,0 -519.29,-262.46l51.51 -249.42 501.65 0 82.55 398.64c6.35,31.4 14.46,62.09 23.99,92.08z"/>
    </g>
    <g>
     <path class="fil6" d="M1174.97 4283.96c-39.15,-21.17 -76.9,-44.1 -114.3,-68.09l74.79 -277.63 39.51 345.72z"/>
     <path class="fil6" d="M3511.07 4215.87c-37.4,23.99 -75.5,46.57 -114.65,68.09l39.86 -345.72 74.79 277.63z"/>
    </g>
    <g>
     <g>
      <path class="fil4" d="M3147.63 1720.49c-4.29,-28.15 -14.71,-56.73 -36.2,-75.4 -19.38,-16.85 -46.03,-23.81 -71.68,-22.71 -25.66,1.11 -50.49,9.67 -73.6,20.86 0,0 -2.26,-650.36 -232.8,-657.92 -151.18,-7.56 -218.43,-85.79 -447.48,-85.79 -229.04,0 -296.29,78.23 -447.47,85.79 -230.55,7.56 -232.81,657.92 -232.81,657.92 -23.11,-11.19 -47.94,-19.75 -73.59,-20.86 -25.66,-1.1 -52.3,5.86 -71.69,22.71 -21.49,18.67 -31.9,47.25 -36.19,75.4 -8.6,56.5 4.92,116.07 37.07,163.31 32.15,47.25 79.61,82.78 135.33,95.51 98.26,687.85 689.35,687.85 689.35,687.85 0,0 591.09,0 689.36,-687.85 55.71,-12.73 103.17,-48.26 135.32,-95.51 32.15,-47.24 45.68,-106.81 37.08,-163.31z"/>
     </g>
    </g>
    <g>
     <path class="fil5" d="M2252.74 1629.6l0 403.61 68.39 0c117.26,0 -46.62,-357.23 -68.39,-403.61z"/>
     <g>
      <g>
       <path class="fil3" d="M2750.06 1472.35c-94.53,-46.7 -199.62,-53.64 -298.16,-14.45 -41.75,16.6 -23.57,84.86 18.75,68.04 80.74,-32.11 165.31,-31.44 243.8,7.34 40.64,20.07 76.4,-40.77 35.61,-60.93z"/>
       <path class="fil3" d="M2664.95 1598.06c-21.48,-37.26 -66.54,-34.99 -66.54,-34.99 -36.74,0 -66.54,29.78 -66.54,66.53 0,36.75 29.8,66.54 66.54,66.54 8.11,0 15.78,-1.66 22.96,-4.31l0.04 0.18c0.44,-0.15 0.73,-0.4 1.16,-0.56 2.15,-0.84 4.16,-1.9 6.19,-2.95 58.18,-25.23 64.38,-89.83 64.38,-89.83 -11.6,9.77 -28.19,-0.61 -28.19,-0.61z"/>
      </g>
      <g>
       <path class="fil3" d="M1821.68 1472.35c94.54,-46.7 199.62,-53.64 298.17,-14.45 41.75,16.6 23.56,84.86 -18.76,68.04 -80.74,-32.11 -165.31,-31.44 -243.8,7.34 -40.64,20.07 -76.4,-40.77 -35.61,-60.93z"/>
       <path class="fil3" d="M1906.79 1598.06c21.48,-37.26 66.54,-34.99 66.54,-34.99 36.75,0 66.54,29.78 66.54,66.53 0,36.75 -29.79,66.54 -66.54,66.54 -8.11,0 -15.78,-1.66 -22.96,-4.31l-0.04 0.18c-0.43,-0.15 -0.73,-0.4 -1.16,-0.56 -2.15,-0.84 -4.15,-1.9 -6.19,-2.95 -58.18,-25.23 -64.38,-89.83 -64.38,-89.83 11.61,9.77 28.19,-0.61 28.19,-0.61z"/>
      </g>
     </g>
     <path class="fil7" d="M2069.07 2247.94c23.45,87.57 111.49,152.76 216.8,152.76 105.31,0 193.35,-65.19 216.8,-152.76l-433.6 0z"/>
    </g>
   </g>
  </g>
 </g>
</svg>
