<?xml version="1.0" encoding="UTF-8"?>
<!DOCTYPE svg PUBLIC "-//W3C//DTD SVG 1.1//EN" "http://www.w3.org/Graphics/SVG/1.1/DTD/svg11.dtd">
<!-- Creator: CorelDRAW -->
<svg xmlns="http://www.w3.org/2000/svg" xml:space="preserve" width="45.717mm" height="45.717mm" version="1.1" style="shape-rendering:geometricPrecision; text-rendering:geometricPrecision; image-rendering:optimizeQuality; fill-rule:evenodd; clip-rule:evenodd"
viewBox="0 0 4571.7 4571.7"
 xmlns:xlink="http://www.w3.org/1999/xlink"
 xmlns:xodm="http://www.corel.com/coreldraw/odm/2003">
 <defs>
  <style type="text/css">
   <![CDATA[
    .fil0 {fill:none}
    .fil8 {fill:#051633;fill-rule:nonzero}
    .fil3 {fill:#3436A1;fill-rule:nonzero}
    .fil2 {fill:#4649D6;fill-rule:nonzero}
    .fil1 {fill:#D6E9F0;fill-rule:nonzero}
    .fil7 {fill:#E44423;fill-rule:nonzero}
    .fil5 {fill:#F27967;fill-rule:nonzero}
    .fil4 {fill:#F69779;fill-rule:nonzero}
    .fil6 {fill:#F69779;fill-rule:nonzero}
    .fil9 {fill:white;fill-rule:nonzero}
   ]]>
  </style>
 </defs>
 <g id="Camada_x0020_1">
  <metadata id="CorelCorpID_0Corel-Layer"/>
  <rect class="fil0" x="-0.15" y="0.15" width="4571.7" height="4571.7"/>
  <g id="_2095458465856">
   <path class="fil1" d="M4571.69 2286.18c0,542.92 -189.45,1041.75 -505.89,1433.69 -147.11,182.74 -322.08,342.54 -518.58,472.37 -53.98,36.33 -109.71,69.85 -167.22,101.24 -324.91,177.45 -697.79,278.35 -1094.3,278.35 -396.53,0 -769.41,-100.9 -1094.32,-278.35 -57.5,-31.39 -113.24,-64.91 -167.22,-101.24 -196.49,-129.83 -371.47,-289.63 -518.58,-472.37 -316.44,-391.94 -505.88,-890.77 -505.88,-1433.69 0,-1262.59 1023.4,-2286 2286,-2286 1262.58,0 2285.99,1023.41 2285.99,2286z"/>
   <g>
    <g>
     <g>
      <path class="fil2" d="M4065.8 3719.87c-147.11,182.74 -322.08,342.54 -518.58,472.37 -53.98,36.33 -109.71,69.85 -167.22,101.24 -324.91,177.45 -697.79,278.35 -1094.3,278.35 -396.53,0 -769.41,-100.9 -1094.32,-278.35 -57.5,-31.39 -113.24,-64.91 -167.22,-101.24 -196.49,-129.83 -371.47,-289.63 -518.58,-472.37 61.38,-203.56 223.31,-364.07 431.8,-421.57l547.86 -151.34 196.15 -54.33 172.15 -47.63 71.26 -399.34 2.83 -15.88 12.34 -70.55 26.81 -149.23 318.92 124.89 318.9 -124.89 26.81 149.23 70.55 395.82 15.88 89.95 172.15 47.63 196.15 54.33 547.86 151.34c208.49,57.5 370.42,218.01 431.8,421.57z"/>
     </g>
     <path class="fil3" d="M2889.99 3092.63l-2.46 5.64c-23.64,107.6 -129.12,358.78 -601.83,358.78 -472.73,0 -578.21,-251.18 -601.84,-358.78l-2.47 -5.64 172.15 -47.63 113.24 -635 318.92 124.89 318.9 -124.89 113.24 635 172.15 47.63z"/>
     <g>
      <path class="fil4" d="M2717.84 3045c0,0 -7.06,235.66 -432.14,235.66 -425.1,0 -432.16,-235.66 -432.16,-235.66l71.26 -399.34 41.98 -235.66 318.92 124.89 318.9 -124.89 97.36 545.05 15.88 89.95z"/>
     </g>
     <g>
      <path class="fil5" d="M2701.96 2955.05c-112.53,38.8 -199.32,38.8 -199.32,38.8 0,0 -375.34,0 -577.84,-348.19l41.98 -235.66 318.92 124.89 318.9 -124.89 97.36 545.05z"/>
     </g>
     <g>
      <path class="fil6" d="M2982.38 1025.47c-81.58,-152.96 -237.58,-237.6 -381.32,-284.39 -204.45,-66.57 -426.28,-66.57 -630.74,0 -143.74,46.79 -299.74,131.43 -381.32,284.39 -147.46,282.37 -122.36,721.63 -122.36,721.63l153.74 163.14 665.32 -84.42 665.3 84.42 153.74 -163.14c0,0 25.1,-439.26 -122.36,-721.63z"/>
     </g>
     <g>
      <path class="fil4" d="M3147.44 1720.49c-4.29,-28.15 -14.71,-56.73 -36.19,-75.4 -19.39,-16.85 -46.04,-23.81 -71.69,-22.71 -25.66,1.11 -50.48,9.67 -73.59,20.86 0,0 -2.27,-650.36 -232.81,-657.92 -151.18,-7.56 -218.43,37.8 -447.46,37.8 -229.04,0 -296.3,-45.36 -447.48,-37.8 -230.54,7.56 -232.8,657.92 -232.8,657.92 -23.12,-11.19 -47.95,-19.75 -73.6,-20.86 -25.65,-1.1 -52.3,5.86 -71.68,22.71 -21.5,18.67 -31.91,47.25 -36.2,75.4 -8.6,56.5 4.92,116.07 37.07,163.31 32.16,47.25 79.62,82.78 135.33,95.51 98.27,687.85 689.36,687.85 689.36,687.85 0,0 591.08,0 689.34,-687.85 55.71,-12.73 103.18,-48.26 135.33,-95.51 32.15,-47.24 45.67,-106.81 37.07,-163.31z"/>
     </g>
    </g>
    <g>
     <g>
      <path class="fil5" d="M2252.56 1634.35l0 403.6 68.39 0c117.26,0 -46.62,-357.23 -68.39,-403.6z"/>
     </g>
     <g>
      <g>
       <path class="fil7" d="M2749.87 1477.09c-94.53,-46.69 -199.61,-53.63 -298.16,-14.45 -41.75,16.61 -23.56,84.86 18.76,68.04 80.74,-32.11 165.31,-31.44 243.8,7.34 40.64,20.07 76.4,-40.77 35.6,-60.93z"/>
       <path class="fil8" d="M2664.76 1634.35c0,36.74 -29.79,66.54 -66.53,66.54 -36.75,0 -66.54,-29.8 -66.54,-66.54 0,-36.75 29.79,-66.54 66.54,-66.54 36.74,0 66.53,29.79 66.53,66.54z"/>
      </g>
      <g>
       <path class="fil7" d="M1821.51 1477.09c94.53,-46.69 199.62,-53.63 298.16,-14.45 41.75,16.61 23.56,84.86 -18.76,68.04 -80.74,-32.11 -165.3,-31.44 -243.79,7.34 -40.64,20.07 -76.4,-40.77 -35.61,-60.93z"/>
       <path class="fil8" d="M1906.62 1634.35c0,36.74 29.79,66.54 66.54,66.54 36.75,0 66.53,-29.8 66.53,-66.54 0,-36.75 -29.78,-66.54 -66.53,-66.54 -36.75,0 -66.54,29.79 -66.54,66.54z"/>
      </g>
     </g>
     <path class="fil9" d="M2068.9 2202.83c23.45,87.57 111.49,152.76 216.8,152.76 105.29,0 193.34,-65.19 216.79,-152.76l-433.59 0z"/>
    </g>
    <g>
     <path class="fil3" d="M1191.38 4293.48c-57.5,-31.39 -113.24,-64.91 -167.22,-101.24l111.13 -550.34 56.09 651.58z"/>
     <path class="fil3" d="M3547.22 4192.24c-53.98,36.33 -109.71,69.85 -167.22,101.24l56.09 -651.58 111.13 550.34z"/>
    </g>
   </g>
  </g>
 </g>
</svg>
