<?xml version="1.0" encoding="UTF-8"?>
<!DOCTYPE svg PUBLIC "-//W3C//DTD SVG 1.1//EN" "http://www.w3.org/Graphics/SVG/1.1/DTD/svg11.dtd">
<!-- Creator: CorelDRAW -->
<svg xmlns="http://www.w3.org/2000/svg" xml:space="preserve" width="45.717mm" height="45.717mm" version="1.1" style="shape-rendering:geometricPrecision; text-rendering:geometricPrecision; image-rendering:optimizeQuality; fill-rule:evenodd; clip-rule:evenodd"
viewBox="0 0 4571.7 4571.7"
 xmlns:xlink="http://www.w3.org/1999/xlink"
 xmlns:xodm="http://www.corel.com/coreldraw/odm/2003">
 <defs>
  <style type="text/css">
   <![CDATA[
    .fil0 {fill:none}
    .fil3 {fill:#051633;fill-rule:nonzero}
    .fil2 {fill:#0C415B;fill-rule:nonzero}
    .fil7 {fill:#B32A24;fill-rule:nonzero}
    .fil1 {fill:#D6E9F0;fill-rule:nonzero}
    .fil6 {fill:#EF3831;fill-rule:nonzero}
    .fil5 {fill:#F27967;fill-rule:nonzero}
    .fil4 {fill:#F69779;fill-rule:nonzero}
    .fil8 {fill:white;fill-rule:nonzero}
   ]]>
  </style>
 </defs>
 <g id="Camada_x0020_1">
  <metadata id="CorelCorpID_0Corel-Layer"/>
  <rect class="fil0" x="-0.15" y="0.15" width="4571.7" height="4571.7"/>
  <g id="_2060273997536">
   <path class="fil1" d="M4571.52 2286c0,551.73 -195.44,1057.97 -521.05,1452.73 -135.82,165.09 -294.22,310.79 -470.96,431.8 -60.33,41.98 -122.77,80.43 -187.33,116.06 -327.73,182.03 -704.85,285.4 -1106.31,285.4 -401.11,0 -778.58,-103.37 -1106.31,-285.4 -64.56,-35.28 -127,-74.08 -187.32,-115.71 -176.75,-121.36 -335.14,-266.7 -470.96,-431.8 -325.97,-394.76 -521.41,-901 -521.41,-1453.08 0,-1262.6 1023.41,-2286 2286,-2286 1262.24,0 2285.65,1023.4 2285.65,2286z"/>
   <g>
    <g>
     <g>
      <g>
       <path class="fil2" d="M4050.47 3738.73c-135.82,165.09 -294.22,310.79 -470.96,431.8 -60.33,41.98 -122.77,80.43 -187.33,116.06 -327.73,182.03 -704.85,285.4 -1106.31,285.4 -401.11,0 -778.58,-103.37 -1106.31,-285.4 -64.56,-35.28 -127,-74.08 -187.32,-115.71 -176.75,-121.36 -335.14,-266.7 -470.96,-431.8 70.2,-182.39 223.31,-323.85 416.27,-377.12l547.87 -151.34 27.16 -7.41 341.14 -94.55 5.29 -29.28 853.72 0 2.47 14.47 2.82 14.81 341.14 94.55 27.16 7.41 547.87 151.34c192.97,53.27 345.72,194.73 416.28,376.77z"/>
      </g>
      <path class="fil3" d="M3059.16 3203.21l-9.88 26.81c-2.82,7.76 -5.64,15.17 -8.82,21.52 -92.42,256.47 -389.11,425.8 -754.59,425.8 -365.83,0 -662.16,-169.33 -754.59,-425.8 -3.18,-6.7 -6,-13.76 -8.82,-21.52l-9.88 -26.81 341.14 -94.55 5.29 -29.28 853.72 0 5.29 29.28 341.14 94.55z"/>
      <g>
       <path class="fil4" d="M2718.02 3108.66c-1.41,3.88 -3.52,7.06 -5.29,10.59 -30.69,116.06 -209.9,205.31 -426.86,205.31 -216.96,0 -396.17,-89.25 -426.86,-205.31 -1.76,-3.53 -3.88,-6.71 -5.29,-10.59l69.5 -389.46 43.74 -245.54 318.91 124.89 318.91 -124.89 110.42 620.19 2.82 14.81z"/>
      </g>
      <path class="fil5" d="M2715.2 3093.85c-104.77,33.51 -183.44,33.51 -183.44,33.51 0,0 -417.34,0 -608.54,-408.16l43.74 -245.54 318.91 124.89 318.91 -124.89 110.42 620.19z"/>
     </g>
     <path class="fil6" d="M1514.12 1263.46c0,0 -436.99,643.52 31.47,760.27l278.85 -319.82 0 -440.45 -310.32 0z"/>
     <path class="fil3" d="M2982.56 1089.14c-81.57,-152.96 -237.58,-237.6 -381.32,-284.39 -204.45,-66.57 -426.29,-66.57 -630.74,0 -143.74,46.79 -299.75,131.43 -381.32,284.39 -147.46,282.37 -122.36,721.63 -122.36,721.63l153.73 163.14 665.32 -84.42 665.32 84.42 153.74 -163.14c0,0 25.1,-439.26 -122.37,-721.63z"/>
     <g>
      <path class="fil4" d="M3147.63 1784.16c-4.29,-28.15 -14.71,-56.73 -36.2,-75.4 -19.38,-16.85 -46.03,-23.81 -71.68,-22.71 -25.66,1.11 -50.49,9.67 -73.6,20.86 0,0 -2.26,-650.36 -232.8,-657.92 -151.18,-7.56 -218.43,37.8 -447.48,37.8 -229.04,0 -296.29,-45.36 -447.47,-37.8 -230.55,7.56 -232.81,657.92 -232.81,657.92 -23.11,-11.19 -47.94,-19.75 -73.59,-20.86 -25.66,-1.1 -52.3,5.86 -71.69,22.71 -21.49,18.67 -31.9,47.25 -36.19,75.4 -8.6,56.5 4.92,116.07 37.07,163.31 32.15,47.25 79.61,82.78 135.33,95.51 98.26,687.84 689.35,687.84 689.35,687.84 0,0 591.09,0 689.36,-687.84 55.71,-12.73 103.17,-48.26 135.32,-95.51 32.15,-47.24 45.68,-106.81 37.08,-163.31z"/>
     </g>
    </g>
    <path class="fil7" d="M2368.03 623c0,45.38 -36.78,82.16 -82.16,82.16 -45.37,0 -82.16,-36.78 -82.16,-82.16 0,-45.37 36.79,-82.16 82.16,-82.16 45.38,0 82.16,36.79 82.16,82.16z"/>
    <path class="fil7" d="M2285.87 666.04c0,0 -761.39,-8.17 -788.21,747.25l788.21 0 788.21 0c-26.82,-755.42 -788.21,-747.25 -788.21,-747.25z"/>
    <path class="fil6" d="M2285.87 666.04c0,0 -519.52,-8.17 -537.82,747.25l537.82 0 537.82 0c-18.3,-755.42 -537.82,-747.25 -537.82,-747.25z"/>
    <g>
     <g>
      <path class="fil5" d="M2252.74 1807.47l0 403.6 68.39 0c117.26,0 -46.62,-357.22 -68.39,-403.6z"/>
     </g>
     <g>
      <g>
       <path class="fil3" d="M2750.06 1650.22c-94.53,-46.7 -199.62,-53.64 -298.16,-14.45 -41.75,16.6 -23.57,84.86 18.75,68.03 80.74,-32.1 165.31,-31.43 243.8,7.34 40.64,20.08 76.4,-40.77 35.61,-60.92z"/>
       <path class="fil3" d="M2664.95 1807.47c0,36.75 -29.79,66.54 -66.54,66.54 -36.74,0 -66.54,-29.79 -66.54,-66.54 0,-36.75 29.8,-66.54 66.54,-66.54 36.75,0 66.54,29.79 66.54,66.54z"/>
      </g>
      <g>
       <path class="fil3" d="M1821.68 1650.22c94.54,-46.7 199.62,-53.64 298.17,-14.45 41.75,16.6 23.56,84.86 -18.76,68.03 -80.74,-32.1 -165.31,-31.43 -243.8,7.34 -40.64,20.08 -76.4,-40.77 -35.61,-60.92z"/>
       <path class="fil3" d="M1906.79 1807.47c0,36.75 29.8,66.54 66.54,66.54 36.75,0 66.54,-29.79 66.54,-66.54 0,-36.75 -29.79,-66.54 -66.54,-66.54 -36.74,0 -66.54,29.79 -66.54,66.54z"/>
      </g>
     </g>
     <path class="fil8" d="M2069.07 2368.7c23.45,87.57 111.49,152.76 216.8,152.76 105.31,0 193.35,-65.19 216.8,-152.76l-433.6 0z"/>
    </g>
    <g>
     <path class="fil3" d="M3579.51 4170.53c-60.33,41.98 -122.77,80.43 -187.33,116.06l121.01 -660.05 66.32 543.99z"/>
     <path class="fil3" d="M1179.56 4286.59c-64.56,-35.28 -127,-74.08 -187.32,-115.71l66.32 -544.34 121 660.05z"/>
    </g>
   </g>
  </g>
 </g>
</svg>
