<?xml version="1.0" encoding="UTF-8"?>
<!DOCTYPE svg PUBLIC "-//W3C//DTD SVG 1.1//EN" "http://www.w3.org/Graphics/SVG/1.1/DTD/svg11.dtd">
<!-- Creator: CorelDRAW -->
<svg xmlns="http://www.w3.org/2000/svg" xml:space="preserve" width="45.717mm" height="45.717mm" version="1.1" style="shape-rendering:geometricPrecision; text-rendering:geometricPrecision; image-rendering:optimizeQuality; fill-rule:evenodd; clip-rule:evenodd"
viewBox="0 0 4571.7 4571.7"
 xmlns:xlink="http://www.w3.org/1999/xlink"
 xmlns:xodm="http://www.corel.com/coreldraw/odm/2003">
 <defs>
  <style type="text/css">
   <![CDATA[
    .fil0 {fill:none}
    .fil6 {fill:#051633;fill-rule:nonzero}
    .fil8 {fill:#461F62;fill-rule:nonzero}
    .fil5 {fill:#662D8E;fill-rule:nonzero}
    .fil1 {fill:#D6E9F0;fill-rule:nonzero}
    .fil2 {fill:#E44423;fill-rule:nonzero}
    .fil4 {fill:#F27967;fill-rule:nonzero}
    .fil3 {fill:#F69779;fill-rule:nonzero}
    .fil7 {fill:white;fill-rule:nonzero}
   ]]>
  </style>
 </defs>
 <g id="Camada_x0020_1">
  <metadata id="CorelCorpID_0Corel-Layer"/>
  <rect class="fil0" x="-0.15" y="0.15" width="4571.7" height="4571.7"/>
  <g id="_2095457470432">
   <path class="fil1" d="M4571.69 2286c0,660.03 -279.76,1254.82 -727.43,1672.51 -144.64,134.76 -306.92,251.17 -483.31,345.01 -320.32,171.45 -686.5,268.47 -1075.25,268.47 -388.77,0 -754.95,-97.02 -1075.27,-268.11 -176.39,-94.2 -338.67,-210.61 -483.31,-345.37 -447.67,-417.69 -727.42,-1012.48 -727.42,-1672.51 0,-1262.6 1023.4,-2286 2286,-2286 1262.58,0 2285.99,1023.4 2285.99,2286z"/>
   <g>
    <g>
     <path class="fil2" d="M1809.45 754.82c0,0 211.66,-267.99 573.25,-267.99 361.6,0 723.19,635 811.39,1120.07 88.19,485.07 273.4,2240.13 273.4,2240.13l-2284.22 0 151.85 -2438c8.06,-129.43 40.61,-256.91 101.7,-371.31 70.56,-132.11 187.42,-267.96 372.63,-282.9z"/>
    </g>
    <g>
     <path class="fil3" d="M3844.26 3958.51c-144.64,134.76 -306.92,251.17 -483.31,345.01 -320.32,171.45 -686.5,268.47 -1075.25,268.47 -388.77,0 -754.95,-97.02 -1075.27,-268.11 -176.39,-94.2 -338.67,-210.61 -483.31,-345.37 114.3,-153.46 270.58,-273.05 452.27,-342.9l18.69 -7.06 191.91 -74.08c81.14,-31.4 156.28,-73.38 224.02,-125.24 171.45,-130.53 293.16,-320.32 338.31,-536.93l6 -29.63 38.8 -187.68 0 -0.35 37.75 -180.98 501.64 0 37.4 181.33 45.15 217.31c31.75,152.4 101.25,291.4 199.67,405.7 41.28,48.33 87.85,92.43 138.65,131.23 67.73,51.86 142.87,93.84 224.01,125.24l210.61 81.14c17.99,7.05 35.28,14.46 52.91,22.22l0.36 0c159.1,71.61 295.98,182.39 398.99,320.68z"/>
    </g>
    <g>
     <path class="fil4" d="M2818.73 3278c-122.76,46.56 -220.84,46.56 -220.84,46.56 0,0 -466.36,0 -639.57,-481.89l76.55 -369.01 501.64 0 82.55 398.64c31.75,152.4 101.25,291.4 199.67,405.7z"/>
    </g>
    <g>
     <path class="fil3" d="M2553.09 1062.92c-143.23,-105.49 -267.39,-135.12 -267.39,-135.12 0,0 -124.18,29.63 -267.41,135.12 -196.14,144.28 -427.92,431.44 -421.92,980.01 98.07,687.91 689.33,687.91 689.33,687.91 0,0 591.24,0 689.31,-687.91 6,-548.57 -225.77,-835.73 -421.92,-980.01z"/>
    </g>
    <g>
     <path class="fil5" d="M3360.95 4303.52c-320.32,171.45 -686.5,268.47 -1075.25,268.47 -388.77,0 -754.95,-97.02 -1075.27,-268.11 18.7,-37.4 35.28,-74.09 50.45,-110.07 53.27,-126.65 85.72,-243.77 104.77,-346.78 24.34,-130.18 27.17,-237.42 24.34,-312.56 81.14,-31.4 156.28,-73.38 224.02,-125.24l0 326.67c0,38.46 4.58,75.5 13.76,111.13 49.38,197.91 228.24,343.96 440.97,343.96l433.9 0c212.73,0 391.59,-146.05 440.98,-343.96 9.17,-35.63 13.76,-72.67 13.76,-111.13l0 -326.67c67.73,51.86 142.87,93.84 224.01,125.24 -3.18,75.14 0,182.38 24.34,312.56 24.7,131.94 71.26,287.51 155.22,456.49z"/>
    </g>
    <g>
     <g>
      <path class="fil4" d="M2252.56 1683.48l0 403.6 68.39 0c117.26,0 -46.62,-357.22 -68.39,-403.6z"/>
     </g>
     <g>
      <g>
       <g>
        <path class="fil2" d="M2749.87 1526.23c-94.53,-46.7 -199.61,-53.64 -298.16,-14.45 -41.75,16.6 -23.56,84.86 18.76,68.03 80.74,-32.1 165.31,-31.43 243.8,7.34 40.64,20.08 76.4,-40.77 35.6,-60.92z"/>
       </g>
       <path class="fil6" d="M2664.76 1651.94c-21.47,-37.26 -66.53,-35 -66.53,-35 -36.75,0 -66.54,29.79 -66.54,66.54 0,36.75 29.79,66.54 66.54,66.54 8.1,0 15.77,-1.66 22.96,-4.32l0.03 0.19c0.44,-0.16 0.74,-0.41 1.16,-0.56 2.16,-0.84 4.16,-1.9 6.2,-2.95 58.18,-25.23 64.37,-89.83 64.37,-89.83 -11.6,9.77 -28.19,-0.61 -28.19,-0.61z"/>
      </g>
      <g>
       <g>
        <path class="fil2" d="M1821.51 1526.23c94.53,-46.7 199.62,-53.64 298.16,-14.45 41.75,16.6 23.56,84.86 -18.76,68.03 -80.74,-32.1 -165.3,-31.43 -243.79,7.34 -40.64,20.08 -76.41,-40.77 -35.61,-60.92z"/>
       </g>
       <path class="fil6" d="M1906.62 1651.94c21.47,-37.26 66.54,-35 66.54,-35 36.75,0 66.53,29.79 66.53,66.54 0,36.75 -29.78,66.54 -66.53,66.54 -8.11,0 -15.78,-1.66 -22.97,-4.32l-0.03 0.19c-0.44,-0.16 -0.74,-0.41 -1.16,-0.56 -2.15,-0.84 -4.16,-1.9 -6.19,-2.95 -58.19,-25.23 -64.38,-89.83 -64.38,-89.83 11.6,9.77 28.19,-0.61 28.19,-0.61z"/>
      </g>
     </g>
     <path class="fil7" d="M2068.9 2301.82c23.45,87.56 111.49,152.74 216.8,152.74 105.29,0 193.34,-65.18 216.79,-152.74l-433.59 0z"/>
    </g>
    <path class="fil8" d="M3360.95 4303.52c-320.32,171.45 -686.5,268.47 -1075.25,268.47 -388.77,0 -754.95,-97.02 -1075.27,-268.11 18.7,-37.4 35.28,-74.09 50.45,-110.07 391.23,-97.72 991.66,215.19 991.66,215.19 535.85,-319.26 897.45,-160.86 897.45,-160.86 -60.68,-204.26 55.74,-401.11 55.74,-401.11 24.7,131.94 71.26,287.51 155.22,456.49z"/>
   </g>
  </g>
 </g>
</svg>
