<?xml version="1.0" encoding="UTF-8"?>
<!DOCTYPE svg PUBLIC "-//W3C//DTD SVG 1.1//EN" "http://www.w3.org/Graphics/SVG/1.1/DTD/svg11.dtd">
<!-- Creator: CorelDRAW -->
<svg xmlns="http://www.w3.org/2000/svg" xml:space="preserve" width="45.717mm" height="45.717mm" version="1.1" style="shape-rendering:geometricPrecision; text-rendering:geometricPrecision; image-rendering:optimizeQuality; fill-rule:evenodd; clip-rule:evenodd"
viewBox="0 0 4571.7 4571.7"
 xmlns:xlink="http://www.w3.org/1999/xlink"
 xmlns:xodm="http://www.corel.com/coreldraw/odm/2003">
 <defs>
  <style type="text/css">
   <![CDATA[
    .fil0 {fill:none}
    .fil2 {fill:#FFC82A;fill-rule:nonzero}
    .fil4 {fill:#007289;fill-rule:nonzero}
    .fil8 {fill:#051633;fill-rule:nonzero}
    .fil3 {fill:#1CACAC;fill-rule:nonzero}
    .fil1 {fill:#D6E9F0;fill-rule:nonzero}
    .fil7 {fill:#E44423;fill-rule:nonzero}
    .fil6 {fill:#F27967;fill-rule:nonzero}
    .fil5 {fill:#F69779;fill-rule:nonzero}
    .fil9 {fill:white;fill-rule:nonzero}
   ]]>
  </style>
 </defs>
 <g id="Camada_x0020_1">
  <metadata id="CorelCorpID_0Corel-Layer"/>
  <rect class="fil0" x="-0.15" y="0.15" width="4571.7" height="4571.7"/>
  <g id="_1912208640544">
   <path class="fil1" d="M4571.52 2285.82c0,653 -273.75,1242.13 -712.96,1659.12 -105.48,99.48 -220.14,189.44 -343.26,268.11 -66.67,42.68 -135.81,82.2 -207.08,117.47 -307.62,154.52 -655.1,241.3 -1022.7,241.3 -367.59,0 -714.73,-86.78 -1022.35,-240.94 -71.26,-35.63 -140.4,-74.79 -207.08,-117.48 -137.23,-87.84 -264.23,-189.79 -379.24,-304.09 -418.04,-413.81 -676.98,-988.49 -676.98,-1623.49 0,-1262.24 1023.41,-2285.64 2285.65,-2285.64 1262.59,0 2286,1023.4 2286,2285.64z"/>
   <g>
    <g>
     <path class="fil2" d="M3444.8 2943.52c-190.28,-152.87 -144.86,-311.62 -44.91,-582.09 99.96,-270.46 23.52,-535.04 -135.23,-676.15 -158.75,-141.12 -222.59,-318.42 -222.59,-318.42l-786.18 35.54 -786.19 -35.54c0,0 -63.84,177.3 -222.59,318.42 -158.75,141.11 -235.18,405.69 -135.23,676.15 99.95,270.47 145.37,429.22 -44.91,582.09 -190.27,152.87 -378.42,535.05 -149.12,881.94l1323.64 0 28.79 0 1323.64 0c229.31,-346.89 41.16,-729.07 -149.12,-881.94z"/>
     <g>
      <path class="fil3" d="M3858.56 3944.94c-105.48,99.48 -220.14,189.44 -343.26,268.11 -66.67,42.68 -135.81,82.2 -207.08,117.47 -307.62,154.52 -655.1,241.3 -1022.7,241.3 -367.59,0 -714.73,-86.78 -1022.35,-240.94 -71.26,-35.63 -140.4,-74.79 -207.08,-117.48 -137.23,-87.84 -264.23,-189.79 -379.24,-304.09 51.16,-74.09 112.19,-140.41 180.63,-197.91 86.43,-73.03 184.85,-131.94 292.1,-173.22l210.6 -81.13c55.04,-21.17 107.6,-47.63 156.64,-78.32 53.27,-33.51 102.66,-72.32 147.46,-115.71 8.11,-7.76 15.87,-15.88 23.64,-23.99 5.99,-6 11.99,-12.35 17.63,-18.7 6.71,-7.41 13.41,-14.81 19.76,-22.58 1.76,-1.76 3.17,-3.52 4.23,-5.29 1.41,-1.06 2.12,-2.11 3.18,-3.53 0.35,0 0.35,-0.35 0.7,-0.7 3.18,-3.53 6.35,-7.41 9.18,-11.64 0.7,-0.36 1.05,-1.06 1.41,-1.77l1023.76 0c6.35,7.76 12.35,15.53 18.7,22.93 6.35,7.41 12.7,14.82 19.4,21.88 -0.35,0.35 0,0.7 0.35,0.7l3.88 3.88c0.71,1.06 1.77,2.12 2.47,3.18 0,0 0,0.35 0.35,0.35 4.24,4.94 8.82,9.53 13.41,14.11 7.05,7.06 14.11,14.11 21.17,21.17 44.8,43.39 94.19,82.2 147.46,115.71 49.03,30.69 101.6,57.15 156.63,78.32l210.61 81.13c107.24,41.28 205.67,100.19 292.1,173.22 79.37,66.32 148.52,145.34 204.26,233.54z"/>
     </g>
     <g>
      <path class="fil4" d="M2767.93 3174.83l-1024.08 0c-24.68,31.01 -51.03,60.66 -79.57,88.19 -44.8,43.39 -94.19,82.2 -147.46,115.71 186.97,127.7 447.32,205.67 739.07,205.67 291.75,0 552.09,-77.97 739.07,-205.67 -53.27,-33.51 -102.66,-72.32 -147.46,-115.71 -28.54,-27.53 -54.9,-57.18 -79.57,-88.19z"/>
     </g>
     <path class="fil5" d="M2847.5 3263.02c-154.52,89.96 -362.31,144.99 -591.61,144.99 -229.31,0 -437.09,-55.03 -591.61,-144.99 129.12,-124.53 220.49,-286.81 258.23,-468.14l20.11 -96.66 62.44 -301.98 501.65 0 82.55 398.64c15.88,74.79 40.22,146.4 73.38,213.43 46.21,95.61 109.01,181.68 184.86,254.71z"/>
     <path class="fil6" d="M2662.64 3008.31c-88.19,23.99 -150.99,23.99 -150.99,23.99 0,0 -365.48,0 -569.03,-334.08l62.44 -301.98 501.65 0 82.55 398.64c15.88,74.79 40.22,146.4 73.38,213.43z"/>
     <g>
      <path class="fil2" d="M2952.58 1011.71c-81.57,-152.96 -237.58,-237.6 -381.32,-284.4 -204.45,-66.56 -426.29,-66.56 -630.74,0 -143.74,46.8 -299.75,131.44 -381.33,284.4 -147.46,282.37 -122.36,721.62 -122.36,721.62l153.74 163.15 665.32 -84.42 665.32 84.42 153.74 -163.15c0,0 25.09,-439.25 -122.37,-721.62z"/>
      <path class="fil5" d="M2945.22 1965.5c-98.08,687.92 -689.33,687.92 -689.33,687.92 0,0 -591.26,0 -689.33,-687.92 -55.74,-12.7 -103.36,-48.33 -135.47,-95.6 -32.1,-47.27 -45.51,-106.54 -37.04,-163.34 4.24,-27.87 14.82,-56.44 36.34,-75.14 19.4,-16.93 45.86,-23.99 71.61,-22.93 25.75,1.06 50.45,9.88 73.73,21.17 0,0 39.51,-727.78 531.29,-691.45 299.5,40.57 323.85,206.38 368.3,323.85 44.45,117.12 161.92,355.96 319.61,485.42 157.69,129.47 150.29,218.02 150.29,218.02z"/>
     </g>
    </g>
    <g>
     <path class="fil4" d="M1263.17 4330.88c-71.26,-35.63 -140.4,-74.79 -207.08,-117.48l71.97 -388.05 21.87 -117.48 21.52 117.48 91.72 505.53z"/>
     <path class="fil4" d="M3515.3 4213.05c-66.67,42.68 -135.81,82.2 -207.08,117.47l91.73 -505.17 21.52 -117.48 21.87 117.48 71.96 387.7z"/>
    </g>
    <g>
     <g>
      <path class="fil6" d="M2222.75 1753.42l0 403.6 68.4 0c117.26,0 -46.63,-357.23 -68.4,-403.6z"/>
     </g>
     <g>
      <g>
       <path class="fil7" d="M2720.08 1596.17c-94.54,-46.7 -199.62,-53.64 -298.17,-14.46 -41.75,16.61 -23.56,84.86 18.76,68.04 80.74,-32.11 165.31,-31.44 243.8,7.34 40.64,20.08 76.4,-40.77 35.61,-60.92z"/>
       <path class="fil8" d="M2634.97 1721.88c-21.48,-37.26 -66.54,-35 -66.54,-35 -36.75,0 -66.54,29.79 -66.54,66.54 0,36.75 29.79,66.54 66.54,66.54 8.1,0 15.77,-1.67 22.96,-4.32l0.04 0.18c0.43,-0.15 0.73,-0.4 1.16,-0.55 2.15,-0.84 4.15,-1.91 6.19,-2.96 58.18,-25.23 64.38,-89.82 64.38,-89.82 -11.61,9.77 -28.19,-0.61 -28.19,-0.61z"/>
      </g>
      <g>
       <path class="fil7" d="M1791.7 1596.17c94.53,-46.7 199.62,-53.64 298.16,-14.46 41.75,16.61 23.57,84.86 -18.75,68.04 -80.74,-32.11 -165.31,-31.44 -243.8,7.34 -40.64,20.08 -76.41,-40.77 -35.61,-60.92z"/>
       <path class="fil8" d="M1876.81 1721.88c21.47,-37.26 66.54,-35 66.54,-35 36.74,0 66.54,29.79 66.54,66.54 0,36.75 -29.8,66.54 -66.54,66.54 -8.11,0 -15.78,-1.67 -22.96,-4.32l-0.04 0.18c-0.44,-0.15 -0.73,-0.4 -1.16,-0.55 -2.15,-0.84 -4.16,-1.91 -6.19,-2.96 -58.19,-25.23 -64.38,-89.82 -64.38,-89.82 11.6,9.77 28.19,-0.61 28.19,-0.61z"/>
      </g>
     </g>
     <path class="fil9" d="M2039.09 2304.65c23.45,87.57 111.49,152.76 216.8,152.76 105.31,0 193.35,-65.19 216.8,-152.76l-433.6 0z"/>
    </g>
   </g>
  </g>
 </g>
</svg>
