<?xml version="1.0" encoding="UTF-8"?>
<!DOCTYPE svg PUBLIC "-//W3C//DTD SVG 1.1//EN" "http://www.w3.org/Graphics/SVG/1.1/DTD/svg11.dtd">
<!-- Creator: CorelDRAW -->
<svg xmlns="http://www.w3.org/2000/svg" xml:space="preserve" width="45.717mm" height="45.717mm" version="1.1" style="shape-rendering:geometricPrecision; text-rendering:geometricPrecision; image-rendering:optimizeQuality; fill-rule:evenodd; clip-rule:evenodd"
viewBox="0 0 4571.7 4571.7"
 xmlns:xlink="http://www.w3.org/1999/xlink"
 xmlns:xodm="http://www.corel.com/coreldraw/odm/2003">
 <defs>
  <style type="text/css">
   <![CDATA[
    .fil0 {fill:none}
    .fil6 {fill:#051633;fill-rule:nonzero}
    .fil5 {fill:#601613;fill-rule:nonzero}
    .fil4 {fill:#851F1A;fill-rule:nonzero}
    .fil1 {fill:#D6E9F0;fill-rule:nonzero}
    .fil3 {fill:#FF853B;fill-rule:nonzero}
    .fil2 {fill:#FFA33B;fill-rule:nonzero}
    .fil7 {fill:white;fill-rule:nonzero}
   ]]>
  </style>
 </defs>
 <g id="Camada_x0020_1">
  <metadata id="CorelCorpID_0Corel-Layer"/>
  <rect class="fil0" x="-0.15" y="0.15" width="4571.7" height="4571.7"/>
  <g id="_2095447068224">
   <path class="fil1" d="M4571.52 2286.17c0,555.62 -198.26,1065.03 -528.11,1460.85 -144.99,174.27 -315.38,327.03 -505.88,451.56 -49.39,32.45 -100.19,63.14 -152.4,91.72 -326.32,179.56 -700.97,281.52 -1099.61,281.52 -425.8,0 -824.44,-116.42 -1165.58,-319.27 -48.33,-28.57 -95.25,-58.91 -141.11,-91.01 -187.32,-130.53 -353.83,-288.58 -494.24,-468.14 -303.74,-388.06 -484.72,-876.3 -484.72,-1407.23 0,-1262.59 1023.41,-2286 2285.65,-2286 1262.59,0 2286,1023.41 2286,2286z"/>
   <g>
    <g>
     <path class="fil2" d="M4043.41 3747.02c-144.99,174.27 -315.38,327.03 -505.88,451.56 -49.39,32.45 -100.19,63.14 -152.4,91.72 -326.32,179.56 -700.97,281.52 -1099.61,281.52 -425.8,0 -824.44,-116.42 -1165.58,-319.27 -48.33,-28.57 -95.25,-58.91 -141.11,-91.01 -187.32,-130.53 -353.83,-288.58 -494.24,-468.14 67.03,-190.85 223.66,-340.08 422.98,-395.11l547.87 -151.34 193.67 -53.63 174.62 -48.33 59.27 -331.61 27.17 -154.16 26.81 -149.23 318.91 124.89 318.91 -124.89 26.81 149.23 64.56 362.3 21.87 123.47 174.63 48.33 193.67 53.63 547.86 151.34c217.67,59.97 384.53,232.48 439.21,448.73z"/>
     <path class="fil3" d="M2862.67 3093.32l-5.65 10.59c-93.49,511.88 -478.72,805.04 -495.65,817.74 -31.05,23.63 -68.44,35.27 -105.48,35.27 -37.04,0 -74.44,-11.64 -105.48,-35.27 -16.94,-12.7 -402.17,-305.86 -495.66,-817.74l-5.64 -10.59 174.62 -48.33 113.25 -635 318.91 124.89 318.91 -124.89 113.24 635 174.63 48.33z"/>
     <g>
      <path class="fil4" d="M2688.04 3044.99c-72.67,466.38 -432.15,735.19 -432.15,735.19 0,0 -359.48,-268.81 -432.16,-735.19l59.27 -331.61 53.98 -303.39 318.91 124.89 318.91 -124.89 91.37 511.53 21.87 123.47z"/>
     </g>
     <path class="fil5" d="M2666.17 2921.52c-139.7,61.74 -258.23,61.74 -258.23,61.74 0,0 -316.8,0 -524.94,-269.88l53.98 -303.39 318.91 124.89 318.91 -124.89 91.37 511.53z"/>
     <path class="fil6" d="M3196.83 1513.95c16.64,-8.03 28.52,-25.18 30.17,-43.58 1.65,-18.4 -7.63,-45.33 -22.57,-56.19 10.27,-14.03 13.06,-33.22 7.2,-49.59 -5.85,-16.36 -18.86,-42.24 -35.7,-46.58 23.31,-33.6 21.47,-78.12 -12.08,-101.5 21.99,-31.89 21.52,-92.55 -11.72,-112.43 11.38,-17.41 13.06,-40.73 4.3,-59.59 -8.76,-18.85 -29.62,-38.12 -50.26,-40.64 5.73,-20.72 6.24,-42.85 1.46,-63.8 -2.79,-12.28 -7.66,-24.59 -16.87,-33.18 -9.21,-8.59 -30.34,-19.21 -41.63,-13.63 -1.64,-19.69 -3.57,-40.26 -14.26,-56.87 -10.69,-16.62 -37.15,-32.39 -54.78,-23.49 3.62,-22.39 -6.07,-46.41 -24.21,-60.02 -18.14,-13.61 -52.98,-15.23 -73.45,-5.49 -5.89,-20.41 -14.61,-40.71 -29.95,-55.41 -15.33,-14.7 -38.5,-24.18 -58.54,-17.14 -0.7,-33.24 -32.27,-62.62 -65.49,-60.94 -6.98,0.36 -15.16,0.49 -11.6,6.51 -1.97,-23.87 -24.59,-41.91 -48.08,-46.57 -23.5,-4.66 -51.27,5.98 -74.48,11.89 -8.48,-21.29 -28.73,-37.43 -51.37,-40.94 -22.64,-3.51 -52.31,0.36 -66.83,18.08 -27.47,-34.86 -95.62,-40.62 -134.31,-18.89 -11.2,-32.7 -51.33,-41.13 -85.89,-41.13 -34.57,0 -74.69,8.43 -85.89,41.13 -38.69,-21.73 -106.85,-15.97 -134.31,18.89 -14.52,-17.72 -44.19,-21.59 -66.83,-18.08 -22.64,3.51 -42.89,19.65 -51.37,40.94 -23.21,-5.91 -50.98,-16.55 -74.48,-11.89 -23.49,4.66 -46.11,22.7 -48.08,46.57 3.56,-6.02 -4.62,-6.15 -11.61,-6.51 -33.21,-1.68 -64.78,27.7 -65.49,60.94 -20.04,-7.04 -43.2,2.44 -58.54,17.14 -15.33,14.7 -24.05,35 -29.94,55.41 -20.48,-9.74 -55.31,-8.12 -73.45,5.49 -18.14,13.61 -27.83,37.63 -24.21,60.02 -17.63,-8.9 -44.1,6.87 -54.78,23.49 -10.69,16.61 -12.62,37.18 -14.26,56.87 -11.29,-5.58 -32.42,5.04 -41.63,13.63 -9.21,8.59 -14.08,20.9 -16.88,33.18 -4.77,20.95 -4.26,43.08 1.46,63.8 -20.64,2.52 -41.49,21.79 -50.26,40.64 -8.75,18.86 -7.08,42.18 4.31,59.59 -33.25,19.88 -33.71,80.54 -11.72,112.43 -33.55,23.38 -35.39,67.9 -12.09,101.5 -16.83,4.34 -29.85,30.22 -35.69,46.58 -5.86,16.37 -3.07,35.56 7.2,49.59 -14.95,10.86 -24.22,37.79 -22.57,56.19 1.65,18.4 13.53,35.55 30.17,43.58 -27.95,28.6 -17.77,91.81 16.97,111.62 -6.89,6.74 -10.75,25.05 -14.75,33.81 -2.73,6.02 -3.9,12.61 -5.05,19.12 -2.52,14.31 -5,29.3 -0.59,43.15 4.4,13.85 18.09,25.92 32.38,23.28 -23.71,28.1 -12.37,94.77 17.02,116.85 -9.93,23.12 10.82,65.42 28.91,82.91 18.08,17.49 47.23,22.35 70.01,11.65 -5.11,19.89 -3.85,43.97 1.47,63.8 5.31,19.83 23.96,37.63 44.3,34.78 -2.91,18.72 4.51,41.24 14.15,57.55 9.64,16.31 31.54,26.46 48.39,17.8 -7.25,17.36 0.74,44.74 11.48,60.18 10.75,15.43 29.66,24.82 48.45,24.04 -1.94,28.29 19.39,60.51 45.96,70.38 22.7,8.43 47.89,3.91 71.65,-0.72 14.54,-2.83 29.08,-5.66 43.61,-8.49l466.58 -56.44 466.58 56.44c14.53,2.83 29.07,5.66 43.61,8.49 23.75,4.63 48.95,9.15 71.64,0.72 26.58,-9.87 47.91,-42.09 45.97,-70.38 18.79,0.78 37.7,-8.61 48.45,-24.04 10.74,-15.44 18.73,-42.82 11.48,-60.18 16.85,8.66 38.75,-1.49 48.39,-17.8 9.64,-16.31 17.06,-38.83 14.15,-57.55 20.34,2.85 38.99,-14.95 44.3,-34.78 5.32,-19.83 6.58,-43.91 1.47,-63.8 22.78,10.7 51.93,5.84 70.01,-11.65 18.09,-17.49 38.84,-59.79 28.91,-82.91 29.39,-22.08 40.73,-88.75 17.02,-116.85 14.29,2.64 27.98,-9.43 32.38,-23.28 4.4,-13.85 1.92,-28.84 -0.59,-43.15 -1.15,-6.51 -2.32,-13.1 -5.06,-19.12 -3.99,-8.76 -7.86,-27.07 -14.74,-33.81 34.74,-19.81 44.92,-83.02 16.97,-111.62z"/>
     <g>
      <path class="fil4" d="M3117.64 1720.48c-4.28,-28.15 -14.7,-56.73 -36.19,-75.4 -19.38,-16.85 -46.03,-23.81 -71.69,-22.71 -25.65,1.11 -50.48,9.67 -73.59,20.86 0,0 -2.26,-650.36 -232.81,-657.92 -151.17,-7.56 -218.43,37.8 -447.47,37.8 -229.04,0 -296.3,-45.36 -447.48,-37.8 -230.54,7.56 -232.8,657.92 -232.8,657.92 -23.12,-11.19 -47.94,-19.75 -73.59,-20.86 -25.66,-1.1 -52.31,5.86 -71.69,22.71 -21.49,18.67 -31.91,47.25 -36.2,75.4 -8.59,56.5 4.93,116.07 37.08,163.31 32.15,47.25 79.61,82.78 135.32,95.51 98.27,687.85 689.36,687.85 689.36,687.85 0,0 591.09,0 689.35,-687.85 55.71,-12.73 103.18,-48.26 135.33,-95.51 32.15,-47.24 45.67,-106.81 37.07,-163.31z"/>
     </g>
    </g>
    <g>
     <path class="fil3" d="M3537.53 4198.58c-49.39,32.45 -100.19,63.14 -152.4,91.72l98.07 -535.52 54.33 443.8z"/>
     <path class="fil3" d="M1119.94 4252.55c-48.33,-28.57 -95.25,-58.91 -141.11,-91.01l49.74 -406.76 91.37 497.77z"/>
    </g>
    <g>
     <path class="fil5" d="M2222.75 1719.93l0 403.6 68.4 0c117.26,0 -46.63,-357.23 -68.4,-403.6z"/>
     <g>
      <g>
       <path class="fil6" d="M2720.08 1457.81c-94.54,-46.7 -199.62,-53.63 -298.17,-14.45 -41.75,16.6 -23.56,84.86 18.76,68.03 80.74,-32.1 165.31,-31.43 243.8,7.35 40.64,20.07 76.4,-40.77 35.61,-60.93z"/>
       <path class="fil6" d="M2634.97 1719.93c0,36.74 -29.79,66.53 -66.54,66.53 -36.75,0 -66.54,-29.79 -66.54,-66.53 0,-36.75 29.79,-66.54 66.54,-66.54 36.75,0 66.54,29.79 66.54,66.54z"/>
      </g>
      <g>
       <g>
        <path class="fil6" d="M1791.7 1457.81c94.53,-46.7 199.62,-53.63 298.16,-14.45 41.75,16.6 23.57,84.86 -18.75,68.03 -80.74,-32.1 -165.31,-31.43 -243.8,7.35 -40.64,20.07 -76.4,-40.77 -35.61,-60.93z"/>
        <path class="fil6" d="M1876.81 1719.93c0,36.74 29.79,66.53 66.54,66.53 36.75,0 66.54,-29.79 66.54,-66.53 0,-36.75 -29.79,-66.54 -66.54,-66.54 -36.75,0 -66.54,29.79 -66.54,66.54z"/>
       </g>
      </g>
     </g>
     <path class="fil7" d="M2039.09 2213.21c23.45,87.57 111.49,152.76 216.8,152.76 105.31,0 193.35,-65.19 216.8,-152.76l-433.6 0z"/>
    </g>
   </g>
  </g>
 </g>
</svg>
