<?xml version="1.0" encoding="UTF-8"?>
<!DOCTYPE svg PUBLIC "-//W3C//DTD SVG 1.1//EN" "http://www.w3.org/Graphics/SVG/1.1/DTD/svg11.dtd">
<!-- Creator: CorelDRAW -->
<svg xmlns="http://www.w3.org/2000/svg" xml:space="preserve" width="45.717mm" height="45.717mm" version="1.1" style="shape-rendering:geometricPrecision; text-rendering:geometricPrecision; image-rendering:optimizeQuality; fill-rule:evenodd; clip-rule:evenodd"
viewBox="0 0 4571.7 4571.7"
 xmlns:xlink="http://www.w3.org/1999/xlink"
 xmlns:xodm="http://www.corel.com/coreldraw/odm/2003">
 <defs>
  <style type="text/css">
   <![CDATA[
    .fil0 {fill:none}
    .fil2 {fill:#FFC82A;fill-rule:nonzero}
    .fil6 {fill:#007289;fill-rule:nonzero}
    .fil7 {fill:#051633;fill-rule:nonzero}
    .fil3 {fill:#1CACAC;fill-rule:nonzero}
    .fil5 {fill:#601613;fill-rule:nonzero}
    .fil4 {fill:#851F1A;fill-rule:nonzero}
    .fil1 {fill:#D6E9F0;fill-rule:nonzero}
    .fil8 {fill:white;fill-rule:nonzero}
   ]]>
  </style>
 </defs>
 <g id="Camada_x0020_1">
  <metadata id="CorelCorpID_0Corel-Layer"/>
  <rect class="fil0" x="-0.15" y="0.15" width="4571.7" height="4571.7"/>
  <g id="_2095451293824">
   <path class="fil1" d="M4571.52 2285.82c0,644.18 -266.35,1225.91 -694.97,1641.13 -115.71,112.88 -243.77,213.07 -381.36,298.8 -29.63,18.7 -59.62,36.69 -90.31,53.62 -330.55,186.27 -712.61,292.45 -1119.01,292.45 -406.4,0 -788.1,-106.18 -1119.01,-292.45 -30.69,-16.93 -60.68,-34.92 -90.31,-53.62 -137.94,-85.73 -265.64,-185.92 -381.71,-298.45 -428.62,-415.57 -694.97,-997.3 -694.97,-1641.48 0,-1262.24 1023.41,-2285.64 2286,-2285.64 1262.24,0 2285.65,1023.4 2285.65,2285.64z"/>
   <g>
    <g>
     <path class="fil2" d="M3455.24 2468.72c-5.58,-63.8 -58.68,-114.19 -71.98,-176.83 -27.24,-128.4 118.28,-254.8 72.61,-377.86 -26.39,-71.12 -107.23,-107.37 -144.77,-173.29 -58.29,-102.37 4.15,-241.26 -51.41,-345.14 -50.54,-94.5 -186.72,-135.31 -203.45,-241.16 -5.42,-34.28 3.61,-69.98 -4.35,-103.77 -24.3,-103.19 -177.34,-117.78 -227.78,-211.03 -17.6,-32.52 -20.27,-70.76 -30.54,-106.29 -10.28,-35.51 -32.94,-72.21 -69.19,-79.48 -17.86,-3.57 -36.25,0.63 -54.46,1.04 -68.89,1.58 -125.9,-49.26 -186.24,-82.54 -60.34,-33.27 -153.4,-23.81 -185.93,36.93 -32.53,-60.74 -125.59,-70.2 -185.93,-36.93 -60.35,33.28 -117.36,84.12 -186.24,82.54 -18.21,-0.41 -36.6,-4.61 -54.46,-1.04 -36.26,7.27 -58.92,43.97 -69.19,79.48 -10.28,35.53 -12.95,73.77 -30.54,106.29 -50.45,93.25 -203.48,107.84 -227.78,211.03 -7.96,33.79 1.06,69.49 -4.35,103.77 -16.74,105.85 -152.92,146.66 -203.46,241.16 -55.56,103.88 6.89,242.77 -51.41,345.14 -37.53,65.92 -118.37,102.17 -144.76,173.29 -45.67,123.06 99.85,249.46 72.6,377.86 -13.29,62.64 -66.39,113.03 -71.98,176.83 -9.24,105.47 113.8,191.29 97.4,295.88 -8.24,52.52 -51.48,98.1 -46.19,151 5.41,54.26 61.26,98.19 52.97,152.09 -5.86,38.02 -41.8,63.75 -57.71,98.77 -21.77,47.94 -1.54,106.64 35.07,144.48 36.61,37.85 86.55,59.29 135.27,79.25 301.87,123.62 614.5,306.73 940.69,306.73 326.19,0 638.82,-183.11 940.68,-306.73 48.73,-19.96 98.66,-41.4 135.28,-79.25 36.61,-37.84 56.83,-96.54 35.06,-144.48 -15.9,-35.02 -51.84,-60.75 -57.7,-98.77 -8.3,-53.9 47.55,-97.83 52.97,-152.09 5.28,-52.9 -37.96,-98.48 -46.19,-151 -16.4,-104.59 106.63,-190.41 97.39,-295.88z"/>
     <g>
      <path class="fil3" d="M3876.55 3926.95c-115.71,112.88 -243.77,213.07 -381.36,298.8 -29.63,18.7 -59.62,36.69 -90.31,53.62 -330.55,186.27 -712.61,292.45 -1119.01,292.45 -406.4,0 -788.1,-106.18 -1119.01,-292.45 -30.69,-16.93 -60.68,-34.92 -90.31,-53.62 -137.94,-85.73 -265.64,-185.92 -381.71,-298.45 116.07,-175.68 285.05,-312.21 484.72,-389.12l150.28 -57.85 60.33 -23.28c21.17,-8.12 41.98,-16.94 62.09,-26.46 32.81,-15.52 64.2,-32.81 94.19,-51.51 25.75,-16.23 50.45,-33.86 74.44,-52.56 11.99,-9.17 23.63,-18.7 35.27,-28.93 0.36,-0.35 0.71,-0.35 0.71,-0.35 11.29,-9.88 22.58,-19.76 33.16,-30.34 21.87,-20.46 42.69,-42.69 62.44,-65.62 1.06,-1.06 1.77,-2.47 3.18,-3.53 8.82,-10.23 17.28,-21.16 25.4,-31.75 7.4,-9.17 14.11,-17.99 20.81,-27.51 2.12,-2.82 4.23,-5.65 6,-8.82 8.46,-11.64 16.23,-23.64 23.63,-35.99 1.06,-1.05 1.41,-2.11 2.12,-2.82 6.35,-9.88 12.7,-20.46 18.34,-30.69 1.77,-3.53 3.89,-6.7 5.65,-10.23 7.05,-12.35 13.76,-25.05 19.75,-37.75 0.36,-0.7 0.71,-1.41 1.06,-2.11 6.35,-12.35 12,-25.05 17.64,-37.75 0.35,-1.06 1.06,-2.12 1.41,-3.18 3.88,-8.82 7.41,-17.63 10.59,-26.45 1.76,-3.53 3.17,-7.06 4.23,-10.59 1.76,-4.58 3.53,-9.17 5.29,-13.76 3.88,-10.93 7.76,-22.22 11.29,-33.51 4.23,-13.76 8.47,-27.16 11.99,-40.92 4.24,-16.23 8.12,-32.46 11.65,-49.04l20.46 -99.13 24.69 -118.18 37.4 -181.33 501.65 0 37.39 181.33 45.16 217.31c3.52,16.94 7.4,33.87 11.99,50.45 4.59,16.58 9.53,33.16 14.82,49.39 4.23,12.7 8.46,25.05 13.4,37.39 1.77,4.94 3.88,9.88 5.65,14.82 5.64,14.46 11.99,28.57 18.34,42.69 3.18,7.05 6.35,13.75 9.88,20.46 1.76,3.52 3.53,6.7 4.94,9.87 4.94,9.88 10.23,19.76 15.87,29.64 4.59,8.82 9.53,17.64 14.82,26.46 12.35,20.1 25.05,39.86 38.45,58.91 0.71,1.06 1.41,2.12 2.12,2.82 0.35,0 0.35,0.35 0.35,0.35 12.35,17.29 25.05,33.87 38.46,50.1 6.7,8.47 13.75,16.58 21.51,25.05 7.06,8.46 14.82,16.58 22.58,24.69 7.76,8.11 15.88,15.88 23.64,23.64 8.11,8.11 16.23,15.87 24.69,22.93 8.12,7.76 16.94,15.17 25.4,21.87 8.47,7.76 17.29,14.82 26.11,21.17 16.58,13.05 33.51,25.4 51.15,37.04 2.82,1.76 6,3.88 8.82,5.64 7.76,5.29 15.52,10.23 23.28,14.82 30.7,18.7 62.45,35.63 95.61,50.8 16.58,7.41 33.16,14.46 50.44,21.17l59.98 22.93 150.63 58.2c199.32,76.91 368.3,213.44 484.37,388.77z"/>
     </g>
     <g>
      <path class="fil4" d="M3035.52 3385.08c-93.48,78.32 -177.44,167.57 -263.52,256.47 -140.05,144.99 -307.62,261.76 -404.99,442.73l-141.46 0c-85.73,-131.93 -190.5,-240.59 -305.51,-355.24 -124.18,-123.47 -226.13,-261.76 -373.94,-350.31 207.08,-129.82 355.6,-339.73 406.4,-583.85l20.46 -99.13 62.09 -299.51 501.65 0 82.55 398.64c14.11,68.09 35.63,133 64.55,194.74 74.79,163.68 197.56,301.27 351.72,395.46z"/>
     </g>
     <g>
      <path class="fil5" d="M2683.8 2989.62c-88.9,23.98 -152.04,23.98 -152.04,23.98 0,0 -353.49,0 -558.8,-317.85l62.09 -299.51 501.65 0 82.55 398.64c14.11,68.09 35.63,133 64.55,194.74z"/>
     </g>
     <g>
      <g>
       <path class="fil4" d="M3147.63 1706.73c-4.29,-28.15 -14.71,-56.73 -36.2,-75.4 -19.38,-16.85 -46.03,-23.81 -71.68,-22.71 -25.66,1.1 -50.49,9.67 -73.6,20.86 0,0 -2.26,-650.36 -232.8,-657.92 -151.18,-7.56 -218.43,-95.76 -447.48,-95.76 -229.04,0 -296.29,88.2 -447.47,95.76 -230.55,7.56 -232.81,657.92 -232.81,657.92 -23.11,-11.19 -47.94,-19.76 -73.59,-20.86 -25.66,-1.1 -52.3,5.86 -71.69,22.71 -21.49,18.67 -31.9,47.25 -36.19,75.4 -8.6,56.5 4.92,116.07 37.07,163.31 32.15,47.25 79.61,82.78 135.33,95.51 98.26,687.85 689.35,687.85 689.35,687.85 0,0 591.09,0 689.36,-687.85 55.71,-12.73 103.17,-48.26 135.32,-95.51 32.15,-47.24 45.68,-106.81 37.08,-163.31z"/>
      </g>
     </g>
    </g>
    <path class="fil2" d="M1605.59 1629.48l-51.66 -140.15 0 -294.06 214.19 -275.91 417.5 -112.54 268.64 0 337.62 116.17 145.22 137.96 101.65 475.57 -72.6 92.96c-15.9,-35.36 -59.92,-51.65 -98.07,-58.57 -38.14,-6.92 -79.35,-10.14 -109.82,-34.12 -47.96,-37.73 -49.25,-109.03 -77.38,-163.19 -26.79,-51.56 -81.22,-87.68 -139.14,-92.31 -26.27,-2.11 -53.44,1.73 -78.51,-6.39 -41.25,-13.36 -66.15,-55.61 -78.7,-97.11 -12.56,-41.5 -16.81,-85.78 -35.58,-124.87 -18.77,-39.09 -58.46,-73.25 -101.34,-66.83 -3.76,41.85 -35.4,81.27 -74.17,97.47 -28.59,11.95 -61.44,6.2 -91.66,13.07 -46.14,10.49 -82.95,53.34 -86.36,100.55 -3.95,54.7 30.85,116.09 -1.15,160.64 -34.49,48.01 -114.65,29.63 -160.16,67.37 -68.22,56.58 -14.09,144.15 -84.14,198.46 -46.32,35.91 -106.73,50.74 -144.38,5.83z"/>
    <g>
     <g>
      <path class="fil6" d="M2285.72 4237.04c0,0 -55.26,-816.22 484.03,-1098.97 0,0 -117.14,-182.65 -150.39,-343.22 0,0 436.86,-86.52 607.37,248.62 170.51,335.14 6.22,488.01 -187.98,623.24 -194.2,135.24 -476.42,270.47 -753.03,570.33z"/>
     </g>
     <g>
      <path class="fil6" d="M2285.72 4237.04c0,0 55.25,-816.22 -484.04,-1098.97 0,0 117.14,-182.65 150.39,-343.22 0,0 -436.86,-86.52 -607.37,248.62 -170.51,335.14 -6.22,488.01 187.98,623.24 194.2,135.24 476.42,270.47 753.04,570.33z"/>
     </g>
    </g>
    <g>
     <path class="fil5" d="M2252.74 1660.11l0 403.6 68.39 0c117.26,0 -46.62,-357.22 -68.39,-403.6z"/>
     <g>
      <g>
       <path class="fil7" d="M2750.06 1502.86c-94.53,-46.7 -199.62,-53.64 -298.16,-14.46 -41.75,16.61 -23.57,84.87 18.75,68.04 80.74,-32.1 165.31,-31.43 243.8,7.34 40.64,20.08 76.4,-40.77 35.61,-60.92z"/>
       <path class="fil7" d="M2664.95 1628.57c-21.48,-37.26 -66.54,-35 -66.54,-35 -36.74,0 -66.54,29.79 -66.54,66.54 0,36.75 29.8,66.54 66.54,66.54 8.11,0 15.78,-1.66 22.96,-4.32l0.04 0.18c0.44,-0.14 0.73,-0.4 1.16,-0.55 2.15,-0.84 4.16,-1.9 6.19,-2.96 58.18,-25.22 64.38,-89.82 64.38,-89.82 -11.6,9.77 -28.19,-0.61 -28.19,-0.61z"/>
      </g>
      <g>
       <path class="fil7" d="M1821.68 1502.86c94.54,-46.7 199.62,-53.64 298.17,-14.46 41.75,16.61 23.56,84.87 -18.76,68.04 -80.74,-32.1 -165.31,-31.43 -243.8,7.34 -40.64,20.08 -76.4,-40.77 -35.61,-60.92z"/>
       <path class="fil7" d="M1906.79 1628.57c21.48,-37.26 66.54,-35 66.54,-35 36.75,0 66.54,29.79 66.54,66.54 0,36.75 -29.79,66.54 -66.54,66.54 -8.1,0 -15.78,-1.66 -22.96,-4.32l-0.04 0.18c-0.43,-0.14 -0.73,-0.4 -1.16,-0.55 -2.15,-0.84 -4.15,-1.9 -6.19,-2.96 -58.18,-25.22 -64.38,-89.82 -64.38,-89.82 11.61,9.77 28.19,-0.61 28.19,-0.61z"/>
      </g>
     </g>
     <path class="fil8" d="M2069.07 2278.45c23.45,87.57 111.49,152.75 216.8,152.75 105.31,0 193.35,-65.18 216.8,-152.75l-433.6 0z"/>
    </g>
    <g>
     <path class="fil6" d="M1166.86 4279.37c-30.69,-16.93 -60.68,-34.92 -90.31,-53.62l58.91 -214.84 31.4 268.46z"/>
     <path class="fil6" d="M3495.19 4225.75c-29.63,18.7 -59.62,36.69 -90.31,53.62l31.4 -268.46 58.91 214.84z"/>
    </g>
   </g>
  </g>
 </g>
</svg>
