<?xml version="1.0" encoding="UTF-8"?>
<!DOCTYPE svg PUBLIC "-//W3C//DTD SVG 1.1//EN" "http://www.w3.org/Graphics/SVG/1.1/DTD/svg11.dtd">
<!-- Creator: CorelDRAW -->
<svg xmlns="http://www.w3.org/2000/svg" xml:space="preserve" width="45.717mm" height="45.717mm" version="1.1" style="shape-rendering:geometricPrecision; text-rendering:geometricPrecision; image-rendering:optimizeQuality; fill-rule:evenodd; clip-rule:evenodd"
viewBox="0 0 4571.7 4571.7"
 xmlns:xlink="http://www.w3.org/1999/xlink"
 xmlns:xodm="http://www.corel.com/coreldraw/odm/2003">
 <defs>
  <style type="text/css">
   <![CDATA[
    .fil0 {fill:none}
    .fil2 {fill:#051633;fill-rule:nonzero}
    .fil6 {fill:#BF2D28;fill-rule:nonzero}
    .fil1 {fill:#D6E9F0;fill-rule:nonzero}
    .fil5 {fill:#EF3831;fill-rule:nonzero}
    .fil4 {fill:#F27967;fill-rule:nonzero}
    .fil3 {fill:#F69779;fill-rule:nonzero}
    .fil7 {fill:white;fill-rule:nonzero}
   ]]>
  </style>
 </defs>
 <g id="Camada_x0020_1">
  <metadata id="CorelCorpID_0Corel-Layer"/>
  <rect class="fil0" x="-0.15" y="0.15" width="4571.7" height="4571.7"/>
  <g id="_2059779579312">
   <path class="fil1" d="M4571.69 2285.82c0,505.89 -164.4,973.32 -442.39,1351.85 -47.62,64.91 -98.77,127.35 -152.75,186.62 -32.1,35.28 -65.26,69.85 -99.84,103.01 -411.33,398.99 -972.25,644.52 -1591.01,644.52 -618.78,0 -1179.69,-245.53 -1591.03,-644.52 -34.57,-33.16 -67.74,-67.73 -99.84,-103.01 -53.97,-59.27 -105.13,-121.71 -152.75,-186.62 -277.99,-378.53 -442.38,-845.96 -442.38,-1351.85 0,-1262.24 1023.4,-2285.64 2286,-2285.64 1262.58,0 2285.99,1023.4 2285.99,2285.64z"/>
   <g>
    <path class="fil2" d="M3594.78 2930.54c-56.6,-85.41 -133.92,-163.61 -150.35,-264.74 -22.08,-135.89 72.95,-263.09 87.04,-400.05 11.99,-116.5 -35.71,-231.21 -96.26,-331.47 -60.55,-100.26 -134.99,-192.4 -185.67,-297.99 -96.53,-201.15 -71.31,-479.03 -162.45,-682.68 -130.66,-291.98 -481.53,-438.38 -801.39,-438.38 -319.89,0 -670.75,146.4 -801.41,438.38 -91.14,203.65 -65.92,481.53 -162.45,682.68 -50.68,105.59 -125.12,197.73 -185.67,297.99 -60.54,100.26 -108.24,214.97 -96.26,331.47 14.09,136.96 109.12,264.16 87.05,400.05 -16.44,101.13 -93.76,179.33 -150.36,264.74 -82.66,124.72 -124.46,277.38 -109.72,426.28 14.74,148.9 87.43,292.57 203.23,387.33l1215.59 56.65 1215.58 -56.65c115.8,-94.76 188.48,-238.43 203.22,-387.33 14.74,-148.9 -27.06,-301.56 -109.72,-426.28z"/>
    <g>
     <g>
      <path class="fil3" d="M3876.71 3927.3c-411.33,398.99 -972.25,644.52 -1591.01,644.52 -618.78,0 -1179.69,-245.53 -1591.03,-644.52 33.86,-51.86 73.02,-100.19 115.71,-144.64 50.09,-51.86 105.83,-98.43 165.8,-138.29 31.4,-21.87 64.21,-41.27 98.43,-58.56 33.87,-17.99 68.79,-33.87 104.78,-47.63l210.6 -81.13c287.87,-110.78 499.54,-360.19 562.33,-662.17l10.23 -48.68 34.93 -168.63 37.39 -181.33 501.64 0 37.4 181.33 45.15 217.31c29.63,142.17 92.08,273.05 180.27,383.12 99.13,123.12 230.01,220.48 382.06,279.05l210.61 81.13c35.98,13.76 70.91,29.64 104.77,47.63 34.22,17.29 67.03,36.69 98.43,58.56 59.97,39.86 115.71,86.43 165.8,138.29 42.69,44.45 81.85,92.78 115.71,144.64z"/>
     </g>
    </g>
    <g>
     <path class="fil4" d="M2799.33 3178c-113.59,39.51 -201.44,39.51 -201.44,39.51 0,0 -459.3,0 -635.34,-471.31l72.32 -349.96 501.64 0 82.55 398.64c29.63,142.17 92.08,273.05 180.27,383.12z"/>
    </g>
    <path class="fil5" d="M4129.3 3637.67c-47.62,64.91 -98.77,127.35 -152.75,186.62 -32.1,35.28 -65.26,69.85 -99.84,103.01 -411.33,398.99 -972.25,644.52 -1591.01,644.52 -618.78,0 -1179.69,-245.53 -1591.03,-644.52 -34.57,-33.16 -67.74,-67.73 -99.84,-103.01 -53.97,-59.27 -105.13,-121.71 -152.75,-186.62 0.7,-1.77 1.76,-3.53 2.47,-5.29 83.25,-176.75 269.87,-246.6 437.8,-189.09 13.75,4.58 27.51,10.23 40.92,16.58 60.32,28.93 111.48,72.67 151.34,125.94 31.04,41.63 55.39,88.55 72.32,139.35 88.55,-68.09 200.02,-94.55 311.15,-63.86 68.09,19.05 128.06,57.51 176.39,109.01 30.34,32.46 56.09,70.21 76.55,111.48 43.04,-45.86 94.19,-80.79 150.64,-100.89l0.35 0c45.86,-16.58 95.25,-23.29 146.05,-18.7 40.22,3.53 78.32,14.11 113.95,30.69l0.35 0.35c64.56,29.28 120.65,78.67 163.34,140.76 42.67,-62.09 98.76,-111.48 163.32,-140.76l0.36 -0.35c35.63,-16.58 73.73,-27.16 113.94,-30.69 50.8,-4.59 100.19,2.12 146.05,18.7l0.36 0c56.44,20.1 107.59,55.03 150.63,100.89 20.46,-41.27 46.22,-79.02 76.55,-111.48 48.33,-51.5 108.31,-89.96 176.39,-109.01 111.13,-30.69 222.61,-4.23 311.15,63.86 16.94,-50.8 41.28,-97.72 72.32,-139.35 39.87,-53.27 91.02,-97.01 151.34,-125.94 13.41,-6.35 27.17,-12 40.93,-16.58 167.92,-57.51 354.54,12.34 437.79,189.09 0.71,1.76 1.77,3.52 2.47,5.29z"/>
    <path class="fil6" d="M3976.55 3824.29c-32.1,35.28 -65.26,69.85 -99.84,103.01 -411.33,398.99 -972.25,644.52 -1591.01,644.52 -618.78,0 -1179.69,-245.53 -1591.03,-644.52 -34.57,-33.16 -67.74,-67.73 -99.84,-103.01 65.27,-37.04 140.76,-51.51 215.55,-41.63 38.45,4.94 76.2,15.87 112.89,33.51 106.89,51.51 184.85,149.23 223.66,264.94 88.55,-67.73 200.02,-94.19 311.15,-63.5 111.12,31.04 200.02,113.24 252.94,220.49 77.96,-83.61 183.8,-130.18 297.04,-119.95 113.24,10.58 211.67,75.5 277.64,172.16 65.96,-96.66 164.38,-161.58 277.62,-172.16 113.24,-10.23 219.08,36.34 297.04,119.95 52.92,-107.25 141.82,-189.45 252.94,-220.49 111.13,-30.69 222.61,-4.23 311.15,63.5 38.81,-115.71 116.77,-213.43 223.66,-264.94 36.69,-17.64 74.44,-28.57 112.89,-33.51 74.79,-9.88 150.29,4.59 215.55,41.63z"/>
    <g>
     <path class="fil3" d="M2920.69 1213.73c-197.56,-317.5 -634.99,-423.33 -634.99,-423.33 0,0 -437.45,105.83 -635,423.33 0,0 -94.54,282.9 -54.33,751.76 98.07,687.91 689.33,687.91 689.33,687.91 0,0 591.24,0 689.31,-687.91 40.22,-468.86 -54.32,-751.76 -54.32,-751.76z"/>
    </g>
    <path class="fil2" d="M2463.96 794.26c-78,114.98 -242.44,133.91 -342.95,229.83 -97.74,93.26 -117,238.88 -154.69,368.61 -8.13,27.97 -17.82,56.48 -37.18,78.23 -43.21,48.54 -118.29,48.53 -176.29,77.84 -107.51,54.33 -134.51,192.46 -152.55,311.55 -18.05,119.1 -55.63,257.81 -168.81,299.04 -27.38,-357.19 -10.58,-730.53 150.27,-1050.63 160.84,-320.11 494.16,-573.73 851.67,-550.86 57.29,-1.43 125.19,84.79 30.53,236.39z"/>
    <g>
     <g>
      <path class="fil4" d="M2252.56 1611.33l0 403.61 68.39 0c117.26,0 -46.62,-357.23 -68.39,-403.61z"/>
     </g>
     <g>
      <g>
       <path class="fil2" d="M2749.87 1454.08c-94.53,-46.7 -199.61,-53.63 -298.16,-14.45 -41.75,16.6 -23.56,84.86 18.76,68.04 80.74,-32.11 165.31,-31.44 243.8,7.34 40.64,20.07 76.4,-40.77 35.6,-60.93z"/>
       <path class="fil2" d="M2664.76 1579.79c-21.47,-37.26 -66.53,-34.99 -66.53,-34.99 -36.75,0 -66.54,29.78 -66.54,66.53 0,36.75 29.79,66.54 66.54,66.54 8.1,0 15.77,-1.66 22.96,-4.31l0.03 0.18c0.44,-0.15 0.74,-0.4 1.16,-0.55 2.16,-0.84 4.16,-1.91 6.2,-2.96 58.18,-25.23 64.37,-89.83 64.37,-89.83 -11.6,9.77 -28.19,-0.61 -28.19,-0.61z"/>
      </g>
      <g>
       <path class="fil2" d="M1821.51 1454.08c94.53,-46.7 199.62,-53.63 298.16,-14.45 41.75,16.6 23.56,84.86 -18.76,68.04 -80.74,-32.11 -165.3,-31.44 -243.79,7.34 -40.64,20.07 -76.41,-40.77 -35.61,-60.93z"/>
       <path class="fil2" d="M1906.62 1579.79c21.47,-37.26 66.54,-34.99 66.54,-34.99 36.75,0 66.53,29.78 66.53,66.53 0,36.75 -29.78,66.54 -66.53,66.54 -8.11,0 -15.78,-1.66 -22.97,-4.31l-0.03 0.18c-0.44,-0.15 -0.74,-0.4 -1.16,-0.55 -2.15,-0.84 -4.16,-1.91 -6.19,-2.96 -58.19,-25.23 -64.38,-89.83 -64.38,-89.83 11.6,9.77 28.19,-0.61 28.19,-0.61z"/>
      </g>
     </g>
     <path class="fil7" d="M2068.9 2229.67c23.45,87.57 111.49,152.76 216.8,152.76 105.29,0 193.34,-65.19 216.79,-152.76l-433.59 0z"/>
    </g>
   </g>
  </g>
 </g>
</svg>
