<?xml version="1.0" encoding="UTF-8"?>
<!DOCTYPE svg PUBLIC "-//W3C//DTD SVG 1.1//EN" "http://www.w3.org/Graphics/SVG/1.1/DTD/svg11.dtd">
<!-- Creator: CorelDRAW -->
<svg xmlns="http://www.w3.org/2000/svg" xml:space="preserve" width="45.717mm" height="45.717mm" version="1.1" style="shape-rendering:geometricPrecision; text-rendering:geometricPrecision; image-rendering:optimizeQuality; fill-rule:evenodd; clip-rule:evenodd"
viewBox="0 0 4571.7 4571.7"
 xmlns:xlink="http://www.w3.org/1999/xlink"
 xmlns:xodm="http://www.corel.com/coreldraw/odm/2003">
 <defs>
  <style type="text/css">
   <![CDATA[
    .fil0 {fill:none}
    .fil6 {fill:#051633;fill-rule:nonzero}
    .fil3 {fill:#3D3836;fill-rule:nonzero}
    .fil7 {fill:#9C7572;fill-rule:nonzero}
    .fil2 {fill:#BC938E;fill-rule:nonzero}
    .fil1 {fill:#D6E9F0;fill-rule:nonzero}
    .fil5 {fill:#F27967;fill-rule:nonzero}
    .fil4 {fill:#F69779;fill-rule:nonzero}
    .fil8 {fill:white;fill-rule:nonzero}
   ]]>
  </style>
 </defs>
 <g id="Camada_x0020_1">
  <metadata id="CorelCorpID_0Corel-Layer"/>
  <rect class="fil0" x="-0.15" y="0.15" width="4571.7" height="4571.7"/>
  <g id="_2060390085648">
   <path class="fil1" d="M4571.52 2285.82c0,268.82 -46.22,526.7 -131.59,766.24 -130.17,365.83 -350.66,688.62 -634.64,941.21 -64.92,58.21 -133,112.18 -204.26,162.28 -371.83,262.46 -825.5,416.27 -1315.16,416.27 -489.65,0 -943.33,-153.81 -1315.51,-416.27 -71.26,-50.1 -139.34,-104.43 -204.26,-162.28 -283.98,-252.59 -504.47,-575.38 -634.29,-940.86 -85.37,-239.54 -131.94,-497.77 -131.94,-766.59 0,-1262.24 1023.41,-2285.64 2286,-2285.64 1262.24,0 2285.65,1023.4 2285.65,2285.64z"/>
   <g>
    <g>
     <path class="fil2" d="M4439.93 3052.06c-130.17,365.83 -350.66,688.62 -634.64,941.21 -64.92,58.21 -133,112.18 -204.26,162.28 -371.83,262.46 -825.5,416.27 -1315.16,416.27 -489.65,0 -943.33,-153.81 -1315.51,-416.27 -71.26,-50.1 -139.34,-104.43 -204.26,-162.28 -283.98,-252.59 -504.47,-575.38 -634.29,-940.86 118.53,-259.64 350.66,-452.61 632.53,-519.64l558.1 -132.65 144.63 -34.22 152.4 -36.33 15.53 -3.53 284.69 -67.73 308.68 23.28 0.35 0 57.15 4.23 57.15 -4.23 0.35 0 308.33 -23.28 285.05 67.73 167.57 39.86 144.63 34.22 558.45 132.65c281.17,67.03 513.65,260 632.53,519.29z"/>
     <g>
      <path class="fil3" d="M3248.95 2400.12c0,300.92 -431.09,544.69 -963.08,544.69 -531.99,0 -963.43,-243.77 -963.43,-544.69l144.63 -34.22 452.62 -107.59 366.18 27.51 365.83 -27.51 452.62 107.59 144.63 34.22z"/>
     </g>
     <path class="fil4" d="M3107.84 2400.12c0,190.86 -337.6,403.58 -821.97,403.58 -74.08,0 -144.99,-4.94 -211.67,-14.46 -368.65,-50.1 -610.65,-227.54 -610.65,-389.12 0,-11.29 1.05,-22.93 3.52,-34.22l152.4 -36.33 300.22 -71.26 366.18 27.51 365.83 -27.51 452.62 107.59c2.47,11.29 3.52,22.93 3.52,34.22z"/>
     <path class="fil5" d="M3107.84 2400.12c0,190.86 -337.6,403.58 -821.97,403.58 -74.08,0 -144.99,-4.94 -211.67,-14.46 -34.57,-15.88 -69.85,-35.63 -104.77,-59.27 -198.97,-43.39 -347.13,-205.67 -349.96,-400.4l300.22 -71.26 366.18 27.51 365.83 -27.51 452.62 107.59c2.47,11.29 3.52,22.93 3.52,34.22z"/>
    </g>
    <g>
     <path class="fil6" d="M2982.56 993.19c-81.57,-144.48 -237.58,-224.44 -381.32,-268.64 -204.45,-62.88 -426.29,-62.88 -630.74,0 -143.74,44.2 -299.75,124.16 -381.32,268.64 -147.46,266.73 -122.36,681.65 -122.36,681.65l0 0.01 -0.36 -0.01c14.74,297.38 146.72,521.97 146.72,521.97l1345.03 0c0,0 131.98,-224.59 146.72,-521.97 0,0 25.1,-414.92 -122.37,-681.65z"/>
     <path class="fil4" d="M3147.63 1706.73c-4.29,-28.15 -14.71,-56.73 -36.2,-75.4 -19.38,-16.85 -46.03,-23.81 -71.68,-22.71 -25.66,1.1 -50.49,9.67 -73.6,20.86 0,0 -2.26,-650.36 -232.8,-657.92 -151.18,-7.56 -218.43,37.8 -447.48,37.8 -229.04,0 -296.29,-45.36 -447.47,-37.8 -230.54,7.56 -232.81,657.92 -232.81,657.92 -23.11,-11.19 -47.94,-19.76 -73.59,-20.86 -25.65,-1.1 -52.3,5.86 -71.69,22.71 -21.49,18.67 -31.9,47.25 -36.19,75.4 -8.6,56.5 4.92,116.07 37.07,163.31 32.15,47.25 79.61,82.78 135.33,95.51 0.25,1.74 0.61,3.33 0.86,5.06 -15.09,43.16 -23.71,89.35 -23.71,137.66 0,197.09 136.71,361.87 320.35,405.74 188.14,139.2 391.85,139.39 391.85,139.39 0,0 203.72,-0.19 391.85,-139.39 183.64,-43.87 320.35,-208.65 320.35,-405.74 0,-48.31 -8.62,-94.5 -23.7,-137.66 0.25,-1.73 0.61,-3.32 0.86,-5.06 55.71,-12.73 103.17,-48.26 135.32,-95.51 32.15,-47.24 45.68,-106.81 37.08,-163.31z"/>
    </g>
    <g>
     <path class="fil7" d="M3805.29 3993.27c-64.92,58.21 -133,112.18 -204.26,162.28l0 -952.86c167.92,268.47 179.21,528.46 204.26,790.58z"/>
     <path class="fil7" d="M970.36 3202.69l0 952.86c-71.26,-50.1 -139.34,-104.43 -204.26,-162.28 25.05,-262.12 36.34,-522.11 204.26,-790.58z"/>
    </g>
    <g>
     <g>
      <path class="fil5" d="M2252.74 1567.18l0 403.61 68.39 0c117.26,0 -46.62,-357.23 -68.39,-403.61z"/>
     </g>
     <g>
      <g>
       <path class="fil6" d="M2750.06 1409.93c-94.53,-46.7 -199.62,-53.63 -298.16,-14.45 -41.75,16.6 -23.57,84.86 18.75,68.04 80.74,-32.11 165.31,-31.44 243.8,7.34 40.64,20.07 76.4,-40.77 35.61,-60.93z"/>
       <path class="fil6" d="M2664.95 1567.18c0,36.75 -29.79,66.54 -66.54,66.54 -36.74,0 -66.54,-29.79 -66.54,-66.54 0,-36.74 29.8,-66.53 66.54,-66.53 36.75,0 66.54,29.79 66.54,66.53z"/>
      </g>
      <g>
       <path class="fil6" d="M1821.69 1409.93c94.53,-46.7 199.61,-53.63 298.16,-14.45 41.75,16.6 23.56,84.86 -18.76,68.04 -80.74,-32.11 -165.31,-31.44 -243.79,7.34 -40.65,20.07 -76.41,-40.77 -35.61,-60.93z"/>
       <path class="fil6" d="M1906.79 1567.18c0,36.75 29.8,66.54 66.54,66.54 36.75,0 66.54,-29.79 66.54,-66.54 0,-36.74 -29.79,-66.53 -66.54,-66.53 -36.74,0 -66.54,29.79 -66.54,66.53z"/>
      </g>
     </g>
     <path class="fil8" d="M2069.07 2135.67c23.45,87.57 111.49,152.75 216.8,152.75 105.31,0 193.35,-65.18 216.8,-152.75l-433.6 0z"/>
    </g>
    <g>
     <path class="fil5" d="M2963.3 1741.96c4,-19.01 17.9,-35.66 35.89,-42.99 16.09,-6.55 34.93,-5.65 50.57,1.91 15.65,7.55 27.95,21.53 34.01,37.81 9.49,25.51 3.16,55.6 -13.89,76.81 -17.05,21.22 -79.45,42.47 -106.58,44.57l0 -118.11z"/>
     <path class="fil5" d="M1608.45 1741.96c-4,-19.01 -17.9,-35.66 -35.9,-42.99 -16.09,-6.55 -34.93,-5.65 -50.57,1.91 -15.64,7.55 -27.95,21.53 -34,37.81 -9.49,25.51 -3.17,55.6 13.88,76.81 17.05,21.22 79.45,42.47 106.59,44.57l0 -118.11z"/>
    </g>
   </g>
  </g>
 </g>
</svg>
