<?xml version="1.0" encoding="UTF-8"?>
<!DOCTYPE svg PUBLIC "-//W3C//DTD SVG 1.1//EN" "http://www.w3.org/Graphics/SVG/1.1/DTD/svg11.dtd">
<!-- Creator: CorelDRAW -->
<svg xmlns="http://www.w3.org/2000/svg" xml:space="preserve" width="45.717mm" height="45.717mm" version="1.1" style="shape-rendering:geometricPrecision; text-rendering:geometricPrecision; image-rendering:optimizeQuality; fill-rule:evenodd; clip-rule:evenodd"
viewBox="0 0 4571.7 4571.7"
 xmlns:xlink="http://www.w3.org/1999/xlink"
 xmlns:xodm="http://www.corel.com/coreldraw/odm/2003">
 <defs>
  <style type="text/css">
   <![CDATA[
    .fil0 {fill:none}
    .fil2 {fill:#051633;fill-rule:nonzero}
    .fil4 {fill:#3436A1;fill-rule:nonzero}
    .fil3 {fill:#4649D6;fill-rule:nonzero}
    .fil1 {fill:#D6E9F0;fill-rule:nonzero}
    .fil6 {fill:#F27967;fill-rule:nonzero}
    .fil5 {fill:#F69779;fill-rule:nonzero}
    .fil7 {fill:white;fill-rule:nonzero}
   ]]>
  </style>
 </defs>
 <g id="Camada_x0020_1">
  <metadata id="CorelCorpID_0Corel-Layer"/>
  <rect class="fil0" x="-0.15" y="0.15" width="4571.7" height="4571.7"/>
  <g id="_2060272780128">
   <path class="fil1" d="M4571.69 2286.17c0,542.92 -189.45,1041.75 -505.89,1433.69 -168.27,209.19 -372.88,387.7 -603.95,526.34 -52.21,31.75 -106.19,61.39 -161.22,88.55 -305.51,151.69 -650.17,237.07 -1014.93,237.07 -364.78,0 -709.44,-85.38 -1014.95,-237.07 -55.03,-27.16 -109,-56.8 -161.22,-88.55 -231.06,-138.64 -435.68,-317.15 -603.95,-526.34 -316.44,-391.94 -505.88,-890.77 -505.88,-1433.69 0,-1262.59 1023.4,-2286 2286,-2286 1262.58,0 2285.99,1023.41 2285.99,2286z"/>
   <g>
    <path class="fil2" d="M3080.24 1210.76c-6.05,-76.34 -55.01,-103.05 -55.01,-103.05 -3.82,-53.44 -53.43,-76.34 -53.43,-76.34 -19.08,-53.43 -80.15,-68.7 -80.15,-68.7 -22.9,-53.43 -95.42,-55.36 -95.42,-55.36 -26.72,-47.74 -95.41,-40.05 -95.41,-40.05 -30.54,-41.99 -118.32,-38.17 -118.32,-38.17 -22.9,-45.8 -118.32,-30.53 -118.32,-30.53 -38.16,-41.99 -106.86,-7.64 -106.86,-7.64 -15.27,-57.25 -71.62,-11.92 -71.62,-11.92 0,0 -56.37,-45.33 -71.64,11.92 0,0 -68.7,-34.35 -106.86,7.64 0,0 -95.42,-15.27 -118.32,30.53 0,0 -87.78,-3.82 -118.32,38.17 0,0 -68.69,-7.69 -95.41,40.05 0,0 -72.52,1.93 -95.42,55.36 0,0 -61.07,15.27 -80.15,68.7 0,0 -49.61,22.9 -53.43,76.34 0,0 -48.96,26.71 -55.01,103.05 -6.06,76.33 23.11,133.58 153.56,190.83 402.99,-203.96 878.99,-203.96 1281.98,0 130.45,-57.25 159.62,-114.5 153.56,-190.83z"/>
    <path class="fil2" d="M2591.71 938.46l-612.03 0c-269.82,0 -488.55,218.72 -488.55,488.53l0 368.6 1589.12 0 0 -368.6c0,-269.81 -218.73,-488.53 -488.54,-488.53z"/>
    <g>
     <g>
      <path class="fil3" d="M4065.8 3719.86c-168.27,209.19 -372.88,387.7 -603.95,526.34 -52.21,31.75 -106.19,61.39 -161.22,88.55 -305.51,151.69 -650.17,237.07 -1014.93,237.07 -364.78,0 -709.44,-85.38 -1014.95,-237.07 -55.03,-27.16 -109,-56.8 -161.22,-88.55 -231.06,-138.64 -435.68,-317.15 -603.95,-526.34 61.38,-203.56 223.31,-364.07 431.8,-421.57l547.86 -151.34 57.51 -15.88 101.95 -28.22 208.84 -57.86 83.26 -466.02 1.76 -10.58 1.41 -9.17 26.81 -149.23 318.92 124.89 318.9 -124.89 26.81 149.23 20.11 114.65 35.63 200.03 30.69 171.09 208.84 57.86 101.96 28.22 57.5 15.88 547.86 151.34c208.49,57.5 370.42,218.01 431.8,421.57z"/>
     </g>
     <path class="fil4" d="M3028.64 3131.07c-22.23,101.6 -122.42,385.23 -548.22,417.69l-92.43 342.19c-12.7,46.22 -54.33,78.32 -102.29,78.32 -47.63,0 -89.61,-32.1 -102.31,-78.32l-92.43 -342.19c-426.15,-32.46 -525.99,-316.09 -548.21,-417.69l101.95 -28.22 208.84 -57.86 113.24 -635 318.92 124.89 318.9 -124.89 113.24 635 208.84 57.86 101.96 28.22z"/>
     <g>
      <path class="fil5" d="M2926.68 3102.85c-21.52,107.6 -115.35,343.25 -528.1,343.25l-112.88 417.34 -112.89 -417.34c-412.75,0 -506.59,-235.65 -528.11,-343.25l208.84 -57.86 83.26 -466.02 29.98 -168.98 318.92 124.89 318.9 -124.89 82.55 463.91 30.69 171.09 208.84 57.86z"/>
     </g>
     <g>
      <path class="fil6" d="M2687.15 2873.9c-105.13,33.86 -184.51,33.86 -184.51,33.86 0,0 -361.23,0 -565.84,-328.79l29.98 -168.98 318.92 124.89 318.9 -124.89 82.55 463.91z"/>
     </g>
     <g>
      <path class="fil5" d="M3147.44 1720.48c-4.29,-28.15 -14.71,-56.73 -36.19,-75.4 -19.39,-16.85 -46.04,-23.81 -71.69,-22.71 -25.66,1.11 -50.48,9.67 -73.59,20.86 0,0 -2.27,-473.97 -232.81,-481.53 -151.18,-7.56 -218.43,37.8 -447.46,37.8 -229.04,0 -296.3,-45.36 -447.48,-37.8 -230.54,7.56 -232.8,481.53 -232.8,481.53 -23.12,-11.19 -47.95,-19.75 -73.6,-20.86 -25.65,-1.1 -52.3,5.86 -71.68,22.71 -21.5,18.67 -31.91,47.25 -36.2,75.4 -8.6,56.5 4.92,116.07 37.07,163.31 32.16,47.25 79.62,82.78 135.33,95.51 98.27,687.85 689.36,687.85 689.36,687.85 0,0 591.08,0 689.34,-687.85 55.71,-12.73 103.18,-48.26 135.33,-95.51 32.15,-47.24 45.67,-106.81 37.07,-163.31z"/>
     </g>
    </g>
    <g>
     <path class="fil4" d="M1270.75 4334.75c-55.03,-27.16 -109,-56.8 -161.22,-88.55l144.29 -436.38 16.93 524.93z"/>
     <path class="fil4" d="M3461.85 4246.2c-52.21,31.75 -106.19,61.39 -161.22,88.55l16.93 -524.93 144.29 436.38z"/>
    </g>
    <g>
     <g>
      <path class="fil6" d="M2252.56 1701.27l0 403.6 68.39 0c117.26,0 -46.62,-357.22 -68.39,-403.6z"/>
     </g>
     <g>
      <g>
       <path class="fil2" d="M2749.87 1544.02c-94.53,-46.7 -199.61,-53.64 -298.16,-14.45 -41.75,16.6 -23.56,84.86 18.76,68.03 80.74,-32.1 165.31,-31.43 243.8,7.34 40.64,20.08 76.4,-40.77 35.6,-60.92z"/>
       <path class="fil2" d="M2664.76 1701.27c0,36.75 -29.79,66.54 -66.53,66.54 -36.75,0 -66.54,-29.79 -66.54,-66.54 0,-36.74 29.79,-66.54 66.54,-66.54 36.74,0 66.53,29.8 66.53,66.54z"/>
      </g>
      <g>
       <path class="fil2" d="M1821.51 1544.02c94.53,-46.7 199.62,-53.64 298.16,-14.45 41.75,16.6 23.56,84.86 -18.76,68.03 -80.74,-32.1 -165.3,-31.43 -243.79,7.34 -40.64,20.08 -76.4,-40.77 -35.61,-60.92z"/>
       <path class="fil2" d="M1906.62 1701.27c0,36.75 29.79,66.54 66.54,66.54 36.75,0 66.53,-29.79 66.53,-66.54 0,-36.74 -29.78,-66.54 -66.53,-66.54 -36.75,0 -66.54,29.8 -66.54,66.54z"/>
      </g>
     </g>
     <path class="fil7" d="M2068.9 2269.76c23.45,87.57 111.49,152.75 216.8,152.75 105.29,0 193.34,-65.18 216.79,-152.75l-433.59 0z"/>
    </g>
   </g>
  </g>
 </g>
</svg>
