<?xml version="1.0" encoding="UTF-8"?>
<!DOCTYPE svg PUBLIC "-//W3C//DTD SVG 1.1//EN" "http://www.w3.org/Graphics/SVG/1.1/DTD/svg11.dtd">
<!-- Creator: CorelDRAW -->
<svg xmlns="http://www.w3.org/2000/svg" xml:space="preserve" width="45.717mm" height="45.717mm" version="1.1" style="shape-rendering:geometricPrecision; text-rendering:geometricPrecision; image-rendering:optimizeQuality; fill-rule:evenodd; clip-rule:evenodd"
viewBox="0 0 4571.7 4571.7"
 xmlns:xlink="http://www.w3.org/1999/xlink"
 xmlns:xodm="http://www.corel.com/coreldraw/odm/2003">
 <defs>
  <style type="text/css">
   <![CDATA[
    .fil0 {fill:none}
    .fil2 {fill:#051633;fill-rule:nonzero}
    .fil6 {fill:#A80060;fill-rule:nonzero}
    .fil1 {fill:#D6E9F0;fill-rule:nonzero}
    .fil5 {fill:#E20080;fill-rule:nonzero}
    .fil4 {fill:#F27967;fill-rule:nonzero}
    .fil3 {fill:#F69779;fill-rule:nonzero}
    .fil7 {fill:white;fill-rule:nonzero}
   ]]>
  </style>
 </defs>
 <g id="Camada_x0020_1">
  <metadata id="CorelCorpID_0Corel-Layer"/>
  <rect class="fil0" x="-0.15" y="0.15" width="4571.7" height="4571.7"/>
  <g id="_2060188276304">
   <path class="fil1" d="M4571.52 2286.18c0,628.65 -253.65,1198.03 -664.63,1611.13 -134.41,135.47 -285.75,254 -450.5,352.08 -342.55,204.96 -742.95,322.44 -1170.87,322.44 -29.99,0 -59.62,-0.71 -88.9,-1.77 -418.04,-15.87 -807.15,-144.28 -1138.41,-355.6 -160.52,-102.3 -307.27,-224.01 -437.09,-361.95 -385.24,-408.87 -621.25,-960.26 -621.25,-1566.33 0,-1262.59 1023.41,-2286 2285.65,-2286 1262.59,0 2286,1023.41 2286,2286z"/>
   <g>
    <g>
     <g>
      <path class="fil2" d="M3418.99 3805.96c0,0 -81.16,-1934.91 -116.83,-2383.28 -40.89,-514.04 -245.34,-865.17 -665.92,-917.74 -187.74,-23.47 -327.23,23.28 -414.99,81.25l-0.03 -0.04c-755.33,-114.29 -804.28,941.19 -804.28,941.19l0.04 -0.01c-112.54,820.21 -112.57,2226.06 -112.57,2226.06l2114.58 52.57z"/>
      <g>
       <path class="fil3" d="M3906.89 3897.31c-134.41,135.47 -285.75,254 -450.5,352.08 -342.55,204.96 -742.95,322.44 -1170.87,322.44 -29.99,0 -59.62,-0.71 -88.9,-1.77 -418.04,-15.87 -807.15,-144.28 -1138.41,-355.6 -160.52,-102.3 -307.27,-224.01 -437.09,-361.95l2.82 -8.11c63.85,-178.15 203.9,-318.91 382.06,-383.82l42.33 -15.53 260.35 -94.89 284.34 -103.37c33.86,-12.34 65.97,-28.22 95.95,-47.62 8.82,-5.65 17.29,-11.29 25.76,-17.64 57.85,-42.69 105.12,-98.43 136.87,-163.69l6.35 -13.76c28.58,-61.73 50.45,-127 64.56,-195.44l27.87 -135.11 16.94 -82.2 0 -0.35 37.74 -180.98 501.65 0 37.4 181.33 45.15 217.31c7.06,34.57 16.23,68.79 27.52,101.6 10.58,32.11 22.93,63.5 37.04,93.84l6.35 13.76c31.75,65.26 79.02,121 136.88,163.69 8.47,6.35 16.93,11.99 25.75,17.64 29.99,19.4 62.09,35.28 95.96,47.62l483.66 176.04 61.03 22.22 42.33 15.53c178.15,64.91 318.2,205.67 382.06,383.82l19.05 52.91z"/>
      </g>
      <g>
       <g>
        <path class="fil4" d="M2616.78 2910.24c-87.14,23.29 -149.23,23.29 -149.23,23.29 0,0 -309.03,0 -517.17,-260l54.68 -263.53 501.65 0 82.55 398.64c7.06,34.57 16.23,68.79 27.52,101.6z"/>
       </g>
      </g>
      <g>
       <g>
        <path class="fil3" d="M2945.22 1979.26c-98.08,687.92 -689.33,687.92 -689.33,687.92 0,0 -427.18,0 -615.57,-422.47 -53.09,-119.06 -74.18,-249.92 -70.63,-380.23l3.12 -113.98c2.15,-78.82 14.16,-157.34 36.37,-233 42.15,-143.58 90.15,-256.54 139.7,-345.41 147.03,-263.72 481.51,-365.42 749.09,-225.55 293.23,153.28 400.71,437.27 437.37,668.66 0.7,17.99 0.7,28.22 0.7,28.22 1.06,-0.36 2.12,-1.06 3.18,-1.77 26.1,189.45 6,337.61 6,337.61z"/>
       </g>
      </g>
     </g>
     <g>
      <g>
       <path class="fil5" d="M3456.39 4249.39c-342.55,204.96 -742.95,322.44 -1170.87,322.44 -29.99,0 -59.62,-0.71 -88.9,-1.77 -418.04,-15.87 -807.15,-144.28 -1138.41,-355.6 21.52,-311.85 32.45,-651.58 -9.88,-769.41l260.35 -94.89 284.34 -103.37c33.86,-12.34 65.97,-28.22 95.95,-47.62 8.82,-5.65 17.29,-11.29 25.76,-17.64l9.17 -3.18 385.59 0 0 568.33c0,6.35 0.35,12.7 1.05,19.05 0.36,2.47 0.71,5.29 1.06,7.76 22.23,156.63 258.94,159.1 287.52,7.06 1.05,-4.94 1.76,-9.88 2.11,-14.82 0.71,-6.35 1.06,-12.7 1.06,-19.05l0 -568.33 385.59 0 9.17 3.18c8.47,6.35 16.93,11.99 25.75,17.64 29.99,19.4 62.09,35.28 95.96,47.62l483.66 176.04 61.03 22.22c-17.29,47.98 -25.76,132.65 -28.23,237.07 0,0.35 0,0.35 0,0.35 -3.88,162.28 6.71,372.18 21.17,566.92z"/>
       <path class="fil6" d="M2109.59 3250.23c0,0 -275.4,24.78 -421.99,-46.79l72.78 -215.1c0,0 176.82,36.86 349.21,30.07l0 231.82z"/>
      </g>
      <path class="fil6" d="M2402.18 3250.23c0,0 275.41,24.78 421.99,-46.79l-72.77 -215.1c0,0 -176.82,36.86 -349.22,30.07l0 231.82z"/>
     </g>
     <path class="fil2" d="M2518.46 3716.63l-525.14 0c-20.63,0 -37.35,-16.72 -37.35,-37.34 0,-20.63 16.72,-37.34 37.35,-37.34l525.14 0c20.63,0 37.35,16.71 37.35,37.34 0,20.62 -16.72,37.34 -37.35,37.34z"/>
     <path class="fil2" d="M2518.46 3459.9l-525.14 0c-20.63,0 -37.35,-16.72 -37.35,-37.35 0,-20.62 16.72,-37.34 37.35,-37.34l525.14 0c20.63,0 37.35,16.72 37.35,37.34 0,20.63 -16.72,37.35 -37.35,37.35z"/>
     <path class="fil6" d="M3456.39 4249.39c-342.55,204.96 -742.95,322.44 -1170.87,322.44 -29.99,0 -59.62,-0.71 -88.9,-1.77 818.8,-137.93 1103.14,-553.86 1196.27,-764.82 9.88,-21.87 17.64,-41.63 23.64,-58.56 11.64,-33.52 16.93,-56.09 18.69,-64.21 -3.88,162.28 6.71,372.18 21.17,566.92z"/>
    </g>
    <g>
     <g>
      <path class="fil4" d="M2227.82 1629.6l0 403.61 68.4 0c117.26,0 -46.62,-357.23 -68.4,-403.61z"/>
     </g>
     <g>
      <g>
       <path class="fil2" d="M2725.15 1472.35c-94.53,-46.7 -199.62,-53.64 -298.16,-14.45 -41.75,16.6 -23.57,84.86 18.75,68.04 80.74,-32.11 165.31,-31.44 243.8,7.34 40.64,20.07 76.4,-40.77 35.61,-60.93z"/>
       <path class="fil2" d="M2640.04 1598.06c-21.48,-37.26 -66.54,-34.99 -66.54,-34.99 -36.75,0 -66.54,29.78 -66.54,66.53 0,36.75 29.79,66.54 66.54,66.54 8.11,0 15.78,-1.66 22.96,-4.31l0.04 0.18c0.44,-0.15 0.73,-0.4 1.16,-0.56 2.15,-0.84 4.15,-1.9 6.19,-2.95 58.18,-25.23 64.38,-89.83 64.38,-89.83 -11.6,9.77 -28.19,-0.61 -28.19,-0.61z"/>
      </g>
      <g>
       <path class="fil2" d="M1796.77 1472.35c94.54,-46.7 199.62,-53.64 298.17,-14.45 41.74,16.6 23.56,84.86 -18.76,68.04 -80.74,-32.11 -165.31,-31.44 -243.8,7.34 -40.64,20.07 -76.4,-40.77 -35.61,-60.93z"/>
       <path class="fil2" d="M1881.88 1598.06c21.48,-37.26 66.54,-34.99 66.54,-34.99 36.75,0 66.54,29.78 66.54,66.53 0,36.75 -29.79,66.54 -66.54,66.54 -8.11,0 -15.78,-1.66 -22.96,-4.31l-0.04 0.18c-0.43,-0.15 -0.73,-0.4 -1.16,-0.56 -2.15,-0.84 -4.16,-1.9 -6.19,-2.95 -58.18,-25.23 -64.38,-89.83 -64.38,-89.83 11.61,9.77 28.19,-0.61 28.19,-0.61z"/>
      </g>
     </g>
     <path class="fil7" d="M2044.16 2247.94c23.45,87.57 111.49,152.76 216.8,152.76 105.31,0 193.35,-65.19 216.8,-152.76l-433.6 0z"/>
    </g>
   </g>
  </g>
 </g>
</svg>
