<?xml version="1.0" encoding="UTF-8"?>
<!DOCTYPE svg PUBLIC "-//W3C//DTD SVG 1.1//EN" "http://www.w3.org/Graphics/SVG/1.1/DTD/svg11.dtd">
<!-- Creator: CorelDRAW -->
<svg xmlns="http://www.w3.org/2000/svg" xml:space="preserve" width="45.717mm" height="45.717mm" version="1.1" style="shape-rendering:geometricPrecision; text-rendering:geometricPrecision; image-rendering:optimizeQuality; fill-rule:evenodd; clip-rule:evenodd"
viewBox="0 0 4571.7 4571.7"
 xmlns:xlink="http://www.w3.org/1999/xlink"
 xmlns:xodm="http://www.corel.com/coreldraw/odm/2003">
 <defs>
  <style type="text/css">
   <![CDATA[
    .fil0 {fill:none}
    .fil5 {fill:#051633;fill-rule:nonzero}
    .fil2 {fill:#0C415B;fill-rule:nonzero}
    .fil3 {fill:#1C627C;fill-rule:nonzero}
    .fil6 {fill:#601613;fill-rule:nonzero}
    .fil4 {fill:#851F1A;fill-rule:nonzero}
    .fil1 {fill:#D6E9F0;fill-rule:nonzero}
    .fil7 {fill:white;fill-rule:nonzero}
   ]]>
  </style>
 </defs>
 <g id="Camada_x0020_1">
  <metadata id="CorelCorpID_0Corel-Layer"/>
  <rect class="fil0" x="-0.15" y="0.15" width="4571.7" height="4571.7"/>
  <g id="_2059781792448">
   <path class="fil1" d="M4571.69 2286.01c0,552.08 -195.44,1058.32 -521.41,1453.08 -153.81,186.97 -336.9,348.9 -542.22,479.07 -61.73,39.16 -125.59,75.49 -191.2,108.3 -309.74,157.34 -660.05,245.54 -1031.16,245.54 -371.13,0 -721.43,-88.2 -1031.17,-245.54 -65.62,-32.81 -129.47,-69.14 -191.21,-108.3 -205.32,-130.17 -388.41,-292.1 -542.22,-479.07 -325.97,-394.76 -521.4,-901 -521.4,-1453.08 0,-1262.6 1023.4,-2286 2286,-2286 1262.58,0 2285.99,1023.4 2285.99,2286z"/>
   <g>
    <g>
     <g>
      <path class="fil2" d="M4050.28 3739.09c-153.81,186.97 -336.9,348.9 -542.22,479.07 -61.73,39.16 -125.59,75.49 -191.2,108.3 -309.74,157.34 -660.05,245.54 -1031.16,245.54 -371.13,0 -721.43,-88.2 -1031.17,-245.54 -65.62,-32.81 -129.47,-69.14 -191.21,-108.3 -205.32,-130.17 -388.41,-292.1 -542.22,-479.07 70.2,-182.39 223.31,-323.85 416.28,-377.12l547.86 -151.34 192.27 -53.27 176.03 -48.69 66.68 -373.23 20.11 -112.54 26.45 -149.23 318.92 124.89 318.9 -124.89 26.46 149.23 53.62 300.21 33.16 185.56 176.04 48.69 192.26 53.27 547.86 151.34c192.97,53.27 346.08,194.73 416.28,377.12z"/>
     </g>
     <path class="fil3" d="M2893.88 3157.36l-5.3 9.17c-39.51,235.66 -256.11,379.94 -576.79,379.94 -10.92,0 -19.74,0 -26.09,-0.35 -6.35,0.35 -15.17,0.35 -26.11,0.35 -321.03,0 -537.28,-144.28 -576.79,-379.94l-5.29 -9.17 176.03 -48.69 113.24 -635 318.92 124.89 318.9 -124.89 113.24 635 176.04 48.69z"/>
     <g>
      <path class="fil4" d="M2717.84 3108.67c-19.4,286.81 -432.14,260.71 -432.14,260.71 0,0 -412.75,26.1 -432.16,-260.71l66.68 -373.23 46.56 -261.77 318.92 124.89 318.9 -124.89 80.08 449.44 33.16 185.56z"/>
     </g>
     <path class="fil5" d="M3109.16 1357.47c11.75,-8.56 18.78,-23.23 18.11,-37.75 -0.69,-14.52 -5.44,-40.26 -17.93,-47.69 11.22,-22.05 5.23,-63.05 -12.86,-79.92 10.49,-21.95 4.94,-59.15 -14.68,-73.54 12.26,-21.76 -10.64,-61.23 -34.87,-67.3 2.17,-24.38 -17.7,-64.51 -40.06,-74.46 15.03,-30.93 -12.23,-82.21 -45.67,-90.22 2.43,-25.94 -19.02,-59.82 -43.9,-67.55 0.11,-25.9 -27.92,-57.53 -53.53,-61.37 -10.97,-31.61 -46.93,-62.32 -80.31,-64.6 -4.52,-20.55 -18.31,-38.87 -36.8,-48.9 -18.49,-10.02 -52.23,-13.92 -71.91,-6.5 -12.58,-27.03 -56.28,-35.34 -83.9,-24.12 -13.78,-26.55 -58.37,-36.73 -81.68,-17.98 -16.79,-23.2 -65.33,-31.98 -88.2,-14.73 -19.58,-15 -52.9,-13.25 -75.98,-4.54 -11.1,-21.29 -35.29,-30.67 -59.29,-30.67 -24.02,0 -48.21,9.38 -59.31,30.67 -23.08,-8.71 -56.4,-10.46 -75.98,4.54 -22.86,-17.25 -71.41,-8.47 -88.2,14.73 -23.3,-18.75 -67.9,-8.57 -81.68,17.98 -27.62,-11.22 -71.31,-2.91 -83.89,24.12 -19.69,-7.42 -53.43,-3.52 -71.92,6.5 -18.49,10.03 -32.27,28.35 -36.79,48.9 -33.38,2.28 -69.35,32.99 -80.31,64.6 -25.62,3.84 -53.64,35.47 -53.54,61.37 -24.88,7.73 -46.32,41.61 -43.9,67.55 -33.44,8.01 -60.7,59.29 -45.67,90.22 -22.35,9.95 -42.23,50.08 -40.06,74.46 -24.23,6.07 -47.13,45.54 -34.87,67.3 -19.62,14.39 -25.16,51.59 -14.67,73.54 -18.1,16.87 -24.09,57.87 -12.87,79.92 -12.49,7.43 -17.25,33.17 -17.92,47.69 -0.68,14.52 6.35,29.19 18.1,37.75 -20.84,24.16 -17.5,69.39 2.61,94.16 -12.05,29.65 -6.72,79.65 12.49,105.24 -11.92,20.24 -5.29,60.26 11.42,76.77 -16.28,33.8 -0.54,87.97 32.7,105.37 2.94,0 14.6,11.95 17.54,11.95l602.69 0 144.03 -543.84 144.01 543.84 602.69 0c2.94,0 14.6,-11.95 17.54,-11.95 33.24,-17.4 48.98,-71.57 32.7,-105.37 16.71,-16.51 23.35,-56.53 11.42,-76.77 19.21,-25.59 24.54,-75.59 12.49,-105.24 20.11,-24.77 23.46,-70 2.61,-94.16z"/>
     <g>
      <path class="fil4" d="M3110.48 1947.34c-32.1,47.27 -79.73,82.9 -135.47,95.6 -0.7,3.88 -1.05,7.76 -1.76,11.29 -103.01,676.62 -687.55,676.62 -687.55,676.62 0,0 -584.56,0 -687.57,-676.62 -0.7,-3.53 -1.06,-7.41 -1.76,-11.29 -55.74,-12.7 -103.37,-48.33 -135.47,-95.6 -32.1,-47.27 -45.51,-106.54 -37.04,-163.34 4.23,-27.87 14.82,-56.44 36.34,-75.14 19.4,-16.93 45.86,-23.99 71.61,-22.93 24.69,1.06 48.33,9.17 70.56,19.76 1.05,0.35 2.11,1.05 3.17,1.41 0,0 0,-2.12 0,-6 1.06,-66.32 15.17,-644.88 232.83,-651.93 150.99,-7.76 218.37,37.74 447.33,37.74 228.94,0 296.32,-45.5 447.31,-37.74 217.66,7.05 231.77,585.96 232.83,651.93 0,3.88 0,6 0,6 1.06,-0.36 2.12,-1.06 3.18,-1.41 22.22,-10.59 45.86,-18.7 70.55,-19.76 25.76,-1.06 52.21,6 71.62,22.93 21.52,18.7 32.1,47.27 36.33,75.14 8.47,56.8 -4.94,116.07 -37.04,163.34z"/>
     </g>
     <path class="fil6" d="M2684.68 2923.11c-139,61.39 -256.47,61.39 -256.47,61.39 0,0 -300.21,0 -507.99,-249.06l46.56 -261.77 318.92 124.89 318.9 -124.89 80.08 449.44z"/>
    </g>
    <path class="fil5" d="M3020.3 1443.34c-2.15,-93.56 -27.11,-184.68 -54.39,-274.75 -27.29,-90.06 -82.72,-176.43 -169.14,-224.19 -73.43,-40.56 -162.06,-49.85 -247.42,-48.17 -41.72,0.83 -84.1,4.2 -122.95,18.36 -61.12,22.26 -127.14,9.63 -140.7,69.08 -13.57,-59.45 -79.6,-46.82 -140.71,-69.08 -38.86,-14.16 -81.24,-17.53 -122.96,-18.36 -85.35,-1.68 -173.99,7.61 -247.41,48.17 -86.43,47.76 -141.86,134.13 -169.15,224.19 -27.28,90.07 -52.24,181.19 -54.39,274.75 -1.84,79.88 2.76,160.4 54.34,263.58 22.4,6.52 16.88,-37.93 13.78,-59.59 -3.1,-21.67 -16.14,-42.48 -12.42,-64.07 5.74,-33.35 48.52,-52.7 54.78,-85.98 6.75,-35.84 -32.12,-69.88 -22.84,-105.22 9.59,-36.48 60.68,-45.83 88.51,-73.01 24.76,-24.17 30.01,-61.99 56.3,-84.71 49.93,-43.14 137.24,-5.47 195.99,-37.56 22.53,-12.3 37.83,-33.47 58.83,-47.92 18.53,-12.75 41.41,-19.94 64.44,-20.25 31.85,-0.42 62.25,11.82 93.8,15.86 31.55,4.05 69.38,-3.59 82.96,-30.42 2.85,-5.64 4.72,-11.43 6.15,-17.28 1.42,5.85 3.29,11.64 6.15,17.28 13.57,26.83 51.4,34.47 82.95,30.42 31.55,-4.04 61.94,-16.28 93.79,-15.86 23.04,0.31 45.92,7.5 64.45,20.25 21,14.45 36.3,35.62 58.82,47.92 58.75,32.09 146.06,-5.58 195.99,37.56 26.3,22.72 31.55,60.54 56.3,84.71 27.84,27.18 78.92,36.53 88.51,73.01 9.28,35.34 -29.59,69.38 -22.84,105.22 6.27,33.28 49.04,52.63 54.79,85.98 3.71,21.59 -9.32,42.4 -12.42,64.07 -3.11,21.66 -8.63,66.11 13.78,59.59 51.57,-103.18 56.18,-183.7 54.33,-263.58z"/>
    <path class="fil5" d="M2973.25 2042.94l0 11.29c-103.01,676.62 -687.55,676.62 -687.55,676.62 0,0 -584.56,0 -687.57,-676.62l0 -11.29 4.24 -337.25 0 -7.06c1.05,0.71 2.11,1.41 3.17,2.47 37.75,27.16 63.15,78.32 56.09,123.83 28.58,17.99 42.69,67.02 29.28,97.71 20.82,18.35 33.87,44.81 35.63,71.97 1.77,27.52 -2.47,65.62 -20.81,86.43 21.52,10.94 38.45,30.69 46.21,53.98 7.76,22.93 7.41,58.56 -2.82,80.78 36.34,25.4 47.27,79.38 35.28,122.05 38.1,12.7 71.61,50.1 78.32,89.96 30.33,-4.58 66.67,8.12 85.01,32.11 26.82,-32.11 79.03,-35.99 117.13,-18.7 32.1,-22.23 85.02,-15.17 114.65,10.58 28.57,-25.4 67.73,-23.99 106.19,-23.99 38.44,0 77.6,-1.41 106.17,23.99 29.64,-25.75 82.55,-32.81 114.66,-10.58 38.1,-17.29 90.31,-13.41 117.12,18.7 18.34,-23.99 54.68,-36.69 85.02,-32.11 6.7,-39.86 40.21,-77.26 78.31,-89.96 -11.99,-42.67 -1.05,-96.65 35.28,-122.05 -10.23,-22.22 -10.58,-57.85 -2.82,-80.78 7.76,-23.29 24.69,-43.04 46.21,-53.98 -18.34,-20.81 -22.57,-58.91 -20.81,-86.43 1.76,-27.16 14.82,-53.62 35.63,-71.97 -13.41,-30.69 0.71,-79.72 29.28,-97.71 -7.06,-45.51 18.34,-96.67 56.09,-123.83 1.06,-1.06 2.12,-1.76 3.18,-2.47l0 7.06 4.23 337.25z"/>
    <g>
     <path class="fil5" d="M1254.53 4326.46c-65.62,-32.81 -129.47,-69.14 -191.21,-108.3l86.43 -470.96 104.78 579.26z"/>
     <path class="fil5" d="M3508.06 4218.16c-61.73,39.16 -125.59,75.49 -191.2,108.3l104.77 -579.26 86.43 470.96z"/>
    </g>
    <g>
     <path class="fil6" d="M2252.56 1613.52l0 403.6 68.39 0c117.26,0 -46.62,-357.22 -68.39,-403.6z"/>
     <g>
      <g>
       <path class="fil5" d="M2749.87 1456.27c-94.53,-46.7 -199.61,-53.64 -298.16,-14.45 -41.75,16.6 -23.56,84.86 18.76,68.03 80.74,-32.1 165.31,-31.43 243.8,7.34 40.64,20.08 76.4,-40.77 35.6,-60.92z"/>
       <path class="fil5" d="M2664.76 1613.52c0,36.75 -29.79,66.54 -66.53,66.54 -36.75,0 -66.54,-29.79 -66.54,-66.54 0,-36.75 29.79,-66.54 66.54,-66.54 36.74,0 66.53,29.79 66.53,66.54z"/>
      </g>
      <g>
       <g>
        <path class="fil5" d="M1821.51 1456.27c94.53,-46.7 199.62,-53.64 298.16,-14.45 41.75,16.6 23.56,84.86 -18.76,68.03 -80.74,-32.1 -165.3,-31.43 -243.79,7.34 -40.64,20.08 -76.4,-40.77 -35.61,-60.92z"/>
        <path class="fil5" d="M1906.62 1613.52c0,36.75 29.79,66.54 66.54,66.54 36.75,0 66.53,-29.79 66.53,-66.54 0,-36.75 -29.78,-66.54 -66.53,-66.54 -36.75,0 -66.54,29.79 -66.54,66.54z"/>
       </g>
      </g>
     </g>
     <path class="fil7" d="M2068.9 2210.04c23.45,87.57 111.49,152.75 216.8,152.75 105.29,0 193.34,-65.18 216.79,-152.75l-433.59 0z"/>
    </g>
   </g>
  </g>
 </g>
</svg>
