<?xml version="1.0" encoding="UTF-8"?>
<!DOCTYPE svg PUBLIC "-//W3C//DTD SVG 1.1//EN" "http://www.w3.org/Graphics/SVG/1.1/DTD/svg11.dtd">
<!-- Creator: CorelDRAW -->
<svg xmlns="http://www.w3.org/2000/svg" xml:space="preserve" width="45.717mm" height="45.717mm" version="1.1" style="shape-rendering:geometricPrecision; text-rendering:geometricPrecision; image-rendering:optimizeQuality; fill-rule:evenodd; clip-rule:evenodd"
viewBox="0 0 4571.7 4571.7"
 xmlns:xlink="http://www.w3.org/1999/xlink"
 xmlns:xodm="http://www.corel.com/coreldraw/odm/2003">
 <defs>
  <style type="text/css">
   <![CDATA[
    .fil0 {fill:none}
    .fil6 {fill:#051633;fill-rule:nonzero}
    .fil3 {fill:#3D3836;fill-rule:nonzero}
    .fil7 {fill:#9C7572;fill-rule:nonzero}
    .fil2 {fill:#BC938E;fill-rule:nonzero}
    .fil1 {fill:#D6E9F0;fill-rule:nonzero}
    .fil5 {fill:#F27967;fill-rule:nonzero}
    .fil4 {fill:#F69779;fill-rule:nonzero}
    .fil8 {fill:white;fill-rule:nonzero}
   ]]>
  </style>
 </defs>
 <g id="Camada_x0020_1">
  <metadata id="CorelCorpID_0Corel-Layer"/>
  <rect class="fil0" x="-0.15" y="0.15" width="4571.7" height="4571.7"/>
  <g id="_2060277431568">
   <path class="fil1" d="M4571.52 2285.82c0,554.22 -197.2,1062.57 -525.64,1458.39 -139.7,168.62 -303.03,316.79 -485.42,439.2 -69.85,47.28 -142.17,90.32 -217.31,129.47 -316.09,165.46 -675.92,258.94 -1057.63,258.94 -408.52,0 -791.99,-107.24 -1123.6,-294.92 -71.26,-40.22 -140.05,-83.96 -206.02,-131.59 -179.21,-128.41 -339.37,-282.22 -474.48,-456.14 -301.98,-387.35 -481.55,-874.53 -481.55,-1403.35 0,-1262.24 1023.41,-2285.64 2285.65,-2285.64 1262.59,0 2286,1023.4 2286,2285.64z"/>
   <g>
    <g>
     <g>
      <path class="fil2" d="M4045.88 3744.21c-139.7,168.62 -303.03,316.79 -485.42,439.2 -69.85,47.28 -142.17,90.32 -217.31,129.47 -316.09,165.46 -675.92,258.94 -1057.63,258.94 -408.52,0 -791.99,-107.24 -1123.6,-294.92 -71.26,-40.22 -140.05,-83.96 -206.02,-131.59 -179.21,-128.41 -339.37,-282.22 -474.48,-456.14 64.91,-195.44 223.66,-348.89 426.15,-404.63l547.87 -151.34 197.55 -54.68 170.74 -47.28 8.47 -46.56 847.37 0 8.47 46.56 170.74 47.28 197.56 54.68 547.86 151.34c221.2,61.03 390.18,238.12 441.68,459.67z"/>
      <g>
       <path class="fil3" d="M2679.74 2984.68l-847.7 0 -8.31 46.56 -170.74 47.28 4.94 13.4c2.47,6.35 4.94,12 7.05,16.93 64.21,186.27 302.69,314.68 590.91,314.68 288.22,0 526.69,-128.41 590.9,-314.68 2.12,-4.93 4.59,-10.58 7.06,-16.93l4.93 -13.4 -170.74 -47.28 -8.3 -46.56z"/>
      </g>
      <g>
       <path class="fil4" d="M2688.04 3031.24c-1.41,3.88 -3.53,7.06 -5.29,10.59 -30.69,116.06 -209.9,205.31 -426.86,205.31 -216.96,0 -396.17,-89.25 -426.86,-205.31 -1.77,-3.53 -3.88,-6.71 -5.3,-10.59l68.44 -383.82 44.81 -251.18 318.91 124.89 318.91 -124.89 100.54 564.45 12.7 70.55z"/>
      </g>
      <g>
       <path class="fil5" d="M2675.34 2960.69c-113.95,39.86 -202.49,39.86 -202.49,39.86 0,0 -379.24,0 -580.68,-353.13l44.81 -251.18 318.91 124.89 318.91 -124.89 100.54 564.45z"/>
      </g>
     </g>
     <g>
      <path class="fil6" d="M2542.36 772.48c0,0 376.34,-34.06 496.61,235.24 88.11,197.28 146.42,1241.94 -277.15,1304.69l-355.58 -1458.95 136.12 -80.98z"/>
      <path class="fil6" d="M1969.41 772.48c0,0 -376.34,-34.06 -496.61,235.24 -88.1,197.28 -146.41,1241.94 277.15,1304.69l355.59 -1458.95 -136.13 -80.98z"/>
     </g>
     <g>
      <path class="fil4" d="M3117.64 1706.73c-4.28,-28.15 -14.7,-56.73 -36.19,-75.4 -19.38,-16.85 -46.03,-23.81 -71.69,-22.71 -25.65,1.1 -50.48,9.67 -73.59,20.86 0,0 -2.26,-650.36 -232.81,-657.92 -151.17,-7.56 -218.43,37.8 -447.47,37.8 -229.04,0 -296.3,-45.36 -447.48,-37.8 -230.54,7.56 -232.8,657.92 -232.8,657.92 -23.12,-11.19 -47.94,-19.76 -73.59,-20.86 -25.66,-1.1 -52.31,5.86 -71.69,22.71 -21.49,18.67 -31.91,47.25 -36.2,75.4 -8.59,56.5 4.93,116.07 37.08,163.31 32.15,47.25 79.61,82.78 135.32,95.51 98.27,687.85 689.36,687.85 689.36,687.85 0,0 591.09,0 689.35,-687.85 55.71,-12.73 103.18,-48.26 135.33,-95.51 32.15,-47.24 45.67,-106.81 37.07,-163.31z"/>
     </g>
    </g>
    <path class="fil6" d="M2703.36 971.56c0,0 28.46,-280.21 -661.8,-280.21 -366.04,0 -491.54,230.09 -538.6,339.9l120.27 -36.6c0,0 -146.42,193.48 -120.27,329.44 0,0 209.17,-198.71 381.73,-214.4 172.56,-15.69 643.79,-40.94 818.67,-138.13z"/>
    <g>
     <path class="fil7" d="M3560.46 4183.41c-69.85,47.28 -142.17,90.32 -217.31,129.47l140.05 -763.76 77.26 634.29z"/>
     <path class="fil7" d="M1161.92 4276.9c-71.26,-40.22 -140.05,-83.96 -206.02,-131.59l72.67 -596.19 133.35 727.78z"/>
    </g>
    <g>
     <g>
      <path class="fil5" d="M2222.75 1730.04l0 403.6 68.4 0c117.26,0 -46.63,-357.22 -68.4,-403.6z"/>
     </g>
     <g>
      <g>
       <path class="fil6" d="M2720.08 1572.79c-94.54,-46.7 -199.62,-53.64 -298.17,-14.45 -41.75,16.6 -23.56,84.86 18.76,68.03 80.74,-32.1 165.31,-31.43 243.8,7.34 40.64,20.08 76.4,-40.77 35.61,-60.92z"/>
       <path class="fil6" d="M2634.97 1730.04c0,36.75 -29.79,66.54 -66.54,66.54 -36.75,0 -66.54,-29.79 -66.54,-66.54 0,-36.75 29.79,-66.54 66.54,-66.54 36.75,0 66.54,29.79 66.54,66.54z"/>
      </g>
      <g>
       <path class="fil6" d="M1791.7 1572.79c94.53,-46.7 199.62,-53.64 298.16,-14.45 41.75,16.6 23.57,84.86 -18.75,68.03 -80.74,-32.1 -165.31,-31.43 -243.8,7.34 -40.64,20.08 -76.4,-40.77 -35.61,-60.92z"/>
       <path class="fil6" d="M1876.81 1730.04c0,36.75 29.79,66.54 66.54,66.54 36.75,0 66.54,-29.79 66.54,-66.54 0,-36.75 -29.79,-66.54 -66.54,-66.54 -36.75,0 -66.54,29.79 -66.54,66.54z"/>
      </g>
     </g>
     <path class="fil8" d="M2039.09 2291.28c23.45,87.57 111.49,152.76 216.8,152.76 105.31,0 193.35,-65.19 216.8,-152.76l-433.6 0z"/>
    </g>
   </g>
  </g>
 </g>
</svg>
