<?xml version="1.0" encoding="UTF-8"?>
<!DOCTYPE svg PUBLIC "-//W3C//DTD SVG 1.1//EN" "http://www.w3.org/Graphics/SVG/1.1/DTD/svg11.dtd">
<!-- Creator: CorelDRAW -->
<svg xmlns="http://www.w3.org/2000/svg" xml:space="preserve" width="45.717mm" height="45.717mm" version="1.1" style="shape-rendering:geometricPrecision; text-rendering:geometricPrecision; image-rendering:optimizeQuality; fill-rule:evenodd; clip-rule:evenodd"
viewBox="0 0 4571.7 4571.7"
 xmlns:xlink="http://www.w3.org/1999/xlink"
 xmlns:xodm="http://www.corel.com/coreldraw/odm/2003">
 <defs>
  <style type="text/css">
   <![CDATA[
    .fil0 {fill:none}
    .fil3 {fill:#007289;fill-rule:nonzero}
    .fil7 {fill:#051633;fill-rule:nonzero}
    .fil6 {fill:#051633;fill-rule:nonzero}
    .fil2 {fill:#1CACAC;fill-rule:nonzero}
    .fil5 {fill:#601613;fill-rule:nonzero}
    .fil4 {fill:#851F1A;fill-rule:nonzero}
    .fil1 {fill:#D6E9F0;fill-rule:nonzero}
    .fil8 {fill:white;fill-rule:nonzero}
   ]]>
  </style>
 </defs>
 <g id="Camada_x0020_1">
  <metadata id="CorelCorpID_0Corel-Layer"/>
  <rect class="fil0" x="-0.15" y="0.15" width="4571.7" height="4571.7"/>
  <g id="_1912381086384">
   <path class="fil1" d="M4571.52 2285.82c0,541.16 -188.03,1038.58 -502.71,1430.16 -137.58,171.81 -299.51,322.8 -480.48,448.38 -68.09,47.63 -138.64,91.37 -212.02,130.89 -323.85,176.38 -695.68,276.57 -1090.44,276.57 -394.76,0 -766.58,-100.19 -1090.43,-276.57 -73.38,-39.52 -143.94,-83.26 -212.02,-130.53 -181.33,-125.94 -343.26,-276.93 -480.49,-448.74 -315.03,-391.58 -503.06,-889 -503.06,-1430.16 0,-1262.24 1023.41,-2285.64 2286,-2285.64 1262.24,0 2285.65,1023.4 2285.65,2285.64z"/>
   <g>
    <g>
     <g>
      <path class="fil2" d="M4068.81 3715.98c-137.58,171.81 -299.51,322.8 -480.48,448.38 -68.09,47.63 -138.64,91.37 -212.02,130.89 -323.85,176.38 -695.68,276.57 -1090.44,276.57 -394.76,0 -766.58,-100.19 -1090.43,-276.57 -73.38,-39.52 -143.94,-83.26 -212.02,-130.53 -181.33,-125.94 -343.26,-276.93 -480.49,-448.74 58.92,-208.13 222.61,-372.88 434.62,-431.44l547.87 -151.34 197.91 -54.68 170.39 -47.28 16.58 -93.48 831.14 0 16.58 93.48 170.4 47.28 197.9 54.68 547.87 151.34c212.02,58.56 375.71,223.31 434.62,431.44z"/>
     </g>
     <g>
      <path class="fil3" d="M2701.33 2937.64l-830.92 0 -16.69 93.6 -170.39 47.28c98.77,555.62 497.06,792.33 513.99,802.56l88.9 51.16 88.55 -51.51c16.93,-9.88 415.57,-248 513.65,-802.21l-170.4 -47.28 -16.69 -93.6z"/>
     </g>
     <g>
      <path class="fil4" d="M2718.02 3031.24c-2.11,13.41 -4.58,26.46 -7.05,39.16 -91.37,458.96 -418.75,654.05 -425.1,657.93 -6.7,-3.88 -352.42,-209.9 -432.15,-697.09l42.33 -237.06 70.91 -397.94 318.91 124.89 318.91 -124.89 113.24 635z"/>
     </g>
     <g>
      <path class="fil5" d="M2718.02 3031.24c-2.11,13.41 -4.58,26.46 -7.05,39.16 -134.76,56.8 -246.59,56.8 -246.59,56.8 0,0 -364.42,0 -568.33,-333.02l70.91 -397.94 318.91 124.89 318.91 -124.89 113.24 635z"/>
     </g>
     <path class="fil4" d="M2982.56 904.14c-81.58,-152.96 -237.58,-237.6 -381.32,-284.39 -204.45,-66.57 -426.28,-66.57 -630.74,0 -143.74,46.79 -299.74,131.43 -381.32,284.39 -147.46,282.37 -122.36,721.63 -122.36,721.63l153.74 163.14 665.32 -84.42 665.3 84.42 153.74 -163.14c0,0 25.1,-439.26 -122.36,-721.63z"/>
     <g>
      <path class="fil4" d="M3147.63 1706.73c-4.29,-28.15 -14.71,-56.73 -36.2,-75.4 -19.38,-16.85 -46.03,-23.81 -71.68,-22.71 -25.66,1.1 -50.49,9.67 -73.6,20.86 0,0 -2.26,-650.36 -232.8,-657.92 -151.18,-7.56 -218.43,37.8 -447.48,37.8 -229.04,0 -296.29,-45.36 -447.47,-37.8 -230.55,7.56 -232.81,657.92 -232.81,657.92 -23.11,-11.19 -47.94,-19.76 -73.59,-20.86 -25.66,-1.1 -52.3,5.86 -71.69,22.71 -21.49,18.67 -31.9,47.25 -36.19,75.4 -8.6,56.5 4.92,116.07 37.07,163.31 32.15,47.25 79.61,82.78 135.33,95.51 98.26,687.85 689.35,687.85 689.35,687.85 0,0 591.09,0 689.36,-687.85 55.71,-12.73 103.17,-48.26 135.32,-95.51 32.15,-47.24 45.68,-106.81 37.08,-163.31z"/>
     </g>
    </g>
    <g>
     <path class="fil6" d="M2107.36 2560.51l0 128.04c0,22.74 35.28,22.74 35.28,0l0 -128.04c0,-22.75 -35.28,-22.75 -35.28,0z"/>
     <path class="fil6" d="M2185.11 2580.26c2.18,42.68 4.36,85.36 6.53,128.04 1.16,22.63 36.44,22.75 35.28,0 -2.17,-42.68 -4.35,-85.36 -6.53,-128.04 -1.15,-22.64 -36.43,-22.75 -35.28,0z"/>
     <path class="fil6" d="M2429.1 2560.51l0 128.04c0,22.74 35.28,22.74 35.28,0l0 -128.04c0,-22.75 -35.28,-22.75 -35.28,0z"/>
     <path class="fil6" d="M2351.35 2580.26c-2.18,42.68 -4.35,85.36 -6.53,128.04 -1.16,22.75 34.12,22.63 35.28,0 2.17,-42.68 4.35,-85.36 6.53,-128.04 1.16,-22.75 -34.13,-22.64 -35.28,0z"/>
     <path class="fil6" d="M2268.23 2593.34l0 134.6c0,22.75 35.28,22.75 35.28,0l0 -134.6c0,-22.75 -35.28,-22.75 -35.28,0z"/>
    </g>
    <path class="fil7" d="M2963.81 1739.81c-131.03,171.98 -92.43,490.89 -92.43,490.89 -35.78,74.31 -106.34,148.62 -171.29,206.65 -80.25,71.7 -184.27,110.85 -291.89,110.85l-124.67 0 -124.66 0c-107.63,0 -211.65,-39.15 -291.9,-110.85 -64.95,-58.03 -135.51,-132.34 -171.28,-206.65 0,0 38.59,-318.91 -92.44,-490.89 0,0 -48.67,790.75 74.8,890.71 58.79,58.79 99.95,0 99.95,0 0,0 -5.19,241.06 135.58,299.86 87.85,35.27 152.52,23.52 152.52,23.52 0,0 58.56,88.19 217.43,88.19 158.87,0 217.43,-88.19 217.43,-88.19 0,0 64.68,11.75 152.53,-23.52 140.76,-58.8 135.57,-299.86 135.57,-299.86 0,0 41.16,58.79 99.95,0 123.48,-99.96 74.8,-890.71 74.8,-890.71z"/>
    <g>
     <path class="fil3" d="M3588.33 4164.36c-68.09,47.63 -138.64,91.37 -212.02,130.89l136.88 -746.13 75.14 615.24z"/>
     <path class="fil3" d="M1195.44 4295.25c-73.38,-39.52 -143.94,-83.26 -212.02,-130.53l75.14 -615.6 136.88 746.13z"/>
    </g>
    <g>
     <g>
      <path class="fil5" d="M2252.74 1624.21l0 403.6 68.39 0c117.26,0 -46.62,-357.23 -68.39,-403.6z"/>
     </g>
     <g>
      <g>
       <path class="fil6" d="M2750.06 1466.96c-94.53,-46.71 -199.62,-53.64 -298.16,-14.46 -41.75,16.6 -23.57,84.86 18.75,68.04 80.74,-32.11 165.31,-31.43 243.8,7.34 40.64,20.08 76.4,-40.77 35.61,-60.92z"/>
       <path class="fil7" d="M2664.95 1624.21c0,36.75 -29.79,66.53 -66.54,66.53 -36.74,0 -66.54,-29.78 -66.54,-66.53 0,-36.75 29.8,-66.54 66.54,-66.54 36.75,0 66.54,29.79 66.54,66.54z"/>
      </g>
      <g>
       <path class="fil6" d="M1821.68 1466.96c94.54,-46.71 199.62,-53.64 298.17,-14.46 41.75,16.6 23.56,84.86 -18.76,68.04 -80.74,-32.11 -165.31,-31.43 -243.8,7.34 -40.64,20.08 -76.4,-40.77 -35.61,-60.92z"/>
       <path class="fil7" d="M1906.79 1624.21c0,36.75 29.8,66.53 66.54,66.53 36.75,0 66.54,-29.78 66.54,-66.53 0,-36.75 -29.79,-66.54 -66.54,-66.54 -36.74,0 -66.54,29.79 -66.54,66.54z"/>
      </g>
     </g>
     <path class="fil8" d="M2069.07 2185.45c23.45,87.57 111.49,152.75 216.8,152.75 105.31,0 193.35,-65.18 216.8,-152.75l-433.6 0z"/>
    </g>
   </g>
  </g>
 </g>
</svg>
