<?xml version="1.0" encoding="UTF-8"?>
<!DOCTYPE svg PUBLIC "-//W3C//DTD SVG 1.1//EN" "http://www.w3.org/Graphics/SVG/1.1/DTD/svg11.dtd">
<!-- Creator: CorelDRAW -->
<svg xmlns="http://www.w3.org/2000/svg" xml:space="preserve" width="45.717mm" height="45.717mm" version="1.1" style="shape-rendering:geometricPrecision; text-rendering:geometricPrecision; image-rendering:optimizeQuality; fill-rule:evenodd; clip-rule:evenodd"
viewBox="0 0 4571.7 4571.7"
 xmlns:xlink="http://www.w3.org/1999/xlink"
 xmlns:xodm="http://www.corel.com/coreldraw/odm/2003">
 <defs>
  <style type="text/css">
   <![CDATA[
    .fil0 {fill:none}
    .fil4 {fill:#051633;fill-rule:nonzero}
    .fil1 {fill:#D6E9F0;fill-rule:nonzero}
    .fil3 {fill:#F27967;fill-rule:nonzero}
    .fil2 {fill:#F69779;fill-rule:nonzero}
    .fil6 {fill:#FF853B;fill-rule:nonzero}
    .fil5 {fill:#FFA33B;fill-rule:nonzero}
    .fil7 {fill:white;fill-rule:nonzero}
   ]]>
  </style>
 </defs>
 <g id="Camada_x0020_1">
  <metadata id="CorelCorpID_0Corel-Layer"/>
  <rect class="fil0" x="-0.15" y="0.15" width="4571.7" height="4571.7"/>
  <g id="_2060192898736">
   <path class="fil1" d="M4571.52 2286.17c0,655.81 -276.22,1247.07 -718.61,1663.7 -128.76,121.35 -271.64,227.89 -425.8,317.15 -22.93,13.05 -46.21,25.75 -69.85,38.1 -53.62,28.92 -108.66,55.38 -165.1,79.72 -277.99,120.3 -584.55,186.98 -906.64,186.98 -308.33,0 -602.19,-61.03 -870.65,-171.81 -63.5,-26.1 -125.24,-55.03 -185.57,-86.43 -201.78,-105.48 -385.93,-239.89 -546.8,-398.64 -421.57,-414.51 -682.63,-990.95 -682.63,-1628.77 0,-1262.59 1023.41,-2286 2285.65,-2286 1262.59,0 2286,1023.41 2286,2286z"/>
   <g>
    <g>
     <g>
      <g>
       <path class="fil2" d="M3852.91 3949.87c-128.76,121.35 -271.64,227.89 -425.8,317.15 -22.93,13.05 -46.21,25.75 -69.85,38.1 -53.62,28.92 -108.66,55.38 -165.1,79.72 -277.99,120.3 -584.55,186.98 -906.64,186.98 -308.33,0 -602.19,-61.03 -870.65,-171.81 -63.5,-26.1 -125.24,-55.03 -185.57,-86.43 -201.78,-105.48 -385.93,-239.89 -546.8,-398.64 115.71,-162.98 277.64,-289.98 467.08,-363l210.6 -81.14c198.27,-76.2 360.54,-218.37 462.5,-397.94l4.58 -8.11c3.88,-7.06 7.41,-14.11 11.29,-21.17 1.41,-2.47 2.47,-4.94 3.88,-7.76 25.75,-50.45 46.92,-103.36 63.15,-158.75 5.64,-19.75 10.94,-40.22 15.17,-60.68 0.7,-2.47 1.06,-5.29 1.76,-7.76l44.81 -217.31 0 -0.35 3.17 -14.47 34.57 -166.51 501.65 0 37.4 181.33 45.15 217.31c0.71,2.47 1.06,5.29 1.77,7.76 0.7,3.53 1.41,6.71 2.47,10.23 16.58,73.38 41.98,143.58 75.84,209.2 2.12,4.23 4.24,8.47 6.71,12.7 2.11,3.53 3.52,7.06 5.99,11.29l7.06 13.05c15.17,26.46 31.4,51.86 49.03,76.56 43.75,62.08 95.61,118.53 154.17,167.92 76.2,64.2 163.69,116.77 259.29,153.46l210.61 81.14c202.85,77.96 374.3,218.01 490.71,397.93z"/>
      </g>
     </g>
     <g>
      <path class="fil3" d="M2593.5 2826.62c-62.45,12.7 -103.72,12.7 -103.72,12.7 0,0 -311.15,0 -519.29,-262.82l34.57 -166.51 501.65 0 82.55 398.64c0.71,2.47 1.06,5.29 1.77,7.76 0.7,3.53 1.41,6.71 2.47,10.23z"/>
     </g>
     <path class="fil4" d="M2503.82 781.11l-0.01 0.01c-74.88,-47.66 -209.95,-102.21 -435.95,-102.21 -271.2,0 -438.77,163.16 -538.54,326.32 -87.05,142.36 -131.18,306.82 -135.96,473.61l-12.3 429.9c-8.96,313 -30.52,888.07 395.76,789.83l0 -412.49 961.26 -168.22 0 1237.75c382.12,-47.25 577.73,-390.85 577.73,-706.74l0 -1158.57c0,-824.49 -811.99,-709.19 -811.99,-709.19z"/>
     <g>
      <path class="fil2" d="M2936.04 1643.41c-53.27,-614.89 -658.28,-620.19 -679.45,-620.19 -0.35,0 -0.7,0 -0.7,0 0,0 -0.36,0 -0.71,0 -21.16,0 -626.18,5.3 -679.45,620.19l-6.04 221.06c-3.55,130.31 17.54,261.17 70.63,380.23 188.39,422.47 615.57,422.47 615.57,422.47 0,0 427.18,0 615.56,-422.47 53.09,-119.06 74.19,-249.92 70.63,-380.23l-6.04 -221.06z"/>
     </g>
     <path class="fil5" d="M3852.91 3949.87c-128.76,121.35 -271.64,227.89 -425.8,317.15 -22.93,13.05 -46.21,25.75 -69.85,38.1 -53.62,28.92 -108.66,55.38 -165.1,79.72 -277.99,120.3 -584.55,186.98 -906.64,186.98 -308.33,0 -602.19,-61.03 -870.65,-171.81 -63.5,-26.1 -125.24,-55.03 -185.57,-86.43 -201.78,-105.48 -385.93,-239.89 -546.8,-398.64 115.71,-162.98 277.64,-289.98 467.08,-363l210.6 -81.14c198.27,-76.2 360.54,-218.37 462.5,-397.94l4.58 -8.11c5.29,-8.11 8.12,-14.11 11.29,-21.17 1.41,-2.47 2.47,-4.94 3.88,-7.76 2.82,-42.33 -24.34,-90.66 -23.63,-138.99 0.35,-16.58 3.52,-33.16 12.7,-49.74 7.05,-12.7 40.21,-22.94 89.25,-30.7 87.13,-13.75 224.72,-20.46 359.13,-19.4l0.35 0c118.53,0.35 234.24,7.06 310.8,19.4 49.03,7.76 82.19,18 89.25,30.7 35.63,64.2 -14.82,131.58 -10.94,188.73 2.12,4.23 4.24,8.47 6.71,12.7 2.11,3.53 3.52,7.06 5.99,11.29l7.06 13.05c15.17,26.46 31.4,51.86 49.03,76.56 43.75,62.08 95.61,118.53 154.17,167.92 76.2,64.2 163.69,116.77 259.29,153.46l210.61 81.14c202.85,77.96 374.3,218.01 490.71,397.93z"/>
     <path class="fil4" d="M2522.44 951.74c-210.67,368.76 -602.51,608.35 -1013.64,714.84 -26.28,-138.46 55.43,-281.4 142.93,-391.87 104.5,-131.94 228.5,-253.38 381.48,-323.55 152.98,-70.17 341.07,-79.27 489.23,0.58z"/>
     <path class="fil4" d="M2381.89 961.2c17.57,70.7 66.6,128.87 116.03,182.39 155.18,168.04 334.6,321.45 549.3,400.32 14.56,-168.97 -77.32,-338.19 -202.89,-452.19 -119.88,-108.83 -305.59,-170.7 -462.44,-130.52z"/>
     <path class="fil6" d="M3852.91 3949.87c-128.76,121.35 -271.64,227.89 -425.8,317.15 -22.93,13.05 -46.21,25.75 -69.85,38.1 -21.87,-184.15 -79.02,-364.42 -170.04,-527.05 -27.87,-49.75 -58.91,-98.08 -99.48,-138.65 -55.74,-54.68 -126.3,-92.07 -192.62,-133.35 -113.95,-71.61 -218.37,-158.04 -308.68,-256.47 -43.74,-47.27 -85.37,-99.83 -98.07,-162.27 -6,-27.52 -5.65,-56.09 -13.76,-83.26 -17.99,-62.44 -77.61,-107.24 -141.11,-127 -63.5,-19.4 -131.59,-18.34 -198.26,-16.58 -76.56,1.76 -154.52,3.88 -229.66,16.58 -29.28,4.59 -58.56,10.94 -86.78,19.76 0.35,-16.58 3.52,-33.16 12.7,-49.74 7.05,-12.7 40.21,-22.94 89.25,-30.7 87.13,-13.75 224.72,-20.46 359.13,-19.4 118.53,0.35 234.59,7.06 311.15,19.4 49.03,7.76 82.19,18 89.25,30.7 35.63,64.2 -14.82,131.58 -10.94,188.73 2.12,4.23 4.24,8.47 6.71,12.7 2.11,3.53 3.52,7.06 5.99,11.29l7.06 13.05c15.17,26.46 31.4,51.86 49.03,76.56 43.75,62.08 95.61,118.53 154.17,167.92 76.2,64.2 163.69,116.77 259.29,153.46l210.61 81.14c202.85,77.96 374.3,218.01 490.71,397.93z"/>
     <path class="fil6" d="M2002.62 2932.5c-2.33,-22.39 -37.63,-22.62 -35.28,0 8.21,78.93 -7.41,153.76 -47.47,222.38 -11.49,19.69 19.01,37.44 30.47,17.81 42.93,-73.55 61.09,-155.4 52.28,-240.19z"/>
     <path class="fil6" d="M2151.92 2921.14c-3.82,-22.39 -37.81,-12.86 -34.02,9.38 12.47,73.19 0.9,144.84 -33.29,210.66 -10.47,20.16 19.97,38 30.46,17.81 38.86,-74.83 51,-154.79 36.85,-237.85z"/>
     <path class="fil6" d="M2246.45 2938.32l0 229.93c0,22.75 35.28,22.75 35.28,0l0 -229.93c0,-22.74 -35.28,-22.74 -35.28,0z"/>
     <path class="fil6" d="M2472.23 3145.26c-51.58,-55.73 -79.58,-124.64 -81.64,-200.55 -0.62,-22.7 -35.9,-22.76 -35.28,0 2.32,85.33 34,162.86 91.98,225.5 15.48,16.72 40.37,-8.29 24.94,-24.95z"/>
     <g>
      <path class="fil6" d="M1414.87 4400.01c-63.5,-26.1 -125.24,-55.03 -185.57,-86.43l166.52 -503.76 19.05 590.19z"/>
      <path class="fil6" d="M3427.11 4267.02c-22.93,13.05 -46.21,25.75 -69.85,38.1 -53.62,28.92 -108.66,55.38 -165.1,79.72 30.34,-188.73 32.1,-389.46 -4.94,-606.77 148.17,111.47 213.43,283.28 239.89,488.95z"/>
     </g>
    </g>
    <g>
     <g>
      <path class="fil3" d="M2222.75 1740.83l0 403.6 68.4 0c117.26,0 -46.63,-357.23 -68.4,-403.6z"/>
     </g>
     <g>
      <g>
       <path class="fil4" d="M2720.08 1583.58c-94.54,-46.7 -199.62,-53.64 -298.17,-14.46 -41.75,16.61 -23.56,84.86 18.76,68.04 80.74,-32.11 165.31,-31.43 243.8,7.34 40.64,20.08 76.4,-40.77 35.61,-60.92z"/>
       <path class="fil4" d="M2634.97 1709.29c-21.48,-37.26 -66.54,-35 -66.54,-35 -36.75,0 -66.54,29.79 -66.54,66.54 0,36.75 29.79,66.53 66.54,66.53 8.1,0 15.77,-1.65 22.96,-4.31l0.04 0.18c0.43,-0.15 0.73,-0.4 1.16,-0.55 2.15,-0.84 4.15,-1.91 6.19,-2.96 58.18,-25.23 64.38,-89.82 64.38,-89.82 -11.61,9.77 -28.19,-0.61 -28.19,-0.61z"/>
      </g>
      <g>
       <path class="fil4" d="M1791.7 1583.58c94.53,-46.7 199.62,-53.64 298.16,-14.46 41.75,16.61 23.57,84.86 -18.75,68.04 -80.74,-32.11 -165.31,-31.43 -243.8,7.34 -40.64,20.08 -76.41,-40.77 -35.61,-60.92z"/>
       <path class="fil4" d="M1876.81 1709.29c21.47,-37.26 66.54,-35 66.54,-35 36.74,0 66.54,29.79 66.54,66.54 0,36.75 -29.8,66.53 -66.54,66.53 -8.11,0 -15.78,-1.65 -22.96,-4.31l-0.04 0.18c-0.44,-0.15 -0.73,-0.4 -1.16,-0.55 -2.15,-0.84 -4.16,-1.91 -6.19,-2.96 -58.19,-25.23 -64.38,-89.82 -64.38,-89.82 11.6,9.77 28.19,-0.61 28.19,-0.61z"/>
      </g>
     </g>
     <path class="fil7" d="M2039.09 2288.61c23.45,87.57 111.49,152.76 216.8,152.76 105.31,0 193.35,-65.19 216.8,-152.76l-433.6 0z"/>
    </g>
   </g>
  </g>
 </g>
</svg>
