<?xml version="1.0" encoding="UTF-8"?>
<!DOCTYPE svg PUBLIC "-//W3C//DTD SVG 1.1//EN" "http://www.w3.org/Graphics/SVG/1.1/DTD/svg11.dtd">
<!-- Creator: CorelDRAW -->
<svg xmlns="http://www.w3.org/2000/svg" xml:space="preserve" width="45.717mm" height="45.717mm" version="1.1" style="shape-rendering:geometricPrecision; text-rendering:geometricPrecision; image-rendering:optimizeQuality; fill-rule:evenodd; clip-rule:evenodd"
viewBox="0 0 4571.7 4571.7"
 xmlns:xlink="http://www.w3.org/1999/xlink"
 xmlns:xodm="http://www.corel.com/coreldraw/odm/2003">
 <defs>
  <style type="text/css">
   <![CDATA[
    .fil0 {fill:none}
    .fil6 {fill:#051633;fill-rule:nonzero}
    .fil7 {fill:#708E26;fill-rule:nonzero}
    .fil5 {fill:#A1CC36;fill-rule:nonzero}
    .fil8 {fill:#BFDF6B;fill-rule:nonzero}
    .fil1 {fill:#D6E9F0;fill-rule:nonzero}
    .fil4 {fill:#F27967;fill-rule:nonzero}
    .fil3 {fill:#F69779;fill-rule:nonzero}
    .fil2 {fill:white;fill-rule:nonzero}
   ]]>
  </style>
 </defs>
 <g id="Camada_x0020_1">
  <metadata id="CorelCorpID_0Corel-Layer"/>
  <rect class="fil0" x="-0.15" y="0.15" width="4571.7" height="4571.7"/>
  <g id="_2060281989280">
   <path class="fil1" d="M4571.52 2286.01c0,563.72 -203.9,1079.49 -541.87,1477.77 -138.28,162.99 -299.15,306.57 -477.66,425.45 -62.09,41.63 -126.64,80.08 -192.97,115.36 -244.12,130.18 -515.05,217.66 -802.21,251.53 -88.9,10.58 -179.57,15.88 -271.29,15.88 -111.83,0 -221.9,-8.12 -329.49,-23.64 -291.4,-41.98 -564.8,-138.99 -809.63,-280.11l-0.35 0c-62.44,-35.98 -123.12,-74.78 -181.68,-116.41 -173.92,-123.83 -329.85,-270.94 -463.2,-437.09 -313.62,-391.23 -501.3,-887.95 -501.3,-1428.74 0,-1262.6 1023.41,-2286 2285.65,-2286 1262.59,0 2286,1023.4 2286,2286z"/>
   <g>
    <g>
     <path class="fil2" d="M4029.65 3763.78c-138.28,162.99 -299.15,306.57 -477.66,425.45 -62.09,41.63 -126.64,80.08 -192.97,115.36 -244.12,130.18 -515.05,217.66 -802.21,251.53 -88.9,10.58 -179.57,15.88 -271.29,15.88 -111.83,0 -221.9,-8.12 -329.49,-23.64 -291.4,-41.98 -564.8,-138.99 -809.63,-280.11l-0.35 0c-62.44,-35.98 -123.12,-74.78 -181.68,-116.41 -173.92,-123.83 -329.85,-270.94 -463.2,-437.09 0.35,-1.41 1.06,-2.47 1.77,-3.88 4.23,-9.53 8.46,-18.7 13.05,-27.52 3.53,-7.41 7.41,-14.82 11.64,-21.87 1.41,-3.18 3.17,-6.35 5.29,-9.53 3.53,-6.35 7.41,-12.7 11.29,-18.7 3.17,-5.29 6.35,-10.23 9.52,-15.16 6,-9.18 12.7,-18.35 19.41,-27.17 5.64,-8.11 11.64,-15.87 17.99,-23.28 6,-7.41 12.35,-14.82 18.7,-21.87 1.76,-2.12 3.88,-4.24 5.64,-6 7.06,-7.76 14.46,-15.52 22.23,-22.93 1.05,-1.06 1.76,-1.77 2.47,-2.47 7.4,-7.06 15.16,-14.11 22.93,-20.82 8.82,-7.76 17.64,-15.16 26.81,-22.22 7.41,-6 15.17,-11.64 22.93,-16.93 10.23,-7.41 20.46,-14.47 31.39,-20.82 6,-3.88 12.35,-7.76 19.06,-11.29 19.05,-11.29 38.8,-21.16 59.26,-29.98 7.06,-3.18 13.76,-6 20.82,-8.82 10.58,-4.24 21.16,-8.12 32.1,-11.64 10.58,-3.53 21.16,-7.06 32.1,-9.88l547.87 -151.34 18.34 -4.94 111.83 -31.05 63.85 -17.64 24.34 -6.7 1164.17 0 24.34 6.7 63.86 17.64 111.83 31.05 18.34 4.94 547.86 151.34c201.79,55.74 359.84,207.78 425.45,401.81z"/>
     <g>
      <path class="fil3" d="M2862.31 3157c-135.11,178.16 -356.3,294.22 -606.42,294.22 -250.12,0 -471.31,-116.06 -606.43,-294.22l174.27 -48.33 65.97 -370.41 47.28 -264.59 318.91 124.89 318.91 -124.89 103.72 581.38 9.52 53.62 174.27 48.33z"/>
     </g>
     <g>
      <path class="fil4" d="M2678.52 3055.05c-115.72,40.92 -205.67,40.92 -205.67,40.92 0,0 -382.06,0 -583.15,-357.71l47.28 -264.59 318.91 124.89 318.91 -124.89 103.72 581.38z"/>
     </g>
     <g>
      <g>
       <path class="fil5" d="M4029.65 3763.78c-138.28,162.99 -299.15,306.57 -477.66,425.45 -62.09,41.63 -126.64,80.08 -192.97,115.36 -244.12,130.18 -515.05,217.66 -802.21,251.53 -46.57,-328.79 10.23,-686.15 10.23,-686.15 0,-38.81 6.35,-84.67 16.93,-133.35 39.86,-189.44 138.29,-419.45 138.29,-419.45l27.16 -19.05 176.75 -123.48 111.83 31.05 18.34 4.94 547.86 151.34c201.79,55.74 359.84,207.78 425.45,401.81z"/>
       <path class="fil5" d="M1956.03 4548.36c-291.4,-41.98 -564.8,-138.99 -809.63,-280.11l-0.35 0c-62.44,-35.98 -123.12,-74.78 -181.68,-116.41 -173.92,-123.83 -329.85,-270.94 -463.2,-437.09 0.35,-1.41 1.06,-2.47 1.77,-3.88 4.23,-9.53 8.46,-18.7 13.05,-27.52 3.53,-7.41 7.41,-14.82 11.64,-21.87 1.41,-3.18 3.17,-6.35 5.29,-9.53 3.53,-6.35 7.41,-12.7 11.29,-18.7 3.17,-5.29 6.35,-10.23 9.52,-15.16 6,-9.18 12.7,-18.35 19.41,-27.17 5.64,-8.11 11.64,-15.87 17.99,-23.28 6,-7.41 12.35,-14.82 18.7,-21.87 1.76,-2.12 3.88,-4.24 5.64,-6 7.06,-7.76 14.46,-15.52 22.23,-22.93 1.05,-1.06 1.76,-1.77 2.47,-2.47 7.4,-7.06 15.16,-14.11 22.93,-20.82 8.82,-7.76 17.64,-15.16 26.81,-22.22 7.41,-6 15.17,-11.64 22.93,-16.93 10.23,-7.41 20.46,-14.47 31.39,-20.82 6,-3.88 12.35,-7.76 19.06,-11.29 19.05,-11.29 38.8,-21.16 59.26,-29.98 7.06,-3.18 13.76,-6 20.82,-8.82 10.58,-4.24 21.16,-8.12 32.1,-11.64 10.58,-3.53 21.16,-7.06 32.1,-9.88l547.87 -151.34 18.34 -4.94 111.83 -31.05 176.74 123.48 27.17 19.05c0,0 98.42,230.01 138.28,419.45l0 0.35c10.59,48.68 16.94,94.19 16.94,133 0,0 55.74,351.72 11.29,678.39z"/>
      </g>
     </g>
     <path class="fil6" d="M2952.58 1089.15c-81.57,-152.96 -237.58,-237.6 -381.32,-284.39 -204.45,-66.57 -426.29,-66.57 -630.74,0 -143.74,46.79 -299.75,131.43 -381.33,284.39 -147.46,282.37 -122.36,721.63 -122.36,721.63l153.74 163.14 665.32 -84.42 665.32 84.42 153.74 -163.14c0,0 25.1,-439.26 -122.37,-721.63z"/>
     <g>
      <path class="fil3" d="M3117.64 1784.17c-4.28,-28.15 -14.7,-56.73 -36.19,-75.4 -19.38,-16.85 -46.03,-23.81 -71.69,-22.71 -25.65,1.11 -50.48,9.67 -73.59,20.86 0,0 -2.26,-650.36 -232.81,-657.92 -151.17,-7.56 -218.43,37.8 -447.47,37.8 -229.04,0 -296.3,-45.36 -447.48,-37.8 -230.54,7.56 -232.8,657.92 -232.8,657.92 -23.12,-11.19 -47.94,-19.75 -73.59,-20.86 -25.66,-1.1 -52.31,5.86 -71.69,22.71 -21.49,18.67 -31.91,47.25 -36.2,75.4 -8.59,56.5 4.93,116.07 37.08,163.31 32.15,47.25 79.61,82.78 135.32,95.51 98.27,687.84 689.36,687.84 689.36,687.84 0,0 591.09,0 689.35,-687.84 55.71,-12.73 103.18,-48.26 135.33,-95.51 32.15,-47.24 45.67,-106.81 37.07,-163.31z"/>
     </g>
    </g>
    <g>
     <g>
      <path class="fil7" d="M2749.33 3474.78c0,0 -144.43,167.23 -182.43,395.28l106.23 -837.44 76.2 46.88 0 395.28z"/>
      <path class="fil8" d="M2634.55 2808.7c0,0 289.62,126.37 396.04,308.81l45.98 554.91 -327.24 -197.64 -114.78 -666.08z"/>
     </g>
     <g>
      <path class="fil7" d="M1762.44 3474.78c0,0 144.43,167.23 182.44,395.28l-106.24 -837.44 -76.2 46.88 0 395.28z"/>
      <path class="fil8" d="M1877.23 2808.7c0,0 -289.62,126.37 -396.04,308.81l-45.98 554.91 327.23 -197.64 114.79 -666.08z"/>
     </g>
    </g>
    <path class="fil6" d="M1441.09 1576.74c0,0 -74.51,-621.25 321.06,-895.37l0 107.57c0,0 423.33,-405.98 995.87,-142.27l-117.97 41.64c0,0 253.3,6.94 385.16,180.44l-124.92 6.94c0,0 156.15,58.99 194.32,232.48l-117.98 -60.02c0,0 145.54,195.96 97.05,576.69l-211.37 -544.43 -97.35 -100.62 -479.28 -55.52 -461.07 10.41 -175.15 113.47 -71.22 184.94 -137.15 343.65z"/>
    <g>
     <g>
      <path class="fil4" d="M2222.75 1684.01l0 403.6 68.4 0c117.26,0 -46.63,-357.23 -68.4,-403.6z"/>
     </g>
     <g>
      <g>
       <path class="fil6" d="M2720.08 1526.76c-94.54,-46.7 -199.62,-53.64 -298.17,-14.46 -41.75,16.61 -23.56,84.87 18.76,68.04 80.74,-32.11 165.31,-31.43 243.8,7.34 40.64,20.08 76.4,-40.77 35.61,-60.92z"/>
       <path class="fil6" d="M2634.97 1684.01c0,36.75 -29.79,66.54 -66.54,66.54 -36.75,0 -66.54,-29.79 -66.54,-66.54 0,-36.75 29.79,-66.54 66.54,-66.54 36.75,0 66.54,29.79 66.54,66.54z"/>
      </g>
      <g>
       <path class="fil6" d="M1791.7 1526.76c94.53,-46.7 199.62,-53.64 298.16,-14.46 41.75,16.61 23.57,84.87 -18.75,68.04 -80.74,-32.11 -165.31,-31.43 -243.8,7.34 -40.64,20.08 -76.4,-40.77 -35.61,-60.92z"/>
       <path class="fil6" d="M1876.81 1684.01c0,36.75 29.79,66.54 66.54,66.54 36.75,0 66.54,-29.79 66.54,-66.54 0,-36.75 -29.79,-66.54 -66.54,-66.54 -36.75,0 -66.54,29.79 -66.54,66.54z"/>
      </g>
     </g>
     <path class="fil2" d="M2039.09 2245.25c23.45,87.56 111.49,152.75 216.8,152.75 105.31,0 193.35,-65.19 216.8,-152.75l-433.6 0z"/>
    </g>
    <g>
     <path class="fil7" d="M3551.99 4189.23c-62.09,41.63 -126.64,80.08 -192.97,115.36l124.18 -678.04 68.79 562.68z"/>
     <path class="fil7" d="M1146.05 4268.25c-62.44,-35.98 -123.12,-74.78 -181.68,-116.41l64.2 -525.29 117.48 641.7z"/>
    </g>
   </g>
  </g>
 </g>
</svg>
