<?xml version="1.0" encoding="UTF-8"?>
<!DOCTYPE svg PUBLIC "-//W3C//DTD SVG 1.1//EN" "http://www.w3.org/Graphics/SVG/1.1/DTD/svg11.dtd">
<!-- Creator: CorelDRAW -->
<svg xmlns="http://www.w3.org/2000/svg" xml:space="preserve" width="45.717mm" height="45.717mm" version="1.1" style="shape-rendering:geometricPrecision; text-rendering:geometricPrecision; image-rendering:optimizeQuality; fill-rule:evenodd; clip-rule:evenodd"
viewBox="0 0 4571.7 4571.7"
 xmlns:xlink="http://www.w3.org/1999/xlink"
 xmlns:xodm="http://www.corel.com/coreldraw/odm/2003">
 <defs>
  <style type="text/css">
   <![CDATA[
    .fil0 {fill:none}
    .fil6 {fill:#FFF212;fill-rule:nonzero}
    .fil7 {fill:#FFC82A;fill-rule:nonzero}
    .fil8 {fill:#051633;fill-rule:nonzero}
    .fil4 {fill:#BF2D28;fill-rule:nonzero}
    .fil1 {fill:#D6E9F0;fill-rule:nonzero}
    .fil5 {fill:#EF3831;fill-rule:nonzero}
    .fil3 {fill:#F27967;fill-rule:nonzero}
    .fil2 {fill:#F69779;fill-rule:nonzero}
    .fil9 {fill:white;fill-rule:nonzero}
   ]]>
  </style>
 </defs>
 <g id="Camada_x0020_1">
  <metadata id="CorelCorpID_0Corel-Layer"/>
  <rect class="fil0" x="-0.15" y="0.15" width="4571.7" height="4571.7"/>
  <g id="_2059728761216">
   <path class="fil1" d="M4571.52 2285.82c0,644.18 -266.35,1225.91 -694.97,1641.13 -113.6,110.42 -238.48,209.19 -373.24,293.51 -58.56,37.39 -118.89,71.96 -180.98,103.36 -311.15,158.75 -663.57,248 -1036.46,248 -373.24,0 -725.66,-89.25 -1036.81,-248 -62.09,-31.75 -122.42,-65.97 -180.98,-103.36 -134.76,-84.67 -259.64,-183.09 -373.24,-293.16 -428.62,-415.57 -694.97,-997.3 -694.97,-1641.48 0,-1262.24 1023.41,-2285.64 2286,-2285.64 1262.24,0 2285.65,1023.4 2285.65,2285.64z"/>
   <g>
    <g>
     <path class="fil2" d="M3876.55 3926.95c-113.6,110.42 -238.48,209.19 -373.24,293.51 -58.56,37.39 -118.89,71.96 -180.98,103.36 -311.15,158.75 -663.57,248 -1036.46,248 -373.24,0 -725.66,-89.25 -1036.81,-248 -62.09,-31.75 -122.42,-65.97 -180.98,-103.36 -134.76,-84.67 -259.64,-183.09 -373.24,-293.16 116.07,-175.68 285.05,-312.21 484.72,-389.12l210.61 -81.13c37.39,-14.47 73.38,-31.05 107.6,-50.1 51.85,-27.87 100.18,-60.68 144.99,-97.72 41.27,-34.22 79.37,-71.96 113.94,-112.53 95.96,-113.6 164.4,-251.18 195.8,-401.82l17.28 -83.25 27.87 -134.06 20.82 -100.19 0 -0.35 16.58 -80.79 501.65 0 16.93 80.79 20.46 100.54 45.16 217.31c11.99,58.56 29.63,114.65 52.56,168.28 35.98,85.37 84.31,164.04 143.23,233.54 34.57,40.57 72.67,78.31 113.95,112.53 44.8,37.04 93.13,69.85 144.99,97.72 34.22,19.05 70.2,35.63 107.59,50.1l210.61 81.13c199.32,76.91 368.3,213.44 484.37,388.77z"/>
     <path class="fil3" d="M2671.81 2963.16c-97.37,28.92 -168.98,28.92 -168.98,28.92 0,0 -324.91,0 -533.05,-280.45l65.27 -315.39 501.65 0 82.55 398.64c11.99,58.56 29.63,114.65 52.56,168.28z"/>
     <g>
      <path class="fil4" d="M3073.98 3406.95c-16.23,10.23 -35.28,17.29 -56.09,20.11 -41.99,6 -81.14,-6.7 -109.37,-30.69 -22.22,29.98 -57.5,51.5 -99.13,55.38 -41.98,4.24 -80.78,-9.87 -107.95,-34.92 -23.28,28.93 -59.26,49.04 -101.24,51.5 -41.98,2.47 -80.08,-13.05 -106.54,-39.15 -24.34,27.87 -61.03,46.56 -103.01,47.27 -41.98,1.06 -79.38,-16.23 -104.78,-43.04 -25.4,26.81 -62.79,44.1 -104.77,43.04 -41.98,-0.71 -78.67,-19.4 -103.01,-47.27 -26.46,26.1 -64.56,41.62 -106.54,39.15 -41.98,-2.46 -77.97,-22.57 -101.25,-51.5 -27.16,25.05 -65.97,39.16 -107.95,34.92 -41.63,-3.88 -76.91,-25.4 -99.13,-55.38 -28.22,23.99 -67.38,36.69 -109.36,30.69 -20.82,-2.82 -39.87,-9.88 -56.09,-20.11 51.85,-27.87 100.18,-60.68 144.99,-97.72 41.27,-34.22 79.37,-71.96 113.94,-112.53 10.24,-1.42 20.47,-1.77 31.05,-0.71 39.86,3.88 73.38,24.34 95.95,52.92 26.82,-24.7 63.15,-39.51 103.02,-37.05 39.86,2.12 74.43,21.17 98.07,49.04 25.4,-26.1 61.38,-41.98 101.25,-41.27 39.86,0.7 75.14,18.34 99.83,45.15 24.7,-26.81 59.97,-44.45 99.84,-45.15 39.86,-0.71 75.84,15.17 101.24,41.27 23.64,-27.87 58.21,-46.92 98.08,-49.04 39.86,-2.46 76.2,12.35 103.01,37.05 22.58,-28.58 56.09,-49.04 95.95,-52.92 10.59,-1.06 20.82,-0.71 31.05,0.71 34.57,40.57 72.67,78.31 113.95,112.53 44.8,37.04 93.13,69.85 144.99,97.72z"/>
      <path class="fil5" d="M3876.55 3926.95c-113.6,110.42 -238.48,209.19 -373.24,293.51 -58.56,37.39 -118.89,71.96 -180.98,103.36 -311.15,158.75 -663.57,248 -1036.46,248 -373.24,0 -725.66,-89.25 -1036.81,-248 -62.09,-31.75 -122.42,-65.97 -180.98,-103.36 -134.76,-84.67 -259.64,-183.09 -373.24,-293.16 116.07,-175.68 285.05,-312.21 484.72,-389.12l210.61 -81.13c37.39,-14.47 73.38,-31.05 107.6,-50.1 51.85,-27.87 100.18,-60.68 144.99,-97.72 427.21,53.27 859.01,53.27 1286.23,0 44.8,37.04 93.13,69.85 144.99,97.72 34.22,19.05 70.2,35.63 107.59,50.1l210.61 81.13c199.32,76.91 368.3,213.44 484.37,388.77z"/>
     </g>
     <g>
      <path class="fil6" d="M3000.88 869.22c-83.72,-168.69 -243.82,-262.05 -391.34,-313.66 -209.83,-73.41 -437.5,-73.41 -647.33,0 -147.52,51.61 -307.63,144.97 -391.35,313.66 -151.34,311.44 -125.58,795.9 -125.58,795.9l157.78 179.94 682.81 -93.12 682.82 93.12 157.78 -179.94c0,0 25.76,-484.46 -125.59,-795.9z"/>
      <path class="fil7" d="M3003.98 2174.11c0,0 372.82,179.21 411.39,1161.82 0,0 -591.38,-452.21 -411.39,-1161.82z"/>
      <path class="fil5" d="M3074.17 2174.11c0,61.74 -50.06,111.8 -111.81,111.8 -61.74,0 -111.8,-50.06 -111.8,-111.8 0,-61.75 50.06,-111.81 111.8,-111.81 61.75,0 111.81,50.06 111.81,111.81z"/>
      <path class="fil7" d="M2285.87 1490.2l-838.53 354.86c60.14,592.69 838.53,705.77 838.53,705.77 0,0 778.39,-113.08 838.54,-705.77l-838.54 -354.86z"/>
     </g>
    </g>
    <path class="fil2" d="M3147.71 1706.56c-4.24,-27.87 -14.82,-56.44 -36.34,-75.14 -19.4,-16.93 -45.86,-23.99 -71.61,-22.93 -25.76,1.06 -50.45,9.88 -73.73,21.17 0,0 5.99,-76.2 -10.23,-183.1 -0.36,-1.05 -0.71,-2.11 -0.71,-3.52 -22.22,-139.7 -82.9,-330.56 -245.18,-472.02 -85.96,-75.52 -200.5,-137.15 -353.17,-170.01 -46.52,-10.01 -95.2,-10.01 -141.73,0 -152.74,32.85 -267.57,94.48 -353.53,170.01 -161.93,141.46 -222.6,331.61 -244.83,470.96 0,0.7 -0.35,1.06 -0.35,1.76 -16.93,108.31 -10.94,185.92 -10.94,185.92 -23.28,-11.29 -47.62,-20.11 -73.37,-21.17 -25.76,-1.06 -52.22,6 -71.62,22.93 -21.52,18.7 -32.1,47.27 -36.33,75.14 -8.47,56.8 4.93,116.07 37.04,163.34 32.1,47.27 79.72,82.9 135.46,95.6 98.08,687.92 689.33,687.92 689.33,687.92 0,0 591.26,0 689.33,-687.92 55.74,-12.7 103.36,-48.33 135.47,-95.6 32.1,-47.27 45.5,-106.54 37.04,-163.34z"/>
    <g>
     <path class="fil4" d="M1249.06 4323.82c-62.09,-31.75 -122.42,-65.97 -180.98,-103.36l81.85 -442.03 99.13 545.39z"/>
     <path class="fil4" d="M3503.31 4220.46c-58.56,37.39 -118.89,71.96 -180.98,103.36l99.13 -545.39 81.85 442.03z"/>
    </g>
    <g>
     <g>
      <path class="fil3" d="M2252.73 1643.08l0 403.6 68.4 0c117.26,0 -46.62,-357.23 -68.4,-403.6z"/>
     </g>
     <g>
      <g>
       <path class="fil8" d="M2750.06 1485.83c-94.53,-46.71 -199.62,-53.64 -298.16,-14.46 -41.75,16.6 -23.57,84.86 18.75,68.04 80.74,-32.11 165.31,-31.43 243.8,7.34 40.64,20.08 76.4,-40.77 35.61,-60.92z"/>
       <path class="fil8" d="M2664.95 1611.53c-21.48,-37.25 -66.54,-34.99 -66.54,-34.99 -36.74,0 -66.54,29.79 -66.54,66.54 0,36.75 29.8,66.53 66.54,66.53 8.11,0 15.78,-1.65 22.96,-4.31l0.04 0.18c0.44,-0.15 0.73,-0.4 1.16,-0.55 2.15,-0.84 4.16,-1.91 6.19,-2.96 58.18,-25.23 64.38,-89.83 64.38,-89.83 -11.6,9.78 -28.19,-0.61 -28.19,-0.61z"/>
      </g>
      <g>
       <path class="fil8" d="M1821.68 1485.83c94.54,-46.71 199.62,-53.64 298.17,-14.46 41.74,16.6 23.56,84.86 -18.76,68.04 -80.74,-32.11 -165.31,-31.43 -243.8,7.34 -40.64,20.08 -76.4,-40.77 -35.61,-60.92z"/>
       <path class="fil8" d="M1906.79 1611.53c21.48,-37.25 66.54,-34.99 66.54,-34.99 36.75,0 66.54,29.79 66.54,66.54 0,36.75 -29.79,66.53 -66.54,66.53 -8.11,0 -15.78,-1.65 -22.96,-4.31l-0.04 0.18c-0.43,-0.15 -0.73,-0.4 -1.16,-0.55 -2.15,-0.84 -4.15,-1.91 -6.19,-2.96 -58.18,-25.23 -64.38,-89.83 -64.38,-89.83 11.61,9.78 28.19,-0.61 28.19,-0.61z"/>
      </g>
     </g>
     <path class="fil9" d="M2069.07 2194.32c23.45,87.57 111.49,152.75 216.8,152.75 105.31,0 193.35,-65.18 216.8,-152.75l-433.6 0z"/>
    </g>
   </g>
  </g>
 </g>
</svg>
