<?xml version="1.0" encoding="UTF-8"?>
<!DOCTYPE svg PUBLIC "-//W3C//DTD SVG 1.1//EN" "http://www.w3.org/Graphics/SVG/1.1/DTD/svg11.dtd">
<!-- Creator: CorelDRAW -->
<svg xmlns="http://www.w3.org/2000/svg" xml:space="preserve" width="45.717mm" height="45.717mm" version="1.1" style="shape-rendering:geometricPrecision; text-rendering:geometricPrecision; image-rendering:optimizeQuality; fill-rule:evenodd; clip-rule:evenodd"
viewBox="0 0 4571.7 4571.7"
 xmlns:xlink="http://www.w3.org/1999/xlink"
 xmlns:xodm="http://www.corel.com/coreldraw/odm/2003">
 <defs>
  <style type="text/css">
   <![CDATA[
    .fil0 {fill:none}
    .fil8 {fill:#051633;fill-rule:nonzero}
    .fil2 {fill:#051633;fill-rule:nonzero}
    .fil6 {fill:#A80060;fill-rule:nonzero}
    .fil1 {fill:#D6E9F0;fill-rule:nonzero}
    .fil5 {fill:#E20080;fill-rule:nonzero}
    .fil7 {fill:#E44423;fill-rule:nonzero}
    .fil4 {fill:#F27967;fill-rule:nonzero}
    .fil3 {fill:#F69779;fill-rule:nonzero}
    .fil9 {fill:white;fill-rule:nonzero}
   ]]>
  </style>
 </defs>
 <g id="Camada_x0020_1">
  <metadata id="CorelCorpID_0Corel-Layer"/>
  <rect class="fil0" x="-0.15" y="0.15" width="4571.7" height="4571.7"/>
  <g id="_1912373596928">
   <path class="fil1" d="M4571.52 2286.18c0,646.64 -268.47,1230.49 -700.27,1646.41 -155.92,150.29 -333.72,278.7 -527.4,379.94 -316.44,165.81 -676.27,259.3 -1057.98,259.3 -381.7,0 -741.54,-93.49 -1057.98,-259.3 -193.67,-101.24 -371.12,-229.3 -527.4,-379.94 -431.8,-415.57 -700.62,-999.77 -700.62,-1646.41 0,-1262.59 1023.41,-2286 2286,-2286 1262.24,0 2285.65,1023.41 2285.65,2286z"/>
   <g>
    <g>
     <g>
      <path class="fil2" d="M3579.85 4005.04c-20.5,-31.19 -50.65,-55.29 -70.91,-86.63 -99.57,-154.01 83.03,-378 -15.49,-532.67 -20.23,-31.77 -50.37,-56.03 -73.96,-85.44 -49.27,-61.44 -67.48,-146.12 -47.75,-222.09 22.68,-87.3 91.99,-164.83 83.34,-254.56 -5.69,-59.02 -44.44,-108.92 -69.52,-162.76 -38.86,-83.4 -44.84,-181.28 -16.43,-268.7 27.9,-85.85 87.79,-163.95 88.03,-254.12 0.35,-131.21 -125.03,-234.75 -136.74,-365.45 -4.09,-45.56 6.13,-91.18 6.18,-136.92 0.09,-92.15 -43.66,-183.42 -115.84,-241.66 -36.35,-29.33 -80.48,-51.85 -104.8,-91.53 -38.7,-63.16 -14.98,-149.46 -52.24,-213.46 -63.89,-109.74 -241.19,-71.78 -342.84,-148.75 -76.57,-57.97 -101.43,-175.6 -191.91,-208.54 -37.35,-13.59 -79.03,-8.06 -119.68,6.32 -72.97,25.8 -153.86,25.8 -226.84,0 -40.64,-14.38 -82.33,-19.91 -119.67,-6.32 -90.49,32.94 -115.35,150.57 -191.91,208.54 -101.65,76.97 -278.95,39.01 -342.85,148.75 -37.26,64 -13.53,150.3 -52.23,213.46 -24.32,39.68 -68.45,62.2 -104.81,91.53 -72.18,58.24 -115.92,149.51 -115.84,241.66 0.05,45.74 10.27,91.36 6.19,136.92 -11.72,130.7 -137.1,234.24 -136.75,365.45 0.25,90.17 60.14,168.27 88.03,254.12 28.41,87.42 22.43,185.3 -16.42,268.7 -25.08,53.84 -63.83,103.74 -69.52,162.76 -8.66,89.73 60.66,167.26 83.33,254.56 19.73,75.97 1.53,160.65 -47.75,222.09 -23.59,29.41 -53.73,53.67 -73.96,85.44 -98.51,154.67 84.08,378.66 -15.49,532.67 -20.26,31.34 -50.41,55.44 -70.9,86.63 -20.5,31.18 -35.9,73.01 -11.36,101.2l1305.33 0 1305.33 0c24.54,-28.19 9.15,-70.02 -11.35,-101.2z"/>
     </g>
     <g>
      <path class="fil3" d="M3871.25 3932.59c-155.92,150.29 -333.72,278.7 -527.4,379.94 -316.44,165.81 -676.27,259.3 -1057.98,259.3 -381.7,0 -741.54,-93.49 -1057.98,-259.3 -193.67,-101.24 -371.12,-229.3 -527.4,-379.94 91.72,-135.82 215.55,-247.65 360.54,-325.61 38.1,-20.82 77.61,-39.16 118.53,-55.03l136.17 -52.57 74.44 -28.57c105.13,-40.57 200.38,-99.49 281.52,-172.86 141.11,-127.36 240.94,-297.75 280.81,-489.31l25.04 -121 20.11 -96.31 37.4 -181.33 501.65 0 37.39 181.33 45.16 217.31c8.82,42.69 20.81,84.32 35.63,124.53 50.8,140.76 135.46,266 245.53,365.13 81.14,73.02 176.04,131.94 281.16,172.51l5.3 2.11 69.14 26.46 136.17 52.57c40.92,15.87 80.44,34.21 118.54,55.03 144.99,77.96 268.81,189.79 360.53,325.61z"/>
     </g>
     <g>
      <g>
       <path class="fil4" d="M2654.88 2933.17c-88.9,23.99 -152.05,23.99 -152.05,23.99 0,0 -316.44,0 -525.29,-269.52l57.51 -277.64 501.65 0 82.55 398.64c8.82,42.69 20.81,84.32 35.63,124.53z"/>
      </g>
     </g>
     <g>
      <g>
       <path class="fil3" d="M3147.63 1720.49c-4.29,-28.15 -14.71,-56.73 -36.2,-75.4 -19.38,-16.85 -46.03,-23.81 -71.68,-22.71 -25.66,1.11 -50.49,9.67 -73.6,20.86 0,0 -0.33,-92.17 -13.05,-207.5 -25.24,-228.78 -218.39,-402.16 -448.56,-402.16l-437.34 0c-230.16,0 -423.32,173.38 -448.55,402.16 -12.72,115.33 -13.06,207.5 -13.06,207.5 -23.11,-11.19 -47.94,-19.75 -73.59,-20.86 -25.65,-1.1 -52.3,5.86 -71.69,22.71 -21.49,18.67 -31.9,47.25 -36.19,75.4 -8.6,56.5 4.92,116.07 37.07,163.31 32.15,47.25 79.61,82.78 135.33,95.51 98.26,687.85 689.35,687.85 689.35,687.85 0,0 591.09,0 689.36,-687.85 55.71,-12.73 103.17,-48.26 135.32,-95.51 32.15,-47.24 45.68,-106.81 37.08,-163.31z"/>
      </g>
     </g>
    </g>
    <g>
     <path class="fil2" d="M2935.73 1294.61c-70.38,-32.64 -140.77,-65.27 -211.16,-97.9 -79.13,-36.69 -178.28,-71.68 -247.44,-18.52 -55.98,43.02 -66.88,128.37 -124.82,168.73 -105.66,73.6 -265.26,-58.66 -374.32,9.83 -73.18,45.96 -75.5,153.88 -132.87,218.5 -45.39,51.15 -119.12,68.31 -168.12,116.02 -75.9,73.91 -71.28,194.9 -62.78,300.5 8.5,105.6 9.07,227.85 -70.9,297.33 -75.72,-5.4 -122.46,-69.18 -146.23,-141.28 -62.74,-190.25 -9.51,-398.25 58.77,-586.58 54.45,-150.17 120.53,-300.15 229.87,-416.6 213.7,-227.6 560.45,-287.06 867.75,-231.94 100.31,17.98 202.29,48.54 278.69,115.98 74.1,65.41 104.09,167.09 103.56,265.93z"/>
    </g>
    <path class="fil5" d="M3343.85 4312.53c-316.44,165.81 -676.27,259.3 -1057.98,259.3 -381.7,0 -741.54,-93.49 -1057.98,-259.3 16.93,-58.2 30.69,-117.12 41.98,-175.68 2.12,-10.23 3.88,-20.46 5.65,-30.69 43.74,-246.24 44.45,-480.13 40.21,-606.78l74.44 -28.57c105.13,-40.57 200.38,-99.49 281.52,-172.86 -56.8,798.68 614.18,681.21 614.18,681.21 0,0 670.98,117.47 614.54,-680.86 81.14,73.02 176.04,131.94 281.16,172.51l5.3 2.11 69.14 26.46c-4.23,126.65 -3.88,360.54 39.86,606.78 12.35,68.44 28.23,138.29 47.98,206.37z"/>
    <path class="fil6" d="M3343.85 4312.53c-316.44,165.81 -676.27,259.3 -1057.98,259.3 -381.7,0 -741.54,-93.49 -1057.98,-259.3 16.93,-58.2 30.69,-117.12 41.98,-175.68 26.46,-11.64 52.92,-21.87 78.67,-30.69 206.02,-69.15 396.52,-48.33 548.92,0 215.55,68.09 355.25,190.85 355.25,190.85 138.64,-119.24 267.76,-174.27 382.41,-190.85 56.45,-8.47 109.72,-7.41 158.75,0 219.78,32.45 356.31,190.85 356.31,190.85 -9.18,-67.03 -15.53,-130.53 -19.05,-190.85 -19.05,-299.16 22.93,-515.76 55.74,-633.24l69.14 26.46c-4.23,126.65 -3.88,360.54 39.86,606.78 12.35,68.44 28.23,138.29 47.98,206.37z"/>
    <g>
     <g>
      <path class="fil4" d="M2252.74 1740.84l0 403.6 68.39 0c117.26,0 -46.62,-357.23 -68.39,-403.6z"/>
     </g>
     <g>
      <g>
       <g>
        <path class="fil7" d="M2750.06 1583.59c-94.53,-46.7 -199.62,-53.64 -298.16,-14.46 -41.75,16.61 -23.57,84.86 18.75,68.04 80.74,-32.11 165.31,-31.43 243.8,7.34 40.64,20.08 76.4,-40.77 35.61,-60.92z"/>
       </g>
       <path class="fil8" d="M2664.95 1709.3c-21.48,-37.26 -66.54,-35 -66.54,-35 -36.74,0 -66.53,29.79 -66.53,66.54 0,36.75 29.79,66.53 66.53,66.53 8.11,0 15.78,-1.65 22.96,-4.31l0.04 0.18c0.44,-0.15 0.73,-0.4 1.16,-0.55 2.15,-0.84 4.16,-1.91 6.19,-2.96 58.18,-25.23 64.38,-89.82 64.38,-89.82 -11.6,9.77 -28.19,-0.61 -28.19,-0.61z"/>
      </g>
      <g>
       <g>
        <path class="fil7" d="M1821.69 1583.59c94.53,-46.7 199.61,-53.64 298.16,-14.46 41.75,16.61 23.56,84.86 -18.76,68.04 -80.74,-32.11 -165.31,-31.43 -243.79,7.34 -40.65,20.08 -76.41,-40.77 -35.61,-60.92z"/>
       </g>
       <path class="fil8" d="M1906.8 1709.3c21.47,-37.26 66.53,-35 66.53,-35 36.75,0 66.54,29.79 66.54,66.54 0,36.75 -29.79,66.53 -66.54,66.53 -8.1,0 -15.77,-1.65 -22.96,-4.31l-0.04 0.18c-0.43,-0.15 -0.73,-0.4 -1.16,-0.55 -2.15,-0.84 -4.15,-1.91 -6.19,-2.96 -58.18,-25.23 -64.38,-89.82 -64.38,-89.82 11.61,9.77 28.2,-0.61 28.2,-0.61z"/>
      </g>
     </g>
     <path class="fil9" d="M2069.07 2288.62c23.45,87.57 111.49,152.76 216.8,152.76 105.31,0 193.35,-65.19 216.8,-152.76l-433.6 0z"/>
    </g>
   </g>
  </g>
 </g>
</svg>
