<?xml version="1.0" encoding="UTF-8"?>
<!DOCTYPE svg PUBLIC "-//W3C//DTD SVG 1.1//EN" "http://www.w3.org/Graphics/SVG/1.1/DTD/svg11.dtd">
<!-- Creator: CorelDRAW -->
<svg xmlns="http://www.w3.org/2000/svg" xml:space="preserve" width="45.717mm" height="45.717mm" version="1.1" style="shape-rendering:geometricPrecision; text-rendering:geometricPrecision; image-rendering:optimizeQuality; fill-rule:evenodd; clip-rule:evenodd"
viewBox="0 0 4571.7 4571.7"
 xmlns:xlink="http://www.w3.org/1999/xlink"
 xmlns:xodm="http://www.corel.com/coreldraw/odm/2003">
 <defs>
  <style type="text/css">
   <![CDATA[
    .fil0 {fill:none}
    .fil6 {fill:#051633;fill-rule:nonzero}
    .fil3 {fill:#3D3836;fill-rule:nonzero}
    .fil7 {fill:#9C7572;fill-rule:nonzero}
    .fil2 {fill:#BC938E;fill-rule:nonzero}
    .fil1 {fill:#D6E9F0;fill-rule:nonzero}
    .fil5 {fill:#F27967;fill-rule:nonzero}
    .fil4 {fill:#F69779;fill-rule:nonzero}
    .fil8 {fill:white;fill-rule:nonzero}
   ]]>
  </style>
 </defs>
 <g id="Camada_x0020_1">
  <metadata id="CorelCorpID_0Corel-Layer"/>
  <rect class="fil0" x="-0.15" y="0.15" width="4571.7" height="4571.7"/>
  <g id="_2060368776192">
   <path class="fil1" d="M4571.69 2285.82c0,541.16 -188.03,1038.58 -503.06,1430.16 -155.58,194.74 -342.9,363.01 -553.51,497.42 -66.68,42.69 -135.82,81.85 -207.08,117.48 -307.63,154.16 -654.76,240.94 -1022.34,240.94 -367.6,0 -714.73,-86.78 -1022.35,-240.94 -71.27,-35.63 -140.41,-74.79 -207.08,-117.48 -210.61,-134.41 -397.94,-302.68 -553.51,-497.42 -315.03,-391.58 -503.06,-889 -503.06,-1430.16 0,-1262.24 1023.4,-2285.64 2286,-2285.64 1262.58,0 2285.99,1023.4 2285.99,2285.64z"/>
   <g>
    <g>
     <path class="fil2" d="M4068.63 3715.98c-155.58,194.74 -342.9,363.01 -553.51,497.42 -66.68,42.69 -135.82,81.85 -207.08,117.48 -307.63,154.16 -654.76,240.94 -1022.34,240.94 -367.6,0 -714.73,-86.78 -1022.35,-240.94 -71.27,-35.63 -140.41,-74.79 -207.08,-117.48 -210.61,-134.41 -397.94,-302.68 -553.51,-497.42 58.91,-208.13 222.6,-372.88 434.62,-431.44l345.02 -95.25 0.35 0 202.49 -56.09 368.3 -101.96 56.09 -314.68 25.76 -143.93 4.58 -27.16 26.81 -149.23 318.92 124.89 318.9 -124.89 26.81 149.23 30.34 171.09 27.16 152.41 28.93 162.27 368.3 101.96 202.49 56.09 0.36 0 345.01 95.25c212.02,58.56 375.71,223.31 434.63,431.44z"/>
     <g>
      <g>
       <g>
        <g>
         <path class="fil3" d="M2738.3 4413.8c-0.03,0 -0.07,0 -0.1,0 -9.75,-0.06 -17.61,-7.99 -17.54,-17.74 1.18,-218 -118.41,-432.08 -304.68,-545.39 -8.34,-5.06 -10.96,-15.92 -5.89,-24.22 5.06,-8.37 15.98,-10.99 24.22,-5.89 196.61,119.58 322.87,345.58 321.63,575.71 -0.07,9.72 -7.92,17.53 -17.64,17.53z"/>
        </g>
       </g>
       <g>
        <path class="fil3" d="M2848.73 4396.16c0,60.98 -49.43,110.42 -110.41,110.42 -60.98,0 -110.42,-49.44 -110.42,-110.42 0,-60.98 49.44,-110.41 110.42,-110.41 60.98,0 110.41,49.43 110.41,110.41z"/>
       </g>
      </g>
      <g>
       <g>
        <g>
         <path class="fil3" d="M1833.06 4413.8c-9.7,0 -17.58,-7.81 -17.64,-17.53 -1.24,-230.13 125.03,-456.13 321.65,-575.71 8.34,-5.1 19.2,-2.45 24.24,5.89 5.07,8.3 2.41,19.16 -5.91,24.22 -186.27,113.31 -305.87,327.39 -304.7,545.39 0.05,9.75 -7.8,17.68 -17.53,17.74 -0.04,0 -0.07,0 -0.11,0z"/>
        </g>
       </g>
       <g>
        <path class="fil3" d="M1722.65 4396.16c0,60.98 49.44,110.42 110.41,110.42 60.99,0 110.42,-49.44 110.42,-110.42 0,-60.98 -49.43,-110.41 -110.42,-110.41 -60.97,0 -110.41,49.43 -110.41,110.41z"/>
       </g>
      </g>
     </g>
     <g>
      <path class="fil3" d="M3294.24 3077.72c-69.38,-615.77 -1008.54,-275.74 -1008.54,-275.74 0,0 -939.18,-340.03 -1008.56,275.74 -56.36,500.17 1008.56,919.33 1008.56,919.33 0,0 1064.9,-419.16 1008.54,-919.33z"/>
     </g>
     <path class="fil4" d="M2717.84 3031.24c0,235.31 -864.3,235.31 -864.3,0l81.85 -458.61 31.39 -176.39 318.92 124.89 318.9 -124.89 84.31 472.73 28.93 162.27z"/>
     <path class="fil5" d="M2688.91 2868.97c-106.18,34.57 -186.27,34.57 -186.27,34.57 0,0 -362.99,0 -567.25,-330.91l31.39 -176.39 318.92 124.89 318.9 -124.89 84.31 472.73z"/>
     <path class="fil6" d="M2982.38 1011.71c-81.58,-152.96 -237.58,-237.6 -381.32,-284.4 -204.45,-66.56 -426.28,-66.56 -630.74,0 -143.74,46.8 -299.74,131.44 -381.32,284.4 -147.46,282.37 -122.36,721.62 -122.36,721.62l153.74 163.15 665.32 -84.42 665.3 84.42 153.74 -163.15c0,0 25.1,-439.25 -122.36,-721.62z"/>
     <path class="fil6" d="M2745.08 1074.61c0,0 266.69,-54.9 235.31,-145.11 -31.37,-90.2 -98.74,-46.71 -98.74,-46.71 0,0 165.42,-94.47 63.44,-168.99 -58.82,-36.41 -137.26,0 -137.26,0 0,0 117.66,-133.34 19.61,-184.33 -98.05,-50.98 -168.64,15.69 -168.64,15.69 0,0 15.69,-141.19 -86.28,-137.27 -101.97,3.92 -160.8,152.96 -160.8,152.96 0,0 -23.77,-117.66 -84.44,-113.74 -60.66,3.92 -123.41,121.58 -123.41,121.58 0,0 3.92,-168.8 -94.13,-160.88 -98.04,7.93 -137.26,196.18 -137.26,196.18 0,0 -49.62,-133.35 -118.94,-113.74 -69.31,19.61 -18.33,187.14 -18.33,187.14 0,0 -105.89,-93.01 -152.95,-34.18 -47.06,58.82 47.06,129.42 47.06,129.42 0,0 -101.97,-31.38 -117.66,43.14 -15.68,74.51 138.64,200.01 241.88,231.39l891.54 27.45z"/>
     <path class="fil4" d="M3147.44 1706.73c-4.29,-28.15 -14.7,-56.73 -36.19,-75.4 -19.39,-16.85 -46.03,-23.81 -71.69,-22.71 -25.66,1.1 -50.48,9.67 -73.59,20.86 0,0 -2.27,-650.36 -232.81,-657.92 -151.18,-7.56 -218.43,37.8 -447.46,37.8 -229.04,0 -296.3,-45.36 -447.48,-37.8 -230.54,7.56 -232.8,657.92 -232.8,657.92 -23.12,-11.19 -47.95,-19.76 -73.6,-20.86 -25.65,-1.1 -52.3,5.86 -71.68,22.71 -21.5,18.67 -31.91,47.25 -36.2,75.4 -8.6,56.5 4.92,116.07 37.07,163.31 32.16,47.25 79.62,82.78 135.33,95.51 98.27,687.85 689.36,687.85 689.36,687.85 0,0 591.08,0 689.34,-687.85 55.71,-12.73 103.18,-48.26 135.33,-95.51 32.15,-47.24 45.67,-106.81 37.07,-163.31z"/>
    </g>
    <g>
     <path class="fil7" d="M1263.35 4330.88c-71.27,-35.63 -140.41,-74.79 -207.08,-117.48l93.48 -505.53 113.6 623.01z"/>
     <path class="fil7" d="M3515.12 4213.4c-66.68,42.69 -135.82,81.85 -207.08,117.48l113.59 -623.01 93.49 505.53z"/>
    </g>
    <g>
     <g>
      <path class="fil5" d="M2252.56 1620.59l0 403.6 68.39 0c117.26,0 -46.62,-357.23 -68.39,-403.6z"/>
     </g>
     <g>
      <g>
       <path class="fil6" d="M2749.87 1463.34c-94.53,-46.7 -199.61,-53.64 -298.16,-14.46 -41.75,16.6 -23.56,84.86 18.76,68.04 80.74,-32.11 165.31,-31.44 243.8,7.34 40.64,20.07 76.4,-40.77 35.6,-60.92z"/>
       <path class="fil6" d="M2664.76 1620.59c0,36.74 -29.79,66.53 -66.53,66.53 -36.75,0 -66.54,-29.79 -66.54,-66.53 0,-36.75 29.79,-66.54 66.54,-66.54 36.74,0 66.53,29.79 66.53,66.54z"/>
      </g>
      <g>
       <path class="fil6" d="M1821.51 1463.34c94.53,-46.7 199.62,-53.64 298.16,-14.46 41.75,16.6 23.56,84.86 -18.76,68.04 -80.74,-32.11 -165.3,-31.44 -243.79,7.34 -40.64,20.07 -76.4,-40.77 -35.61,-60.92z"/>
       <path class="fil6" d="M1906.62 1620.59c0,36.74 29.79,66.53 66.54,66.53 36.75,0 66.53,-29.79 66.53,-66.53 0,-36.75 -29.78,-66.54 -66.53,-66.54 -36.75,0 -66.54,29.79 -66.54,66.54z"/>
      </g>
     </g>
     <path class="fil8" d="M2068.9 2189.07c23.45,87.57 111.49,152.76 216.8,152.76 105.29,0 193.34,-65.19 216.79,-152.76l-433.59 0z"/>
    </g>
   </g>
  </g>
 </g>
</svg>
