<?xml version="1.0" encoding="UTF-8"?>
<!DOCTYPE svg PUBLIC "-//W3C//DTD SVG 1.1//EN" "http://www.w3.org/Graphics/SVG/1.1/DTD/svg11.dtd">
<!-- Creator: CorelDRAW -->
<svg xmlns="http://www.w3.org/2000/svg" xml:space="preserve" width="45.717mm" height="45.717mm" version="1.1" style="shape-rendering:geometricPrecision; text-rendering:geometricPrecision; image-rendering:optimizeQuality; fill-rule:evenodd; clip-rule:evenodd"
viewBox="0 0 4571.7 4571.7"
 xmlns:xlink="http://www.w3.org/1999/xlink"
 xmlns:xodm="http://www.corel.com/coreldraw/odm/2003">
 <defs>
  <style type="text/css">
   <![CDATA[
    .fil0 {fill:none}
    .fil2 {fill:#051633;fill-rule:nonzero}
    .fil4 {fill:#A80060;fill-rule:nonzero}
    .fil1 {fill:#D6E9F0;fill-rule:nonzero}
    .fil3 {fill:#E20080;fill-rule:nonzero}
    .fil6 {fill:#F27967;fill-rule:nonzero}
    .fil5 {fill:#F69779;fill-rule:nonzero}
    .fil7 {fill:#FF54B5;fill-rule:nonzero}
    .fil8 {fill:white;fill-rule:nonzero}
   ]]>
  </style>
 </defs>
 <g id="Camada_x0020_1">
  <metadata id="CorelCorpID_0Corel-Layer"/>
  <rect class="fil0" x="-0.15" y="0.15" width="4571.7" height="4571.7"/>
  <g id="_2060191260496">
   <path class="fil1" d="M4571.69 2286.17c0,646.64 -268.82,1230.84 -700.62,1646.41 -85.37,82.55 -177.09,158.05 -274.46,226.13 -55.74,39.51 -113.6,76.2 -172.86,110.42 -330.2,189.8 -712.61,299.51 -1120.42,302.33 -5.99,0.36 -11.64,0.36 -17.63,0.36 -6,0 -11.65,0 -17.64,-0.36 -377.12,-2.47 -732.72,-96.66 -1045.28,-261.41 -67.38,-35.27 -132.65,-73.73 -195.8,-116.06 -117.12,-76.9 -226.13,-164.39 -326.67,-261.41 -431.8,-415.57 -700.61,-999.77 -700.61,-1646.41 0,-1262.59 1023.4,-2286 2286,-2286 1262.58,0 2285.99,1023.41 2285.99,2286z"/>
   <g>
    <g>
     <path class="fil2" d="M3559.6 2516.1c-32.07,-66.79 -82.59,-125.82 -99.12,-198.05 -15.41,-67.37 0.79,-137.39 14.28,-205.17 29.41,-147.76 44.9,-306.51 -15.5,-444.53 -65.35,-149.3 -209.31,-251.03 -284.57,-395.6 -82.17,-157.82 -76.34,-354.84 -179.19,-500.03 -101.82,-143.74 -287.03,-202.5 -462.17,-221.31 -32.94,-3.54 -68.07,-1.93 -102.81,4.18 -95.58,16.81 -194.08,16.81 -289.66,0 -34.73,-6.11 -69.87,-7.72 -102.81,-4.18 -175.14,18.81 -360.35,77.57 -462.16,221.31 -102.86,145.19 -97.03,342.21 -179.2,500.03 -75.26,144.57 -219.22,246.3 -284.56,395.6 -60.41,138.02 -44.92,296.77 -15.51,444.53 13.5,67.78 29.69,137.8 14.28,205.17 -16.52,72.23 -67.05,131.26 -99.12,198.05 -71.65,149.22 -47.38,348.06 69.67,465.1 298.9,298.91 1204.25,92.52 1204.25,92.52 0,0 905.33,206.39 1204.24,-92.52 117.04,-117.04 141.31,-315.88 69.66,-465.1z"/>
     <path class="fil3" d="M3871.07 3932.58c-85.37,82.55 -177.09,158.05 -274.46,226.13 -55.74,39.51 -113.6,76.2 -172.86,110.42 -330.2,189.8 -712.61,299.51 -1120.42,302.33 -5.99,0.36 -11.64,0.36 -17.63,0.36 -6,0 -11.65,0 -17.64,-0.36 -377.12,-2.47 -732.72,-96.66 -1045.28,-261.41 -67.38,-35.27 -132.65,-73.73 -195.8,-116.06 -117.12,-76.9 -226.13,-164.39 -326.67,-261.41 116.07,-171.45 282.58,-305.15 479.08,-380.64l210.6 -81.14c77.97,-29.99 150.29,-70.21 215.55,-118.89l0.35 -0.35c80.08,-59.27 149.23,-131.24 205.32,-213.08 17.99,-25.75 34.22,-52.56 49.39,-80.08 5.29,-9.53 10.23,-19.4 15.17,-29.28 3.88,-7.41 7.41,-14.82 10.58,-22.23 3.18,-6.35 6,-12.7 8.82,-19.4 7.41,-16.23 14.11,-32.81 20.11,-49.74 4.59,-12 8.82,-24.34 12.7,-36.69 6.7,-20.81 12.7,-41.63 17.64,-62.79 2.47,-9.88 4.94,-19.76 6.7,-29.64l12.35 -59.97 32.81 -157.34 37.39 -181.33 501.64 0 37.4 181.33 45.15 217.31c2.82,13.76 6,27.17 9.53,40.57 4.23,17.64 9.52,34.93 14.81,51.86 6.71,21.17 14.11,41.98 22.58,62.44 3.18,8.82 7.06,17.29 10.94,26.11 8.82,20.11 17.99,39.51 28.22,58.91 6,10.94 11.99,21.52 17.99,32.1 11.64,19.76 23.99,39.16 37.04,57.86 56.09,81.84 125.24,153.81 205.32,213.08 65.26,49.03 137.94,88.9 215.9,119.24l210.61 81.14c196.49,75.49 363.01,209.19 479.07,380.64z"/>
     <g>
      <path class="fil4" d="M2303.33 3774.54l0 796.92c-5.99,0.36 -11.64,0.36 -17.63,0.36 -6,0 -11.65,0 -17.64,-0.36l0 -796.92c0,-3.18 0.7,-6.35 1.76,-8.82l0 -0.35c3.18,-6.35 8.82,-10.59 15.88,-10.59 7.05,0 12.7,4.24 15.87,10.59l0 0.35c1.06,2.47 1.76,5.64 1.76,8.82z"/>
     </g>
     <g>
      <path class="fil5" d="M2723.13 3080.62c-345.37,301.98 -437.43,817.39 -437.43,817.39 0,0 -31.4,-399.7 -425.1,-839.61 42.33,-77.26 73.38,-161.22 91.72,-249.77l12.35 -59.97 70.2 -338.67 501.64 0 82.55 398.64c17.64,84.67 46.92,165.46 86.08,239.89 6,10.94 11.99,21.52 17.99,32.1z"/>
     </g>
     <g>
      <g>
       <path class="fil6" d="M2705.14 3048.52c-99.84,30.34 -173.57,30.34 -173.57,30.34 0,0 -362.29,0 -566.9,-330.2l70.2 -338.67 501.64 0 82.55 398.64c17.64,84.67 46.92,165.46 86.08,239.89z"/>
      </g>
     </g>
     <g>
      <g>
       <path class="fil5" d="M3147.44 1720.48c-4.29,-28.15 -14.71,-56.73 -36.19,-75.4 -19.39,-16.85 -46.04,-23.81 -71.69,-22.71 -25.66,1.11 -50.48,9.67 -73.59,20.86 0,0 -2.27,-650.36 -232.81,-657.92 -151.18,-7.56 -218.43,37.8 -447.46,37.8 -229.04,0 -296.3,-45.36 -447.48,-37.8 -230.54,7.56 -232.8,657.92 -232.8,657.92 -23.12,-11.19 -47.95,-19.75 -73.6,-20.86 -25.65,-1.1 -52.3,5.86 -71.68,22.71 -21.5,18.67 -31.91,47.25 -36.2,75.4 -8.6,56.5 4.92,116.07 37.07,163.31 32.16,47.25 79.62,82.78 135.33,95.51 98.27,687.85 689.36,687.85 689.36,687.85 0,0 591.08,0 689.34,-687.85 55.71,-12.73 103.18,-48.26 135.33,-95.51 32.15,-47.24 45.67,-106.81 37.07,-163.31z"/>
      </g>
     </g>
    </g>
    <g>
     <g>
      <path class="fil7" d="M2689.31 3270.67l321.49 160.78 -265.59 -468.28c0,0 -28.49,-62.9 -118.82,-62.9l62.92 370.4z"/>
      <path class="fil4" d="M2285.7 3898.01c0,0 166.36,-437.42 403.61,-627.34l-62.92 -370.4c0,0 -323.06,609.68 -340.69,997.74z"/>
     </g>
     <g>
      <path class="fil7" d="M1882.07 3270.67l-321.49 160.78 265.59 -468.28c0,0 28.5,-62.9 118.82,-62.9l-62.92 370.4z"/>
      <path class="fil4" d="M2285.7 3898.01c0,0 -166.38,-437.42 -403.63,-627.34l62.92 -370.4c0,0 323.07,609.68 340.71,997.74z"/>
     </g>
    </g>
    <g>
     <path class="fil4" d="M3596.61 4158.71c-55.74,39.51 -113.6,76.2 -172.86,110.42l119.59 -334.43 53.27 224.01z"/>
     <path class="fil4" d="M1222.78 4310.05c-67.38,-35.27 -132.65,-73.73 -195.8,-116.06l61.74 -259.29 134.06 375.35z"/>
    </g>
    <g>
     <g>
      <path class="fil6" d="M2252.56 1609.41l0 403.6 68.39 0c117.26,0 -46.62,-357.22 -68.39,-403.6z"/>
     </g>
     <g>
      <g>
       <path class="fil2" d="M2749.87 1452.16c-94.53,-46.7 -199.61,-53.64 -298.16,-14.46 -41.75,16.61 -23.56,84.87 18.76,68.04 80.74,-32.1 165.31,-31.43 243.8,7.34 40.64,20.08 76.4,-40.77 35.6,-60.92z"/>
       <path class="fil2" d="M2664.76 1577.87c-21.47,-37.26 -66.53,-35 -66.53,-35 -36.75,0 -66.54,29.79 -66.54,66.54 0,36.75 29.79,66.54 66.54,66.54 8.1,0 15.77,-1.66 22.96,-4.32l0.03 0.18c0.44,-0.14 0.74,-0.4 1.16,-0.55 2.16,-0.84 4.16,-1.91 6.2,-2.96 58.18,-25.22 64.37,-89.82 64.37,-89.82 -11.6,9.77 -28.19,-0.61 -28.19,-0.61z"/>
      </g>
      <g>
       <path class="fil2" d="M1821.51 1452.16c94.53,-46.7 199.62,-53.64 298.16,-14.46 41.75,16.61 23.56,84.87 -18.76,68.04 -80.74,-32.1 -165.3,-31.43 -243.79,7.34 -40.64,20.08 -76.41,-40.77 -35.61,-60.92z"/>
       <path class="fil2" d="M1906.62 1577.87c21.47,-37.26 66.54,-35 66.54,-35 36.75,0 66.53,29.79 66.53,66.54 0,36.75 -29.78,66.54 -66.53,66.54 -8.11,0 -15.78,-1.66 -22.97,-4.32l-0.03 0.18c-0.44,-0.14 -0.74,-0.4 -1.16,-0.55 -2.15,-0.84 -4.16,-1.91 -6.19,-2.96 -58.19,-25.22 -64.38,-89.82 -64.38,-89.82 11.6,9.77 28.19,-0.61 28.19,-0.61z"/>
      </g>
     </g>
     <path class="fil8" d="M2068.9 2227.75c23.45,87.57 111.49,152.75 216.8,152.75 105.29,0 193.34,-65.18 216.79,-152.75l-433.59 0z"/>
    </g>
   </g>
  </g>
 </g>
</svg>
