<?xml version="1.0" encoding="UTF-8"?>
<!DOCTYPE svg PUBLIC "-//W3C//DTD SVG 1.1//EN" "http://www.w3.org/Graphics/SVG/1.1/DTD/svg11.dtd">
<!-- Creator: CorelDRAW -->
<svg xmlns="http://www.w3.org/2000/svg" xml:space="preserve" width="45.717mm" height="45.717mm" version="1.1" style="shape-rendering:geometricPrecision; text-rendering:geometricPrecision; image-rendering:optimizeQuality; fill-rule:evenodd; clip-rule:evenodd"
viewBox="0 0 4571.7 4571.7"
 xmlns:xlink="http://www.w3.org/1999/xlink"
 xmlns:xodm="http://www.corel.com/coreldraw/odm/2003">
 <defs>
  <style type="text/css">
   <![CDATA[
    .fil0 {fill:none}
    .fil5 {fill:#FFC82A;fill-rule:nonzero}
    .fil6 {fill:#051633;fill-rule:nonzero}
    .fil4 {fill:#601613;fill-rule:nonzero}
    .fil3 {fill:#851F1A;fill-rule:nonzero}
    .fil1 {fill:#D6E9F0;fill-rule:nonzero}
    .fil8 {fill:#FF853B;fill-rule:nonzero}
    .fil2 {fill:#FFA33B;fill-rule:nonzero}
    .fil7 {fill:white;fill-rule:nonzero}
   ]]>
  </style>
 </defs>
 <g id="Camada_x0020_1">
  <metadata id="CorelCorpID_0Corel-Layer"/>
  <rect class="fil0" x="-0.15" y="0.15" width="4571.7" height="4571.7"/>
  <g id="_2060233680608">
   <path class="fil1" d="M4571.52 2286.18c0,542.92 -189.44,1041.75 -505.53,1433.69 -134.76,166.86 -292.45,314.68 -468.14,437.79 -61.03,43.04 -123.82,82.91 -189.09,119.6 -331.61,187.67 -714.72,294.57 -1122.89,294.57 -408.16,0 -791.28,-106.9 -1122.89,-294.57 -65.26,-36.69 -128.41,-76.56 -189.09,-119.24 -176.04,-123.47 -333.73,-270.94 -468.14,-438.15 -316.44,-391.94 -505.88,-890.77 -505.88,-1433.69 0,-1262.59 1023.41,-2286 2286,-2286 1262.24,0 2285.65,1023.41 2285.65,2286z"/>
   <g>
    <g>
     <path class="fil2" d="M4065.99 3719.87c-134.76,166.86 -292.45,314.68 -468.14,437.79 -61.03,43.04 -123.82,82.91 -189.09,119.6 -331.61,187.67 -714.72,294.57 -1122.89,294.57 -408.16,0 -791.28,-106.9 -1122.89,-294.57 -65.26,-36.69 -128.41,-76.56 -189.09,-119.24 -176.04,-123.47 -333.73,-270.94 -468.14,-438.15 61.39,-203.56 223.31,-364.07 431.8,-421.57l547.87 -151.34 368.3 -101.96 74.08 -414.86 12.35 -70.91 26.81 -149.23 268.11 105.13 50.8 19.76 50.8 -19.76 268.11 -105.13 26.81 149.23 60.33 339.02 26.1 146.75 368.3 101.96 547.87 151.34c208.49,57.5 370.41,218.01 431.8,421.57z"/>
     <g>
      <path class="fil3" d="M3086.32 3146.96c-62.08,231.77 -250.12,687.21 -800.45,921.45 -550.33,-234.24 -738.36,-689.68 -800.45,-921.45l368.3 -101.96 74.08 -414.86 39.16 -220.14 318.91 124.89 318.91 -124.89 87.14 488.25 26.1 146.75 368.3 101.96z"/>
     </g>
     <path class="fil4" d="M2691.92 2898.25c-117.48,42.33 -209.9,42.33 -209.9,42.33 0,0 -347.84,0 -554.22,-310.44l39.16 -220.14 318.91 124.89 318.91 -124.89 87.14 488.25z"/>
     <path class="fil5" d="M2982.56 1025.47c-81.57,-152.96 -237.58,-237.6 -381.32,-284.39 -204.45,-66.57 -426.29,-66.57 -630.74,0 -143.74,46.79 -299.75,131.43 -381.32,284.39 -147.46,282.37 -122.36,721.63 -122.36,721.63l153.73 163.14 665.32 -84.42 665.32 84.42 153.74 -163.14c0,0 25.1,-439.26 -122.37,-721.63z"/>
     <g>
      <path class="fil3" d="M3147.63 1720.49c-4.29,-28.15 -14.71,-56.73 -36.2,-75.4 -19.38,-16.85 -46.03,-23.81 -71.68,-22.71 -25.66,1.11 -50.49,9.67 -73.6,20.86 0,0 -2.26,-650.36 -232.8,-657.92 -151.18,-7.56 -218.43,37.8 -447.48,37.8 -229.04,0 -296.29,-45.36 -447.47,-37.8 -230.55,7.56 -232.81,657.92 -232.81,657.92 -23.11,-11.19 -47.94,-19.75 -73.59,-20.86 -25.66,-1.1 -52.3,5.86 -71.69,22.71 -21.49,18.67 -31.9,47.25 -36.19,75.4 -8.6,56.5 4.92,116.07 37.07,163.31 32.15,47.25 79.61,82.78 135.33,95.51 98.26,687.85 689.35,687.85 689.35,687.85 0,0 591.09,0 689.36,-687.85 55.71,-12.73 103.17,-48.26 135.32,-95.51 32.15,-47.24 45.68,-106.81 37.08,-163.31z"/>
     </g>
    </g>
    <path class="fil5" d="M2537.61 2512.91c0,0 -91.56,-3.21 -154.21,81.93 0,0 -8.71,-86.75 -97.53,-99.6 -88.81,12.85 -97.52,99.6 -97.52,99.6 -62.65,-85.14 -154.22,-81.93 -154.22,-81.93 -24.1,215.26 251.74,224.9 251.74,224.9 0,0 275.84,-9.64 251.74,-224.9z"/>
    <g>
     <path class="fil4" d="M2252.74 1642.59l0 403.6 68.39 0c117.26,0 -46.62,-357.23 -68.39,-403.6z"/>
     <g>
      <g>
       <path class="fil6" d="M2750.06 1485.34c-94.53,-46.7 -199.62,-53.64 -298.16,-14.46 -41.75,16.61 -23.57,84.87 18.75,68.04 80.74,-32.1 165.31,-31.43 243.8,7.34 40.64,20.08 76.4,-40.77 35.61,-60.92z"/>
       <path class="fil6" d="M2664.95 1642.59c0,36.75 -29.79,66.54 -66.54,66.54 -36.75,0 -66.54,-29.79 -66.54,-66.54 0,-36.75 29.79,-66.54 66.54,-66.54 36.75,0 66.54,29.79 66.54,66.54z"/>
      </g>
      <g>
       <g>
        <path class="fil6" d="M1821.68 1485.34c94.54,-46.7 199.62,-53.64 298.17,-14.46 41.74,16.61 23.56,84.87 -18.76,68.04 -80.74,-32.1 -165.31,-31.43 -243.8,7.34 -40.64,20.08 -76.4,-40.77 -35.61,-60.92z"/>
        <path class="fil6" d="M1906.79 1642.59c0,36.75 29.8,66.54 66.54,66.54 36.75,0 66.54,-29.79 66.54,-66.54 0,-36.75 -29.79,-66.54 -66.54,-66.54 -36.74,0 -66.54,29.79 -66.54,66.54z"/>
       </g>
      </g>
     </g>
     <path class="fil7" d="M2069.07 2239.11c23.45,87.57 111.49,152.75 216.8,152.75 105.31,0 193.35,-65.18 216.8,-152.75l-433.6 0z"/>
    </g>
    <g>
     <path class="fil8" d="M3597.85 4157.66c-61.03,43.04 -123.82,82.91 -189.09,119.6l117.83 -581.38 71.26 461.78z"/>
     <path class="fil8" d="M1162.98 4277.26c-65.26,-36.69 -128.41,-76.56 -189.09,-119.24l71.26 -462.14 117.83 581.38z"/>
    </g>
   </g>
  </g>
 </g>
</svg>
